<?xml version="1.0" encoding="UTF-8"?>
<svg width="96px" height="34px" viewBox="0 0 96 34" version="1.1" xmlns="http://www.w3.org/2000/svg" xmlns:xlink="http://www.w3.org/1999/xlink">
    <!-- Generator: Sketch 51.2 (57519) - http://www.bohemiancoding.com/sketch -->
    <title>logo-uclab-black</title>
    <desc>Created with Sketch.</desc>
    <defs></defs>
    <g id="Page-1" stroke="none" stroke-width="1" fill="none" fill-rule="evenodd">
        <g id="logo-uclab" transform="translate(48.000000, 17.000000) rotate(-90.000000) translate(-48.000000, -17.000000) translate(31.000000, -31.000000)" fill="#000000" fill-rule="nonzero">
            <g id="Group" transform="translate(0.000000, 55.000000)">
                <polygon id="Shape" points="13.6 19.9 0 9 13.6 41"></polygon>
                <polygon id="Shape" points="13.6 0 1 8.3 13.6 18.4"></polygon>
                <polygon id="Shape" points="14.7 20.8 14.7 39.7 24.5 28.7"></polygon>
            </g>
            <g id="Group" transform="translate(8.000000, 0.000000)">
                <path d="M21.7,0.5 L25.7,0.5 L25.7,1.3 L21.7,1.3 C20.6,1.3 20,2 20,3.1 C20,4.2 20.5,4.9 21.7,4.9 L25.7,4.9 L25.7,5.7 L21.7,5.7 C20.1,5.7 19.1,4.6 19.1,3.1 C19.2,1.6 20.1,0.5 21.7,0.5" id="Shape"></path>
                <path d="M22.8,11 C22.8,11.9 23.2,12.3 23.9,12.3 C24.6,12.3 25,11.9 25,11 L25,10 L22.8,10 L22.8,11 Z M22.1,10.7 L22.1,10 L19.3,10 L19.3,9.2 L25.7,9.2 L25.7,11.1 C25.7,12.4 25,13.2 23.9,13.2 C23,13.2 22.3,12.6 22.1,11.7 L19.2,14 L19.2,13 L22.1,10.7 Z" id="Shape"></path>
                <path d="M20,19.1 C20,20 20.5,20.4 21.1,20.4 C21.7,20.4 22.2,20 22.2,19.1 L22.2,17.6 L20,17.6 L20,19.1 Z M22.9,18.9 C22.9,19.6 23.3,20 23.9,20 C24.4,20 24.9,19.6 24.9,18.9 L24.9,17.6 L22.9,17.6 L22.9,18.9 Z M25.7,16.7 L25.7,18.9 C25.7,20.2 24.9,20.8 24,20.8 C23.4,20.8 22.9,20.5 22.6,20.1 C22.3,20.7 21.8,21.2 21,21.2 C19.8,21.2 19.2,20.3 19.2,18.9 L19.2,16.6 L25.7,16.7 Z" id="Shape"></path>
                <path d="M21.7,25.3 L21.7,28.1 L24.9,28.1 L24.9,26.9 L21.7,25.3 Z M25.7,26.4 L25.7,28.9 L19.2,28.9 L19.2,28.1 L20.9,28.1 L20.9,25 L19.2,24.2 L19.2,23.3 L25.7,26.4 Z" id="Shape"></path>
                <polygon id="Shape" points="25.8 32.4 19.2 32.4 19.2 33.3 24 33.3 20.5 37.1 19.2 37.1 19.2 37.9 25.7 37.9 25.7 37.1 21.6 37.1"></polygon>
                <path d="M13.3,0 C15.2,0 16.6,1.5 16.6,3.3 C16.6,4.1 16.3,4.8 15.8,5.4 L15.2,4.9 C15.6,4.5 15.8,3.9 15.8,3.3 C15.8,1.9 14.7,0.8 13.3,0.8 C11.9,0.8 10.8,1.8 10.8,3.3 C10.8,3.9 11.1,4.5 11.4,4.9 L10.8,5.4 C10.3,4.8 10,4.1 10,3.3 C10,1.4 11.4,0 13.3,0" id="Shape"></path>
                <path d="M13.3,13.7 C14.7,13.7 15.8,12.7 15.8,11.2 C15.8,9.7 14.7,8.7 13.3,8.7 C11.9,8.7 10.8,9.7 10.8,11.2 C10.8,12.7 11.9,13.7 13.3,13.7 M13.3,7.9 C15.2,7.9 16.6,9.4 16.6,11.2 C16.6,13 15.2,14.5 13.3,14.5 C11.4,14.5 10,13 10,11.2 C10,9.4 11.4,7.9 13.3,7.9" id="Shape"></path>
                <polygon id="Shape" points="16.6 17.6 13.2 20.8 16.6 24 10.1 24 10.1 23.1 14.6 23.1 12 20.8 14.6 18.5 10.1 18.5 10.1 17.6"></polygon>
                <path d="M13.4,29.3 C13.4,30.2 13.8,30.7 14.6,30.7 C15.4,30.7 15.8,30.2 15.8,29.3 L15.8,28.3 L13.4,28.3 L13.4,29.3 Z M16.6,27.5 L16.6,29.3 C16.6,30.7 15.8,31.6 14.6,31.6 C13.4,31.6 12.6,30.7 12.6,29.3 L12.6,28.3 L10.1,28.3 L10.1,27.5 L16.6,27.5 Z" id="Shape"></path>
                <polygon id="Shape" points="16.6 34.4 16.6 35.3 10.9 35.3 10.9 38 10.1 38 10.1 34.4"></polygon>
                <polygon id="Shape" points="16.6 40.8 16.6 44.6 15.7 44.6 15.7 41.7 13.8 41.7 13.8 44.1 13 44.1 13 41.7 10.9 41.7 10.9 44.6 10.1 44.6 10.1 40.8"></polygon>
                <polygon id="Shape" points="13.1 49.7 10.1 48.1 10.1 47.2 13.9 49.2 16.6 47.3 16.6 48.3 13.6 50.4 16.6 51.9 16.6 52.8 12.9 50.9 10.1 52.9 10.1 51.9"></polygon>
                <rect id="Rectangle-path" x="10.1" y="55.9" width="6.5" height="1"></rect>
                <polygon id="Shape" points="15.7 61.4 15.7 59.5 16.6 59.5 16.6 64.1 15.7 64.1 15.7 62.2 10.1 62.2 10.1 61.4"></polygon>
                <polygon id="Shape" points="16.6 70.9 13.6 69.1 16.6 67.3 16.6 66.3 12.8 68.7 10.1 68.7 10.1 69.5 12.8 69.5 16.6 71.9"></polygon>
                <polygon id="Shape" points="7.4 0.5 0.9 0.5 0.9 4.1 1.7 4.1 1.7 1.3 7.4 1.3"></polygon>
                <path d="M6.6,9.8 L6.6,11 L3.4,11 L3.4,8.2 L6.6,9.8 Z M7.4,9.3 L0.9,6.2 L0.9,7.1 L2.6,7.9 L2.6,11 L0.9,11 L0.9,11.9 L7.4,11.9 L7.4,9.3 Z" id="Shape"></path>
                <path d="M1.7,17.7 C1.7,18.6 2.2,19 2.8,19 C3.4,19 3.9,18.6 3.9,17.7 L3.9,16.2 L1.7,16.2 L1.7,17.7 Z M4.6,17.5 C4.6,18.2 5,18.6 5.6,18.6 C6.1,18.6 6.6,18.2 6.6,17.5 L6.6,16.2 L4.6,16.2 L4.6,17.5 Z M7.4,15.4 L7.4,17.6 C7.4,18.9 6.6,19.5 5.7,19.5 C5.1,19.5 4.6,19.2 4.3,18.8 C4,19.4 3.5,19.9 2.7,19.9 C1.5,19.9 0.9,19 0.9,17.6 L0.9,15.3 L7.4,15.4 Z" id="Shape"></path>
            </g>
        </g>
    </g>
</svg>