index.html:181 <svg id="tsb-ani-logo" width="440" height="440" viewBox="0 0 440 440" preserveAspectRatio="xMinYMin meet"><g transform="translate(220,220)"><g><path class="plane" d="M-195.74620117191887 35.22196582058227L-149.27188551475575 131.44559002813352L111.64535070377254 -165.2410705794947Z" style="fill: transparent;"></path><path class="plane" d="M-195.74620117191887 35.22196582058227L111.64535070377254 -165.2410705794947L143.0027753061315 58.28894093154716Z" style="fill: transparent;"></path><path class="plane" d="M-195.74620117191887 35.22196582058227L143.0027753061315 58.28894093154716L177.19528974969168 20.35845714223504L-97.05086565410436 -147.7657702839185Z" style="fill: transparent;"></path></g><g><line class="edge" x1="-195.74620117191887" x2="-149.27188551475575" y1="35.22196582058227" y2="131.44559002813352"></line><line class="edge" x1="-149.27188551475575" x2="111.64535070377254" y1="131.44559002813352" y2="-165.2410705794947"></line><line class="edge" x1="-195.74620117191887" x2="111.64535070377254" y1="35.22196582058227" y2="-165.2410705794947"></line><line class="edge" x1="-195.74620117191887" x2="143.0027753061315" y1="35.22196582058227" y2="58.28894093154716"></line><line class="edge" x1="111.64535070377254" x2="143.0027753061315" y1="-165.2410705794947" y2="58.28894093154716"></line><line class="edge" x1="143.0027753061315" x2="177.19528974969168" y1="58.28894093154716" y2="20.35845714223504"></line><line class="edge" x1="177.19528974969168" x2="-97.05086565410436" y1="20.35845714223504" y2="-147.7657702839185"></line><line class="edge" x1="-195.74620117191887" x2="-97.05086565410436" y1="35.22196582058227" y2="-147.7657702839185"></line></g><g><line class="hedge" x1="-196.84077664118644" x2="-150.94652356686245" y1="34.104330438609935" y2="129.39324997751936"></line><line class="hedge" x1="-150.94652356686245" x2="112.6763673453773" y1="129.39324997751936" y2="-164.00018282489057"></line><line class="hedge" x1="-196.84077664118644" x2="112.6763673453773" y1="34.104330438609935" y2="-164.00018282489057"></line><line class="hedge" x1="-196.84077664118644" x2="147.87189660879045" y1="34.104330438609935" y2="65.77756757435188"></line><line class="hedge" x1="112.6763673453773" x2="147.87189660879045" y1="-164.00018282489057" y2="65.77756757435188"></line><line class="hedge" x1="147.87189660879045" x2="182.91456573431344" y1="65.77756757435188" y2="15.67036784059194"></line><line class="hedge" x1="182.91456573431344" x2="-101.0322755304092" y1="15.67036784059194" y2="-143.58789318938744"></line><line class="hedge" x1="-196.84077664118644" x2="-101.0322755304092" y1="34.104330438609935" y2="-143.58789318938744"></line></g></g></svg>