<?xml version="1.0" encoding="UTF-8"?>
<svg width="524px" height="524px" viewBox="0 0 524 524" version="1.1" xmlns="http://www.w3.org/2000/svg" xmlns:xlink="http://www.w3.org/1999/xlink">
    <!-- Generator: Sketch 53 (72520) - https://sketchapp.com -->
    <title>Letter</title>
    <desc>Created with Sketch.</desc>
    <g id="Letter" stroke="none" stroke-width="1" fill="none" fill-rule="evenodd">
        <rect id="Rectangle" fill="#1E3791" fill-rule="nonzero" x="-72" y="-230" width="1508" height="868"></rect>
        <g id="Looper_Group" transform="translate(-440.000000, 0.000000)" fill="#FFFFFF">
            <g id="original_original_Group_63178032_38240594-Group" transform="translate(0.627119, 0.000000)">
                <g id="duplicate_91_original_original_Group_63178032_38240594" opacity="0.869095728" transform="translate(895.675057, 447.863248)">
                    <path d="M38.2154691,73.4495726 C38.961865,75.0917379 40.4546568,75.9874644 42.0967277,75.9874644 C42.6938444,75.9874644 43.2909611,75.8381766 43.8880778,75.5396011 C46.1272655,74.4945869 47.0229405,71.9566952 45.9779863,69.7173789 C45.9779863,69.7173789 37.7676316,50.9071225 36.2748398,44.039886 C35.6777231,41.6512821 35.3791648,35.2319088 35.2298856,32.2461538 C35.2298856,31.2011396 35.8270023,30.3054131 36.7226774,30.0068376 L55.084016,24.4831909 C57.3232037,23.8860399 58.6667163,21.3481481 58.0695996,19.1088319 C57.4724828,16.8695157 54.9347369,15.5259259 52.6955492,16.1230769 C52.6955492,16.1230769 35.6777231,21.6467236 29.5572769,21.6467236 C23.5861098,21.6467236 6.71756293,16.2723647 6.71756293,16.2723647 C4.47837529,15.6752137 1.94062929,16.7202279 1.19423341,18.9595442 C0.447837529,21.3481481 1.79135011,23.8860399 4.17981693,24.4831909 L22.5411556,30.0068376 C23.4368307,30.3054131 24.1832265,31.2011396 24.0339474,32.2461538 C23.8846682,35.2319088 23.5861098,41.6512821 22.9889931,44.039886 C21.4962014,50.9071225 13.2858467,69.7173789 13.2858467,69.7173789 C12.2408925,71.9566952 13.2858467,74.4945869 15.3757552,75.5396011 C15.9728719,75.8381766 16.5699886,75.9874644 17.1671053,75.9874644 C18.8091762,75.9874644 20.4512471,75.0917379 21.0483638,73.4495726 L29.8558352,55.5350427 L38.2154691,73.4495726 Z" id="Path"></path>
                    <ellipse id="Oval" cx="29.8558352" cy="8.95726496" rx="8.35963387" ry="8.36011396"></ellipse>
                </g>
                <g id="duplicate_90_original_original_Group_63178032_38240594" opacity="0.901878322" transform="translate(806.107552, 447.863248)">
                    <path d="M38.2154691,73.4495726 C38.961865,75.0917379 40.4546568,75.9874644 42.0967277,75.9874644 C42.6938444,75.9874644 43.2909611,75.8381766 43.8880778,75.5396011 C46.1272655,74.4945869 47.0229405,71.9566952 45.9779863,69.7173789 C45.9779863,69.7173789 37.7676316,50.9071225 36.2748398,44.039886 C35.6777231,41.6512821 35.3791648,35.2319088 35.2298856,32.2461538 C35.2298856,31.2011396 35.8270023,30.3054131 36.7226774,30.0068376 L55.084016,24.4831909 C57.3232037,23.8860399 58.6667163,21.3481481 58.0695996,19.1088319 C57.4724828,16.8695157 54.9347369,15.5259259 52.6955492,16.1230769 C52.6955492,16.1230769 35.6777231,21.6467236 29.5572769,21.6467236 C23.5861098,21.6467236 6.71756293,16.2723647 6.71756293,16.2723647 C4.47837529,15.6752137 1.94062929,16.7202279 1.19423341,18.9595442 C0.447837529,21.3481481 1.79135011,23.8860399 4.17981693,24.4831909 L22.5411556,30.0068376 C23.4368307,30.3054131 24.1832265,31.2011396 24.0339474,32.2461538 C23.8846682,35.2319088 23.5861098,41.6512821 22.9889931,44.039886 C21.4962014,50.9071225 13.2858467,69.7173789 13.2858467,69.7173789 C12.2408925,71.9566952 13.2858467,74.4945869 15.3757552,75.5396011 C15.9728719,75.8381766 16.5699886,75.9874644 17.1671053,75.9874644 C18.8091762,75.9874644 20.4512471,75.0917379 21.0483638,73.4495726 L29.8558352,55.5350427 L38.2154691,73.4495726 Z" id="Path"></path>
                    <ellipse id="Oval" cx="29.8558352" cy="8.95726496" rx="8.35963387" ry="8.36011396"></ellipse>
                </g>
                <g id="duplicate_89_original_original_Group_63178032_38240594" opacity="0.728387454" transform="translate(716.540046, 447.863248)">
                    <path d="M38.2154691,73.4495726 C38.961865,75.0917379 40.4546568,75.9874644 42.0967277,75.9874644 C42.6938444,75.9874644 43.2909611,75.8381766 43.8880778,75.5396011 C46.1272655,74.4945869 47.0229405,71.9566952 45.9779863,69.7173789 C45.9779863,69.7173789 37.7676316,50.9071225 36.2748398,44.039886 C35.6777231,41.6512821 35.3791648,35.2319088 35.2298856,32.2461538 C35.2298856,31.2011396 35.8270023,30.3054131 36.7226774,30.0068376 L55.084016,24.4831909 C57.3232037,23.8860399 58.6667163,21.3481481 58.0695996,19.1088319 C57.4724828,16.8695157 54.9347369,15.5259259 52.6955492,16.1230769 C52.6955492,16.1230769 35.6777231,21.6467236 29.5572769,21.6467236 C23.5861098,21.6467236 6.71756293,16.2723647 6.71756293,16.2723647 C4.47837529,15.6752137 1.94062929,16.7202279 1.19423341,18.9595442 C0.447837529,21.3481481 1.79135011,23.8860399 4.17981693,24.4831909 L22.5411556,30.0068376 C23.4368307,30.3054131 24.1832265,31.2011396 24.0339474,32.2461538 C23.8846682,35.2319088 23.5861098,41.6512821 22.9889931,44.039886 C21.4962014,50.9071225 13.2858467,69.7173789 13.2858467,69.7173789 C12.2408925,71.9566952 13.2858467,74.4945869 15.3757552,75.5396011 C15.9728719,75.8381766 16.5699886,75.9874644 17.1671053,75.9874644 C18.8091762,75.9874644 20.4512471,75.0917379 21.0483638,73.4495726 L29.8558352,55.5350427 L38.2154691,73.4495726 Z" id="Path"></path>
                    <ellipse id="Oval" cx="29.8558352" cy="8.95726496" rx="8.35963387" ry="8.36011396"></ellipse>
                </g>
                <g id="duplicate_88_original_original_Group_63178032_38240594" opacity="0.900849553" transform="translate(626.972540, 447.863248)">
                    <path d="M38.2154691,73.4495726 C38.961865,75.0917379 40.4546568,75.9874644 42.0967277,75.9874644 C42.6938444,75.9874644 43.2909611,75.8381766 43.8880778,75.5396011 C46.1272655,74.4945869 47.0229405,71.9566952 45.9779863,69.7173789 C45.9779863,69.7173789 37.7676316,50.9071225 36.2748398,44.039886 C35.6777231,41.6512821 35.3791648,35.2319088 35.2298856,32.2461538 C35.2298856,31.2011396 35.8270023,30.3054131 36.7226774,30.0068376 L55.084016,24.4831909 C57.3232037,23.8860399 58.6667163,21.3481481 58.0695996,19.1088319 C57.4724828,16.8695157 54.9347369,15.5259259 52.6955492,16.1230769 C52.6955492,16.1230769 35.6777231,21.6467236 29.5572769,21.6467236 C23.5861098,21.6467236 6.71756293,16.2723647 6.71756293,16.2723647 C4.47837529,15.6752137 1.94062929,16.7202279 1.19423341,18.9595442 C0.447837529,21.3481481 1.79135011,23.8860399 4.17981693,24.4831909 L22.5411556,30.0068376 C23.4368307,30.3054131 24.1832265,31.2011396 24.0339474,32.2461538 C23.8846682,35.2319088 23.5861098,41.6512821 22.9889931,44.039886 C21.4962014,50.9071225 13.2858467,69.7173789 13.2858467,69.7173789 C12.2408925,71.9566952 13.2858467,74.4945869 15.3757552,75.5396011 C15.9728719,75.8381766 16.5699886,75.9874644 17.1671053,75.9874644 C18.8091762,75.9874644 20.4512471,75.0917379 21.0483638,73.4495726 L29.8558352,55.5350427 L38.2154691,73.4495726 Z" id="Path"></path>
                    <ellipse id="Oval" cx="29.8558352" cy="8.95726496" rx="8.35963387" ry="8.36011396"></ellipse>
                </g>
                <g id="duplicate_87_original_original_Group_63178032_38240594" opacity="0.663342394" transform="translate(537.405034, 447.863248)">
                    <path d="M38.2154691,73.4495726 C38.961865,75.0917379 40.4546568,75.9874644 42.0967277,75.9874644 C42.6938444,75.9874644 43.2909611,75.8381766 43.8880778,75.5396011 C46.1272655,74.4945869 47.0229405,71.9566952 45.9779863,69.7173789 C45.9779863,69.7173789 37.7676316,50.9071225 36.2748398,44.039886 C35.6777231,41.6512821 35.3791648,35.2319088 35.2298856,32.2461538 C35.2298856,31.2011396 35.8270023,30.3054131 36.7226774,30.0068376 L55.084016,24.4831909 C57.3232037,23.8860399 58.6667163,21.3481481 58.0695996,19.1088319 C57.4724828,16.8695157 54.9347369,15.5259259 52.6955492,16.1230769 C52.6955492,16.1230769 35.6777231,21.6467236 29.5572769,21.6467236 C23.5861098,21.6467236 6.71756293,16.2723647 6.71756293,16.2723647 C4.47837529,15.6752137 1.94062929,16.7202279 1.19423341,18.9595442 C0.447837529,21.3481481 1.79135011,23.8860399 4.17981693,24.4831909 L22.5411556,30.0068376 C23.4368307,30.3054131 24.1832265,31.2011396 24.0339474,32.2461538 C23.8846682,35.2319088 23.5861098,41.6512821 22.9889931,44.039886 C21.4962014,50.9071225 13.2858467,69.7173789 13.2858467,69.7173789 C12.2408925,71.9566952 13.2858467,74.4945869 15.3757552,75.5396011 C15.9728719,75.8381766 16.5699886,75.9874644 17.1671053,75.9874644 C18.8091762,75.9874644 20.4512471,75.0917379 21.0483638,73.4495726 L29.8558352,55.5350427 L38.2154691,73.4495726 Z" id="Path"></path>
                    <ellipse id="Oval" cx="29.8558352" cy="8.95726496" rx="8.35963387" ry="8.36011396"></ellipse>
                </g>
                <g id="duplicate_86_original_original_Group_63178032_38240594" opacity="0.415584463" transform="translate(447.837529, 447.863248)">
                    <path d="M38.2154691,73.4495726 C38.961865,75.0917379 40.4546568,75.9874644 42.0967277,75.9874644 C42.6938444,75.9874644 43.2909611,75.8381766 43.8880778,75.5396011 C46.1272655,74.4945869 47.0229405,71.9566952 45.9779863,69.7173789 C45.9779863,69.7173789 37.7676316,50.9071225 36.2748398,44.039886 C35.6777231,41.6512821 35.3791648,35.2319088 35.2298856,32.2461538 C35.2298856,31.2011396 35.8270023,30.3054131 36.7226774,30.0068376 L55.084016,24.4831909 C57.3232037,23.8860399 58.6667163,21.3481481 58.0695996,19.1088319 C57.4724828,16.8695157 54.9347369,15.5259259 52.6955492,16.1230769 C52.6955492,16.1230769 35.6777231,21.6467236 29.5572769,21.6467236 C23.5861098,21.6467236 6.71756293,16.2723647 6.71756293,16.2723647 C4.47837529,15.6752137 1.94062929,16.7202279 1.19423341,18.9595442 C0.447837529,21.3481481 1.79135011,23.8860399 4.17981693,24.4831909 L22.5411556,30.0068376 C23.4368307,30.3054131 24.1832265,31.2011396 24.0339474,32.2461538 C23.8846682,35.2319088 23.5861098,41.6512821 22.9889931,44.039886 C21.4962014,50.9071225 13.2858467,69.7173789 13.2858467,69.7173789 C12.2408925,71.9566952 13.2858467,74.4945869 15.3757552,75.5396011 C15.9728719,75.8381766 16.5699886,75.9874644 17.1671053,75.9874644 C18.8091762,75.9874644 20.4512471,75.0917379 21.0483638,73.4495726 L29.8558352,55.5350427 L38.2154691,73.4495726 Z" id="Path"></path>
                    <ellipse id="Oval" cx="29.8558352" cy="8.95726496" rx="8.35963387" ry="8.36011396"></ellipse>
                </g>
                <g id="duplicate_75_original_original_Group_63178032_38240594" opacity="0.0483184685" transform="translate(895.675057, 358.290598)">
                    <path d="M38.2154691,73.4495726 C38.961865,75.0917379 40.4546568,75.9874644 42.0967277,75.9874644 C42.6938444,75.9874644 43.2909611,75.8381766 43.8880778,75.5396011 C46.1272655,74.4945869 47.0229405,71.9566952 45.9779863,69.7173789 C45.9779863,69.7173789 37.7676316,50.9071225 36.2748398,44.039886 C35.6777231,41.6512821 35.3791648,35.2319088 35.2298856,32.2461538 C35.2298856,31.2011396 35.8270023,30.3054131 36.7226774,30.0068376 L55.084016,24.4831909 C57.3232037,23.8860399 58.6667163,21.3481481 58.0695996,19.1088319 C57.4724828,16.8695157 54.9347369,15.5259259 52.6955492,16.1230769 C52.6955492,16.1230769 35.6777231,21.6467236 29.5572769,21.6467236 C23.5861098,21.6467236 6.71756293,16.2723647 6.71756293,16.2723647 C4.47837529,15.6752137 1.94062929,16.7202279 1.19423341,18.9595442 C0.447837529,21.3481481 1.79135011,23.8860399 4.17981693,24.4831909 L22.5411556,30.0068376 C23.4368307,30.3054131 24.1832265,31.2011396 24.0339474,32.2461538 C23.8846682,35.2319088 23.5861098,41.6512821 22.9889931,44.039886 C21.4962014,50.9071225 13.2858467,69.7173789 13.2858467,69.7173789 C12.2408925,71.9566952 13.2858467,74.4945869 15.3757552,75.5396011 C15.9728719,75.8381766 16.5699886,75.9874644 17.1671053,75.9874644 C18.8091762,75.9874644 20.4512471,75.0917379 21.0483638,73.4495726 L29.8558352,55.5350427 L38.2154691,73.4495726 Z" id="Path"></path>
                    <ellipse id="Oval" cx="29.8558352" cy="8.95726496" rx="8.35963387" ry="8.36011396"></ellipse>
                </g>
                <g id="duplicate_74_original_original_Group_63178032_38240594" opacity="0.202519017" transform="translate(806.107552, 358.290598)">
                    <path d="M38.2154691,73.4495726 C38.961865,75.0917379 40.4546568,75.9874644 42.0967277,75.9874644 C42.6938444,75.9874644 43.2909611,75.8381766 43.8880778,75.5396011 C46.1272655,74.4945869 47.0229405,71.9566952 45.9779863,69.7173789 C45.9779863,69.7173789 37.7676316,50.9071225 36.2748398,44.039886 C35.6777231,41.6512821 35.3791648,35.2319088 35.2298856,32.2461538 C35.2298856,31.2011396 35.8270023,30.3054131 36.7226774,30.0068376 L55.084016,24.4831909 C57.3232037,23.8860399 58.6667163,21.3481481 58.0695996,19.1088319 C57.4724828,16.8695157 54.9347369,15.5259259 52.6955492,16.1230769 C52.6955492,16.1230769 35.6777231,21.6467236 29.5572769,21.6467236 C23.5861098,21.6467236 6.71756293,16.2723647 6.71756293,16.2723647 C4.47837529,15.6752137 1.94062929,16.7202279 1.19423341,18.9595442 C0.447837529,21.3481481 1.79135011,23.8860399 4.17981693,24.4831909 L22.5411556,30.0068376 C23.4368307,30.3054131 24.1832265,31.2011396 24.0339474,32.2461538 C23.8846682,35.2319088 23.5861098,41.6512821 22.9889931,44.039886 C21.4962014,50.9071225 13.2858467,69.7173789 13.2858467,69.7173789 C12.2408925,71.9566952 13.2858467,74.4945869 15.3757552,75.5396011 C15.9728719,75.8381766 16.5699886,75.9874644 17.1671053,75.9874644 C18.8091762,75.9874644 20.4512471,75.0917379 21.0483638,73.4495726 L29.8558352,55.5350427 L38.2154691,73.4495726 Z" id="Path"></path>
                    <ellipse id="Oval" cx="29.8558352" cy="8.95726496" rx="8.35963387" ry="8.36011396"></ellipse>
                </g>
                <g id="duplicate_73_original_original_Group_63178032_38240594" opacity="0.656707465" transform="translate(716.540046, 358.290598)">
                    <path d="M38.2154691,73.4495726 C38.961865,75.0917379 40.4546568,75.9874644 42.0967277,75.9874644 C42.6938444,75.9874644 43.2909611,75.8381766 43.8880778,75.5396011 C46.1272655,74.4945869 47.0229405,71.9566952 45.9779863,69.7173789 C45.9779863,69.7173789 37.7676316,50.9071225 36.2748398,44.039886 C35.6777231,41.6512821 35.3791648,35.2319088 35.2298856,32.2461538 C35.2298856,31.2011396 35.8270023,30.3054131 36.7226774,30.0068376 L55.084016,24.4831909 C57.3232037,23.8860399 58.6667163,21.3481481 58.0695996,19.1088319 C57.4724828,16.8695157 54.9347369,15.5259259 52.6955492,16.1230769 C52.6955492,16.1230769 35.6777231,21.6467236 29.5572769,21.6467236 C23.5861098,21.6467236 6.71756293,16.2723647 6.71756293,16.2723647 C4.47837529,15.6752137 1.94062929,16.7202279 1.19423341,18.9595442 C0.447837529,21.3481481 1.79135011,23.8860399 4.17981693,24.4831909 L22.5411556,30.0068376 C23.4368307,30.3054131 24.1832265,31.2011396 24.0339474,32.2461538 C23.8846682,35.2319088 23.5861098,41.6512821 22.9889931,44.039886 C21.4962014,50.9071225 13.2858467,69.7173789 13.2858467,69.7173789 C12.2408925,71.9566952 13.2858467,74.4945869 15.3757552,75.5396011 C15.9728719,75.8381766 16.5699886,75.9874644 17.1671053,75.9874644 C18.8091762,75.9874644 20.4512471,75.0917379 21.0483638,73.4495726 L29.8558352,55.5350427 L38.2154691,73.4495726 Z" id="Path"></path>
                    <ellipse id="Oval" cx="29.8558352" cy="8.95726496" rx="8.35963387" ry="8.36011396"></ellipse>
                </g>
                <g id="duplicate_72_original_original_Group_63178032_38240594" opacity="0.797976878" transform="translate(626.972540, 358.290598)">
                    <path d="M38.2154691,73.4495726 C38.961865,75.0917379 40.4546568,75.9874644 42.0967277,75.9874644 C42.6938444,75.9874644 43.2909611,75.8381766 43.8880778,75.5396011 C46.1272655,74.4945869 47.0229405,71.9566952 45.9779863,69.7173789 C45.9779863,69.7173789 37.7676316,50.9071225 36.2748398,44.039886 C35.6777231,41.6512821 35.3791648,35.2319088 35.2298856,32.2461538 C35.2298856,31.2011396 35.8270023,30.3054131 36.7226774,30.0068376 L55.084016,24.4831909 C57.3232037,23.8860399 58.6667163,21.3481481 58.0695996,19.1088319 C57.4724828,16.8695157 54.9347369,15.5259259 52.6955492,16.1230769 C52.6955492,16.1230769 35.6777231,21.6467236 29.5572769,21.6467236 C23.5861098,21.6467236 6.71756293,16.2723647 6.71756293,16.2723647 C4.47837529,15.6752137 1.94062929,16.7202279 1.19423341,18.9595442 C0.447837529,21.3481481 1.79135011,23.8860399 4.17981693,24.4831909 L22.5411556,30.0068376 C23.4368307,30.3054131 24.1832265,31.2011396 24.0339474,32.2461538 C23.8846682,35.2319088 23.5861098,41.6512821 22.9889931,44.039886 C21.4962014,50.9071225 13.2858467,69.7173789 13.2858467,69.7173789 C12.2408925,71.9566952 13.2858467,74.4945869 15.3757552,75.5396011 C15.9728719,75.8381766 16.5699886,75.9874644 17.1671053,75.9874644 C18.8091762,75.9874644 20.4512471,75.0917379 21.0483638,73.4495726 L29.8558352,55.5350427 L38.2154691,73.4495726 Z" id="Path"></path>
                    <ellipse id="Oval" cx="29.8558352" cy="8.95726496" rx="8.35963387" ry="8.36011396"></ellipse>
                </g>
                <g id="duplicate_71_original_original_Group_63178032_38240594" opacity="0.000888017818" transform="translate(537.405034, 358.290598)">
                    <path d="M38.2154691,73.4495726 C38.961865,75.0917379 40.4546568,75.9874644 42.0967277,75.9874644 C42.6938444,75.9874644 43.2909611,75.8381766 43.8880778,75.5396011 C46.1272655,74.4945869 47.0229405,71.9566952 45.9779863,69.7173789 C45.9779863,69.7173789 37.7676316,50.9071225 36.2748398,44.039886 C35.6777231,41.6512821 35.3791648,35.2319088 35.2298856,32.2461538 C35.2298856,31.2011396 35.8270023,30.3054131 36.7226774,30.0068376 L55.084016,24.4831909 C57.3232037,23.8860399 58.6667163,21.3481481 58.0695996,19.1088319 C57.4724828,16.8695157 54.9347369,15.5259259 52.6955492,16.1230769 C52.6955492,16.1230769 35.6777231,21.6467236 29.5572769,21.6467236 C23.5861098,21.6467236 6.71756293,16.2723647 6.71756293,16.2723647 C4.47837529,15.6752137 1.94062929,16.7202279 1.19423341,18.9595442 C0.447837529,21.3481481 1.79135011,23.8860399 4.17981693,24.4831909 L22.5411556,30.0068376 C23.4368307,30.3054131 24.1832265,31.2011396 24.0339474,32.2461538 C23.8846682,35.2319088 23.5861098,41.6512821 22.9889931,44.039886 C21.4962014,50.9071225 13.2858467,69.7173789 13.2858467,69.7173789 C12.2408925,71.9566952 13.2858467,74.4945869 15.3757552,75.5396011 C15.9728719,75.8381766 16.5699886,75.9874644 17.1671053,75.9874644 C18.8091762,75.9874644 20.4512471,75.0917379 21.0483638,73.4495726 L29.8558352,55.5350427 L38.2154691,73.4495726 Z" id="Path"></path>
                    <ellipse id="Oval" cx="29.8558352" cy="8.95726496" rx="8.35963387" ry="8.36011396"></ellipse>
                </g>
                <g id="duplicate_70_original_original_Group_63178032_38240594" opacity="0.778036659" transform="translate(447.837529, 358.290598)">
                    <path d="M38.2154691,73.4495726 C38.961865,75.0917379 40.4546568,75.9874644 42.0967277,75.9874644 C42.6938444,75.9874644 43.2909611,75.8381766 43.8880778,75.5396011 C46.1272655,74.4945869 47.0229405,71.9566952 45.9779863,69.7173789 C45.9779863,69.7173789 37.7676316,50.9071225 36.2748398,44.039886 C35.6777231,41.6512821 35.3791648,35.2319088 35.2298856,32.2461538 C35.2298856,31.2011396 35.8270023,30.3054131 36.7226774,30.0068376 L55.084016,24.4831909 C57.3232037,23.8860399 58.6667163,21.3481481 58.0695996,19.1088319 C57.4724828,16.8695157 54.9347369,15.5259259 52.6955492,16.1230769 C52.6955492,16.1230769 35.6777231,21.6467236 29.5572769,21.6467236 C23.5861098,21.6467236 6.71756293,16.2723647 6.71756293,16.2723647 C4.47837529,15.6752137 1.94062929,16.7202279 1.19423341,18.9595442 C0.447837529,21.3481481 1.79135011,23.8860399 4.17981693,24.4831909 L22.5411556,30.0068376 C23.4368307,30.3054131 24.1832265,31.2011396 24.0339474,32.2461538 C23.8846682,35.2319088 23.5861098,41.6512821 22.9889931,44.039886 C21.4962014,50.9071225 13.2858467,69.7173789 13.2858467,69.7173789 C12.2408925,71.9566952 13.2858467,74.4945869 15.3757552,75.5396011 C15.9728719,75.8381766 16.5699886,75.9874644 17.1671053,75.9874644 C18.8091762,75.9874644 20.4512471,75.0917379 21.0483638,73.4495726 L29.8558352,55.5350427 L38.2154691,73.4495726 Z" id="Path"></path>
                    <ellipse id="Oval" cx="29.8558352" cy="8.95726496" rx="8.35963387" ry="8.36011396"></ellipse>
                </g>
                <g id="duplicate_59_original_original_Group_63178032_38240594" opacity="0.932638228" transform="translate(895.675057, 268.717949)">
                    <path d="M38.2154691,73.4495726 C38.961865,75.0917379 40.4546568,75.9874644 42.0967277,75.9874644 C42.6938444,75.9874644 43.2909611,75.8381766 43.8880778,75.5396011 C46.1272655,74.4945869 47.0229405,71.9566952 45.9779863,69.7173789 C45.9779863,69.7173789 37.7676316,50.9071225 36.2748398,44.039886 C35.6777231,41.6512821 35.3791648,35.2319088 35.2298856,32.2461538 C35.2298856,31.2011396 35.8270023,30.3054131 36.7226774,30.0068376 L55.084016,24.4831909 C57.3232037,23.8860399 58.6667163,21.3481481 58.0695996,19.1088319 C57.4724828,16.8695157 54.9347369,15.5259259 52.6955492,16.1230769 C52.6955492,16.1230769 35.6777231,21.6467236 29.5572769,21.6467236 C23.5861098,21.6467236 6.71756293,16.2723647 6.71756293,16.2723647 C4.47837529,15.6752137 1.94062929,16.7202279 1.19423341,18.9595442 C0.447837529,21.3481481 1.79135011,23.8860399 4.17981693,24.4831909 L22.5411556,30.0068376 C23.4368307,30.3054131 24.1832265,31.2011396 24.0339474,32.2461538 C23.8846682,35.2319088 23.5861098,41.6512821 22.9889931,44.039886 C21.4962014,50.9071225 13.2858467,69.7173789 13.2858467,69.7173789 C12.2408925,71.9566952 13.2858467,74.4945869 15.3757552,75.5396011 C15.9728719,75.8381766 16.5699886,75.9874644 17.1671053,75.9874644 C18.8091762,75.9874644 20.4512471,75.0917379 21.0483638,73.4495726 L29.8558352,55.5350427 L38.2154691,73.4495726 Z" id="Path"></path>
                    <ellipse id="Oval" cx="29.8558352" cy="8.95726496" rx="8.35963387" ry="8.36011396"></ellipse>
                </g>
                <g id="duplicate_58_original_original_Group_63178032_38240594" opacity="0.693452065" transform="translate(806.107552, 268.717949)">
                    <path d="M38.2154691,73.4495726 C38.961865,75.0917379 40.4546568,75.9874644 42.0967277,75.9874644 C42.6938444,75.9874644 43.2909611,75.8381766 43.8880778,75.5396011 C46.1272655,74.4945869 47.0229405,71.9566952 45.9779863,69.7173789 C45.9779863,69.7173789 37.7676316,50.9071225 36.2748398,44.039886 C35.6777231,41.6512821 35.3791648,35.2319088 35.2298856,32.2461538 C35.2298856,31.2011396 35.8270023,30.3054131 36.7226774,30.0068376 L55.084016,24.4831909 C57.3232037,23.8860399 58.6667163,21.3481481 58.0695996,19.1088319 C57.4724828,16.8695157 54.9347369,15.5259259 52.6955492,16.1230769 C52.6955492,16.1230769 35.6777231,21.6467236 29.5572769,21.6467236 C23.5861098,21.6467236 6.71756293,16.2723647 6.71756293,16.2723647 C4.47837529,15.6752137 1.94062929,16.7202279 1.19423341,18.9595442 C0.447837529,21.3481481 1.79135011,23.8860399 4.17981693,24.4831909 L22.5411556,30.0068376 C23.4368307,30.3054131 24.1832265,31.2011396 24.0339474,32.2461538 C23.8846682,35.2319088 23.5861098,41.6512821 22.9889931,44.039886 C21.4962014,50.9071225 13.2858467,69.7173789 13.2858467,69.7173789 C12.2408925,71.9566952 13.2858467,74.4945869 15.3757552,75.5396011 C15.9728719,75.8381766 16.5699886,75.9874644 17.1671053,75.9874644 C18.8091762,75.9874644 20.4512471,75.0917379 21.0483638,73.4495726 L29.8558352,55.5350427 L38.2154691,73.4495726 Z" id="Path"></path>
                    <ellipse id="Oval" cx="29.8558352" cy="8.95726496" rx="8.35963387" ry="8.36011396"></ellipse>
                </g>
                <g id="duplicate_57_original_original_Group_63178032_38240594" opacity="0.438875707" transform="translate(716.540046, 268.717949)">
                    <path d="M38.2154691,73.4495726 C38.961865,75.0917379 40.4546568,75.9874644 42.0967277,75.9874644 C42.6938444,75.9874644 43.2909611,75.8381766 43.8880778,75.5396011 C46.1272655,74.4945869 47.0229405,71.9566952 45.9779863,69.7173789 C45.9779863,69.7173789 37.7676316,50.9071225 36.2748398,44.039886 C35.6777231,41.6512821 35.3791648,35.2319088 35.2298856,32.2461538 C35.2298856,31.2011396 35.8270023,30.3054131 36.7226774,30.0068376 L55.084016,24.4831909 C57.3232037,23.8860399 58.6667163,21.3481481 58.0695996,19.1088319 C57.4724828,16.8695157 54.9347369,15.5259259 52.6955492,16.1230769 C52.6955492,16.1230769 35.6777231,21.6467236 29.5572769,21.6467236 C23.5861098,21.6467236 6.71756293,16.2723647 6.71756293,16.2723647 C4.47837529,15.6752137 1.94062929,16.7202279 1.19423341,18.9595442 C0.447837529,21.3481481 1.79135011,23.8860399 4.17981693,24.4831909 L22.5411556,30.0068376 C23.4368307,30.3054131 24.1832265,31.2011396 24.0339474,32.2461538 C23.8846682,35.2319088 23.5861098,41.6512821 22.9889931,44.039886 C21.4962014,50.9071225 13.2858467,69.7173789 13.2858467,69.7173789 C12.2408925,71.9566952 13.2858467,74.4945869 15.3757552,75.5396011 C15.9728719,75.8381766 16.5699886,75.9874644 17.1671053,75.9874644 C18.8091762,75.9874644 20.4512471,75.0917379 21.0483638,73.4495726 L29.8558352,55.5350427 L38.2154691,73.4495726 Z" id="Path"></path>
                    <ellipse id="Oval" cx="29.8558352" cy="8.95726496" rx="8.35963387" ry="8.36011396"></ellipse>
                </g>
                <g id="duplicate_56_original_original_Group_63178032_38240594" opacity="0.212539617" transform="translate(626.972540, 268.717949)">
                    <path d="M38.2154691,73.4495726 C38.961865,75.0917379 40.4546568,75.9874644 42.0967277,75.9874644 C42.6938444,75.9874644 43.2909611,75.8381766 43.8880778,75.5396011 C46.1272655,74.4945869 47.0229405,71.9566952 45.9779863,69.7173789 C45.9779863,69.7173789 37.7676316,50.9071225 36.2748398,44.039886 C35.6777231,41.6512821 35.3791648,35.2319088 35.2298856,32.2461538 C35.2298856,31.2011396 35.8270023,30.3054131 36.7226774,30.0068376 L55.084016,24.4831909 C57.3232037,23.8860399 58.6667163,21.3481481 58.0695996,19.1088319 C57.4724828,16.8695157 54.9347369,15.5259259 52.6955492,16.1230769 C52.6955492,16.1230769 35.6777231,21.6467236 29.5572769,21.6467236 C23.5861098,21.6467236 6.71756293,16.2723647 6.71756293,16.2723647 C4.47837529,15.6752137 1.94062929,16.7202279 1.19423341,18.9595442 C0.447837529,21.3481481 1.79135011,23.8860399 4.17981693,24.4831909 L22.5411556,30.0068376 C23.4368307,30.3054131 24.1832265,31.2011396 24.0339474,32.2461538 C23.8846682,35.2319088 23.5861098,41.6512821 22.9889931,44.039886 C21.4962014,50.9071225 13.2858467,69.7173789 13.2858467,69.7173789 C12.2408925,71.9566952 13.2858467,74.4945869 15.3757552,75.5396011 C15.9728719,75.8381766 16.5699886,75.9874644 17.1671053,75.9874644 C18.8091762,75.9874644 20.4512471,75.0917379 21.0483638,73.4495726 L29.8558352,55.5350427 L38.2154691,73.4495726 Z" id="Path"></path>
                    <ellipse id="Oval" cx="29.8558352" cy="8.95726496" rx="8.35963387" ry="8.36011396"></ellipse>
                </g>
                <g id="duplicate_55_original_original_Group_63178032_38240594" opacity="0.332395489" transform="translate(537.405034, 268.717949)">
                    <path d="M38.2154691,73.4495726 C38.961865,75.0917379 40.4546568,75.9874644 42.0967277,75.9874644 C42.6938444,75.9874644 43.2909611,75.8381766 43.8880778,75.5396011 C46.1272655,74.4945869 47.0229405,71.9566952 45.9779863,69.7173789 C45.9779863,69.7173789 37.7676316,50.9071225 36.2748398,44.039886 C35.6777231,41.6512821 35.3791648,35.2319088 35.2298856,32.2461538 C35.2298856,31.2011396 35.8270023,30.3054131 36.7226774,30.0068376 L55.084016,24.4831909 C57.3232037,23.8860399 58.6667163,21.3481481 58.0695996,19.1088319 C57.4724828,16.8695157 54.9347369,15.5259259 52.6955492,16.1230769 C52.6955492,16.1230769 35.6777231,21.6467236 29.5572769,21.6467236 C23.5861098,21.6467236 6.71756293,16.2723647 6.71756293,16.2723647 C4.47837529,15.6752137 1.94062929,16.7202279 1.19423341,18.9595442 C0.447837529,21.3481481 1.79135011,23.8860399 4.17981693,24.4831909 L22.5411556,30.0068376 C23.4368307,30.3054131 24.1832265,31.2011396 24.0339474,32.2461538 C23.8846682,35.2319088 23.5861098,41.6512821 22.9889931,44.039886 C21.4962014,50.9071225 13.2858467,69.7173789 13.2858467,69.7173789 C12.2408925,71.9566952 13.2858467,74.4945869 15.3757552,75.5396011 C15.9728719,75.8381766 16.5699886,75.9874644 17.1671053,75.9874644 C18.8091762,75.9874644 20.4512471,75.0917379 21.0483638,73.4495726 L29.8558352,55.5350427 L38.2154691,73.4495726 Z" id="Path"></path>
                    <ellipse id="Oval" cx="29.8558352" cy="8.95726496" rx="8.35963387" ry="8.36011396"></ellipse>
                </g>
                <g id="duplicate_54_original_original_Group_63178032_38240594" opacity="0.373633236" transform="translate(447.837529, 268.717949)">
                    <path d="M38.2154691,73.4495726 C38.961865,75.0917379 40.4546568,75.9874644 42.0967277,75.9874644 C42.6938444,75.9874644 43.2909611,75.8381766 43.8880778,75.5396011 C46.1272655,74.4945869 47.0229405,71.9566952 45.9779863,69.7173789 C45.9779863,69.7173789 37.7676316,50.9071225 36.2748398,44.039886 C35.6777231,41.6512821 35.3791648,35.2319088 35.2298856,32.2461538 C35.2298856,31.2011396 35.8270023,30.3054131 36.7226774,30.0068376 L55.084016,24.4831909 C57.3232037,23.8860399 58.6667163,21.3481481 58.0695996,19.1088319 C57.4724828,16.8695157 54.9347369,15.5259259 52.6955492,16.1230769 C52.6955492,16.1230769 35.6777231,21.6467236 29.5572769,21.6467236 C23.5861098,21.6467236 6.71756293,16.2723647 6.71756293,16.2723647 C4.47837529,15.6752137 1.94062929,16.7202279 1.19423341,18.9595442 C0.447837529,21.3481481 1.79135011,23.8860399 4.17981693,24.4831909 L22.5411556,30.0068376 C23.4368307,30.3054131 24.1832265,31.2011396 24.0339474,32.2461538 C23.8846682,35.2319088 23.5861098,41.6512821 22.9889931,44.039886 C21.4962014,50.9071225 13.2858467,69.7173789 13.2858467,69.7173789 C12.2408925,71.9566952 13.2858467,74.4945869 15.3757552,75.5396011 C15.9728719,75.8381766 16.5699886,75.9874644 17.1671053,75.9874644 C18.8091762,75.9874644 20.4512471,75.0917379 21.0483638,73.4495726 L29.8558352,55.5350427 L38.2154691,73.4495726 Z" id="Path"></path>
                    <ellipse id="Oval" cx="29.8558352" cy="8.95726496" rx="8.35963387" ry="8.36011396"></ellipse>
                </g>
                <g id="duplicate_43_original_original_Group_63178032_38240594" opacity="0.00615907862" transform="translate(895.675057, 179.145299)">
                    <path d="M38.2154691,73.4495726 C38.961865,75.0917379 40.4546568,75.9874644 42.0967277,75.9874644 C42.6938444,75.9874644 43.2909611,75.8381766 43.8880778,75.5396011 C46.1272655,74.4945869 47.0229405,71.9566952 45.9779863,69.7173789 C45.9779863,69.7173789 37.7676316,50.9071225 36.2748398,44.039886 C35.6777231,41.6512821 35.3791648,35.2319088 35.2298856,32.2461538 C35.2298856,31.2011396 35.8270023,30.3054131 36.7226774,30.0068376 L55.084016,24.4831909 C57.3232037,23.8860399 58.6667163,21.3481481 58.0695996,19.1088319 C57.4724828,16.8695157 54.9347369,15.5259259 52.6955492,16.1230769 C52.6955492,16.1230769 35.6777231,21.6467236 29.5572769,21.6467236 C23.5861098,21.6467236 6.71756293,16.2723647 6.71756293,16.2723647 C4.47837529,15.6752137 1.94062929,16.7202279 1.19423341,18.9595442 C0.447837529,21.3481481 1.79135011,23.8860399 4.17981693,24.4831909 L22.5411556,30.0068376 C23.4368307,30.3054131 24.1832265,31.2011396 24.0339474,32.2461538 C23.8846682,35.2319088 23.5861098,41.6512821 22.9889931,44.039886 C21.4962014,50.9071225 13.2858467,69.7173789 13.2858467,69.7173789 C12.2408925,71.9566952 13.2858467,74.4945869 15.3757552,75.5396011 C15.9728719,75.8381766 16.5699886,75.9874644 17.1671053,75.9874644 C18.8091762,75.9874644 20.4512471,75.0917379 21.0483638,73.4495726 L29.8558352,55.5350427 L38.2154691,73.4495726 Z" id="Path"></path>
                    <ellipse id="Oval" cx="29.8558352" cy="8.95726496" rx="8.35963387" ry="8.36011396"></ellipse>
                </g>
                <g id="duplicate_42_original_original_Group_63178032_38240594" opacity="0.411016794" transform="translate(806.107552, 179.145299)">
                    <path d="M38.2154691,73.4495726 C38.961865,75.0917379 40.4546568,75.9874644 42.0967277,75.9874644 C42.6938444,75.9874644 43.2909611,75.8381766 43.8880778,75.5396011 C46.1272655,74.4945869 47.0229405,71.9566952 45.9779863,69.7173789 C45.9779863,69.7173789 37.7676316,50.9071225 36.2748398,44.039886 C35.6777231,41.6512821 35.3791648,35.2319088 35.2298856,32.2461538 C35.2298856,31.2011396 35.8270023,30.3054131 36.7226774,30.0068376 L55.084016,24.4831909 C57.3232037,23.8860399 58.6667163,21.3481481 58.0695996,19.1088319 C57.4724828,16.8695157 54.9347369,15.5259259 52.6955492,16.1230769 C52.6955492,16.1230769 35.6777231,21.6467236 29.5572769,21.6467236 C23.5861098,21.6467236 6.71756293,16.2723647 6.71756293,16.2723647 C4.47837529,15.6752137 1.94062929,16.7202279 1.19423341,18.9595442 C0.447837529,21.3481481 1.79135011,23.8860399 4.17981693,24.4831909 L22.5411556,30.0068376 C23.4368307,30.3054131 24.1832265,31.2011396 24.0339474,32.2461538 C23.8846682,35.2319088 23.5861098,41.6512821 22.9889931,44.039886 C21.4962014,50.9071225 13.2858467,69.7173789 13.2858467,69.7173789 C12.2408925,71.9566952 13.2858467,74.4945869 15.3757552,75.5396011 C15.9728719,75.8381766 16.5699886,75.9874644 17.1671053,75.9874644 C18.8091762,75.9874644 20.4512471,75.0917379 21.0483638,73.4495726 L29.8558352,55.5350427 L38.2154691,73.4495726 Z" id="Path"></path>
                    <ellipse id="Oval" cx="29.8558352" cy="8.95726496" rx="8.35963387" ry="8.36011396"></ellipse>
                </g>
                <g id="duplicate_41_original_original_Group_63178032_38240594" opacity="0.057387089" transform="translate(716.540046, 179.145299)">
                    <path d="M38.2154691,73.4495726 C38.961865,75.0917379 40.4546568,75.9874644 42.0967277,75.9874644 C42.6938444,75.9874644 43.2909611,75.8381766 43.8880778,75.5396011 C46.1272655,74.4945869 47.0229405,71.9566952 45.9779863,69.7173789 C45.9779863,69.7173789 37.7676316,50.9071225 36.2748398,44.039886 C35.6777231,41.6512821 35.3791648,35.2319088 35.2298856,32.2461538 C35.2298856,31.2011396 35.8270023,30.3054131 36.7226774,30.0068376 L55.084016,24.4831909 C57.3232037,23.8860399 58.6667163,21.3481481 58.0695996,19.1088319 C57.4724828,16.8695157 54.9347369,15.5259259 52.6955492,16.1230769 C52.6955492,16.1230769 35.6777231,21.6467236 29.5572769,21.6467236 C23.5861098,21.6467236 6.71756293,16.2723647 6.71756293,16.2723647 C4.47837529,15.6752137 1.94062929,16.7202279 1.19423341,18.9595442 C0.447837529,21.3481481 1.79135011,23.8860399 4.17981693,24.4831909 L22.5411556,30.0068376 C23.4368307,30.3054131 24.1832265,31.2011396 24.0339474,32.2461538 C23.8846682,35.2319088 23.5861098,41.6512821 22.9889931,44.039886 C21.4962014,50.9071225 13.2858467,69.7173789 13.2858467,69.7173789 C12.2408925,71.9566952 13.2858467,74.4945869 15.3757552,75.5396011 C15.9728719,75.8381766 16.5699886,75.9874644 17.1671053,75.9874644 C18.8091762,75.9874644 20.4512471,75.0917379 21.0483638,73.4495726 L29.8558352,55.5350427 L38.2154691,73.4495726 Z" id="Path"></path>
                    <ellipse id="Oval" cx="29.8558352" cy="8.95726496" rx="8.35963387" ry="8.36011396"></ellipse>
                </g>
                <g id="duplicate_40_original_original_Group_63178032_38240594" opacity="0.472305439" transform="translate(626.972540, 179.145299)">
                    <path d="M38.2154691,73.4495726 C38.961865,75.0917379 40.4546568,75.9874644 42.0967277,75.9874644 C42.6938444,75.9874644 43.2909611,75.8381766 43.8880778,75.5396011 C46.1272655,74.4945869 47.0229405,71.9566952 45.9779863,69.7173789 C45.9779863,69.7173789 37.7676316,50.9071225 36.2748398,44.039886 C35.6777231,41.6512821 35.3791648,35.2319088 35.2298856,32.2461538 C35.2298856,31.2011396 35.8270023,30.3054131 36.7226774,30.0068376 L55.084016,24.4831909 C57.3232037,23.8860399 58.6667163,21.3481481 58.0695996,19.1088319 C57.4724828,16.8695157 54.9347369,15.5259259 52.6955492,16.1230769 C52.6955492,16.1230769 35.6777231,21.6467236 29.5572769,21.6467236 C23.5861098,21.6467236 6.71756293,16.2723647 6.71756293,16.2723647 C4.47837529,15.6752137 1.94062929,16.7202279 1.19423341,18.9595442 C0.447837529,21.3481481 1.79135011,23.8860399 4.17981693,24.4831909 L22.5411556,30.0068376 C23.4368307,30.3054131 24.1832265,31.2011396 24.0339474,32.2461538 C23.8846682,35.2319088 23.5861098,41.6512821 22.9889931,44.039886 C21.4962014,50.9071225 13.2858467,69.7173789 13.2858467,69.7173789 C12.2408925,71.9566952 13.2858467,74.4945869 15.3757552,75.5396011 C15.9728719,75.8381766 16.5699886,75.9874644 17.1671053,75.9874644 C18.8091762,75.9874644 20.4512471,75.0917379 21.0483638,73.4495726 L29.8558352,55.5350427 L38.2154691,73.4495726 Z" id="Path"></path>
                    <ellipse id="Oval" cx="29.8558352" cy="8.95726496" rx="8.35963387" ry="8.36011396"></ellipse>
                </g>
                <g id="duplicate_39_original_original_Group_63178032_38240594" opacity="0.893810444" transform="translate(537.405034, 179.145299)">
                    <path d="M38.2154691,73.4495726 C38.961865,75.0917379 40.4546568,75.9874644 42.0967277,75.9874644 C42.6938444,75.9874644 43.2909611,75.8381766 43.8880778,75.5396011 C46.1272655,74.4945869 47.0229405,71.9566952 45.9779863,69.7173789 C45.9779863,69.7173789 37.7676316,50.9071225 36.2748398,44.039886 C35.6777231,41.6512821 35.3791648,35.2319088 35.2298856,32.2461538 C35.2298856,31.2011396 35.8270023,30.3054131 36.7226774,30.0068376 L55.084016,24.4831909 C57.3232037,23.8860399 58.6667163,21.3481481 58.0695996,19.1088319 C57.4724828,16.8695157 54.9347369,15.5259259 52.6955492,16.1230769 C52.6955492,16.1230769 35.6777231,21.6467236 29.5572769,21.6467236 C23.5861098,21.6467236 6.71756293,16.2723647 6.71756293,16.2723647 C4.47837529,15.6752137 1.94062929,16.7202279 1.19423341,18.9595442 C0.447837529,21.3481481 1.79135011,23.8860399 4.17981693,24.4831909 L22.5411556,30.0068376 C23.4368307,30.3054131 24.1832265,31.2011396 24.0339474,32.2461538 C23.8846682,35.2319088 23.5861098,41.6512821 22.9889931,44.039886 C21.4962014,50.9071225 13.2858467,69.7173789 13.2858467,69.7173789 C12.2408925,71.9566952 13.2858467,74.4945869 15.3757552,75.5396011 C15.9728719,75.8381766 16.5699886,75.9874644 17.1671053,75.9874644 C18.8091762,75.9874644 20.4512471,75.0917379 21.0483638,73.4495726 L29.8558352,55.5350427 L38.2154691,73.4495726 Z" id="Path"></path>
                    <ellipse id="Oval" cx="29.8558352" cy="8.95726496" rx="8.35963387" ry="8.36011396"></ellipse>
                </g>
                <g id="duplicate_38_original_original_Group_63178032_38240594" opacity="0.317240281" transform="translate(447.837529, 179.145299)">
                    <path d="M38.2154691,73.4495726 C38.961865,75.0917379 40.4546568,75.9874644 42.0967277,75.9874644 C42.6938444,75.9874644 43.2909611,75.8381766 43.8880778,75.5396011 C46.1272655,74.4945869 47.0229405,71.9566952 45.9779863,69.7173789 C45.9779863,69.7173789 37.7676316,50.9071225 36.2748398,44.039886 C35.6777231,41.6512821 35.3791648,35.2319088 35.2298856,32.2461538 C35.2298856,31.2011396 35.8270023,30.3054131 36.7226774,30.0068376 L55.084016,24.4831909 C57.3232037,23.8860399 58.6667163,21.3481481 58.0695996,19.1088319 C57.4724828,16.8695157 54.9347369,15.5259259 52.6955492,16.1230769 C52.6955492,16.1230769 35.6777231,21.6467236 29.5572769,21.6467236 C23.5861098,21.6467236 6.71756293,16.2723647 6.71756293,16.2723647 C4.47837529,15.6752137 1.94062929,16.7202279 1.19423341,18.9595442 C0.447837529,21.3481481 1.79135011,23.8860399 4.17981693,24.4831909 L22.5411556,30.0068376 C23.4368307,30.3054131 24.1832265,31.2011396 24.0339474,32.2461538 C23.8846682,35.2319088 23.5861098,41.6512821 22.9889931,44.039886 C21.4962014,50.9071225 13.2858467,69.7173789 13.2858467,69.7173789 C12.2408925,71.9566952 13.2858467,74.4945869 15.3757552,75.5396011 C15.9728719,75.8381766 16.5699886,75.9874644 17.1671053,75.9874644 C18.8091762,75.9874644 20.4512471,75.0917379 21.0483638,73.4495726 L29.8558352,55.5350427 L38.2154691,73.4495726 Z" id="Path"></path>
                    <ellipse id="Oval" cx="29.8558352" cy="8.95726496" rx="8.35963387" ry="8.36011396"></ellipse>
                </g>
                <g id="duplicate_27_original_original_Group_63178032_38240594" opacity="0.95089299" transform="translate(895.675057, 89.572650)">
                    <path d="M38.2154691,73.4495726 C38.961865,75.0917379 40.4546568,75.9874644 42.0967277,75.9874644 C42.6938444,75.9874644 43.2909611,75.8381766 43.8880778,75.5396011 C46.1272655,74.4945869 47.0229405,71.9566952 45.9779863,69.7173789 C45.9779863,69.7173789 37.7676316,50.9071225 36.2748398,44.039886 C35.6777231,41.6512821 35.3791648,35.2319088 35.2298856,32.2461538 C35.2298856,31.2011396 35.8270023,30.3054131 36.7226774,30.0068376 L55.084016,24.4831909 C57.3232037,23.8860399 58.6667163,21.3481481 58.0695996,19.1088319 C57.4724828,16.8695157 54.9347369,15.5259259 52.6955492,16.1230769 C52.6955492,16.1230769 35.6777231,21.6467236 29.5572769,21.6467236 C23.5861098,21.6467236 6.71756293,16.2723647 6.71756293,16.2723647 C4.47837529,15.6752137 1.94062929,16.7202279 1.19423341,18.9595442 C0.447837529,21.3481481 1.79135011,23.8860399 4.17981693,24.4831909 L22.5411556,30.0068376 C23.4368307,30.3054131 24.1832265,31.2011396 24.0339474,32.2461538 C23.8846682,35.2319088 23.5861098,41.6512821 22.9889931,44.039886 C21.4962014,50.9071225 13.2858467,69.7173789 13.2858467,69.7173789 C12.2408925,71.9566952 13.2858467,74.4945869 15.3757552,75.5396011 C15.9728719,75.8381766 16.5699886,75.9874644 17.1671053,75.9874644 C18.8091762,75.9874644 20.4512471,75.0917379 21.0483638,73.4495726 L29.8558352,55.5350427 L38.2154691,73.4495726 Z" id="Path"></path>
                    <ellipse id="Oval" cx="29.8558352" cy="8.95726496" rx="8.35963387" ry="8.36011396"></ellipse>
                </g>
                <g id="duplicate_26_original_original_Group_63178032_38240594" opacity="0.897116061" transform="translate(806.107552, 89.572650)">
                    <path d="M38.2154691,73.4495726 C38.961865,75.0917379 40.4546568,75.9874644 42.0967277,75.9874644 C42.6938444,75.9874644 43.2909611,75.8381766 43.8880778,75.5396011 C46.1272655,74.4945869 47.0229405,71.9566952 45.9779863,69.7173789 C45.9779863,69.7173789 37.7676316,50.9071225 36.2748398,44.039886 C35.6777231,41.6512821 35.3791648,35.2319088 35.2298856,32.2461538 C35.2298856,31.2011396 35.8270023,30.3054131 36.7226774,30.0068376 L55.084016,24.4831909 C57.3232037,23.8860399 58.6667163,21.3481481 58.0695996,19.1088319 C57.4724828,16.8695157 54.9347369,15.5259259 52.6955492,16.1230769 C52.6955492,16.1230769 35.6777231,21.6467236 29.5572769,21.6467236 C23.5861098,21.6467236 6.71756293,16.2723647 6.71756293,16.2723647 C4.47837529,15.6752137 1.94062929,16.7202279 1.19423341,18.9595442 C0.447837529,21.3481481 1.79135011,23.8860399 4.17981693,24.4831909 L22.5411556,30.0068376 C23.4368307,30.3054131 24.1832265,31.2011396 24.0339474,32.2461538 C23.8846682,35.2319088 23.5861098,41.6512821 22.9889931,44.039886 C21.4962014,50.9071225 13.2858467,69.7173789 13.2858467,69.7173789 C12.2408925,71.9566952 13.2858467,74.4945869 15.3757552,75.5396011 C15.9728719,75.8381766 16.5699886,75.9874644 17.1671053,75.9874644 C18.8091762,75.9874644 20.4512471,75.0917379 21.0483638,73.4495726 L29.8558352,55.5350427 L38.2154691,73.4495726 Z" id="Path"></path>
                    <ellipse id="Oval" cx="29.8558352" cy="8.95726496" rx="8.35963387" ry="8.36011396"></ellipse>
                </g>
                <g id="duplicate_25_original_original_Group_63178032_38240594" opacity="0.505918492" transform="translate(716.540046, 89.572650)">
                    <path d="M38.2154691,73.4495726 C38.961865,75.0917379 40.4546568,75.9874644 42.0967277,75.9874644 C42.6938444,75.9874644 43.2909611,75.8381766 43.8880778,75.5396011 C46.1272655,74.4945869 47.0229405,71.9566952 45.9779863,69.7173789 C45.9779863,69.7173789 37.7676316,50.9071225 36.2748398,44.039886 C35.6777231,41.6512821 35.3791648,35.2319088 35.2298856,32.2461538 C35.2298856,31.2011396 35.8270023,30.3054131 36.7226774,30.0068376 L55.084016,24.4831909 C57.3232037,23.8860399 58.6667163,21.3481481 58.0695996,19.1088319 C57.4724828,16.8695157 54.9347369,15.5259259 52.6955492,16.1230769 C52.6955492,16.1230769 35.6777231,21.6467236 29.5572769,21.6467236 C23.5861098,21.6467236 6.71756293,16.2723647 6.71756293,16.2723647 C4.47837529,15.6752137 1.94062929,16.7202279 1.19423341,18.9595442 C0.447837529,21.3481481 1.79135011,23.8860399 4.17981693,24.4831909 L22.5411556,30.0068376 C23.4368307,30.3054131 24.1832265,31.2011396 24.0339474,32.2461538 C23.8846682,35.2319088 23.5861098,41.6512821 22.9889931,44.039886 C21.4962014,50.9071225 13.2858467,69.7173789 13.2858467,69.7173789 C12.2408925,71.9566952 13.2858467,74.4945869 15.3757552,75.5396011 C15.9728719,75.8381766 16.5699886,75.9874644 17.1671053,75.9874644 C18.8091762,75.9874644 20.4512471,75.0917379 21.0483638,73.4495726 L29.8558352,55.5350427 L38.2154691,73.4495726 Z" id="Path"></path>
                    <ellipse id="Oval" cx="29.8558352" cy="8.95726496" rx="8.35963387" ry="8.36011396"></ellipse>
                </g>
                <g id="duplicate_24_original_original_Group_63178032_38240594" opacity="0.0757708556" transform="translate(626.972540, 89.572650)">
                    <path d="M38.2154691,73.4495726 C38.961865,75.0917379 40.4546568,75.9874644 42.0967277,75.9874644 C42.6938444,75.9874644 43.2909611,75.8381766 43.8880778,75.5396011 C46.1272655,74.4945869 47.0229405,71.9566952 45.9779863,69.7173789 C45.9779863,69.7173789 37.7676316,50.9071225 36.2748398,44.039886 C35.6777231,41.6512821 35.3791648,35.2319088 35.2298856,32.2461538 C35.2298856,31.2011396 35.8270023,30.3054131 36.7226774,30.0068376 L55.084016,24.4831909 C57.3232037,23.8860399 58.6667163,21.3481481 58.0695996,19.1088319 C57.4724828,16.8695157 54.9347369,15.5259259 52.6955492,16.1230769 C52.6955492,16.1230769 35.6777231,21.6467236 29.5572769,21.6467236 C23.5861098,21.6467236 6.71756293,16.2723647 6.71756293,16.2723647 C4.47837529,15.6752137 1.94062929,16.7202279 1.19423341,18.9595442 C0.447837529,21.3481481 1.79135011,23.8860399 4.17981693,24.4831909 L22.5411556,30.0068376 C23.4368307,30.3054131 24.1832265,31.2011396 24.0339474,32.2461538 C23.8846682,35.2319088 23.5861098,41.6512821 22.9889931,44.039886 C21.4962014,50.9071225 13.2858467,69.7173789 13.2858467,69.7173789 C12.2408925,71.9566952 13.2858467,74.4945869 15.3757552,75.5396011 C15.9728719,75.8381766 16.5699886,75.9874644 17.1671053,75.9874644 C18.8091762,75.9874644 20.4512471,75.0917379 21.0483638,73.4495726 L29.8558352,55.5350427 L38.2154691,73.4495726 Z" id="Path"></path>
                    <ellipse id="Oval" cx="29.8558352" cy="8.95726496" rx="8.35963387" ry="8.36011396"></ellipse>
                </g>
                <g id="duplicate_23_original_original_Group_63178032_38240594" opacity="0.032431298" transform="translate(537.405034, 89.572650)">
                    <path d="M38.2154691,73.4495726 C38.961865,75.0917379 40.4546568,75.9874644 42.0967277,75.9874644 C42.6938444,75.9874644 43.2909611,75.8381766 43.8880778,75.5396011 C46.1272655,74.4945869 47.0229405,71.9566952 45.9779863,69.7173789 C45.9779863,69.7173789 37.7676316,50.9071225 36.2748398,44.039886 C35.6777231,41.6512821 35.3791648,35.2319088 35.2298856,32.2461538 C35.2298856,31.2011396 35.8270023,30.3054131 36.7226774,30.0068376 L55.084016,24.4831909 C57.3232037,23.8860399 58.6667163,21.3481481 58.0695996,19.1088319 C57.4724828,16.8695157 54.9347369,15.5259259 52.6955492,16.1230769 C52.6955492,16.1230769 35.6777231,21.6467236 29.5572769,21.6467236 C23.5861098,21.6467236 6.71756293,16.2723647 6.71756293,16.2723647 C4.47837529,15.6752137 1.94062929,16.7202279 1.19423341,18.9595442 C0.447837529,21.3481481 1.79135011,23.8860399 4.17981693,24.4831909 L22.5411556,30.0068376 C23.4368307,30.3054131 24.1832265,31.2011396 24.0339474,32.2461538 C23.8846682,35.2319088 23.5861098,41.6512821 22.9889931,44.039886 C21.4962014,50.9071225 13.2858467,69.7173789 13.2858467,69.7173789 C12.2408925,71.9566952 13.2858467,74.4945869 15.3757552,75.5396011 C15.9728719,75.8381766 16.5699886,75.9874644 17.1671053,75.9874644 C18.8091762,75.9874644 20.4512471,75.0917379 21.0483638,73.4495726 L29.8558352,55.5350427 L38.2154691,73.4495726 Z" id="Path"></path>
                    <ellipse id="Oval" cx="29.8558352" cy="8.95726496" rx="8.35963387" ry="8.36011396"></ellipse>
                </g>
                <g id="duplicate_22_original_original_Group_63178032_38240594" opacity="0.634345178" transform="translate(447.837529, 89.572650)">
                    <path d="M38.2154691,73.4495726 C38.961865,75.0917379 40.4546568,75.9874644 42.0967277,75.9874644 C42.6938444,75.9874644 43.2909611,75.8381766 43.8880778,75.5396011 C46.1272655,74.4945869 47.0229405,71.9566952 45.9779863,69.7173789 C45.9779863,69.7173789 37.7676316,50.9071225 36.2748398,44.039886 C35.6777231,41.6512821 35.3791648,35.2319088 35.2298856,32.2461538 C35.2298856,31.2011396 35.8270023,30.3054131 36.7226774,30.0068376 L55.084016,24.4831909 C57.3232037,23.8860399 58.6667163,21.3481481 58.0695996,19.1088319 C57.4724828,16.8695157 54.9347369,15.5259259 52.6955492,16.1230769 C52.6955492,16.1230769 35.6777231,21.6467236 29.5572769,21.6467236 C23.5861098,21.6467236 6.71756293,16.2723647 6.71756293,16.2723647 C4.47837529,15.6752137 1.94062929,16.7202279 1.19423341,18.9595442 C0.447837529,21.3481481 1.79135011,23.8860399 4.17981693,24.4831909 L22.5411556,30.0068376 C23.4368307,30.3054131 24.1832265,31.2011396 24.0339474,32.2461538 C23.8846682,35.2319088 23.5861098,41.6512821 22.9889931,44.039886 C21.4962014,50.9071225 13.2858467,69.7173789 13.2858467,69.7173789 C12.2408925,71.9566952 13.2858467,74.4945869 15.3757552,75.5396011 C15.9728719,75.8381766 16.5699886,75.9874644 17.1671053,75.9874644 C18.8091762,75.9874644 20.4512471,75.0917379 21.0483638,73.4495726 L29.8558352,55.5350427 L38.2154691,73.4495726 Z" id="Path"></path>
                    <ellipse id="Oval" cx="29.8558352" cy="8.95726496" rx="8.35963387" ry="8.36011396"></ellipse>
                </g>
                <g id="duplicate_11_original_original_Group_63178032_38240594" opacity="0.117134549" transform="translate(895.675057, 0.000000)">
                    <path d="M38.2154691,73.4495726 C38.961865,75.0917379 40.4546568,75.9874644 42.0967277,75.9874644 C42.6938444,75.9874644 43.2909611,75.8381766 43.8880778,75.5396011 C46.1272655,74.4945869 47.0229405,71.9566952 45.9779863,69.7173789 C45.9779863,69.7173789 37.7676316,50.9071225 36.2748398,44.039886 C35.6777231,41.6512821 35.3791648,35.2319088 35.2298856,32.2461538 C35.2298856,31.2011396 35.8270023,30.3054131 36.7226774,30.0068376 L55.084016,24.4831909 C57.3232037,23.8860399 58.6667163,21.3481481 58.0695996,19.1088319 C57.4724828,16.8695157 54.9347369,15.5259259 52.6955492,16.1230769 C52.6955492,16.1230769 35.6777231,21.6467236 29.5572769,21.6467236 C23.5861098,21.6467236 6.71756293,16.2723647 6.71756293,16.2723647 C4.47837529,15.6752137 1.94062929,16.7202279 1.19423341,18.9595442 C0.447837529,21.3481481 1.79135011,23.8860399 4.17981693,24.4831909 L22.5411556,30.0068376 C23.4368307,30.3054131 24.1832265,31.2011396 24.0339474,32.2461538 C23.8846682,35.2319088 23.5861098,41.6512821 22.9889931,44.039886 C21.4962014,50.9071225 13.2858467,69.7173789 13.2858467,69.7173789 C12.2408925,71.9566952 13.2858467,74.4945869 15.3757552,75.5396011 C15.9728719,75.8381766 16.5699886,75.9874644 17.1671053,75.9874644 C18.8091762,75.9874644 20.4512471,75.0917379 21.0483638,73.4495726 L29.8558352,55.5350427 L38.2154691,73.4495726 Z" id="Path"></path>
                    <ellipse id="Oval" cx="29.8558352" cy="8.95726496" rx="8.35963387" ry="8.36011396"></ellipse>
                </g>
                <g id="duplicate_10_original_original_Group_63178032_38240594" opacity="0.712118903" transform="translate(806.107552, 0.000000)">
                    <path d="M38.2154691,73.4495726 C38.961865,75.0917379 40.4546568,75.9874644 42.0967277,75.9874644 C42.6938444,75.9874644 43.2909611,75.8381766 43.8880778,75.5396011 C46.1272655,74.4945869 47.0229405,71.9566952 45.9779863,69.7173789 C45.9779863,69.7173789 37.7676316,50.9071225 36.2748398,44.039886 C35.6777231,41.6512821 35.3791648,35.2319088 35.2298856,32.2461538 C35.2298856,31.2011396 35.8270023,30.3054131 36.7226774,30.0068376 L55.084016,24.4831909 C57.3232037,23.8860399 58.6667163,21.3481481 58.0695996,19.1088319 C57.4724828,16.8695157 54.9347369,15.5259259 52.6955492,16.1230769 C52.6955492,16.1230769 35.6777231,21.6467236 29.5572769,21.6467236 C23.5861098,21.6467236 6.71756293,16.2723647 6.71756293,16.2723647 C4.47837529,15.6752137 1.94062929,16.7202279 1.19423341,18.9595442 C0.447837529,21.3481481 1.79135011,23.8860399 4.17981693,24.4831909 L22.5411556,30.0068376 C23.4368307,30.3054131 24.1832265,31.2011396 24.0339474,32.2461538 C23.8846682,35.2319088 23.5861098,41.6512821 22.9889931,44.039886 C21.4962014,50.9071225 13.2858467,69.7173789 13.2858467,69.7173789 C12.2408925,71.9566952 13.2858467,74.4945869 15.3757552,75.5396011 C15.9728719,75.8381766 16.5699886,75.9874644 17.1671053,75.9874644 C18.8091762,75.9874644 20.4512471,75.0917379 21.0483638,73.4495726 L29.8558352,55.5350427 L38.2154691,73.4495726 Z" id="Path"></path>
                    <ellipse id="Oval" cx="29.8558352" cy="8.95726496" rx="8.35963387" ry="8.36011396"></ellipse>
                </g>
                <g id="duplicate_9_original_original_Group_63178032_38240594" opacity="0.157229754" transform="translate(716.540046, 0.000000)">
                    <path d="M38.2154691,73.4495726 C38.961865,75.0917379 40.4546568,75.9874644 42.0967277,75.9874644 C42.6938444,75.9874644 43.2909611,75.8381766 43.8880778,75.5396011 C46.1272655,74.4945869 47.0229405,71.9566952 45.9779863,69.7173789 C45.9779863,69.7173789 37.7676316,50.9071225 36.2748398,44.039886 C35.6777231,41.6512821 35.3791648,35.2319088 35.2298856,32.2461538 C35.2298856,31.2011396 35.8270023,30.3054131 36.7226774,30.0068376 L55.084016,24.4831909 C57.3232037,23.8860399 58.6667163,21.3481481 58.0695996,19.1088319 C57.4724828,16.8695157 54.9347369,15.5259259 52.6955492,16.1230769 C52.6955492,16.1230769 35.6777231,21.6467236 29.5572769,21.6467236 C23.5861098,21.6467236 6.71756293,16.2723647 6.71756293,16.2723647 C4.47837529,15.6752137 1.94062929,16.7202279 1.19423341,18.9595442 C0.447837529,21.3481481 1.79135011,23.8860399 4.17981693,24.4831909 L22.5411556,30.0068376 C23.4368307,30.3054131 24.1832265,31.2011396 24.0339474,32.2461538 C23.8846682,35.2319088 23.5861098,41.6512821 22.9889931,44.039886 C21.4962014,50.9071225 13.2858467,69.7173789 13.2858467,69.7173789 C12.2408925,71.9566952 13.2858467,74.4945869 15.3757552,75.5396011 C15.9728719,75.8381766 16.5699886,75.9874644 17.1671053,75.9874644 C18.8091762,75.9874644 20.4512471,75.0917379 21.0483638,73.4495726 L29.8558352,55.5350427 L38.2154691,73.4495726 Z" id="Path"></path>
                    <ellipse id="Oval" cx="29.8558352" cy="8.95726496" rx="8.35963387" ry="8.36011396"></ellipse>
                </g>
                <g id="duplicate_8_original_original_Group_63178032_38240594" opacity="0.108926147" transform="translate(626.972540, 0.000000)">
                    <path d="M38.2154691,73.4495726 C38.961865,75.0917379 40.4546568,75.9874644 42.0967277,75.9874644 C42.6938444,75.9874644 43.2909611,75.8381766 43.8880778,75.5396011 C46.1272655,74.4945869 47.0229405,71.9566952 45.9779863,69.7173789 C45.9779863,69.7173789 37.7676316,50.9071225 36.2748398,44.039886 C35.6777231,41.6512821 35.3791648,35.2319088 35.2298856,32.2461538 C35.2298856,31.2011396 35.8270023,30.3054131 36.7226774,30.0068376 L55.084016,24.4831909 C57.3232037,23.8860399 58.6667163,21.3481481 58.0695996,19.1088319 C57.4724828,16.8695157 54.9347369,15.5259259 52.6955492,16.1230769 C52.6955492,16.1230769 35.6777231,21.6467236 29.5572769,21.6467236 C23.5861098,21.6467236 6.71756293,16.2723647 6.71756293,16.2723647 C4.47837529,15.6752137 1.94062929,16.7202279 1.19423341,18.9595442 C0.447837529,21.3481481 1.79135011,23.8860399 4.17981693,24.4831909 L22.5411556,30.0068376 C23.4368307,30.3054131 24.1832265,31.2011396 24.0339474,32.2461538 C23.8846682,35.2319088 23.5861098,41.6512821 22.9889931,44.039886 C21.4962014,50.9071225 13.2858467,69.7173789 13.2858467,69.7173789 C12.2408925,71.9566952 13.2858467,74.4945869 15.3757552,75.5396011 C15.9728719,75.8381766 16.5699886,75.9874644 17.1671053,75.9874644 C18.8091762,75.9874644 20.4512471,75.0917379 21.0483638,73.4495726 L29.8558352,55.5350427 L38.2154691,73.4495726 Z" id="Path"></path>
                    <ellipse id="Oval" cx="29.8558352" cy="8.95726496" rx="8.35963387" ry="8.36011396"></ellipse>
                </g>
                <g id="duplicate_7_original_original_Group_63178032_38240594" opacity="0.745905188" transform="translate(537.405034, 0.000000)">
                    <path d="M38.2154691,73.4495726 C38.961865,75.0917379 40.4546568,75.9874644 42.0967277,75.9874644 C42.6938444,75.9874644 43.2909611,75.8381766 43.8880778,75.5396011 C46.1272655,74.4945869 47.0229405,71.9566952 45.9779863,69.7173789 C45.9779863,69.7173789 37.7676316,50.9071225 36.2748398,44.039886 C35.6777231,41.6512821 35.3791648,35.2319088 35.2298856,32.2461538 C35.2298856,31.2011396 35.8270023,30.3054131 36.7226774,30.0068376 L55.084016,24.4831909 C57.3232037,23.8860399 58.6667163,21.3481481 58.0695996,19.1088319 C57.4724828,16.8695157 54.9347369,15.5259259 52.6955492,16.1230769 C52.6955492,16.1230769 35.6777231,21.6467236 29.5572769,21.6467236 C23.5861098,21.6467236 6.71756293,16.2723647 6.71756293,16.2723647 C4.47837529,15.6752137 1.94062929,16.7202279 1.19423341,18.9595442 C0.447837529,21.3481481 1.79135011,23.8860399 4.17981693,24.4831909 L22.5411556,30.0068376 C23.4368307,30.3054131 24.1832265,31.2011396 24.0339474,32.2461538 C23.8846682,35.2319088 23.5861098,41.6512821 22.9889931,44.039886 C21.4962014,50.9071225 13.2858467,69.7173789 13.2858467,69.7173789 C12.2408925,71.9566952 13.2858467,74.4945869 15.3757552,75.5396011 C15.9728719,75.8381766 16.5699886,75.9874644 17.1671053,75.9874644 C18.8091762,75.9874644 20.4512471,75.0917379 21.0483638,73.4495726 L29.8558352,55.5350427 L38.2154691,73.4495726 Z" id="Path"></path>
                    <ellipse id="Oval" cx="29.8558352" cy="8.95726496" rx="8.35963387" ry="8.36011396"></ellipse>
                </g>
                <g id="duplicate_6_original_original_Group_63178032_38240594" opacity="0.181163757" transform="translate(447.837529, 0.000000)">
                    <path d="M38.2154691,73.4495726 C38.961865,75.0917379 40.4546568,75.9874644 42.0967277,75.9874644 C42.6938444,75.9874644 43.2909611,75.8381766 43.8880778,75.5396011 C46.1272655,74.4945869 47.0229405,71.9566952 45.9779863,69.7173789 C45.9779863,69.7173789 37.7676316,50.9071225 36.2748398,44.039886 C35.6777231,41.6512821 35.3791648,35.2319088 35.2298856,32.2461538 C35.2298856,31.2011396 35.8270023,30.3054131 36.7226774,30.0068376 L55.084016,24.4831909 C57.3232037,23.8860399 58.6667163,21.3481481 58.0695996,19.1088319 C57.4724828,16.8695157 54.9347369,15.5259259 52.6955492,16.1230769 C52.6955492,16.1230769 35.6777231,21.6467236 29.5572769,21.6467236 C23.5861098,21.6467236 6.71756293,16.2723647 6.71756293,16.2723647 C4.47837529,15.6752137 1.94062929,16.7202279 1.19423341,18.9595442 C0.447837529,21.3481481 1.79135011,23.8860399 4.17981693,24.4831909 L22.5411556,30.0068376 C23.4368307,30.3054131 24.1832265,31.2011396 24.0339474,32.2461538 C23.8846682,35.2319088 23.5861098,41.6512821 22.9889931,44.039886 C21.4962014,50.9071225 13.2858467,69.7173789 13.2858467,69.7173789 C12.2408925,71.9566952 13.2858467,74.4945869 15.3757552,75.5396011 C15.9728719,75.8381766 16.5699886,75.9874644 17.1671053,75.9874644 C18.8091762,75.9874644 20.4512471,75.0917379 21.0483638,73.4495726 L29.8558352,55.5350427 L38.2154691,73.4495726 Z" id="Path"></path>
                    <ellipse id="Oval" cx="29.8558352" cy="8.95726496" rx="8.35963387" ry="8.36011396"></ellipse>
                </g>
            </g>
        </g>
        <rect id="Rectangle" fill="#1E3791" opacity="0.644135975" x="-10" y="-11" width="534" height="535"></rect>
        <g id="Group-2" transform="translate(114.000000, 106.000000)" fill="#FFFFFF">
            <path d="M163.421055,276.967742 L163.421055,238.505128 L133.580119,238.505128 L133.580119,276.967742 L163.421055,276.967742 Z M201.413793,288.020165 L283.80013,288.020165 L283.80013,163.413318 L269.287791,163.413318 L27.7133838,163.413318 L13.201044,163.413318 L13.201044,288.020165 L92.3967376,288.020165 L99,288.020165 L99,283.795742 C99,280.024742 102.057,276.967742 105.828,276.967742 L120.378488,276.967742 L120.378488,231.89995 C120.378488,228.251498 123.333455,225.294184 126.97901,225.294184 L170.02099,225.294184 C173.666545,225.294184 176.621512,228.251498 176.621512,231.89995 L176.621512,276.967742 L195.913793,276.967742 C198.951359,276.967742 201.413793,279.430176 201.413793,282.467742 L201.413793,288.020165 Z M143.37931,52.7180425 L143.37931,17.0856507 C143.37931,13.314879 146.436125,10.2580645 150.206897,10.2580645 C153.977668,10.2580645 157.034483,13.314879 157.034483,17.0856507 L157.034483,52.8875792 C174.171352,54.6463072 190.407545,61.6680243 203.465201,73.1065003 C217.07085,85.025089 226.411411,100.978249 230.153272,118.501161 L269.287791,118.501161 C272.933346,118.501161 275.888313,121.458475 275.888313,125.106927 L275.888313,150.202373 L290.400065,150.202373 C294.04562,150.202373 297,153.159688 297,156.808139 L297,294.625343 C297,298.273795 294.045033,301.231109 290.399478,301.231109 L170.02099,301.231109 L126.97901,301.231109 L6.60052199,301.231109 C2.95496678,301.231109 0,298.273795 0,294.625343 L0,156.808727 C0,153.160275 2.95496678,150.202961 6.60052199,150.202961 L21.1122746,150.202961 L21.1122746,125.107514 C21.1122746,121.459063 24.0672414,118.501748 27.7127966,118.501748 L66.8467277,118.501748 C70.5880022,100.978249 79.9291502,85.0256767 93.5347991,73.107088 C107.030048,61.28547 123.92069,54.1807452 141.692184,52.7291223 L143.37931,52.7180425 Z M148.500587,65.6573823 C116.294855,65.6573823 88.2661262,87.8965991 80.4036361,118.501748 L216.596951,118.501748 C208.735635,87.8965991 180.706906,65.6573823 148.500587,65.6573823 Z M34.3133186,131.712105 L34.3133186,150.202373 L262.688443,150.202373 L262.688443,131.712105 L224.628565,131.712105 L72.3731968,131.712105 L34.3133186,131.712105 Z M82.0649866,174.387097 C85.7619688,174.387097 88.7580252,177.302989 88.7586207,180.900338 L88.7586207,208.906114 C88.7586207,212.503463 85.7619688,215.419355 82.0649866,215.419355 L44.2453583,215.419355 C40.548376,215.419355 37.5517241,212.503463 37.5517241,208.906114 L37.5517241,180.900338 C37.5517241,177.302989 40.548376,174.387097 44.2453583,174.387097 L82.0649866,174.387097 Z M75.3713524,202.392873 L75.3713524,187.412999 L50.9383969,187.412999 L50.9383969,202.392873 L75.3713524,202.392873 Z M82.0649866,232.516129 C85.7619688,232.516129 88.7580252,235.432021 88.7586207,239.02937 L88.7586207,267.035146 C88.7586207,270.632495 85.7619688,273.548387 82.0649866,273.548387 L44.2453583,273.548387 C40.548376,273.548387 37.5517241,270.632495 37.5517241,267.035146 L37.5517241,239.02937 C37.5517241,235.432021 40.548376,232.516129 44.2453583,232.516129 L82.0649866,232.516129 Z M75.3713524,260.521906 L75.3713524,245.542031 L50.9383969,245.542031 L50.9383969,260.521906 L75.3713524,260.521906 Z M167.409892,174.71498 C171.106831,174.71498 174.103448,177.630872 174.103448,181.228221 L174.103448,209.233997 C174.103448,212.831346 171.106831,215.747238 167.409892,215.747238 L129.590108,215.747238 C125.893169,215.747238 122.896552,212.831346 122.896552,209.233997 L122.896552,181.228221 C122.896552,177.630872 125.893169,174.71498 129.590108,174.71498 L167.409892,174.71498 Z M160.716931,202.720757 L160.716931,187.740882 L136.283664,187.740882 L136.283664,202.720757 L160.716931,202.720757 Z M252.754642,174.387097 C256.451624,174.387097 259.448276,177.302989 259.448276,180.900338 L259.448276,208.906114 C259.448276,212.503463 256.451624,215.419355 252.754642,215.419355 L214.935013,215.419355 C211.238031,215.419355 208.241379,212.503463 208.241379,208.906114 L208.241379,180.900338 C208.241379,177.302989 211.238031,174.387097 214.935013,174.387097 L252.754642,174.387097 Z M246.061603,202.392873 L246.061603,187.412999 L221.628648,187.412999 L221.628648,202.392873 L246.061603,202.392873 Z M252.754642,232.516129 C256.451624,232.516129 259.448276,235.432021 259.448276,239.02937 L259.448276,267.035146 C259.448276,270.632495 256.451624,273.548387 252.754642,273.548387 L214.935013,273.548387 C211.238031,273.548387 208.241379,270.632495 208.241379,267.035146 L208.241379,239.02937 C208.241379,235.432021 211.238031,232.516129 214.935013,232.516129 L252.754642,232.516129 Z M246.061603,260.521906 L246.061603,245.542031 L221.628648,245.542031 L221.628648,260.521906 L246.061603,260.521906 Z" id="Combined-Shape" fill-rule="nonzero"></path>
            <rect id="Rectangle" x="105.827586" y="0" width="51.2068966" height="41.0322581" rx="6.82758621"></rect>
        </g>
    </g>
</svg>