<svg xmlns="http://www.w3.org/2000/svg" width="57" height="50" viewBox="0 0 57 50">
  <g fill="#404040" transform="translate(.566 .066)">
    <polygon points="29.282 34.234 29.282 37.69 34.011 37.69 34.011 49.663 37.816 49.663 37.816 37.69 42.587 37.69 42.587 34.234"/>
    <polygon points="1.308 46.207 1.308 49.663 5.5 49.663 5.732 46.207"/>
    <path d="M21.2669808 47.4200923L20.0562161 49.641777 15.8544349 49.641777 25.2848484 34.2335655 28.770536 34.2335655 28.770536 49.641777 25.2669006 49.641777 25.2669006 47.4200923 21.2669808 47.4200923zM25.2669006 44.2931572L25.2669006 39.994176 25.2114442 39.994176 22.936118 44.2931572 25.2669006 44.2931572zM9.68344686 34.2359854L9.92281691 37.6900125 10.0720451 37.6900125C10.709088 37.6900125 11.2567957 37.7995137 11.7153698 38.0187178 12.1731373 38.2387285 12.547821 38.5369832 12.8396226 38.9138851 13.1320291 39.2915937 13.347805 39.7400848 13.4875551 40.2611735 13.626902 40.7830687 13.6962729 41.3521524 13.6962729 41.9690293 13.6962729 42.585503 13.6297252 43.1551916 13.4972348 43.6764819 13.3645427 44.1977722 13.1515901 44.646465 12.8601919 45.0235686 12.5675837 45.4010755 12.1929 45.6924738 11.7349308 45.8977633 11.3836397 46.0560662 10.9750771 46.1516529 10.5108565 46.1885566L10.7496216 49.6284675C12.7686384 49.4798443 14.3619515 48.8369532 15.5285528 47.6977777 16.8691864 46.3884013 17.5393015 44.4581148 17.5393015 41.9071198 17.5393015 41.0432097 17.4332285 40.2030955 17.2208809 39.3873821 17.0083316 38.5716686 16.6568388 37.8067734 16.1655958 37.0937048 15.7404971 36.490339 15.2827297 35.999701 14.7922933 35.6230007 14.300647 35.2460988 13.7789534 34.9540956 13.2284225 34.748201 12.6772865 34.5425081 12.0934817 34.4055812 11.4759998 34.3370169 10.9048996 34.2738974 10.3063736 34.2406236 9.68344686 34.2359854zM46.6022936 47.2813504L46.6022936 49.5028335 43.0984566 49.5028335 43.0984566 34.094622 46.5839426 34.094622 56.0145577 49.5028335 51.8123732 49.5028335 50.6020118 47.2813504 46.6022936 47.2813504zM48.9324713 44.1544153L46.657145 39.8552325 46.6022936 39.8552325 46.6022936 44.1544153 48.9324713 44.1544153z"/>
    <polygon points="1.308 34.234 1.308 37.69 6.303 37.69 6.535 34.234"/>
    <polygon points="47.015 23.522 52.689 33.145 56.015 33.145 56.015 17.354 52.511 17.354 52.511 27.228 52.47 27.25 46.696 17.354 43.098 17.354 43.098 33.145 46.955 33.145 46.954 23.565"/>
    <polygon points="29.282 17.353 29.282 33.145 42.424 33.145 42.424 29.602 33.016 29.602 33.016 26.918 38.62 26.918 38.62 23.354 33.016 23.354 33.016 20.895 42.424 20.895 42.424 17.353"/>
    <path d="M16.3440646 17.3306524L16.3440646 33.1448049 20.1429297 33.1448049 20.1429297 20.8500172 22.4368086 20.8500172C23.7252124 20.8500172 25.0360003 21.0532902 25.0360003 22.6994382 25.0360003 24.3240086 23.8351169 24.6172218 22.5688957 24.6172218L20.6551453 24.6172218 20.6551453 28.18196 22.6997729 28.18196C24.3810096 28.18196 25.843849 28.0016763 27.1322527 26.7830468 28.2462208 25.7906795 28.770536 24.0977464 28.770536 22.6316805 28.770536 21.0077151 28.1802781 19.4742949 26.979193 18.4811209 25.7129719 17.3762275 23.8129343 17.3306524 22.2409971 17.3306524L16.3440646 17.3306524zM7.65011226 17.3635229C5.30198689 17.4673777 3.26381246 18.5200412 1.83545692 20.4670655 1.41983631 20.9853309 1.07056173 21.5945448.874548522 22.1581836.459129571 23.2187119.284290625 24.2788368.284290625 25.4073244.284290625 29.2852402 3.05166648 32.3379645 6.57909768 33.006063L6.83681875 29.1632361C5.11000688 28.6350893 4.06238481 27.02766 4.06238481 25.1850955 4.06238481 23.2306098 5.30864166 21.5237622 7.27704184 21.1722694L7.65011226 17.3635229zM8.51765222 17.3693711L8.93912096 21.2029217C10.8482332 21.625802 12.0543598 23.3735865 12.0543598 25.247005 12.0543598 26.970792 11.0137958 28.5850777 9.37006771 29.1424651L9.6352502 32.9828721C13.1717561 32.2583089 15.832454 29.1660593 15.832454 25.2494249 15.832454 20.9064819 12.595211 17.610556 8.51765222 17.3693711zM21.954842 12.8086356L21.954842 16.2634694 12.2191157 16.2634694 12.2191157 13.1379459C12.1884635 13.2369608 12.1559963 13.3367824 12.1194958 13.4351923 11.8938387 14.0458178 11.5483956 14.549362 11.0833684 14.9468333 10.6984001 15.290663 10.3200865 15.551409 9.948831 15.7292728 9.57676889 15.90754 9.19563208 16.0372072 8.80360566 16.1198877 8.68664304 16.1440868 8.56786549 16.1644544 8.44888627 16.1819988L8.05847312 12.6337967C8.13107061 12.6005228 8.20084486 12.5630141 8.26598094 12.5196573 8.43194686 12.4105594 8.56484059 12.2599196 8.6638555 12.0679396 8.7638787 11.8753546 8.81348698 11.6355813 8.81348698 11.3478129 8.81348698 11.0731524 8.7638787 10.8464869 8.6638555 10.6684214 8.56484059 10.4903559 8.43194686 10.3530257 8.26598094 10.256834 8.09981336 10.1618523 7.90763168 10.0961112 7.68883092 10.0626357 7.46962684 10.0279502 7.24659123 10.0104059 7.02133736 10.0104059L1.30791518 10.0104059 1.30791518 6.71931981 6.56336822 6.71931981C6.98826518 6.71931981 7.34661444 6.63704265 7.63861766 6.47208503 7.93082254 6.30773239 8.07682415 5.98568187 8.07682415 5.50512685 8.07682415 5.25829539 8.0370972 5.05623239 7.95723996 4.89813119 7.87738273 4.74083664 7.76788152 4.61762257 7.62853467 4.52848899 7.48959115 4.43975873 7.32987668 4.38168074 7.15080288 4.35344839 6.97152742 4.32622433 6.78277396 4.31190649 6.58393751 4.31190649L1.30791518 4.31190649 1.30791518.856266138 6.06587378.856266138C6.51698649.856266138 6.95801622.866147463 7.38976961.887523389 7.82071635.907084379 8.23956352.965969007 8.64409285 1.06175736 9.04963047 1.15835235 9.43419549 1.30899213 9.79919952 1.51428169 10.1640019 1.72057955 10.5066217 2.00834792 10.8254457 2.37839344 11.1436646 2.73512942 11.3753716 3.12211435 11.5215749 3.5405582 11.6671732 3.95900204 11.7409806 4.40809816 11.7409806 4.88824987 11.7409806 5.5468704 11.5919541 6.15386605 11.2928928 6.70822852 10.9940331 7.26380095 10.5588516 7.70019251 9.98875962 8.01498328 10.8117328 8.30254999 11.4290131 8.75285606 11.8401972 9.36247329 11.9958785 9.59357529 12.1223191 9.84403662 12.2191157 10.113454L12.2191157.835293531 18.4421319.835293531 18.4421319.830050379 21.9693615.830050379C22.3847804.830050379 22.8114923.837108468 23.2490938.850418007 23.6858887.864332526 24.1198604.908899316 24.5500005.984118378 24.9805439 1.06014408 25.3957612 1.16964529 25.7980722 1.31322698 26.1991734 1.45801864 26.5716388 1.6602833 26.9160735 1.92042429 27.5755007 2.44171458 28.0733985 3.07653926 28.4107751 3.8236884 28.7477485 4.57164417 28.9159326 5.35025221 28.9159326 6.15991584 28.9159326 6.74997208 28.8261941 7.31582915 28.6477253 7.85728541 28.4680465 8.3995483 28.2060905 8.88655643 27.8622608 9.31851148 27.5182294 9.75046652 27.095349 10.1148656 26.5936197 10.4092887 26.0910838 10.7045185 25.5246217 10.90033 24.8940319 10.9963201L29.2815416 16.2638727 24.5500005 16.2638727 21.954842 12.8086356zM22.270641 8.58830176C23.0448126 8.58830176 23.6858887 8.42031924 24.1946761 8.08435421 24.7040685 7.74738088 24.9587646 7.18172546 24.9587646 6.38637967 24.9587646 6.00282295 24.8869738 5.67613426 24.7431904 5.40853186 24.5998104 5.14153443 24.4066204 4.92495193 24.1626122 4.76059929 23.9188056 4.59584333 23.6360788 4.47605748 23.3136249 4.40043509 22.9907678 4.32521603 22.1635598 4.28811065 21.5007044 4.28811065 21.29118 4.28811065 20.9086315 4.28811065 20.4829279 4.28891729L20.4829279 4.29153886 15.8631062 4.29153886 15.8631062 6.69854886 18.9162339 6.69854886 18.9162339 8.58830176 22.270641 8.58830176zM21.954842 12.8080307L18.9162339 8.76172909 18.9162339 10.1749602 15.8631062 10.1749602 15.8631062 12.8080307 21.954842 12.8080307z"/>
    <path d="M1.30791518,12.8292049 L1.30791518,16.2638727 L6.20501896,16.2638727 C6.69606029,16.2638727 7.15342446,16.2602428 7.57912805,16.2537897 C7.62127493,16.2523781 7.66261516,16.2495548 7.70476204,16.2485465 L8.05847312,12.6337967 C7.94675366,12.6858249 7.82757278,12.7277701 7.69810727,12.7560025 C7.48575962,12.8054091 7.26050575,12.8292049 7.02133736,12.8292049 L1.30791518,12.8292049 Z"/>
    <polygon points="47.015 6.863 52.689 16.263 56.015 16.263 56.015 .835 52.511 .835 52.511 10.483 52.47 10.504 46.696 .835 43.098 .835 43.098 16.263 46.955 16.263 46.954 6.904"/>
    <polygon points="38.62 16.263 42.424 16.263 42.424 .835 38.62 .835"/>
    <polygon points="29.282 .835 29.282 16.263 38.109 16.263 38.109 12.788 33.085 12.788 33.085 .835"/>
  </g>
</svg>
