<?xml version="1.0" encoding="UTF-8"?>
<svg width="870px" height="298px" viewBox="0 0 870 298" version="1.1" xmlns="http://www.w3.org/2000/svg" xmlns:xlink="http://www.w3.org/1999/xlink">
    <!-- Generator: Sketch 53 (72520) - https://sketchapp.com -->
    <title>A4</title>
    <desc>Created with Sketch.</desc>
    <g id="A4" stroke="none" stroke-width="1" fill="none" fill-rule="evenodd">
        <circle id="Oval" fill="#1E3791" cx="265.5" cy="149.5" r="99.5"></circle>
        <g id="Group-2" transform="translate(157.000000, 95.000000)" fill="#FFFFFF" fill-rule="nonzero">
            <path d="M43.5009991,58 L43.5009991,53.162 L48.0519991,53.162 L48.0519991,35.409 L42.4349991,38.648 L41.7379991,33.072 L50.8809991,27.25 L54.9399991,27.25 L54.9399991,53.162 L59.4089991,53.162 L59.4089991,58 L43.5009991,58 Z M86.9314994,35.901 C86.9314994,41.477 82.0524994,46.11 75.0824994,51.932 L75.0824994,52.055 L86.8904994,52.055 L86.7674994,58 L66.3494994,58 L66.3494994,53.572 C73.7294994,46.274 79.9614994,41.108 79.9614994,36.557 C79.9614994,34.425 78.5674994,32.908 75.1234994,32.908 C72.4174994,32.908 69.9574994,34.015 67.7024994,35.614 L66.1034994,30.12 C68.6454994,28.193 72.1714994,26.881 76.3534994,26.881 C83.4054994,26.881 86.9314994,30.53 86.9314994,35.901 Z M124.7155,47.381 C124.7155,54.228 121.2715,58.369 113.3175,58.369 C109.7505,58.369 106.4705,57.631 103.8465,56.073 L105.0355,50.743 C107.5365,52.014 109.6275,52.752 112.6615,52.752 C116.6795,52.752 118.0735,51.153 118.0735,47.955 C118.0735,45.085 116.3925,43.937 112.7845,43.937 C110.6525,43.937 108.2745,44.347 106.5525,45.003 L104.2155,42.461 L105.4455,27.25 L123.0345,27.25 L123.2395,33.195 L110.7755,33.195 L110.3245,38.894 C111.7185,38.607 113.1945,38.443 114.7525,38.443 C121.1485,38.443 124.7155,41.436 124.7155,47.381 Z M151.172,47.381 C151.172,54.228 147.728,58.369 139.774,58.369 C136.207,58.369 132.927,57.631 130.303,56.073 L131.492,50.743 C133.993,52.014 136.084,52.752 139.118,52.752 C143.136,52.752 144.53,51.153 144.53,47.955 C144.53,45.085 142.849,43.937 139.241,43.937 C137.109,43.937 134.731,44.347 133.009,45.003 L130.672,42.461 L131.902,27.25 L149.491,27.25 L149.696,33.195 L137.232,33.195 L136.781,38.894 C138.175,38.607 139.651,38.443 141.209,38.443 C147.605,38.443 151.172,41.436 151.172,47.381 Z M155.529501,48.98 C155.529501,46.192 157.046501,43.568 159.752501,41.928 C157.907501,40.493 156.636501,38.443 156.636501,35.081 C156.636501,30.038 159.793501,26.881 166.927501,26.881 C174.061501,26.881 177.136501,29.997 177.136501,35.122 C177.136501,37.869 175.865501,40.124 173.815501,41.682 C176.275501,42.994 178.202501,45.044 178.202501,49.021 C178.202501,55.212 174.389501,58.369 166.927501,58.369 C159.096501,58.369 155.529501,55.089 155.529501,48.98 Z M171.724501,49.513 C171.724501,46.766 168.977501,45.823 165.082501,44.511 C163.319501,45.577 161.966501,47.053 161.966501,49.021 C161.966501,51.932 163.483501,53.121 167.091501,53.121 C169.879501,53.121 171.724501,52.137 171.724501,49.513 Z M162.868501,35.409 C162.868501,38.033 165.451501,38.894 168.526501,39.796 C170.289501,38.689 171.191501,37.418 171.191501,35.655 C171.191501,33.359 169.879501,32.211 166.886501,32.211 C164.139501,32.211 162.868501,33.236 162.868501,35.409 Z M62.7867481,82 L60.2667481,82 L60.2667481,77.395 L56.3367481,77.395 L56.3367481,82 L53.8017481,82 L53.8017481,70.75 L56.3367481,70.75 L56.3367481,75.115 L60.2667481,75.115 L60.2667481,70.75 L62.7867481,70.75 L62.7867481,82 Z M72.8922484,77.485 C72.8922484,80.83 71.6322484,82.21 68.7372484,82.21 C65.8572484,82.21 64.5672484,80.83 64.5672484,77.485 C64.5672484,74.155 65.8572484,72.745 68.7372484,72.745 C71.6322484,72.745 72.8922484,74.155 72.8922484,77.485 Z M66.9822484,77.485 C66.9822484,79.72 67.4622484,80.305 68.7372484,80.305 C70.0122484,80.305 70.4772484,79.705 70.4772484,77.485 C70.4772484,75.265 70.0122484,74.665 68.7372484,74.665 C67.4472484,74.665 66.9822484,75.265 66.9822484,77.485 Z M68.3472484,70.93 C68.3472484,71.575 68.0472484,71.905 67.3572484,71.905 C66.6972484,71.905 66.3822484,71.635 66.3822484,70.93 C66.3822484,70.285 66.6972484,69.94 67.3572484,69.94 C68.0472484,69.94 68.3472484,70.285 68.3472484,70.93 Z M71.0772484,70.93 C71.0772484,71.575 70.7922484,71.905 70.1022484,71.905 C69.4422484,71.905 69.1122484,71.635 69.1122484,70.93 C69.1122484,70.285 69.4422484,69.94 70.1022484,69.94 C70.7922484,69.94 71.0772484,70.285 71.0772484,70.93 Z M76.8477487,82 L74.5077487,82 L74.5077487,72.97 L76.3677487,72.88 L76.5777487,74.395 L76.6227487,74.395 C77.1927487,73.3 78.0777487,72.76 79.1127487,72.76 C79.5177487,72.76 79.8627487,72.82 80.1027487,72.895 L79.9527487,75.19 C79.6677487,75.1 79.3227487,75.04 78.9627487,75.04 C77.7477487,75.04 76.8477487,75.925 76.8477487,77.44 L76.8477487,82 Z M89.623249,77.425 C89.623249,80.755 88.243249,82.18 85.918249,82.18 C84.898249,82.18 84.058249,81.805 83.503249,81.25 L83.203249,82 L81.628249,82 L81.628249,70.315 L83.953249,70.21 L83.953249,72.325 L83.923249,73.525 L83.968249,73.555 C84.583249,73 85.378249,72.745 86.203249,72.745 C88.303249,72.745 89.623249,74.095 89.623249,77.425 Z M87.223249,77.47 C87.223249,75.205 86.638249,74.785 85.528249,74.785 C84.853249,74.785 84.283249,75.07 83.953249,75.55 L83.953249,79.525 C84.238249,79.96 84.763249,80.305 85.543249,80.305 C86.593249,80.305 87.223249,79.825 87.223249,77.47 Z M95.3787493,82.165 C92.2437493,82.165 90.8487493,80.515 90.8487493,77.335 C90.8487493,74.44 92.1237493,72.745 94.8537493,72.745 C97.1787493,72.745 98.6037493,74.095 98.6037493,76.975 C98.6037493,77.32 98.5887493,77.755 98.5437493,78.07 L93.2487493,78.07 C93.3687493,79.585 94.1037493,80.155 95.6637493,80.155 C96.5187493,80.155 97.3137493,80.005 98.0937493,79.705 L98.3487493,81.58 C97.5837493,81.925 96.5337493,82.165 95.3787493,82.165 Z M93.2037493,76.525 L96.4737493,76.525 C96.4437493,75.19 95.8437493,74.68 94.8687493,74.68 C93.7437493,74.68 93.3087493,75.205 93.2037493,76.525 Z M107.94425,82 L105.61925,82 L105.61925,76.21 C105.61925,75.28 105.15425,74.8 104.16425,74.8 C103.48925,74.8 102.90425,75.1 102.61925,75.49 L102.61925,82 L100.29425,82 L100.29425,70.33 L102.61925,70.21 L102.61925,72.28 L102.58925,73.48 L102.63425,73.51 C103.30925,72.94 104.13425,72.73 104.89925,72.73 C106.81925,72.73 107.94425,74.02 107.94425,76.21 L107.94425,82 Z M112.54475,82 L110.15975,82 L110.15975,72.97 L112.54475,72.865 L112.54475,82 Z M112.67975,70.945 C112.67975,71.605 112.27475,71.935 111.35975,71.935 C110.45975,71.935 110.02475,71.68 110.02475,70.945 C110.02475,70.3 110.45975,69.94 111.35975,69.94 C112.27475,69.94 112.67975,70.285 112.67975,70.945 Z M122.51525,82 L120.19025,82 L120.19025,76.21 C120.19025,75.205 119.68025,74.8 118.72025,74.8 C118.13525,74.8 117.50525,75.055 117.19025,75.49 L117.19025,82 L114.85025,82 L114.85025,72.955 L116.53025,72.85 L116.87525,73.63 C117.55025,73.045 118.43525,72.73 119.38025,72.73 C121.30025,72.73 122.51525,73.945 122.51525,76.21 L122.51525,82 Z M132.05075,82 L130.23575,82 L130.01075,81.22 L129.96575,81.205 C129.42575,81.835 128.63075,82.18 127.53575,82.18 C125.19575,82.18 124.05575,80.665 124.05575,77.41 C124.05575,74.425 125.19575,72.73 127.50575,72.73 C128.36075,72.73 129.12575,73.015 129.72575,73.555 L129.75575,73.525 L129.72575,72.325 L129.72575,70.33 L132.05075,70.21 L132.05075,82 Z M129.72575,79.525 L129.72575,75.505 C129.44075,75.1 128.88575,74.815 128.19575,74.815 C126.92075,74.815 126.45575,75.475 126.45575,77.515 C126.45575,79.645 126.86075,80.29 128.18075,80.29 C129.03575,80.29 129.51575,79.9 129.72575,79.525 Z M138.256251,82.165 C135.121251,82.165 133.726251,80.515 133.726251,77.335 C133.726251,74.44 135.001251,72.745 137.731251,72.745 C140.056251,72.745 141.481251,74.095 141.481251,76.975 C141.481251,77.32 141.466251,77.755 141.421251,78.07 L136.126251,78.07 C136.246251,79.585 136.981251,80.155 138.541251,80.155 C139.396251,80.155 140.191251,80.005 140.971251,79.705 L141.226251,81.58 C140.461251,81.925 139.411251,82.165 138.256251,82.165 Z M136.081251,76.525 L139.351251,76.525 C139.321251,75.19 138.721251,74.68 137.746251,74.68 C136.621251,74.68 136.186251,75.205 136.081251,76.525 Z M145.436751,82 L143.096751,82 L143.096751,72.97 L144.956751,72.88 L145.166751,74.395 L145.211751,74.395 C145.781751,73.3 146.666751,72.76 147.701751,72.76 C148.106751,72.76 148.451751,72.82 148.691751,72.895 L148.541751,75.19 C148.256751,75.1 147.911751,75.04 147.551751,75.04 C146.336751,75.04 145.436751,75.925 145.436751,77.44 L145.436751,82 Z M154.942251,74.65 L152.917251,74.65 L152.917251,79.3 C152.917251,80.005 153.277251,80.305 153.997251,80.305 C154.237251,80.305 154.552251,80.26 154.717251,80.2 L154.852251,81.895 C154.537251,82.03 153.937251,82.15 153.292251,82.15 C151.477251,82.15 150.592251,81.1 150.592251,79.375 L150.592251,74.65 L149.572251,74.65 L149.572251,72.91 L150.697251,72.91 L151.087251,70.855 L152.917251,70.69 L152.917251,72.91 L154.942251,72.91 L154.942251,74.65 Z M160.352752,82.165 C157.217752,82.165 155.822752,80.515 155.822752,77.335 C155.822752,74.44 157.097752,72.745 159.827752,72.745 C162.152752,72.745 163.577752,74.095 163.577752,76.975 C163.577752,77.32 163.562752,77.755 163.517752,78.07 L158.222752,78.07 C158.342752,79.585 159.077752,80.155 160.637752,80.155 C161.492752,80.155 162.287752,80.005 163.067752,79.705 L163.322752,81.58 C162.557752,81.925 161.507752,82.165 160.352752,82.165 Z M158.177752,76.525 L161.447752,76.525 C161.417752,75.19 160.817752,74.68 159.842752,74.68 C158.717752,74.68 158.282752,75.205 158.177752,76.525 Z" id="12558Hörbehinderte"></path>
        </g>
        <path d="M477.778,160.81 L477.409,166.222 C476.138,165.771 474.621,165.443 473.186,165.443 C468.553,165.443 467.036,167.37 467.036,172.618 C467.036,177.948 469.209,180.039 473.063,180.039 C474.703,180.039 476.261,179.711 477.573,179.096 L478.024,184.057 C476.548,184.959 474.334,185.492 471.669,185.492 C464.33,185.492 460.435,181.31 460.435,172.618 C460.435,164.377 463.838,159.744 471.792,159.744 C473.883,159.744 476.22,160.195 477.778,160.81 Z M496.092701,185 L495.600701,182.622 L495.477701,182.581 C493.960701,184.385 491.582701,185.41 488.753701,185.41 C484.038701,185.41 481.045701,182.745 481.045701,177.169 C481.045701,172.577 484.243701,169.42 489.901701,169.42 C491.746701,169.42 493.345701,169.707 494.657701,170.117 L494.657701,168.682 C494.657701,166.181 493.345701,165.033 489.942701,165.033 C487.195701,165.033 485.391701,165.443 483.095701,166.386 L482.562701,161.302 C485.063701,160.236 487.892701,159.662 491.090701,159.662 C498.429701,159.662 500.971701,162.819 500.971701,169.625 L500.971701,185 L496.092701,185 Z M494.657701,177.456 L494.657701,174.34 C494.042701,174.094 492.812701,173.807 491.131701,173.807 C488.302701,173.807 486.990701,174.914 486.990701,177.087 C486.990701,179.506 488.425701,180.367 490.516701,180.367 C492.689701,180.367 494.657701,179.055 494.657701,177.456 Z M512.931401,181.925 C512.931401,184.139 511.865401,185.492 509.282401,185.492 C506.699401,185.492 505.592401,184.508 505.592401,181.925 C505.592401,179.67 506.699401,178.399 509.282401,178.399 C511.865401,178.399 512.931401,179.67 512.931401,181.925 Z M528.445802,175.98 C528.445802,173.192 529.962802,170.568 532.668802,168.928 C530.823802,167.493 529.552802,165.443 529.552802,162.081 C529.552802,157.038 532.709802,153.881 539.843802,153.881 C546.977802,153.881 550.052802,156.997 550.052802,162.122 C550.052802,164.869 548.781802,167.124 546.731802,168.682 C549.191802,169.994 551.118802,172.044 551.118802,176.021 C551.118802,182.212 547.305802,185.369 539.843802,185.369 C532.012802,185.369 528.445802,182.089 528.445802,175.98 Z M544.640802,176.513 C544.640802,173.766 541.893802,172.823 537.998802,171.511 C536.235802,172.577 534.882802,174.053 534.882802,176.021 C534.882802,178.932 536.399802,180.121 540.007802,180.121 C542.795802,180.121 544.640802,179.137 544.640802,176.513 Z M535.784802,162.409 C535.784802,165.033 538.367802,165.894 541.442802,166.796 C543.205802,165.689 544.107802,164.418 544.107802,162.655 C544.107802,160.359 542.795802,159.211 539.802802,159.211 C537.055802,159.211 535.784802,160.236 535.784802,162.409 Z M577.059503,162.901 C577.059503,168.477 572.180503,173.11 565.210503,178.932 L565.210503,179.055 L577.018503,179.055 L576.895503,185 L556.477503,185 L556.477503,180.572 C563.857503,173.274 570.089503,168.108 570.089503,163.557 C570.089503,161.425 568.695503,159.908 565.251503,159.908 C562.545503,159.908 560.085503,161.015 557.830503,162.614 L556.231503,157.12 C558.773503,155.193 562.299503,153.881 566.481503,153.881 C573.533503,153.881 577.059503,157.53 577.059503,162.901 Z M467.505,211.31 L465.18,211.325 L465.18,209.72 L465.21,208.505 L465.18,208.49 C464.64,208.91 463.95,209.135 463.08,209.135 C460.965,209.135 459.525,207.755 459.525,204.485 C459.525,201.38 460.725,199.745 463.14,199.745 C464.235,199.745 465.105,200.09 465.735,200.735 L466.005,199.91 L467.505,199.925 L467.505,211.31 Z M465.18,206.405 L465.18,202.52 C464.94,202.13 464.37,201.83 463.65,201.83 C462.36,201.83 461.94,202.355 461.94,204.485 C461.94,206.51 462.435,207.185 463.68,207.185 C464.52,207.185 465.06,206.795 465.18,206.405 Z M477.434701,199.91 L477.434701,205.79 C477.434701,207.995 476.189701,209.165 473.609701,209.165 C471.029701,209.165 469.784701,207.95 469.784701,205.79 L469.784701,199.91 L472.109701,199.91 L472.109701,205.745 C472.109701,206.645 472.589701,207.11 473.609701,207.11 C474.629701,207.11 475.109701,206.675 475.109701,205.745 L475.109701,199.91 L477.434701,199.91 Z M484.844401,209 L484.664401,208.13 L484.619401,208.115 C484.064401,208.775 483.194401,209.15 482.159401,209.15 C480.434401,209.15 479.339401,208.175 479.339401,206.135 C479.339401,204.455 480.509401,203.3 482.579401,203.3 C483.254401,203.3 483.839401,203.405 484.319401,203.555 L484.319401,203.03 C484.319401,202.115 483.839401,201.695 482.594401,201.695 C481.589401,201.695 480.929401,201.845 480.089401,202.19 L479.894401,200.33 C480.809401,199.94 481.844401,199.73 483.014401,199.73 C485.699401,199.73 486.629401,200.885 486.629401,203.375 L486.629401,209 L484.844401,209 Z M484.319401,206.24 L484.319401,205.1 C484.094401,205.01 483.644401,204.905 483.029401,204.905 C481.994401,204.905 481.514401,205.31 481.514401,206.105 C481.514401,206.99 482.039401,207.305 482.804401,207.305 C483.599401,207.305 484.319401,206.825 484.319401,206.24 Z M491.414102,209 L489.059102,209 L489.059102,197.315 L491.414102,197.21 L491.414102,209 Z M496.588802,209 L494.203802,209 L494.203802,199.97 L496.588802,199.865 L496.588802,209 Z M496.723802,197.945 C496.723802,198.605 496.318802,198.935 495.403802,198.935 C494.503802,198.935 494.068802,198.68 494.068802,197.945 C494.068802,197.3 494.503802,196.94 495.403802,196.94 C496.318802,196.94 496.723802,197.285 496.723802,197.945 Z M502.063503,201.635 L502.063503,209 L499.738503,209 L499.738503,201.635 L498.598503,201.635 L498.598503,199.91 L499.738503,199.91 L499.738503,199.52 C499.738503,198.155 500.683503,197.03 502.858503,197.03 C503.368503,197.03 503.863503,197.09 504.178503,197.18 L504.118503,198.71 C503.893503,198.665 503.623503,198.635 503.353503,198.635 C502.408503,198.635 502.063503,198.995 502.063503,199.58 L502.063503,199.91 L507.703503,199.91 L507.703503,209 L505.333503,209 L505.333503,201.635 L502.063503,201.635 Z M507.868503,197.93 C507.868503,198.605 507.463503,198.935 506.533503,198.935 C505.633503,198.935 505.213503,198.665 505.213503,197.93 C505.213503,197.285 505.633503,196.925 506.533503,196.925 C507.463503,196.925 507.868503,197.285 507.868503,197.93 Z M516.778204,201.53 L513.448204,206.09 L512.728204,207.02 L512.743204,207.065 L516.913204,207.065 L516.853204,209 L510.043204,209 L510.043204,207.365 L513.373204,202.82 L514.093204,201.875 L514.078204,201.845 L510.163204,201.845 L510.238204,199.91 L516.778204,199.91 L516.778204,201.53 Z M521.547904,209 L519.162904,209 L519.162904,199.97 L521.547904,199.865 L521.547904,209 Z M521.682904,197.945 C521.682904,198.605 521.277904,198.935 520.362904,198.935 C519.462904,198.935 519.027904,198.68 519.027904,197.945 C519.027904,197.3 519.462904,196.94 520.362904,196.94 C521.277904,196.94 521.682904,197.285 521.682904,197.945 Z M528.282605,209.165 C525.147605,209.165 523.752605,207.515 523.752605,204.335 C523.752605,201.44 525.027605,199.745 527.757605,199.745 C530.082605,199.745 531.507605,201.095 531.507605,203.975 C531.507605,204.32 531.492605,204.755 531.447605,205.07 L526.152605,205.07 C526.272605,206.585 527.007605,207.155 528.567605,207.155 C529.422605,207.155 530.217605,207.005 530.997605,206.705 L531.252605,208.58 C530.487605,208.925 529.437605,209.165 528.282605,209.165 Z M526.107605,203.525 L529.377605,203.525 C529.347605,202.19 528.747605,201.68 527.772605,201.68 C526.647605,201.68 526.212605,202.205 526.107605,203.525 Z M535.767305,209 L533.427305,209 L533.427305,199.97 L535.287305,199.88 L535.497305,201.395 L535.542305,201.395 C536.112305,200.3 536.997305,199.76 538.032305,199.76 C538.437305,199.76 538.782305,199.82 539.022305,199.895 L538.872305,202.19 C538.587305,202.1 538.242305,202.04 537.882305,202.04 C536.667305,202.04 535.767305,202.925 535.767305,204.44 L535.767305,209 Z M545.577006,201.65 L543.552006,201.65 L543.552006,206.3 C543.552006,207.005 543.912006,207.305 544.632006,207.305 C544.872006,207.305 545.187006,207.26 545.352006,207.2 L545.487006,208.895 C545.172006,209.03 544.572006,209.15 543.927006,209.15 C542.112006,209.15 541.227006,208.1 541.227006,206.375 L541.227006,201.65 L540.207006,201.65 L540.207006,199.91 L541.332006,199.91 L541.722006,197.855 L543.552006,197.69 L543.552006,199.91 L545.577006,199.91 L545.577006,201.65 Z M551.291707,209.165 C548.156707,209.165 546.761707,207.515 546.761707,204.335 C546.761707,201.44 548.036707,199.745 550.766707,199.745 C553.091707,199.745 554.516707,201.095 554.516707,203.975 C554.516707,204.32 554.501707,204.755 554.456707,205.07 L549.161707,205.07 C549.281707,206.585 550.016707,207.155 551.576707,207.155 C552.431707,207.155 553.226707,207.005 554.006707,206.705 L554.261707,208.58 C553.496707,208.925 552.446707,209.165 551.291707,209.165 Z M549.116707,203.525 L552.386707,203.525 C552.356707,202.19 551.756707,201.68 550.781707,201.68 C549.656707,201.68 549.221707,202.205 549.116707,203.525 Z M570.311108,203.33 C570.311108,207.395 568.616108,209 565.286108,209 L561.041108,209 L561.041108,197.75 L565.256108,197.75 C568.826108,197.75 570.311108,199.445 570.311108,203.33 Z M567.656108,203.315 C567.656108,200.645 567.011108,200.015 565.226108,200.015 L563.576108,200.015 L563.576108,206.75 L565.241108,206.75 C566.966108,206.75 567.656108,206.195 567.656108,203.315 Z M580.285808,204.485 C580.285808,207.83 579.025808,209.21 576.130808,209.21 C573.250808,209.21 571.960808,207.83 571.960808,204.485 C571.960808,201.155 573.250808,199.745 576.130808,199.745 C579.025808,199.745 580.285808,201.155 580.285808,204.485 Z M574.375808,204.485 C574.375808,206.72 574.855808,207.305 576.130808,207.305 C577.405808,207.305 577.870808,206.705 577.870808,204.485 C577.870808,202.265 577.405808,201.665 576.130808,201.665 C574.840808,201.665 574.375808,202.265 574.375808,204.485 Z M584.740509,209 L582.385509,209 L582.385509,197.315 L584.740509,197.21 L584.740509,209 Z M599.63521,209 L597.31021,209 L597.31021,203.195 C597.31021,202.25 596.80021,201.8 595.94521,201.8 C595.16521,201.8 594.61021,202.235 594.61021,203.12 L594.61021,209 L592.28521,209 L592.28521,203.12 C592.28521,202.19 591.77521,201.8 590.96521,201.8 C590.41021,201.8 589.87021,202.07 589.60021,202.49 L589.60021,209 L587.26021,209 L587.26021,199.97 L588.94021,199.85 L589.31521,200.705 C589.94521,200.105 590.78521,199.745 591.62521,199.745 C592.76521,199.745 593.54521,200.135 594.02521,200.96 C594.64021,200.12 595.54021,199.745 596.57521,199.745 C598.37521,199.745 599.63521,200.885 599.63521,203.15 L599.63521,209 Z M606.00991,209.165 C602.87491,209.165 601.47991,207.515 601.47991,204.335 C601.47991,201.44 602.75491,199.745 605.48491,199.745 C607.80991,199.745 609.23491,201.095 609.23491,203.975 C609.23491,204.32 609.21991,204.755 609.17491,205.07 L603.87991,205.07 C603.99991,206.585 604.73491,207.155 606.29491,207.155 C607.14991,207.155 607.94491,207.005 608.72491,206.705 L608.97991,208.58 C608.21491,208.925 607.16491,209.165 606.00991,209.165 Z M603.83491,203.525 L607.10491,203.525 C607.07491,202.19 606.47491,201.68 605.49991,201.68 C604.37491,201.68 603.93991,202.205 603.83491,203.525 Z M615.819611,201.65 L613.794611,201.65 L613.794611,206.3 C613.794611,207.005 614.154611,207.305 614.874611,207.305 C615.114611,207.305 615.429611,207.26 615.594611,207.2 L615.729611,208.895 C615.414611,209.03 614.814611,209.15 614.169611,209.15 C612.354611,209.15 611.469611,208.1 611.469611,206.375 L611.469611,201.65 L610.449611,201.65 L610.449611,199.91 L611.574611,199.91 L611.964611,197.855 L613.794611,197.69 L613.794611,199.91 L615.819611,199.91 L615.819611,201.65 Z M623.589311,206.15 C623.589311,207.965 622.584311,209.18 620.124311,209.18 C619.029311,209.18 618.039311,208.97 617.274311,208.55 L617.514311,206.63 C618.264311,207.065 619.329311,207.275 620.109311,207.275 C621.039311,207.275 621.429311,206.9 621.429311,206.36 C621.429311,204.905 617.214311,205.745 617.214311,202.565 C617.214311,200.93 618.324311,199.76 620.664311,199.76 C621.579311,199.76 622.479311,199.94 623.244311,200.255 L623.049311,202.16 C622.299311,201.845 621.294311,201.695 620.619311,201.695 C619.854311,201.695 619.434311,201.995 619.434311,202.46 C619.434311,203.84 623.589311,203.015 623.589311,206.15 Z M631.419012,200.15 L631.284012,202.13 C630.819012,201.965 630.264012,201.845 629.739012,201.845 C628.044012,201.845 627.489012,202.55 627.489012,204.47 C627.489012,206.42 628.284012,207.185 629.694012,207.185 C630.294012,207.185 630.864012,207.065 631.344012,206.84 L631.509012,208.655 C630.969012,208.985 630.159012,209.18 629.184012,209.18 C626.499012,209.18 625.074012,207.65 625.074012,204.47 C625.074012,201.455 626.319012,199.76 629.229012,199.76 C629.994012,199.76 630.849012,199.925 631.419012,200.15 Z M641.078713,209 L638.753713,209 L638.753713,203.21 C638.753713,202.28 638.288713,201.8 637.298713,201.8 C636.623713,201.8 636.038713,202.1 635.753713,202.49 L635.753713,209 L633.428713,209 L633.428713,197.33 L635.753713,197.21 L635.753713,199.28 L635.723713,200.48 L635.768713,200.51 C636.443713,199.94 637.268713,199.73 638.033713,199.73 C639.953713,199.73 641.078713,201.02 641.078713,203.21 L641.078713,209 Z M647.453413,209.165 C644.318413,209.165 642.923413,207.515 642.923413,204.335 C642.923413,201.44 644.198413,199.745 646.928413,199.745 C649.253413,199.745 650.678413,201.095 650.678413,203.975 C650.678413,204.32 650.663413,204.755 650.618413,205.07 L645.323413,205.07 C645.443413,206.585 646.178413,207.155 647.738413,207.155 C648.593413,207.155 649.388413,207.005 650.168413,206.705 L650.423413,208.58 C649.658413,208.925 648.608413,209.165 647.453413,209.165 Z M645.278413,203.525 L648.548413,203.525 C648.518413,202.19 647.918413,201.68 646.943413,201.68 C645.818413,201.68 645.383413,202.205 645.278413,203.525 Z M654.938114,209 L652.598114,209 L652.598114,199.97 L654.458114,199.88 L654.668114,201.395 L654.713114,201.395 C655.283114,200.3 656.168114,199.76 657.203114,199.76 C657.608114,199.76 657.953114,199.82 658.193114,199.895 L658.043114,202.19 C657.758114,202.1 657.413114,202.04 657.053114,202.04 C655.838114,202.04 654.938114,202.925 654.938114,204.44 L654.938114,209 Z" id="ca.82qualifzierteDolmetscher" fill="#1E3791" fill-rule="nonzero"></path>
        <g id="Group-10" transform="translate(443.060052, 154.845751) scale(1, -1) rotate(146.000000) translate(-443.060052, -154.845751) translate(432.560052, 148.845751)">
            <path d="M16.3759829,4.85950413 L13.3336327,1.81715389 C13.2164754,1.6999966 13.2164754,1.51004711 13.3336327,1.39288982 L14.5923996,0.134122875 C14.7095569,0.0169655879 14.8995064,0.0169655879 15.0166637,0.134122875 L20.6474305,5.76488969 C20.7645878,5.88204698 20.7645878,6.07199647 20.6474305,6.18915376 L19.9128576,6.92372667 L14.9707072,11.8658771 C14.8535499,11.9830344 14.6636004,11.9830344 14.5464431,11.8658771 L13.2406983,10.5601324 C13.123541,10.4429751 13.123541,10.2530256 13.2406983,10.1358683 L16.1368972,7.23966942 L0.3,7.23966942 C0.134314575,7.23966942 4.53657418e-13,7.10535485 4.53637128e-13,6.93966942 L4.54747351e-13,5.15950413 C4.5472706e-13,4.99381871 0.134314575,4.85950413 0.3,4.85950413 L16.3759829,4.85950413 Z" id="Combined-Shape" fill="#1E3791" fill-rule="nonzero"></path>
            <g id="Group-9" transform="translate(8.563107, 0.000000)">
                <g id="Group-8">
                    <g id="Group-7"></g>
                </g>
            </g>
        </g>
        <circle id="Oval" fill="#1E3791" cx="422" cy="140" r="4"></circle>
    </g>
</svg>