<?xml version="1.0" encoding="UTF-8"?>
<svg width="524px" height="524px" viewBox="0 0 524 524" version="1.1" xmlns="http://www.w3.org/2000/svg" xmlns:xlink="http://www.w3.org/1999/xlink">
    <!-- Generator: Sketch 53 (72520) - https://sketchapp.com -->
    <title>Letter</title>
    <desc>Created with Sketch.</desc>
    <g id="Letter" stroke="none" stroke-width="1" fill="none" fill-rule="evenodd">
        <rect id="Rectangle" fill="#1E3791" fill-rule="nonzero" x="-72" y="-230" width="1508" height="868"></rect>
        <g id="Looper_Group" transform="translate(-440.000000, 0.000000)" fill="#FFFFFF">
            <g id="original_original_Group_63178032_38240594-Group" transform="translate(0.627119, 0.000000)">
                <g id="duplicate_91_original_original_Group_63178032_38240594" opacity="0.869095728" transform="translate(895.675057, 447.863248)">
                    <path d="M38.2154691,73.4495726 C38.961865,75.0917379 40.4546568,75.9874644 42.0967277,75.9874644 C42.6938444,75.9874644 43.2909611,75.8381766 43.8880778,75.5396011 C46.1272655,74.4945869 47.0229405,71.9566952 45.9779863,69.7173789 C45.9779863,69.7173789 37.7676316,50.9071225 36.2748398,44.039886 C35.6777231,41.6512821 35.3791648,35.2319088 35.2298856,32.2461538 C35.2298856,31.2011396 35.8270023,30.3054131 36.7226774,30.0068376 L55.084016,24.4831909 C57.3232037,23.8860399 58.6667163,21.3481481 58.0695996,19.1088319 C57.4724828,16.8695157 54.9347369,15.5259259 52.6955492,16.1230769 C52.6955492,16.1230769 35.6777231,21.6467236 29.5572769,21.6467236 C23.5861098,21.6467236 6.71756293,16.2723647 6.71756293,16.2723647 C4.47837529,15.6752137 1.94062929,16.7202279 1.19423341,18.9595442 C0.447837529,21.3481481 1.79135011,23.8860399 4.17981693,24.4831909 L22.5411556,30.0068376 C23.4368307,30.3054131 24.1832265,31.2011396 24.0339474,32.2461538 C23.8846682,35.2319088 23.5861098,41.6512821 22.9889931,44.039886 C21.4962014,50.9071225 13.2858467,69.7173789 13.2858467,69.7173789 C12.2408925,71.9566952 13.2858467,74.4945869 15.3757552,75.5396011 C15.9728719,75.8381766 16.5699886,75.9874644 17.1671053,75.9874644 C18.8091762,75.9874644 20.4512471,75.0917379 21.0483638,73.4495726 L29.8558352,55.5350427 L38.2154691,73.4495726 Z" id="Path"></path>
                    <ellipse id="Oval" cx="29.8558352" cy="8.95726496" rx="8.35963387" ry="8.36011396"></ellipse>
                </g>
                <g id="duplicate_90_original_original_Group_63178032_38240594" opacity="0.901878322" transform="translate(806.107552, 447.863248)">
                    <path d="M38.2154691,73.4495726 C38.961865,75.0917379 40.4546568,75.9874644 42.0967277,75.9874644 C42.6938444,75.9874644 43.2909611,75.8381766 43.8880778,75.5396011 C46.1272655,74.4945869 47.0229405,71.9566952 45.9779863,69.7173789 C45.9779863,69.7173789 37.7676316,50.9071225 36.2748398,44.039886 C35.6777231,41.6512821 35.3791648,35.2319088 35.2298856,32.2461538 C35.2298856,31.2011396 35.8270023,30.3054131 36.7226774,30.0068376 L55.084016,24.4831909 C57.3232037,23.8860399 58.6667163,21.3481481 58.0695996,19.1088319 C57.4724828,16.8695157 54.9347369,15.5259259 52.6955492,16.1230769 C52.6955492,16.1230769 35.6777231,21.6467236 29.5572769,21.6467236 C23.5861098,21.6467236 6.71756293,16.2723647 6.71756293,16.2723647 C4.47837529,15.6752137 1.94062929,16.7202279 1.19423341,18.9595442 C0.447837529,21.3481481 1.79135011,23.8860399 4.17981693,24.4831909 L22.5411556,30.0068376 C23.4368307,30.3054131 24.1832265,31.2011396 24.0339474,32.2461538 C23.8846682,35.2319088 23.5861098,41.6512821 22.9889931,44.039886 C21.4962014,50.9071225 13.2858467,69.7173789 13.2858467,69.7173789 C12.2408925,71.9566952 13.2858467,74.4945869 15.3757552,75.5396011 C15.9728719,75.8381766 16.5699886,75.9874644 17.1671053,75.9874644 C18.8091762,75.9874644 20.4512471,75.0917379 21.0483638,73.4495726 L29.8558352,55.5350427 L38.2154691,73.4495726 Z" id="Path"></path>
                    <ellipse id="Oval" cx="29.8558352" cy="8.95726496" rx="8.35963387" ry="8.36011396"></ellipse>
                </g>
                <g id="duplicate_89_original_original_Group_63178032_38240594" opacity="0.728387454" transform="translate(716.540046, 447.863248)">
                    <path d="M38.2154691,73.4495726 C38.961865,75.0917379 40.4546568,75.9874644 42.0967277,75.9874644 C42.6938444,75.9874644 43.2909611,75.8381766 43.8880778,75.5396011 C46.1272655,74.4945869 47.0229405,71.9566952 45.9779863,69.7173789 C45.9779863,69.7173789 37.7676316,50.9071225 36.2748398,44.039886 C35.6777231,41.6512821 35.3791648,35.2319088 35.2298856,32.2461538 C35.2298856,31.2011396 35.8270023,30.3054131 36.7226774,30.0068376 L55.084016,24.4831909 C57.3232037,23.8860399 58.6667163,21.3481481 58.0695996,19.1088319 C57.4724828,16.8695157 54.9347369,15.5259259 52.6955492,16.1230769 C52.6955492,16.1230769 35.6777231,21.6467236 29.5572769,21.6467236 C23.5861098,21.6467236 6.71756293,16.2723647 6.71756293,16.2723647 C4.47837529,15.6752137 1.94062929,16.7202279 1.19423341,18.9595442 C0.447837529,21.3481481 1.79135011,23.8860399 4.17981693,24.4831909 L22.5411556,30.0068376 C23.4368307,30.3054131 24.1832265,31.2011396 24.0339474,32.2461538 C23.8846682,35.2319088 23.5861098,41.6512821 22.9889931,44.039886 C21.4962014,50.9071225 13.2858467,69.7173789 13.2858467,69.7173789 C12.2408925,71.9566952 13.2858467,74.4945869 15.3757552,75.5396011 C15.9728719,75.8381766 16.5699886,75.9874644 17.1671053,75.9874644 C18.8091762,75.9874644 20.4512471,75.0917379 21.0483638,73.4495726 L29.8558352,55.5350427 L38.2154691,73.4495726 Z" id="Path"></path>
                    <ellipse id="Oval" cx="29.8558352" cy="8.95726496" rx="8.35963387" ry="8.36011396"></ellipse>
                </g>
                <g id="duplicate_88_original_original_Group_63178032_38240594" opacity="0.900849553" transform="translate(626.972540, 447.863248)">
                    <path d="M38.2154691,73.4495726 C38.961865,75.0917379 40.4546568,75.9874644 42.0967277,75.9874644 C42.6938444,75.9874644 43.2909611,75.8381766 43.8880778,75.5396011 C46.1272655,74.4945869 47.0229405,71.9566952 45.9779863,69.7173789 C45.9779863,69.7173789 37.7676316,50.9071225 36.2748398,44.039886 C35.6777231,41.6512821 35.3791648,35.2319088 35.2298856,32.2461538 C35.2298856,31.2011396 35.8270023,30.3054131 36.7226774,30.0068376 L55.084016,24.4831909 C57.3232037,23.8860399 58.6667163,21.3481481 58.0695996,19.1088319 C57.4724828,16.8695157 54.9347369,15.5259259 52.6955492,16.1230769 C52.6955492,16.1230769 35.6777231,21.6467236 29.5572769,21.6467236 C23.5861098,21.6467236 6.71756293,16.2723647 6.71756293,16.2723647 C4.47837529,15.6752137 1.94062929,16.7202279 1.19423341,18.9595442 C0.447837529,21.3481481 1.79135011,23.8860399 4.17981693,24.4831909 L22.5411556,30.0068376 C23.4368307,30.3054131 24.1832265,31.2011396 24.0339474,32.2461538 C23.8846682,35.2319088 23.5861098,41.6512821 22.9889931,44.039886 C21.4962014,50.9071225 13.2858467,69.7173789 13.2858467,69.7173789 C12.2408925,71.9566952 13.2858467,74.4945869 15.3757552,75.5396011 C15.9728719,75.8381766 16.5699886,75.9874644 17.1671053,75.9874644 C18.8091762,75.9874644 20.4512471,75.0917379 21.0483638,73.4495726 L29.8558352,55.5350427 L38.2154691,73.4495726 Z" id="Path"></path>
                    <ellipse id="Oval" cx="29.8558352" cy="8.95726496" rx="8.35963387" ry="8.36011396"></ellipse>
                </g>
                <g id="duplicate_87_original_original_Group_63178032_38240594" opacity="0.663342394" transform="translate(537.405034, 447.863248)">
                    <path d="M38.2154691,73.4495726 C38.961865,75.0917379 40.4546568,75.9874644 42.0967277,75.9874644 C42.6938444,75.9874644 43.2909611,75.8381766 43.8880778,75.5396011 C46.1272655,74.4945869 47.0229405,71.9566952 45.9779863,69.7173789 C45.9779863,69.7173789 37.7676316,50.9071225 36.2748398,44.039886 C35.6777231,41.6512821 35.3791648,35.2319088 35.2298856,32.2461538 C35.2298856,31.2011396 35.8270023,30.3054131 36.7226774,30.0068376 L55.084016,24.4831909 C57.3232037,23.8860399 58.6667163,21.3481481 58.0695996,19.1088319 C57.4724828,16.8695157 54.9347369,15.5259259 52.6955492,16.1230769 C52.6955492,16.1230769 35.6777231,21.6467236 29.5572769,21.6467236 C23.5861098,21.6467236 6.71756293,16.2723647 6.71756293,16.2723647 C4.47837529,15.6752137 1.94062929,16.7202279 1.19423341,18.9595442 C0.447837529,21.3481481 1.79135011,23.8860399 4.17981693,24.4831909 L22.5411556,30.0068376 C23.4368307,30.3054131 24.1832265,31.2011396 24.0339474,32.2461538 C23.8846682,35.2319088 23.5861098,41.6512821 22.9889931,44.039886 C21.4962014,50.9071225 13.2858467,69.7173789 13.2858467,69.7173789 C12.2408925,71.9566952 13.2858467,74.4945869 15.3757552,75.5396011 C15.9728719,75.8381766 16.5699886,75.9874644 17.1671053,75.9874644 C18.8091762,75.9874644 20.4512471,75.0917379 21.0483638,73.4495726 L29.8558352,55.5350427 L38.2154691,73.4495726 Z" id="Path"></path>
                    <ellipse id="Oval" cx="29.8558352" cy="8.95726496" rx="8.35963387" ry="8.36011396"></ellipse>
                </g>
                <g id="duplicate_86_original_original_Group_63178032_38240594" opacity="0.415584463" transform="translate(447.837529, 447.863248)">
                    <path d="M38.2154691,73.4495726 C38.961865,75.0917379 40.4546568,75.9874644 42.0967277,75.9874644 C42.6938444,75.9874644 43.2909611,75.8381766 43.8880778,75.5396011 C46.1272655,74.4945869 47.0229405,71.9566952 45.9779863,69.7173789 C45.9779863,69.7173789 37.7676316,50.9071225 36.2748398,44.039886 C35.6777231,41.6512821 35.3791648,35.2319088 35.2298856,32.2461538 C35.2298856,31.2011396 35.8270023,30.3054131 36.7226774,30.0068376 L55.084016,24.4831909 C57.3232037,23.8860399 58.6667163,21.3481481 58.0695996,19.1088319 C57.4724828,16.8695157 54.9347369,15.5259259 52.6955492,16.1230769 C52.6955492,16.1230769 35.6777231,21.6467236 29.5572769,21.6467236 C23.5861098,21.6467236 6.71756293,16.2723647 6.71756293,16.2723647 C4.47837529,15.6752137 1.94062929,16.7202279 1.19423341,18.9595442 C0.447837529,21.3481481 1.79135011,23.8860399 4.17981693,24.4831909 L22.5411556,30.0068376 C23.4368307,30.3054131 24.1832265,31.2011396 24.0339474,32.2461538 C23.8846682,35.2319088 23.5861098,41.6512821 22.9889931,44.039886 C21.4962014,50.9071225 13.2858467,69.7173789 13.2858467,69.7173789 C12.2408925,71.9566952 13.2858467,74.4945869 15.3757552,75.5396011 C15.9728719,75.8381766 16.5699886,75.9874644 17.1671053,75.9874644 C18.8091762,75.9874644 20.4512471,75.0917379 21.0483638,73.4495726 L29.8558352,55.5350427 L38.2154691,73.4495726 Z" id="Path"></path>
                    <ellipse id="Oval" cx="29.8558352" cy="8.95726496" rx="8.35963387" ry="8.36011396"></ellipse>
                </g>
                <g id="duplicate_75_original_original_Group_63178032_38240594" opacity="0.0483184685" transform="translate(895.675057, 358.290598)">
                    <path d="M38.2154691,73.4495726 C38.961865,75.0917379 40.4546568,75.9874644 42.0967277,75.9874644 C42.6938444,75.9874644 43.2909611,75.8381766 43.8880778,75.5396011 C46.1272655,74.4945869 47.0229405,71.9566952 45.9779863,69.7173789 C45.9779863,69.7173789 37.7676316,50.9071225 36.2748398,44.039886 C35.6777231,41.6512821 35.3791648,35.2319088 35.2298856,32.2461538 C35.2298856,31.2011396 35.8270023,30.3054131 36.7226774,30.0068376 L55.084016,24.4831909 C57.3232037,23.8860399 58.6667163,21.3481481 58.0695996,19.1088319 C57.4724828,16.8695157 54.9347369,15.5259259 52.6955492,16.1230769 C52.6955492,16.1230769 35.6777231,21.6467236 29.5572769,21.6467236 C23.5861098,21.6467236 6.71756293,16.2723647 6.71756293,16.2723647 C4.47837529,15.6752137 1.94062929,16.7202279 1.19423341,18.9595442 C0.447837529,21.3481481 1.79135011,23.8860399 4.17981693,24.4831909 L22.5411556,30.0068376 C23.4368307,30.3054131 24.1832265,31.2011396 24.0339474,32.2461538 C23.8846682,35.2319088 23.5861098,41.6512821 22.9889931,44.039886 C21.4962014,50.9071225 13.2858467,69.7173789 13.2858467,69.7173789 C12.2408925,71.9566952 13.2858467,74.4945869 15.3757552,75.5396011 C15.9728719,75.8381766 16.5699886,75.9874644 17.1671053,75.9874644 C18.8091762,75.9874644 20.4512471,75.0917379 21.0483638,73.4495726 L29.8558352,55.5350427 L38.2154691,73.4495726 Z" id="Path"></path>
                    <ellipse id="Oval" cx="29.8558352" cy="8.95726496" rx="8.35963387" ry="8.36011396"></ellipse>
                </g>
                <g id="duplicate_74_original_original_Group_63178032_38240594" opacity="0.202519017" transform="translate(806.107552, 358.290598)">
                    <path d="M38.2154691,73.4495726 C38.961865,75.0917379 40.4546568,75.9874644 42.0967277,75.9874644 C42.6938444,75.9874644 43.2909611,75.8381766 43.8880778,75.5396011 C46.1272655,74.4945869 47.0229405,71.9566952 45.9779863,69.7173789 C45.9779863,69.7173789 37.7676316,50.9071225 36.2748398,44.039886 C35.6777231,41.6512821 35.3791648,35.2319088 35.2298856,32.2461538 C35.2298856,31.2011396 35.8270023,30.3054131 36.7226774,30.0068376 L55.084016,24.4831909 C57.3232037,23.8860399 58.6667163,21.3481481 58.0695996,19.1088319 C57.4724828,16.8695157 54.9347369,15.5259259 52.6955492,16.1230769 C52.6955492,16.1230769 35.6777231,21.6467236 29.5572769,21.6467236 C23.5861098,21.6467236 6.71756293,16.2723647 6.71756293,16.2723647 C4.47837529,15.6752137 1.94062929,16.7202279 1.19423341,18.9595442 C0.447837529,21.3481481 1.79135011,23.8860399 4.17981693,24.4831909 L22.5411556,30.0068376 C23.4368307,30.3054131 24.1832265,31.2011396 24.0339474,32.2461538 C23.8846682,35.2319088 23.5861098,41.6512821 22.9889931,44.039886 C21.4962014,50.9071225 13.2858467,69.7173789 13.2858467,69.7173789 C12.2408925,71.9566952 13.2858467,74.4945869 15.3757552,75.5396011 C15.9728719,75.8381766 16.5699886,75.9874644 17.1671053,75.9874644 C18.8091762,75.9874644 20.4512471,75.0917379 21.0483638,73.4495726 L29.8558352,55.5350427 L38.2154691,73.4495726 Z" id="Path"></path>
                    <ellipse id="Oval" cx="29.8558352" cy="8.95726496" rx="8.35963387" ry="8.36011396"></ellipse>
                </g>
                <g id="duplicate_73_original_original_Group_63178032_38240594" opacity="0.656707465" transform="translate(716.540046, 358.290598)">
                    <path d="M38.2154691,73.4495726 C38.961865,75.0917379 40.4546568,75.9874644 42.0967277,75.9874644 C42.6938444,75.9874644 43.2909611,75.8381766 43.8880778,75.5396011 C46.1272655,74.4945869 47.0229405,71.9566952 45.9779863,69.7173789 C45.9779863,69.7173789 37.7676316,50.9071225 36.2748398,44.039886 C35.6777231,41.6512821 35.3791648,35.2319088 35.2298856,32.2461538 C35.2298856,31.2011396 35.8270023,30.3054131 36.7226774,30.0068376 L55.084016,24.4831909 C57.3232037,23.8860399 58.6667163,21.3481481 58.0695996,19.1088319 C57.4724828,16.8695157 54.9347369,15.5259259 52.6955492,16.1230769 C52.6955492,16.1230769 35.6777231,21.6467236 29.5572769,21.6467236 C23.5861098,21.6467236 6.71756293,16.2723647 6.71756293,16.2723647 C4.47837529,15.6752137 1.94062929,16.7202279 1.19423341,18.9595442 C0.447837529,21.3481481 1.79135011,23.8860399 4.17981693,24.4831909 L22.5411556,30.0068376 C23.4368307,30.3054131 24.1832265,31.2011396 24.0339474,32.2461538 C23.8846682,35.2319088 23.5861098,41.6512821 22.9889931,44.039886 C21.4962014,50.9071225 13.2858467,69.7173789 13.2858467,69.7173789 C12.2408925,71.9566952 13.2858467,74.4945869 15.3757552,75.5396011 C15.9728719,75.8381766 16.5699886,75.9874644 17.1671053,75.9874644 C18.8091762,75.9874644 20.4512471,75.0917379 21.0483638,73.4495726 L29.8558352,55.5350427 L38.2154691,73.4495726 Z" id="Path"></path>
                    <ellipse id="Oval" cx="29.8558352" cy="8.95726496" rx="8.35963387" ry="8.36011396"></ellipse>
                </g>
                <g id="duplicate_72_original_original_Group_63178032_38240594" opacity="0.797976878" transform="translate(626.972540, 358.290598)">
                    <path d="M38.2154691,73.4495726 C38.961865,75.0917379 40.4546568,75.9874644 42.0967277,75.9874644 C42.6938444,75.9874644 43.2909611,75.8381766 43.8880778,75.5396011 C46.1272655,74.4945869 47.0229405,71.9566952 45.9779863,69.7173789 C45.9779863,69.7173789 37.7676316,50.9071225 36.2748398,44.039886 C35.6777231,41.6512821 35.3791648,35.2319088 35.2298856,32.2461538 C35.2298856,31.2011396 35.8270023,30.3054131 36.7226774,30.0068376 L55.084016,24.4831909 C57.3232037,23.8860399 58.6667163,21.3481481 58.0695996,19.1088319 C57.4724828,16.8695157 54.9347369,15.5259259 52.6955492,16.1230769 C52.6955492,16.1230769 35.6777231,21.6467236 29.5572769,21.6467236 C23.5861098,21.6467236 6.71756293,16.2723647 6.71756293,16.2723647 C4.47837529,15.6752137 1.94062929,16.7202279 1.19423341,18.9595442 C0.447837529,21.3481481 1.79135011,23.8860399 4.17981693,24.4831909 L22.5411556,30.0068376 C23.4368307,30.3054131 24.1832265,31.2011396 24.0339474,32.2461538 C23.8846682,35.2319088 23.5861098,41.6512821 22.9889931,44.039886 C21.4962014,50.9071225 13.2858467,69.7173789 13.2858467,69.7173789 C12.2408925,71.9566952 13.2858467,74.4945869 15.3757552,75.5396011 C15.9728719,75.8381766 16.5699886,75.9874644 17.1671053,75.9874644 C18.8091762,75.9874644 20.4512471,75.0917379 21.0483638,73.4495726 L29.8558352,55.5350427 L38.2154691,73.4495726 Z" id="Path"></path>
                    <ellipse id="Oval" cx="29.8558352" cy="8.95726496" rx="8.35963387" ry="8.36011396"></ellipse>
                </g>
                <g id="duplicate_71_original_original_Group_63178032_38240594" opacity="0.000888017818" transform="translate(537.405034, 358.290598)">
                    <path d="M38.2154691,73.4495726 C38.961865,75.0917379 40.4546568,75.9874644 42.0967277,75.9874644 C42.6938444,75.9874644 43.2909611,75.8381766 43.8880778,75.5396011 C46.1272655,74.4945869 47.0229405,71.9566952 45.9779863,69.7173789 C45.9779863,69.7173789 37.7676316,50.9071225 36.2748398,44.039886 C35.6777231,41.6512821 35.3791648,35.2319088 35.2298856,32.2461538 C35.2298856,31.2011396 35.8270023,30.3054131 36.7226774,30.0068376 L55.084016,24.4831909 C57.3232037,23.8860399 58.6667163,21.3481481 58.0695996,19.1088319 C57.4724828,16.8695157 54.9347369,15.5259259 52.6955492,16.1230769 C52.6955492,16.1230769 35.6777231,21.6467236 29.5572769,21.6467236 C23.5861098,21.6467236 6.71756293,16.2723647 6.71756293,16.2723647 C4.47837529,15.6752137 1.94062929,16.7202279 1.19423341,18.9595442 C0.447837529,21.3481481 1.79135011,23.8860399 4.17981693,24.4831909 L22.5411556,30.0068376 C23.4368307,30.3054131 24.1832265,31.2011396 24.0339474,32.2461538 C23.8846682,35.2319088 23.5861098,41.6512821 22.9889931,44.039886 C21.4962014,50.9071225 13.2858467,69.7173789 13.2858467,69.7173789 C12.2408925,71.9566952 13.2858467,74.4945869 15.3757552,75.5396011 C15.9728719,75.8381766 16.5699886,75.9874644 17.1671053,75.9874644 C18.8091762,75.9874644 20.4512471,75.0917379 21.0483638,73.4495726 L29.8558352,55.5350427 L38.2154691,73.4495726 Z" id="Path"></path>
                    <ellipse id="Oval" cx="29.8558352" cy="8.95726496" rx="8.35963387" ry="8.36011396"></ellipse>
                </g>
                <g id="duplicate_70_original_original_Group_63178032_38240594" opacity="0.778036659" transform="translate(447.837529, 358.290598)">
                    <path d="M38.2154691,73.4495726 C38.961865,75.0917379 40.4546568,75.9874644 42.0967277,75.9874644 C42.6938444,75.9874644 43.2909611,75.8381766 43.8880778,75.5396011 C46.1272655,74.4945869 47.0229405,71.9566952 45.9779863,69.7173789 C45.9779863,69.7173789 37.7676316,50.9071225 36.2748398,44.039886 C35.6777231,41.6512821 35.3791648,35.2319088 35.2298856,32.2461538 C35.2298856,31.2011396 35.8270023,30.3054131 36.7226774,30.0068376 L55.084016,24.4831909 C57.3232037,23.8860399 58.6667163,21.3481481 58.0695996,19.1088319 C57.4724828,16.8695157 54.9347369,15.5259259 52.6955492,16.1230769 C52.6955492,16.1230769 35.6777231,21.6467236 29.5572769,21.6467236 C23.5861098,21.6467236 6.71756293,16.2723647 6.71756293,16.2723647 C4.47837529,15.6752137 1.94062929,16.7202279 1.19423341,18.9595442 C0.447837529,21.3481481 1.79135011,23.8860399 4.17981693,24.4831909 L22.5411556,30.0068376 C23.4368307,30.3054131 24.1832265,31.2011396 24.0339474,32.2461538 C23.8846682,35.2319088 23.5861098,41.6512821 22.9889931,44.039886 C21.4962014,50.9071225 13.2858467,69.7173789 13.2858467,69.7173789 C12.2408925,71.9566952 13.2858467,74.4945869 15.3757552,75.5396011 C15.9728719,75.8381766 16.5699886,75.9874644 17.1671053,75.9874644 C18.8091762,75.9874644 20.4512471,75.0917379 21.0483638,73.4495726 L29.8558352,55.5350427 L38.2154691,73.4495726 Z" id="Path"></path>
                    <ellipse id="Oval" cx="29.8558352" cy="8.95726496" rx="8.35963387" ry="8.36011396"></ellipse>
                </g>
                <g id="duplicate_59_original_original_Group_63178032_38240594" opacity="0.932638228" transform="translate(895.675057, 268.717949)">
                    <path d="M38.2154691,73.4495726 C38.961865,75.0917379 40.4546568,75.9874644 42.0967277,75.9874644 C42.6938444,75.9874644 43.2909611,75.8381766 43.8880778,75.5396011 C46.1272655,74.4945869 47.0229405,71.9566952 45.9779863,69.7173789 C45.9779863,69.7173789 37.7676316,50.9071225 36.2748398,44.039886 C35.6777231,41.6512821 35.3791648,35.2319088 35.2298856,32.2461538 C35.2298856,31.2011396 35.8270023,30.3054131 36.7226774,30.0068376 L55.084016,24.4831909 C57.3232037,23.8860399 58.6667163,21.3481481 58.0695996,19.1088319 C57.4724828,16.8695157 54.9347369,15.5259259 52.6955492,16.1230769 C52.6955492,16.1230769 35.6777231,21.6467236 29.5572769,21.6467236 C23.5861098,21.6467236 6.71756293,16.2723647 6.71756293,16.2723647 C4.47837529,15.6752137 1.94062929,16.7202279 1.19423341,18.9595442 C0.447837529,21.3481481 1.79135011,23.8860399 4.17981693,24.4831909 L22.5411556,30.0068376 C23.4368307,30.3054131 24.1832265,31.2011396 24.0339474,32.2461538 C23.8846682,35.2319088 23.5861098,41.6512821 22.9889931,44.039886 C21.4962014,50.9071225 13.2858467,69.7173789 13.2858467,69.7173789 C12.2408925,71.9566952 13.2858467,74.4945869 15.3757552,75.5396011 C15.9728719,75.8381766 16.5699886,75.9874644 17.1671053,75.9874644 C18.8091762,75.9874644 20.4512471,75.0917379 21.0483638,73.4495726 L29.8558352,55.5350427 L38.2154691,73.4495726 Z" id="Path"></path>
                    <ellipse id="Oval" cx="29.8558352" cy="8.95726496" rx="8.35963387" ry="8.36011396"></ellipse>
                </g>
                <g id="duplicate_58_original_original_Group_63178032_38240594" opacity="0.693452065" transform="translate(806.107552, 268.717949)">
                    <path d="M38.2154691,73.4495726 C38.961865,75.0917379 40.4546568,75.9874644 42.0967277,75.9874644 C42.6938444,75.9874644 43.2909611,75.8381766 43.8880778,75.5396011 C46.1272655,74.4945869 47.0229405,71.9566952 45.9779863,69.7173789 C45.9779863,69.7173789 37.7676316,50.9071225 36.2748398,44.039886 C35.6777231,41.6512821 35.3791648,35.2319088 35.2298856,32.2461538 C35.2298856,31.2011396 35.8270023,30.3054131 36.7226774,30.0068376 L55.084016,24.4831909 C57.3232037,23.8860399 58.6667163,21.3481481 58.0695996,19.1088319 C57.4724828,16.8695157 54.9347369,15.5259259 52.6955492,16.1230769 C52.6955492,16.1230769 35.6777231,21.6467236 29.5572769,21.6467236 C23.5861098,21.6467236 6.71756293,16.2723647 6.71756293,16.2723647 C4.47837529,15.6752137 1.94062929,16.7202279 1.19423341,18.9595442 C0.447837529,21.3481481 1.79135011,23.8860399 4.17981693,24.4831909 L22.5411556,30.0068376 C23.4368307,30.3054131 24.1832265,31.2011396 24.0339474,32.2461538 C23.8846682,35.2319088 23.5861098,41.6512821 22.9889931,44.039886 C21.4962014,50.9071225 13.2858467,69.7173789 13.2858467,69.7173789 C12.2408925,71.9566952 13.2858467,74.4945869 15.3757552,75.5396011 C15.9728719,75.8381766 16.5699886,75.9874644 17.1671053,75.9874644 C18.8091762,75.9874644 20.4512471,75.0917379 21.0483638,73.4495726 L29.8558352,55.5350427 L38.2154691,73.4495726 Z" id="Path"></path>
                    <ellipse id="Oval" cx="29.8558352" cy="8.95726496" rx="8.35963387" ry="8.36011396"></ellipse>
                </g>
                <g id="duplicate_57_original_original_Group_63178032_38240594" opacity="0.438875707" transform="translate(716.540046, 268.717949)">
                    <path d="M38.2154691,73.4495726 C38.961865,75.0917379 40.4546568,75.9874644 42.0967277,75.9874644 C42.6938444,75.9874644 43.2909611,75.8381766 43.8880778,75.5396011 C46.1272655,74.4945869 47.0229405,71.9566952 45.9779863,69.7173789 C45.9779863,69.7173789 37.7676316,50.9071225 36.2748398,44.039886 C35.6777231,41.6512821 35.3791648,35.2319088 35.2298856,32.2461538 C35.2298856,31.2011396 35.8270023,30.3054131 36.7226774,30.0068376 L55.084016,24.4831909 C57.3232037,23.8860399 58.6667163,21.3481481 58.0695996,19.1088319 C57.4724828,16.8695157 54.9347369,15.5259259 52.6955492,16.1230769 C52.6955492,16.1230769 35.6777231,21.6467236 29.5572769,21.6467236 C23.5861098,21.6467236 6.71756293,16.2723647 6.71756293,16.2723647 C4.47837529,15.6752137 1.94062929,16.7202279 1.19423341,18.9595442 C0.447837529,21.3481481 1.79135011,23.8860399 4.17981693,24.4831909 L22.5411556,30.0068376 C23.4368307,30.3054131 24.1832265,31.2011396 24.0339474,32.2461538 C23.8846682,35.2319088 23.5861098,41.6512821 22.9889931,44.039886 C21.4962014,50.9071225 13.2858467,69.7173789 13.2858467,69.7173789 C12.2408925,71.9566952 13.2858467,74.4945869 15.3757552,75.5396011 C15.9728719,75.8381766 16.5699886,75.9874644 17.1671053,75.9874644 C18.8091762,75.9874644 20.4512471,75.0917379 21.0483638,73.4495726 L29.8558352,55.5350427 L38.2154691,73.4495726 Z" id="Path"></path>
                    <ellipse id="Oval" cx="29.8558352" cy="8.95726496" rx="8.35963387" ry="8.36011396"></ellipse>
                </g>
                <g id="duplicate_56_original_original_Group_63178032_38240594" opacity="0.212539617" transform="translate(626.972540, 268.717949)">
                    <path d="M38.2154691,73.4495726 C38.961865,75.0917379 40.4546568,75.9874644 42.0967277,75.9874644 C42.6938444,75.9874644 43.2909611,75.8381766 43.8880778,75.5396011 C46.1272655,74.4945869 47.0229405,71.9566952 45.9779863,69.7173789 C45.9779863,69.7173789 37.7676316,50.9071225 36.2748398,44.039886 C35.6777231,41.6512821 35.3791648,35.2319088 35.2298856,32.2461538 C35.2298856,31.2011396 35.8270023,30.3054131 36.7226774,30.0068376 L55.084016,24.4831909 C57.3232037,23.8860399 58.6667163,21.3481481 58.0695996,19.1088319 C57.4724828,16.8695157 54.9347369,15.5259259 52.6955492,16.1230769 C52.6955492,16.1230769 35.6777231,21.6467236 29.5572769,21.6467236 C23.5861098,21.6467236 6.71756293,16.2723647 6.71756293,16.2723647 C4.47837529,15.6752137 1.94062929,16.7202279 1.19423341,18.9595442 C0.447837529,21.3481481 1.79135011,23.8860399 4.17981693,24.4831909 L22.5411556,30.0068376 C23.4368307,30.3054131 24.1832265,31.2011396 24.0339474,32.2461538 C23.8846682,35.2319088 23.5861098,41.6512821 22.9889931,44.039886 C21.4962014,50.9071225 13.2858467,69.7173789 13.2858467,69.7173789 C12.2408925,71.9566952 13.2858467,74.4945869 15.3757552,75.5396011 C15.9728719,75.8381766 16.5699886,75.9874644 17.1671053,75.9874644 C18.8091762,75.9874644 20.4512471,75.0917379 21.0483638,73.4495726 L29.8558352,55.5350427 L38.2154691,73.4495726 Z" id="Path"></path>
                    <ellipse id="Oval" cx="29.8558352" cy="8.95726496" rx="8.35963387" ry="8.36011396"></ellipse>
                </g>
                <g id="duplicate_55_original_original_Group_63178032_38240594" opacity="0.332395489" transform="translate(537.405034, 268.717949)">
                    <path d="M38.2154691,73.4495726 C38.961865,75.0917379 40.4546568,75.9874644 42.0967277,75.9874644 C42.6938444,75.9874644 43.2909611,75.8381766 43.8880778,75.5396011 C46.1272655,74.4945869 47.0229405,71.9566952 45.9779863,69.7173789 C45.9779863,69.7173789 37.7676316,50.9071225 36.2748398,44.039886 C35.6777231,41.6512821 35.3791648,35.2319088 35.2298856,32.2461538 C35.2298856,31.2011396 35.8270023,30.3054131 36.7226774,30.0068376 L55.084016,24.4831909 C57.3232037,23.8860399 58.6667163,21.3481481 58.0695996,19.1088319 C57.4724828,16.8695157 54.9347369,15.5259259 52.6955492,16.1230769 C52.6955492,16.1230769 35.6777231,21.6467236 29.5572769,21.6467236 C23.5861098,21.6467236 6.71756293,16.2723647 6.71756293,16.2723647 C4.47837529,15.6752137 1.94062929,16.7202279 1.19423341,18.9595442 C0.447837529,21.3481481 1.79135011,23.8860399 4.17981693,24.4831909 L22.5411556,30.0068376 C23.4368307,30.3054131 24.1832265,31.2011396 24.0339474,32.2461538 C23.8846682,35.2319088 23.5861098,41.6512821 22.9889931,44.039886 C21.4962014,50.9071225 13.2858467,69.7173789 13.2858467,69.7173789 C12.2408925,71.9566952 13.2858467,74.4945869 15.3757552,75.5396011 C15.9728719,75.8381766 16.5699886,75.9874644 17.1671053,75.9874644 C18.8091762,75.9874644 20.4512471,75.0917379 21.0483638,73.4495726 L29.8558352,55.5350427 L38.2154691,73.4495726 Z" id="Path"></path>
                    <ellipse id="Oval" cx="29.8558352" cy="8.95726496" rx="8.35963387" ry="8.36011396"></ellipse>
                </g>
                <g id="duplicate_54_original_original_Group_63178032_38240594" opacity="0.373633236" transform="translate(447.837529, 268.717949)">
                    <path d="M38.2154691,73.4495726 C38.961865,75.0917379 40.4546568,75.9874644 42.0967277,75.9874644 C42.6938444,75.9874644 43.2909611,75.8381766 43.8880778,75.5396011 C46.1272655,74.4945869 47.0229405,71.9566952 45.9779863,69.7173789 C45.9779863,69.7173789 37.7676316,50.9071225 36.2748398,44.039886 C35.6777231,41.6512821 35.3791648,35.2319088 35.2298856,32.2461538 C35.2298856,31.2011396 35.8270023,30.3054131 36.7226774,30.0068376 L55.084016,24.4831909 C57.3232037,23.8860399 58.6667163,21.3481481 58.0695996,19.1088319 C57.4724828,16.8695157 54.9347369,15.5259259 52.6955492,16.1230769 C52.6955492,16.1230769 35.6777231,21.6467236 29.5572769,21.6467236 C23.5861098,21.6467236 6.71756293,16.2723647 6.71756293,16.2723647 C4.47837529,15.6752137 1.94062929,16.7202279 1.19423341,18.9595442 C0.447837529,21.3481481 1.79135011,23.8860399 4.17981693,24.4831909 L22.5411556,30.0068376 C23.4368307,30.3054131 24.1832265,31.2011396 24.0339474,32.2461538 C23.8846682,35.2319088 23.5861098,41.6512821 22.9889931,44.039886 C21.4962014,50.9071225 13.2858467,69.7173789 13.2858467,69.7173789 C12.2408925,71.9566952 13.2858467,74.4945869 15.3757552,75.5396011 C15.9728719,75.8381766 16.5699886,75.9874644 17.1671053,75.9874644 C18.8091762,75.9874644 20.4512471,75.0917379 21.0483638,73.4495726 L29.8558352,55.5350427 L38.2154691,73.4495726 Z" id="Path"></path>
                    <ellipse id="Oval" cx="29.8558352" cy="8.95726496" rx="8.35963387" ry="8.36011396"></ellipse>
                </g>
                <g id="duplicate_43_original_original_Group_63178032_38240594" opacity="0.00615907862" transform="translate(895.675057, 179.145299)">
                    <path d="M38.2154691,73.4495726 C38.961865,75.0917379 40.4546568,75.9874644 42.0967277,75.9874644 C42.6938444,75.9874644 43.2909611,75.8381766 43.8880778,75.5396011 C46.1272655,74.4945869 47.0229405,71.9566952 45.9779863,69.7173789 C45.9779863,69.7173789 37.7676316,50.9071225 36.2748398,44.039886 C35.6777231,41.6512821 35.3791648,35.2319088 35.2298856,32.2461538 C35.2298856,31.2011396 35.8270023,30.3054131 36.7226774,30.0068376 L55.084016,24.4831909 C57.3232037,23.8860399 58.6667163,21.3481481 58.0695996,19.1088319 C57.4724828,16.8695157 54.9347369,15.5259259 52.6955492,16.1230769 C52.6955492,16.1230769 35.6777231,21.6467236 29.5572769,21.6467236 C23.5861098,21.6467236 6.71756293,16.2723647 6.71756293,16.2723647 C4.47837529,15.6752137 1.94062929,16.7202279 1.19423341,18.9595442 C0.447837529,21.3481481 1.79135011,23.8860399 4.17981693,24.4831909 L22.5411556,30.0068376 C23.4368307,30.3054131 24.1832265,31.2011396 24.0339474,32.2461538 C23.8846682,35.2319088 23.5861098,41.6512821 22.9889931,44.039886 C21.4962014,50.9071225 13.2858467,69.7173789 13.2858467,69.7173789 C12.2408925,71.9566952 13.2858467,74.4945869 15.3757552,75.5396011 C15.9728719,75.8381766 16.5699886,75.9874644 17.1671053,75.9874644 C18.8091762,75.9874644 20.4512471,75.0917379 21.0483638,73.4495726 L29.8558352,55.5350427 L38.2154691,73.4495726 Z" id="Path"></path>
                    <ellipse id="Oval" cx="29.8558352" cy="8.95726496" rx="8.35963387" ry="8.36011396"></ellipse>
                </g>
                <g id="duplicate_42_original_original_Group_63178032_38240594" opacity="0.411016794" transform="translate(806.107552, 179.145299)">
                    <path d="M38.2154691,73.4495726 C38.961865,75.0917379 40.4546568,75.9874644 42.0967277,75.9874644 C42.6938444,75.9874644 43.2909611,75.8381766 43.8880778,75.5396011 C46.1272655,74.4945869 47.0229405,71.9566952 45.9779863,69.7173789 C45.9779863,69.7173789 37.7676316,50.9071225 36.2748398,44.039886 C35.6777231,41.6512821 35.3791648,35.2319088 35.2298856,32.2461538 C35.2298856,31.2011396 35.8270023,30.3054131 36.7226774,30.0068376 L55.084016,24.4831909 C57.3232037,23.8860399 58.6667163,21.3481481 58.0695996,19.1088319 C57.4724828,16.8695157 54.9347369,15.5259259 52.6955492,16.1230769 C52.6955492,16.1230769 35.6777231,21.6467236 29.5572769,21.6467236 C23.5861098,21.6467236 6.71756293,16.2723647 6.71756293,16.2723647 C4.47837529,15.6752137 1.94062929,16.7202279 1.19423341,18.9595442 C0.447837529,21.3481481 1.79135011,23.8860399 4.17981693,24.4831909 L22.5411556,30.0068376 C23.4368307,30.3054131 24.1832265,31.2011396 24.0339474,32.2461538 C23.8846682,35.2319088 23.5861098,41.6512821 22.9889931,44.039886 C21.4962014,50.9071225 13.2858467,69.7173789 13.2858467,69.7173789 C12.2408925,71.9566952 13.2858467,74.4945869 15.3757552,75.5396011 C15.9728719,75.8381766 16.5699886,75.9874644 17.1671053,75.9874644 C18.8091762,75.9874644 20.4512471,75.0917379 21.0483638,73.4495726 L29.8558352,55.5350427 L38.2154691,73.4495726 Z" id="Path"></path>
                    <ellipse id="Oval" cx="29.8558352" cy="8.95726496" rx="8.35963387" ry="8.36011396"></ellipse>
                </g>
                <g id="duplicate_41_original_original_Group_63178032_38240594" opacity="0.057387089" transform="translate(716.540046, 179.145299)">
                    <path d="M38.2154691,73.4495726 C38.961865,75.0917379 40.4546568,75.9874644 42.0967277,75.9874644 C42.6938444,75.9874644 43.2909611,75.8381766 43.8880778,75.5396011 C46.1272655,74.4945869 47.0229405,71.9566952 45.9779863,69.7173789 C45.9779863,69.7173789 37.7676316,50.9071225 36.2748398,44.039886 C35.6777231,41.6512821 35.3791648,35.2319088 35.2298856,32.2461538 C35.2298856,31.2011396 35.8270023,30.3054131 36.7226774,30.0068376 L55.084016,24.4831909 C57.3232037,23.8860399 58.6667163,21.3481481 58.0695996,19.1088319 C57.4724828,16.8695157 54.9347369,15.5259259 52.6955492,16.1230769 C52.6955492,16.1230769 35.6777231,21.6467236 29.5572769,21.6467236 C23.5861098,21.6467236 6.71756293,16.2723647 6.71756293,16.2723647 C4.47837529,15.6752137 1.94062929,16.7202279 1.19423341,18.9595442 C0.447837529,21.3481481 1.79135011,23.8860399 4.17981693,24.4831909 L22.5411556,30.0068376 C23.4368307,30.3054131 24.1832265,31.2011396 24.0339474,32.2461538 C23.8846682,35.2319088 23.5861098,41.6512821 22.9889931,44.039886 C21.4962014,50.9071225 13.2858467,69.7173789 13.2858467,69.7173789 C12.2408925,71.9566952 13.2858467,74.4945869 15.3757552,75.5396011 C15.9728719,75.8381766 16.5699886,75.9874644 17.1671053,75.9874644 C18.8091762,75.9874644 20.4512471,75.0917379 21.0483638,73.4495726 L29.8558352,55.5350427 L38.2154691,73.4495726 Z" id="Path"></path>
                    <ellipse id="Oval" cx="29.8558352" cy="8.95726496" rx="8.35963387" ry="8.36011396"></ellipse>
                </g>
                <g id="duplicate_40_original_original_Group_63178032_38240594" opacity="0.472305439" transform="translate(626.972540, 179.145299)">
                    <path d="M38.2154691,73.4495726 C38.961865,75.0917379 40.4546568,75.9874644 42.0967277,75.9874644 C42.6938444,75.9874644 43.2909611,75.8381766 43.8880778,75.5396011 C46.1272655,74.4945869 47.0229405,71.9566952 45.9779863,69.7173789 C45.9779863,69.7173789 37.7676316,50.9071225 36.2748398,44.039886 C35.6777231,41.6512821 35.3791648,35.2319088 35.2298856,32.2461538 C35.2298856,31.2011396 35.8270023,30.3054131 36.7226774,30.0068376 L55.084016,24.4831909 C57.3232037,23.8860399 58.6667163,21.3481481 58.0695996,19.1088319 C57.4724828,16.8695157 54.9347369,15.5259259 52.6955492,16.1230769 C52.6955492,16.1230769 35.6777231,21.6467236 29.5572769,21.6467236 C23.5861098,21.6467236 6.71756293,16.2723647 6.71756293,16.2723647 C4.47837529,15.6752137 1.94062929,16.7202279 1.19423341,18.9595442 C0.447837529,21.3481481 1.79135011,23.8860399 4.17981693,24.4831909 L22.5411556,30.0068376 C23.4368307,30.3054131 24.1832265,31.2011396 24.0339474,32.2461538 C23.8846682,35.2319088 23.5861098,41.6512821 22.9889931,44.039886 C21.4962014,50.9071225 13.2858467,69.7173789 13.2858467,69.7173789 C12.2408925,71.9566952 13.2858467,74.4945869 15.3757552,75.5396011 C15.9728719,75.8381766 16.5699886,75.9874644 17.1671053,75.9874644 C18.8091762,75.9874644 20.4512471,75.0917379 21.0483638,73.4495726 L29.8558352,55.5350427 L38.2154691,73.4495726 Z" id="Path"></path>
                    <ellipse id="Oval" cx="29.8558352" cy="8.95726496" rx="8.35963387" ry="8.36011396"></ellipse>
                </g>
                <g id="duplicate_39_original_original_Group_63178032_38240594" opacity="0.893810444" transform="translate(537.405034, 179.145299)">
                    <path d="M38.2154691,73.4495726 C38.961865,75.0917379 40.4546568,75.9874644 42.0967277,75.9874644 C42.6938444,75.9874644 43.2909611,75.8381766 43.8880778,75.5396011 C46.1272655,74.4945869 47.0229405,71.9566952 45.9779863,69.7173789 C45.9779863,69.7173789 37.7676316,50.9071225 36.2748398,44.039886 C35.6777231,41.6512821 35.3791648,35.2319088 35.2298856,32.2461538 C35.2298856,31.2011396 35.8270023,30.3054131 36.7226774,30.0068376 L55.084016,24.4831909 C57.3232037,23.8860399 58.6667163,21.3481481 58.0695996,19.1088319 C57.4724828,16.8695157 54.9347369,15.5259259 52.6955492,16.1230769 C52.6955492,16.1230769 35.6777231,21.6467236 29.5572769,21.6467236 C23.5861098,21.6467236 6.71756293,16.2723647 6.71756293,16.2723647 C4.47837529,15.6752137 1.94062929,16.7202279 1.19423341,18.9595442 C0.447837529,21.3481481 1.79135011,23.8860399 4.17981693,24.4831909 L22.5411556,30.0068376 C23.4368307,30.3054131 24.1832265,31.2011396 24.0339474,32.2461538 C23.8846682,35.2319088 23.5861098,41.6512821 22.9889931,44.039886 C21.4962014,50.9071225 13.2858467,69.7173789 13.2858467,69.7173789 C12.2408925,71.9566952 13.2858467,74.4945869 15.3757552,75.5396011 C15.9728719,75.8381766 16.5699886,75.9874644 17.1671053,75.9874644 C18.8091762,75.9874644 20.4512471,75.0917379 21.0483638,73.4495726 L29.8558352,55.5350427 L38.2154691,73.4495726 Z" id="Path"></path>
                    <ellipse id="Oval" cx="29.8558352" cy="8.95726496" rx="8.35963387" ry="8.36011396"></ellipse>
                </g>
                <g id="duplicate_38_original_original_Group_63178032_38240594" opacity="0.317240281" transform="translate(447.837529, 179.145299)">
                    <path d="M38.2154691,73.4495726 C38.961865,75.0917379 40.4546568,75.9874644 42.0967277,75.9874644 C42.6938444,75.9874644 43.2909611,75.8381766 43.8880778,75.5396011 C46.1272655,74.4945869 47.0229405,71.9566952 45.9779863,69.7173789 C45.9779863,69.7173789 37.7676316,50.9071225 36.2748398,44.039886 C35.6777231,41.6512821 35.3791648,35.2319088 35.2298856,32.2461538 C35.2298856,31.2011396 35.8270023,30.3054131 36.7226774,30.0068376 L55.084016,24.4831909 C57.3232037,23.8860399 58.6667163,21.3481481 58.0695996,19.1088319 C57.4724828,16.8695157 54.9347369,15.5259259 52.6955492,16.1230769 C52.6955492,16.1230769 35.6777231,21.6467236 29.5572769,21.6467236 C23.5861098,21.6467236 6.71756293,16.2723647 6.71756293,16.2723647 C4.47837529,15.6752137 1.94062929,16.7202279 1.19423341,18.9595442 C0.447837529,21.3481481 1.79135011,23.8860399 4.17981693,24.4831909 L22.5411556,30.0068376 C23.4368307,30.3054131 24.1832265,31.2011396 24.0339474,32.2461538 C23.8846682,35.2319088 23.5861098,41.6512821 22.9889931,44.039886 C21.4962014,50.9071225 13.2858467,69.7173789 13.2858467,69.7173789 C12.2408925,71.9566952 13.2858467,74.4945869 15.3757552,75.5396011 C15.9728719,75.8381766 16.5699886,75.9874644 17.1671053,75.9874644 C18.8091762,75.9874644 20.4512471,75.0917379 21.0483638,73.4495726 L29.8558352,55.5350427 L38.2154691,73.4495726 Z" id="Path"></path>
                    <ellipse id="Oval" cx="29.8558352" cy="8.95726496" rx="8.35963387" ry="8.36011396"></ellipse>
                </g>
                <g id="duplicate_27_original_original_Group_63178032_38240594" opacity="0.95089299" transform="translate(895.675057, 89.572650)">
                    <path d="M38.2154691,73.4495726 C38.961865,75.0917379 40.4546568,75.9874644 42.0967277,75.9874644 C42.6938444,75.9874644 43.2909611,75.8381766 43.8880778,75.5396011 C46.1272655,74.4945869 47.0229405,71.9566952 45.9779863,69.7173789 C45.9779863,69.7173789 37.7676316,50.9071225 36.2748398,44.039886 C35.6777231,41.6512821 35.3791648,35.2319088 35.2298856,32.2461538 C35.2298856,31.2011396 35.8270023,30.3054131 36.7226774,30.0068376 L55.084016,24.4831909 C57.3232037,23.8860399 58.6667163,21.3481481 58.0695996,19.1088319 C57.4724828,16.8695157 54.9347369,15.5259259 52.6955492,16.1230769 C52.6955492,16.1230769 35.6777231,21.6467236 29.5572769,21.6467236 C23.5861098,21.6467236 6.71756293,16.2723647 6.71756293,16.2723647 C4.47837529,15.6752137 1.94062929,16.7202279 1.19423341,18.9595442 C0.447837529,21.3481481 1.79135011,23.8860399 4.17981693,24.4831909 L22.5411556,30.0068376 C23.4368307,30.3054131 24.1832265,31.2011396 24.0339474,32.2461538 C23.8846682,35.2319088 23.5861098,41.6512821 22.9889931,44.039886 C21.4962014,50.9071225 13.2858467,69.7173789 13.2858467,69.7173789 C12.2408925,71.9566952 13.2858467,74.4945869 15.3757552,75.5396011 C15.9728719,75.8381766 16.5699886,75.9874644 17.1671053,75.9874644 C18.8091762,75.9874644 20.4512471,75.0917379 21.0483638,73.4495726 L29.8558352,55.5350427 L38.2154691,73.4495726 Z" id="Path"></path>
                    <ellipse id="Oval" cx="29.8558352" cy="8.95726496" rx="8.35963387" ry="8.36011396"></ellipse>
                </g>
                <g id="duplicate_26_original_original_Group_63178032_38240594" opacity="0.897116061" transform="translate(806.107552, 89.572650)">
                    <path d="M38.2154691,73.4495726 C38.961865,75.0917379 40.4546568,75.9874644 42.0967277,75.9874644 C42.6938444,75.9874644 43.2909611,75.8381766 43.8880778,75.5396011 C46.1272655,74.4945869 47.0229405,71.9566952 45.9779863,69.7173789 C45.9779863,69.7173789 37.7676316,50.9071225 36.2748398,44.039886 C35.6777231,41.6512821 35.3791648,35.2319088 35.2298856,32.2461538 C35.2298856,31.2011396 35.8270023,30.3054131 36.7226774,30.0068376 L55.084016,24.4831909 C57.3232037,23.8860399 58.6667163,21.3481481 58.0695996,19.1088319 C57.4724828,16.8695157 54.9347369,15.5259259 52.6955492,16.1230769 C52.6955492,16.1230769 35.6777231,21.6467236 29.5572769,21.6467236 C23.5861098,21.6467236 6.71756293,16.2723647 6.71756293,16.2723647 C4.47837529,15.6752137 1.94062929,16.7202279 1.19423341,18.9595442 C0.447837529,21.3481481 1.79135011,23.8860399 4.17981693,24.4831909 L22.5411556,30.0068376 C23.4368307,30.3054131 24.1832265,31.2011396 24.0339474,32.2461538 C23.8846682,35.2319088 23.5861098,41.6512821 22.9889931,44.039886 C21.4962014,50.9071225 13.2858467,69.7173789 13.2858467,69.7173789 C12.2408925,71.9566952 13.2858467,74.4945869 15.3757552,75.5396011 C15.9728719,75.8381766 16.5699886,75.9874644 17.1671053,75.9874644 C18.8091762,75.9874644 20.4512471,75.0917379 21.0483638,73.4495726 L29.8558352,55.5350427 L38.2154691,73.4495726 Z" id="Path"></path>
                    <ellipse id="Oval" cx="29.8558352" cy="8.95726496" rx="8.35963387" ry="8.36011396"></ellipse>
                </g>
                <g id="duplicate_25_original_original_Group_63178032_38240594" opacity="0.505918492" transform="translate(716.540046, 89.572650)">
                    <path d="M38.2154691,73.4495726 C38.961865,75.0917379 40.4546568,75.9874644 42.0967277,75.9874644 C42.6938444,75.9874644 43.2909611,75.8381766 43.8880778,75.5396011 C46.1272655,74.4945869 47.0229405,71.9566952 45.9779863,69.7173789 C45.9779863,69.7173789 37.7676316,50.9071225 36.2748398,44.039886 C35.6777231,41.6512821 35.3791648,35.2319088 35.2298856,32.2461538 C35.2298856,31.2011396 35.8270023,30.3054131 36.7226774,30.0068376 L55.084016,24.4831909 C57.3232037,23.8860399 58.6667163,21.3481481 58.0695996,19.1088319 C57.4724828,16.8695157 54.9347369,15.5259259 52.6955492,16.1230769 C52.6955492,16.1230769 35.6777231,21.6467236 29.5572769,21.6467236 C23.5861098,21.6467236 6.71756293,16.2723647 6.71756293,16.2723647 C4.47837529,15.6752137 1.94062929,16.7202279 1.19423341,18.9595442 C0.447837529,21.3481481 1.79135011,23.8860399 4.17981693,24.4831909 L22.5411556,30.0068376 C23.4368307,30.3054131 24.1832265,31.2011396 24.0339474,32.2461538 C23.8846682,35.2319088 23.5861098,41.6512821 22.9889931,44.039886 C21.4962014,50.9071225 13.2858467,69.7173789 13.2858467,69.7173789 C12.2408925,71.9566952 13.2858467,74.4945869 15.3757552,75.5396011 C15.9728719,75.8381766 16.5699886,75.9874644 17.1671053,75.9874644 C18.8091762,75.9874644 20.4512471,75.0917379 21.0483638,73.4495726 L29.8558352,55.5350427 L38.2154691,73.4495726 Z" id="Path"></path>
                    <ellipse id="Oval" cx="29.8558352" cy="8.95726496" rx="8.35963387" ry="8.36011396"></ellipse>
                </g>
                <g id="duplicate_24_original_original_Group_63178032_38240594" opacity="0.0757708556" transform="translate(626.972540, 89.572650)">
                    <path d="M38.2154691,73.4495726 C38.961865,75.0917379 40.4546568,75.9874644 42.0967277,75.9874644 C42.6938444,75.9874644 43.2909611,75.8381766 43.8880778,75.5396011 C46.1272655,74.4945869 47.0229405,71.9566952 45.9779863,69.7173789 C45.9779863,69.7173789 37.7676316,50.9071225 36.2748398,44.039886 C35.6777231,41.6512821 35.3791648,35.2319088 35.2298856,32.2461538 C35.2298856,31.2011396 35.8270023,30.3054131 36.7226774,30.0068376 L55.084016,24.4831909 C57.3232037,23.8860399 58.6667163,21.3481481 58.0695996,19.1088319 C57.4724828,16.8695157 54.9347369,15.5259259 52.6955492,16.1230769 C52.6955492,16.1230769 35.6777231,21.6467236 29.5572769,21.6467236 C23.5861098,21.6467236 6.71756293,16.2723647 6.71756293,16.2723647 C4.47837529,15.6752137 1.94062929,16.7202279 1.19423341,18.9595442 C0.447837529,21.3481481 1.79135011,23.8860399 4.17981693,24.4831909 L22.5411556,30.0068376 C23.4368307,30.3054131 24.1832265,31.2011396 24.0339474,32.2461538 C23.8846682,35.2319088 23.5861098,41.6512821 22.9889931,44.039886 C21.4962014,50.9071225 13.2858467,69.7173789 13.2858467,69.7173789 C12.2408925,71.9566952 13.2858467,74.4945869 15.3757552,75.5396011 C15.9728719,75.8381766 16.5699886,75.9874644 17.1671053,75.9874644 C18.8091762,75.9874644 20.4512471,75.0917379 21.0483638,73.4495726 L29.8558352,55.5350427 L38.2154691,73.4495726 Z" id="Path"></path>
                    <ellipse id="Oval" cx="29.8558352" cy="8.95726496" rx="8.35963387" ry="8.36011396"></ellipse>
                </g>
                <g id="duplicate_23_original_original_Group_63178032_38240594" opacity="0.032431298" transform="translate(537.405034, 89.572650)">
                    <path d="M38.2154691,73.4495726 C38.961865,75.0917379 40.4546568,75.9874644 42.0967277,75.9874644 C42.6938444,75.9874644 43.2909611,75.8381766 43.8880778,75.5396011 C46.1272655,74.4945869 47.0229405,71.9566952 45.9779863,69.7173789 C45.9779863,69.7173789 37.7676316,50.9071225 36.2748398,44.039886 C35.6777231,41.6512821 35.3791648,35.2319088 35.2298856,32.2461538 C35.2298856,31.2011396 35.8270023,30.3054131 36.7226774,30.0068376 L55.084016,24.4831909 C57.3232037,23.8860399 58.6667163,21.3481481 58.0695996,19.1088319 C57.4724828,16.8695157 54.9347369,15.5259259 52.6955492,16.1230769 C52.6955492,16.1230769 35.6777231,21.6467236 29.5572769,21.6467236 C23.5861098,21.6467236 6.71756293,16.2723647 6.71756293,16.2723647 C4.47837529,15.6752137 1.94062929,16.7202279 1.19423341,18.9595442 C0.447837529,21.3481481 1.79135011,23.8860399 4.17981693,24.4831909 L22.5411556,30.0068376 C23.4368307,30.3054131 24.1832265,31.2011396 24.0339474,32.2461538 C23.8846682,35.2319088 23.5861098,41.6512821 22.9889931,44.039886 C21.4962014,50.9071225 13.2858467,69.7173789 13.2858467,69.7173789 C12.2408925,71.9566952 13.2858467,74.4945869 15.3757552,75.5396011 C15.9728719,75.8381766 16.5699886,75.9874644 17.1671053,75.9874644 C18.8091762,75.9874644 20.4512471,75.0917379 21.0483638,73.4495726 L29.8558352,55.5350427 L38.2154691,73.4495726 Z" id="Path"></path>
                    <ellipse id="Oval" cx="29.8558352" cy="8.95726496" rx="8.35963387" ry="8.36011396"></ellipse>
                </g>
                <g id="duplicate_22_original_original_Group_63178032_38240594" opacity="0.634345178" transform="translate(447.837529, 89.572650)">
                    <path d="M38.2154691,73.4495726 C38.961865,75.0917379 40.4546568,75.9874644 42.0967277,75.9874644 C42.6938444,75.9874644 43.2909611,75.8381766 43.8880778,75.5396011 C46.1272655,74.4945869 47.0229405,71.9566952 45.9779863,69.7173789 C45.9779863,69.7173789 37.7676316,50.9071225 36.2748398,44.039886 C35.6777231,41.6512821 35.3791648,35.2319088 35.2298856,32.2461538 C35.2298856,31.2011396 35.8270023,30.3054131 36.7226774,30.0068376 L55.084016,24.4831909 C57.3232037,23.8860399 58.6667163,21.3481481 58.0695996,19.1088319 C57.4724828,16.8695157 54.9347369,15.5259259 52.6955492,16.1230769 C52.6955492,16.1230769 35.6777231,21.6467236 29.5572769,21.6467236 C23.5861098,21.6467236 6.71756293,16.2723647 6.71756293,16.2723647 C4.47837529,15.6752137 1.94062929,16.7202279 1.19423341,18.9595442 C0.447837529,21.3481481 1.79135011,23.8860399 4.17981693,24.4831909 L22.5411556,30.0068376 C23.4368307,30.3054131 24.1832265,31.2011396 24.0339474,32.2461538 C23.8846682,35.2319088 23.5861098,41.6512821 22.9889931,44.039886 C21.4962014,50.9071225 13.2858467,69.7173789 13.2858467,69.7173789 C12.2408925,71.9566952 13.2858467,74.4945869 15.3757552,75.5396011 C15.9728719,75.8381766 16.5699886,75.9874644 17.1671053,75.9874644 C18.8091762,75.9874644 20.4512471,75.0917379 21.0483638,73.4495726 L29.8558352,55.5350427 L38.2154691,73.4495726 Z" id="Path"></path>
                    <ellipse id="Oval" cx="29.8558352" cy="8.95726496" rx="8.35963387" ry="8.36011396"></ellipse>
                </g>
                <g id="duplicate_11_original_original_Group_63178032_38240594" opacity="0.117134549" transform="translate(895.675057, 0.000000)">
                    <path d="M38.2154691,73.4495726 C38.961865,75.0917379 40.4546568,75.9874644 42.0967277,75.9874644 C42.6938444,75.9874644 43.2909611,75.8381766 43.8880778,75.5396011 C46.1272655,74.4945869 47.0229405,71.9566952 45.9779863,69.7173789 C45.9779863,69.7173789 37.7676316,50.9071225 36.2748398,44.039886 C35.6777231,41.6512821 35.3791648,35.2319088 35.2298856,32.2461538 C35.2298856,31.2011396 35.8270023,30.3054131 36.7226774,30.0068376 L55.084016,24.4831909 C57.3232037,23.8860399 58.6667163,21.3481481 58.0695996,19.1088319 C57.4724828,16.8695157 54.9347369,15.5259259 52.6955492,16.1230769 C52.6955492,16.1230769 35.6777231,21.6467236 29.5572769,21.6467236 C23.5861098,21.6467236 6.71756293,16.2723647 6.71756293,16.2723647 C4.47837529,15.6752137 1.94062929,16.7202279 1.19423341,18.9595442 C0.447837529,21.3481481 1.79135011,23.8860399 4.17981693,24.4831909 L22.5411556,30.0068376 C23.4368307,30.3054131 24.1832265,31.2011396 24.0339474,32.2461538 C23.8846682,35.2319088 23.5861098,41.6512821 22.9889931,44.039886 C21.4962014,50.9071225 13.2858467,69.7173789 13.2858467,69.7173789 C12.2408925,71.9566952 13.2858467,74.4945869 15.3757552,75.5396011 C15.9728719,75.8381766 16.5699886,75.9874644 17.1671053,75.9874644 C18.8091762,75.9874644 20.4512471,75.0917379 21.0483638,73.4495726 L29.8558352,55.5350427 L38.2154691,73.4495726 Z" id="Path"></path>
                    <ellipse id="Oval" cx="29.8558352" cy="8.95726496" rx="8.35963387" ry="8.36011396"></ellipse>
                </g>
                <g id="duplicate_10_original_original_Group_63178032_38240594" opacity="0.712118903" transform="translate(806.107552, 0.000000)">
                    <path d="M38.2154691,73.4495726 C38.961865,75.0917379 40.4546568,75.9874644 42.0967277,75.9874644 C42.6938444,75.9874644 43.2909611,75.8381766 43.8880778,75.5396011 C46.1272655,74.4945869 47.0229405,71.9566952 45.9779863,69.7173789 C45.9779863,69.7173789 37.7676316,50.9071225 36.2748398,44.039886 C35.6777231,41.6512821 35.3791648,35.2319088 35.2298856,32.2461538 C35.2298856,31.2011396 35.8270023,30.3054131 36.7226774,30.0068376 L55.084016,24.4831909 C57.3232037,23.8860399 58.6667163,21.3481481 58.0695996,19.1088319 C57.4724828,16.8695157 54.9347369,15.5259259 52.6955492,16.1230769 C52.6955492,16.1230769 35.6777231,21.6467236 29.5572769,21.6467236 C23.5861098,21.6467236 6.71756293,16.2723647 6.71756293,16.2723647 C4.47837529,15.6752137 1.94062929,16.7202279 1.19423341,18.9595442 C0.447837529,21.3481481 1.79135011,23.8860399 4.17981693,24.4831909 L22.5411556,30.0068376 C23.4368307,30.3054131 24.1832265,31.2011396 24.0339474,32.2461538 C23.8846682,35.2319088 23.5861098,41.6512821 22.9889931,44.039886 C21.4962014,50.9071225 13.2858467,69.7173789 13.2858467,69.7173789 C12.2408925,71.9566952 13.2858467,74.4945869 15.3757552,75.5396011 C15.9728719,75.8381766 16.5699886,75.9874644 17.1671053,75.9874644 C18.8091762,75.9874644 20.4512471,75.0917379 21.0483638,73.4495726 L29.8558352,55.5350427 L38.2154691,73.4495726 Z" id="Path"></path>
                    <ellipse id="Oval" cx="29.8558352" cy="8.95726496" rx="8.35963387" ry="8.36011396"></ellipse>
                </g>
                <g id="duplicate_9_original_original_Group_63178032_38240594" opacity="0.157229754" transform="translate(716.540046, 0.000000)">
                    <path d="M38.2154691,73.4495726 C38.961865,75.0917379 40.4546568,75.9874644 42.0967277,75.9874644 C42.6938444,75.9874644 43.2909611,75.8381766 43.8880778,75.5396011 C46.1272655,74.4945869 47.0229405,71.9566952 45.9779863,69.7173789 C45.9779863,69.7173789 37.7676316,50.9071225 36.2748398,44.039886 C35.6777231,41.6512821 35.3791648,35.2319088 35.2298856,32.2461538 C35.2298856,31.2011396 35.8270023,30.3054131 36.7226774,30.0068376 L55.084016,24.4831909 C57.3232037,23.8860399 58.6667163,21.3481481 58.0695996,19.1088319 C57.4724828,16.8695157 54.9347369,15.5259259 52.6955492,16.1230769 C52.6955492,16.1230769 35.6777231,21.6467236 29.5572769,21.6467236 C23.5861098,21.6467236 6.71756293,16.2723647 6.71756293,16.2723647 C4.47837529,15.6752137 1.94062929,16.7202279 1.19423341,18.9595442 C0.447837529,21.3481481 1.79135011,23.8860399 4.17981693,24.4831909 L22.5411556,30.0068376 C23.4368307,30.3054131 24.1832265,31.2011396 24.0339474,32.2461538 C23.8846682,35.2319088 23.5861098,41.6512821 22.9889931,44.039886 C21.4962014,50.9071225 13.2858467,69.7173789 13.2858467,69.7173789 C12.2408925,71.9566952 13.2858467,74.4945869 15.3757552,75.5396011 C15.9728719,75.8381766 16.5699886,75.9874644 17.1671053,75.9874644 C18.8091762,75.9874644 20.4512471,75.0917379 21.0483638,73.4495726 L29.8558352,55.5350427 L38.2154691,73.4495726 Z" id="Path"></path>
                    <ellipse id="Oval" cx="29.8558352" cy="8.95726496" rx="8.35963387" ry="8.36011396"></ellipse>
                </g>
                <g id="duplicate_8_original_original_Group_63178032_38240594" opacity="0.108926147" transform="translate(626.972540, 0.000000)">
                    <path d="M38.2154691,73.4495726 C38.961865,75.0917379 40.4546568,75.9874644 42.0967277,75.9874644 C42.6938444,75.9874644 43.2909611,75.8381766 43.8880778,75.5396011 C46.1272655,74.4945869 47.0229405,71.9566952 45.9779863,69.7173789 C45.9779863,69.7173789 37.7676316,50.9071225 36.2748398,44.039886 C35.6777231,41.6512821 35.3791648,35.2319088 35.2298856,32.2461538 C35.2298856,31.2011396 35.8270023,30.3054131 36.7226774,30.0068376 L55.084016,24.4831909 C57.3232037,23.8860399 58.6667163,21.3481481 58.0695996,19.1088319 C57.4724828,16.8695157 54.9347369,15.5259259 52.6955492,16.1230769 C52.6955492,16.1230769 35.6777231,21.6467236 29.5572769,21.6467236 C23.5861098,21.6467236 6.71756293,16.2723647 6.71756293,16.2723647 C4.47837529,15.6752137 1.94062929,16.7202279 1.19423341,18.9595442 C0.447837529,21.3481481 1.79135011,23.8860399 4.17981693,24.4831909 L22.5411556,30.0068376 C23.4368307,30.3054131 24.1832265,31.2011396 24.0339474,32.2461538 C23.8846682,35.2319088 23.5861098,41.6512821 22.9889931,44.039886 C21.4962014,50.9071225 13.2858467,69.7173789 13.2858467,69.7173789 C12.2408925,71.9566952 13.2858467,74.4945869 15.3757552,75.5396011 C15.9728719,75.8381766 16.5699886,75.9874644 17.1671053,75.9874644 C18.8091762,75.9874644 20.4512471,75.0917379 21.0483638,73.4495726 L29.8558352,55.5350427 L38.2154691,73.4495726 Z" id="Path"></path>
                    <ellipse id="Oval" cx="29.8558352" cy="8.95726496" rx="8.35963387" ry="8.36011396"></ellipse>
                </g>
                <g id="duplicate_7_original_original_Group_63178032_38240594" opacity="0.745905188" transform="translate(537.405034, 0.000000)">
                    <path d="M38.2154691,73.4495726 C38.961865,75.0917379 40.4546568,75.9874644 42.0967277,75.9874644 C42.6938444,75.9874644 43.2909611,75.8381766 43.8880778,75.5396011 C46.1272655,74.4945869 47.0229405,71.9566952 45.9779863,69.7173789 C45.9779863,69.7173789 37.7676316,50.9071225 36.2748398,44.039886 C35.6777231,41.6512821 35.3791648,35.2319088 35.2298856,32.2461538 C35.2298856,31.2011396 35.8270023,30.3054131 36.7226774,30.0068376 L55.084016,24.4831909 C57.3232037,23.8860399 58.6667163,21.3481481 58.0695996,19.1088319 C57.4724828,16.8695157 54.9347369,15.5259259 52.6955492,16.1230769 C52.6955492,16.1230769 35.6777231,21.6467236 29.5572769,21.6467236 C23.5861098,21.6467236 6.71756293,16.2723647 6.71756293,16.2723647 C4.47837529,15.6752137 1.94062929,16.7202279 1.19423341,18.9595442 C0.447837529,21.3481481 1.79135011,23.8860399 4.17981693,24.4831909 L22.5411556,30.0068376 C23.4368307,30.3054131 24.1832265,31.2011396 24.0339474,32.2461538 C23.8846682,35.2319088 23.5861098,41.6512821 22.9889931,44.039886 C21.4962014,50.9071225 13.2858467,69.7173789 13.2858467,69.7173789 C12.2408925,71.9566952 13.2858467,74.4945869 15.3757552,75.5396011 C15.9728719,75.8381766 16.5699886,75.9874644 17.1671053,75.9874644 C18.8091762,75.9874644 20.4512471,75.0917379 21.0483638,73.4495726 L29.8558352,55.5350427 L38.2154691,73.4495726 Z" id="Path"></path>
                    <ellipse id="Oval" cx="29.8558352" cy="8.95726496" rx="8.35963387" ry="8.36011396"></ellipse>
                </g>
                <g id="duplicate_6_original_original_Group_63178032_38240594" opacity="0.181163757" transform="translate(447.837529, 0.000000)">
                    <path d="M38.2154691,73.4495726 C38.961865,75.0917379 40.4546568,75.9874644 42.0967277,75.9874644 C42.6938444,75.9874644 43.2909611,75.8381766 43.8880778,75.5396011 C46.1272655,74.4945869 47.0229405,71.9566952 45.9779863,69.7173789 C45.9779863,69.7173789 37.7676316,50.9071225 36.2748398,44.039886 C35.6777231,41.6512821 35.3791648,35.2319088 35.2298856,32.2461538 C35.2298856,31.2011396 35.8270023,30.3054131 36.7226774,30.0068376 L55.084016,24.4831909 C57.3232037,23.8860399 58.6667163,21.3481481 58.0695996,19.1088319 C57.4724828,16.8695157 54.9347369,15.5259259 52.6955492,16.1230769 C52.6955492,16.1230769 35.6777231,21.6467236 29.5572769,21.6467236 C23.5861098,21.6467236 6.71756293,16.2723647 6.71756293,16.2723647 C4.47837529,15.6752137 1.94062929,16.7202279 1.19423341,18.9595442 C0.447837529,21.3481481 1.79135011,23.8860399 4.17981693,24.4831909 L22.5411556,30.0068376 C23.4368307,30.3054131 24.1832265,31.2011396 24.0339474,32.2461538 C23.8846682,35.2319088 23.5861098,41.6512821 22.9889931,44.039886 C21.4962014,50.9071225 13.2858467,69.7173789 13.2858467,69.7173789 C12.2408925,71.9566952 13.2858467,74.4945869 15.3757552,75.5396011 C15.9728719,75.8381766 16.5699886,75.9874644 17.1671053,75.9874644 C18.8091762,75.9874644 20.4512471,75.0917379 21.0483638,73.4495726 L29.8558352,55.5350427 L38.2154691,73.4495726 Z" id="Path"></path>
                    <ellipse id="Oval" cx="29.8558352" cy="8.95726496" rx="8.35963387" ry="8.36011396"></ellipse>
                </g>
            </g>
        </g>
        <rect id="Rectangle" fill="#1E3791" opacity="0.644135975" x="-10" y="-11" width="534" height="535"></rect>
        <g id="Group-2" transform="translate(88.000000, 75.000000)">
            <g id="Group" transform="translate(0.000000, 0.748858)" fill="#FFFFFF" fill-rule="nonzero" opacity="0.811128162">
                <path d="M83.2787199,175.587825 C36.875062,173.151512 0,134.80402 0,87.8553719 C0,39.3341898 39.3866758,0 87.9726027,0 C136.55853,0 175.945205,39.3341898 175.945205,87.8553719 C175.945205,94.2099626 175.269649,100.406979 173.986346,106.378701 C183.318126,104.341853 193.010728,103.268595 202.954338,103.268595 C277.537998,103.268595 338,163.650027 338,238.134298 C338,312.618568 277.537998,373 202.954338,373 C128.370678,373 67.9086758,312.618568 67.9086758,238.134298 C67.9086758,215.560751 73.4619993,194.282524 83.2787199,175.587825 Z M83.2787199,175.587825 C84.833,175.669429 86.3979701,175.710744 87.9726027,175.710744 C130.19546,175.710744 165.470846,146.004725 173.986346,106.378701 C134.536458,114.989428 101.535024,140.82101 83.2787199,175.587825 Z" id="Combined-Shape"></path>
            </g>
            <g id="duplicate_99_original_duplicate_51_original_original_original_Group_63178032_38240594_93844063_85621825" transform="translate(157.000000, 180.748858)" fill="#1E3791">
                <path d="M60.5024124,113.09339 C61.715459,115.621196 64.141552,117 66.8102543,117 C67.7806915,117 68.7511287,116.770199 69.7215659,116.310598 C73.3607054,114.701994 74.8163612,110.795384 73.1180961,107.348375 C73.1180961,107.348375 59.7745845,78.3934984 57.3484915,67.8226705 C56.3780543,64.1458608 55.8928357,54.2644348 55.6502264,49.6684227 C55.6502264,48.0598185 56.6206636,46.6810149 58.0763194,46.2214136 L87.9172635,37.7187913 C91.556403,36.7995888 93.7398867,32.8929786 92.7694495,29.4459695 C91.7990123,25.9989604 87.6746542,23.930755 84.0355147,24.8499574 C84.0355147,24.8499574 56.3780543,33.3525798 46.431073,33.3525798 C36.7267009,33.3525798 9.31184985,25.079758 9.31184985,25.079758 C5.67271033,24.1605556 1.54835221,25.7691598 0.335305701,29.2161689 C-0.877740806,32.8929786 1.30574291,36.7995888 5.18749173,37.7187913 L35.0284358,46.2214136 C36.4840916,46.6810149 37.6971381,48.0598185 37.4545288,49.6684227 C37.2119195,54.2644348 36.7267009,64.1458608 35.7562637,67.8226705 C33.3301707,78.3934984 19.9866591,107.348375 19.9866591,107.348375 C18.288394,110.795384 19.9866591,114.701994 23.3831893,116.310598 C24.3536265,116.770199 25.3240637,117 26.2945009,117 C28.9632033,117 31.6319056,115.621196 32.6023428,113.09339 L46.9162916,85.5173171 L60.5024124,113.09339 Z" id="Path"></path>
                <ellipse id="Oval" cx="46.5" cy="12.3157895" rx="12.4" ry="12.3157895"></ellipse>
            </g>
            <g id="duplicate_58_original_original_noun_Sign-Language_2333_98967576_92862522" transform="translate(55.000000, 34.748858)" fill="#1E3791">
                <path d="M64.5795968,23.9801701 C64.1162097,22.4103193 62.4985484,21.5223121 60.9647581,21.9969181 L43.3455645,27.5032074 L43.1222581,26.2737415 L60.5265323,14.5911309 C61.828629,13.7052712 62.2102419,11.9228141 61.3904032,10.5602008 C60.5506452,9.16322689 58.7652419,8.72942407 57.4012903,9.58951332 L57.348871,9.62494771 L39.6279839,20.9618045 L38.5701613,20.0974202 L51.1927419,4.96156742 C51.6498387,4.40964998 51.8930645,3.70525729 51.8783871,2.98153675 C51.8448387,1.34189095 50.5207258,0.040482499 48.9198387,0.0737693488 C48.1356452,0.0909496583 47.3923387,0.431334542 46.8576613,1.01761261 L31.9600806,17.5429229 L27.1333065,19.9782318 L24.3833871,20.0244038 L23.0058065,18.3214057 L23.3675,10.6729466 C23.3727419,10.554832 23.3716935,10.4367173 23.3643548,10.3186027 L22.898871,3.5645935 C22.7898387,2.02051318 21.5401613,0.821112816 20.0294355,0.809301353 C18.4285484,0.79641612 17.1201613,2.11607865 17.1075806,3.75679822 L17.0645968,10.6514712 L15.4794355,17.6664064 C15.4521774,17.7855948 15.4333065,17.9069307 15.4207258,18.0282666 L14.5495161,26.6001673 L8.53596774,42.70456 C8.02016129,44.0854274 8.57475806,45.6445405 9.83701613,46.3618184 L20.2307258,52.2739925 C21.4919355,52.9912704 23.0770968,52.6498117 23.9483065,51.4718868 L26.7443548,47.6922187 L40.9741129,42.5617487 L57.4862097,45.6037373 C58.9801613,45.8732534 60.4248387,44.9175987 60.7980645,43.4111003 C61.1933065,41.8219216 60.255,40.2058988 58.7033871,39.8010877 L43.875,35.9945754 L43.9462903,34.3323804 L62.7606452,27.6427974 C64.2273387,27.1177242 65.0293548,25.5027751 64.5795968,23.9801701 Z" id="Path"></path>
                <path d="M56.8508871,73.7644122 L35.4281452,68.8132617 L30.9557258,65.7508716 L29.5414516,63.332743 L30.2941935,61.2603681 L36.9420161,57.7566588 C37.0447581,57.7018965 37.1422581,57.6428392 37.2387097,57.5762655 L42.7165323,53.7858597 C43.5227419,53.2242783 43.9997581,52.2858039 43.9850806,51.2871984 C43.9630645,49.6475526 42.6462903,48.3364803 41.0443548,48.3601032 C40.5589516,48.3676196 40.0840323,48.4996932 39.6604839,48.7445126 L33.8052419,52.1558778 L27.0840323,54.2561707 C26.9697581,54.2916051 26.8575806,54.3356296 26.7485484,54.385023 L19.0628226,57.8983963 L2.44169355,60.6193278 C1.01798387,60.8523358 -0.0230645161,62.1226049 1.65029665e-14,63.6001116 L0.198145161,75.776656 C0.222258065,77.2541626 1.30314516,78.4889974 2.73524194,78.6736857 L7.32717742,79.2642588 L18.7808065,89.319035 L24.4651613,105.48678 C24.9820161,106.95677 26.5220968,107.765319 27.9887903,107.336885 C29.528871,106.885902 30.42,105.243034 29.9807258,103.665667 L25.7850806,88.6103472 L27.2266129,87.8426021 L42.2898387,101.18526 C43.466129,102.221447 45.2295161,102.125882 46.2904839,100.967285 C47.3881452,99.7721796 47.3304839,97.8930833 46.1646774,96.7699205 L32.6981452,83.895426 L33.6270161,83.0815089 L52.2096774,92.6788593 C53.606129,93.3843258 55.2971774,92.8356296 56.0394355,91.4332868 C56.8037097,89.9912146 56.2816129,88.1894296 54.8757258,87.4066518 L54.8201613,87.3755125 L54.8149194,87.3733649 L36.3706452,77.3261051 L36.5729839,75.9591968 L55.6840323,79.5853159 C57.2073387,79.868791 58.6792742,78.8744805 59.0262903,77.3282527 C59.3858871,75.7272626 58.4108871,74.1327151 56.8508871,73.7644122 Z" id="Path"></path>
            </g>
        </g>
    </g>
</svg>