
<svg width="997px" height="306px" viewBox="0 0 997 306" version="1.1" xmlns="http://www.w3.org/2000/svg" xmlns:xlink="http://www.w3.org/1999/xlink">
    <!-- Generator: Sketch 51.2 (57519) - http://www.bohemiancoding.com/sketch -->
    <desc>Created with Sketch.</desc>
    <defs></defs>
    <g id="Page-1" stroke="none" stroke-width="1" fill="none" fill-rule="evenodd">
        <g id="Artboard" transform="translate(-514.000000, -856.000000)" fill="#4A90E2">
            <g id="Group-4" transform="translate(514.000000, 856.000000)">
                <path d="M1.418741,1.12962299 C1.14259862,1.12962299 0.918740995,0.905765369 0.918740995,0.629622994 C0.918740995,0.353480619 1.14259862,0.129622994 1.418741,0.129622994 L6.418741,0.129622994 C6.69488337,0.129622994 6.918741,0.353480619 6.918741,0.629622994 C6.918741,0.905765369 6.69488337,1.12962299 6.418741,1.12962299 L1.418741,1.12962299 Z M11.418741,1.12962299 C11.1425986,1.12962299 10.918741,0.905765369 10.918741,0.629622994 C10.918741,0.353480619 11.1425986,0.129622994 11.418741,0.129622994 L16.418741,0.129622994 C16.6948834,0.129622994 16.918741,0.353480619 16.918741,0.629622994 C16.918741,0.905765369 16.6948834,1.12962299 16.418741,1.12962299 L11.418741,1.12962299 Z M21.418741,1.12962299 C21.1425986,1.12962299 20.918741,0.905765369 20.918741,0.629622994 C20.918741,0.353480619 21.1425986,0.129622994 21.418741,0.129622994 L26.418741,0.129622994 C26.6948834,0.129622994 26.918741,0.353480619 26.918741,0.629622994 C26.918741,0.905765369 26.6948834,1.12962299 26.418741,1.12962299 L21.418741,1.12962299 Z M31.418741,1.12962299 C31.1425986,1.12962299 30.918741,0.905765369 30.918741,0.629622994 C30.918741,0.353480619 31.1425986,0.129622994 31.418741,0.129622994 L36.418741,0.129622994 C36.6948834,0.129622994 36.918741,0.353480619 36.918741,0.629622994 C36.918741,0.905765369 36.6948834,1.12962299 36.418741,1.12962299 L31.418741,1.12962299 Z M41.418741,1.12962299 C41.1425986,1.12962299 40.918741,0.905765369 40.918741,0.629622994 C40.918741,0.353480619 41.1425986,0.129622994 41.418741,0.129622994 L46.418741,0.129622994 C46.6948834,0.129622994 46.918741,0.353480619 46.918741,0.629622994 C46.918741,0.905765369 46.6948834,1.12962299 46.418741,1.12962299 L41.418741,1.12962299 Z M51.418741,1.12962299 C51.1425986,1.12962299 50.918741,0.905765369 50.918741,0.629622994 C50.918741,0.353480619 51.1425986,0.129622994 51.418741,0.129622994 L56.418741,0.129622994 C56.6948834,0.129622994 56.918741,0.353480619 56.918741,0.629622994 C56.918741,0.905765369 56.6948834,1.12962299 56.418741,1.12962299 L51.418741,1.12962299 Z M61.418741,1.12962299 C61.1425986,1.12962299 60.918741,0.905765369 60.918741,0.629622994 C60.918741,0.353480619 61.1425986,0.129622994 61.418741,0.129622994 L66.418741,0.129622994 C66.6948834,0.129622994 66.918741,0.353480619 66.918741,0.629622994 C66.918741,0.905765369 66.6948834,1.12962299 66.418741,1.12962299 L61.418741,1.12962299 Z M71.418741,1.12962299 C71.1425986,1.12962299 70.918741,0.905765369 70.918741,0.629622994 C70.918741,0.353480619 71.1425986,0.129622994 71.418741,0.129622994 L76.418741,0.129622994 C76.6948834,0.129622994 76.918741,0.353480619 76.918741,0.629622994 C76.918741,0.905765369 76.6948834,1.12962299 76.418741,1.12962299 L71.418741,1.12962299 Z M81.418741,1.12962299 C81.1425986,1.12962299 80.918741,0.905765369 80.918741,0.629622994 C80.918741,0.353480619 81.1425986,0.129622994 81.418741,0.129622994 L86.418741,0.129622994 C86.6948834,0.129622994 86.918741,0.353480619 86.918741,0.629622994 C86.918741,0.905765369 86.6948834,1.12962299 86.418741,1.12962299 L81.418741,1.12962299 Z M91.418741,1.12962299 C91.1425986,1.12962299 90.918741,0.905765369 90.918741,0.629622994 C90.918741,0.353480619 91.1425986,0.129622994 91.418741,0.129622994 L96.418741,0.129622994 C96.6948834,0.129622994 96.918741,0.353480619 96.918741,0.629622994 C96.918741,0.905765369 96.6948834,1.12962299 96.418741,1.12962299 L91.418741,1.12962299 Z M101.418741,1.12962299 C101.142599,1.12962299 100.918741,0.905765369 100.918741,0.629622994 C100.918741,0.353480619 101.142599,0.129622994 101.418741,0.129622994 L106.418741,0.129622994 C106.694883,0.129622994 106.918741,0.353480619 106.918741,0.629622994 C106.918741,0.905765369 106.694883,1.12962299 106.418741,1.12962299 L101.418741,1.12962299 Z M111.418741,1.12962299 C111.142599,1.12962299 110.918741,0.905765369 110.918741,0.629622994 C110.918741,0.353480619 111.142599,0.129622994 111.418741,0.129622994 L116.418741,0.129622994 C116.694883,0.129622994 116.918741,0.353480619 116.918741,0.629622994 C116.918741,0.905765369 116.694883,1.12962299 116.418741,1.12962299 L111.418741,1.12962299 Z M121.418741,1.12962299 C121.142599,1.12962299 120.918741,0.905765369 120.918741,0.629622994 C120.918741,0.353480619 121.142599,0.129622994 121.418741,0.129622994 L126.418741,0.129622994 C126.694883,0.129622994 126.918741,0.353480619 126.918741,0.629622994 C126.918741,0.905765369 126.694883,1.12962299 126.418741,1.12962299 L121.418741,1.12962299 Z M131.418741,1.12962299 C131.142599,1.12962299 130.918741,0.905765369 130.918741,0.629622994 C130.918741,0.353480619 131.142599,0.129622994 131.418741,0.129622994 L136.418741,0.129622994 C136.694883,0.129622994 136.918741,0.353480619 136.918741,0.629622994 C136.918741,0.905765369 136.694883,1.12962299 136.418741,1.12962299 L131.418741,1.12962299 Z M141.418741,1.12962299 C141.142599,1.12962299 140.918741,0.905765369 140.918741,0.629622994 C140.918741,0.353480619 141.142599,0.129622994 141.418741,0.129622994 L146.418741,0.129622994 C146.694883,0.129622994 146.918741,0.353480619 146.918741,0.629622994 C146.918741,0.905765369 146.694883,1.12962299 146.418741,1.12962299 L141.418741,1.12962299 Z M151.418741,1.12962299 C151.142599,1.12962299 150.918741,0.905765369 150.918741,0.629622994 C150.918741,0.353480619 151.142599,0.129622994 151.418741,0.129622994 L156.418741,0.129622994 C156.694883,0.129622994 156.918741,0.353480619 156.918741,0.629622994 C156.918741,0.905765369 156.694883,1.12962299 156.418741,1.12962299 L151.418741,1.12962299 Z M161.418741,1.12962299 C161.142599,1.12962299 160.918741,0.905765369 160.918741,0.629622994 C160.918741,0.353480619 161.142599,0.129622994 161.418741,0.129622994 L166.418741,0.129622994 C166.694883,0.129622994 166.918741,0.353480619 166.918741,0.629622994 C166.918741,0.905765369 166.694883,1.12962299 166.418741,1.12962299 L161.418741,1.12962299 Z M171.418741,1.12962299 C171.142599,1.12962299 170.918741,0.905765369 170.918741,0.629622994 C170.918741,0.353480619 171.142599,0.129622994 171.418741,0.129622994 L176.418741,0.129622994 C176.694883,0.129622994 176.918741,0.353480619 176.918741,0.629622994 C176.918741,0.905765369 176.694883,1.12962299 176.418741,1.12962299 L171.418741,1.12962299 Z M181.418741,1.12962299 C181.142599,1.12962299 180.918741,0.905765369 180.918741,0.629622994 C180.918741,0.353480619 181.142599,0.129622994 181.418741,0.129622994 L186.418741,0.129622994 C186.694883,0.129622994 186.918741,0.353480619 186.918741,0.629622994 C186.918741,0.905765369 186.694883,1.12962299 186.418741,1.12962299 L181.418741,1.12962299 Z M191.418741,1.12962299 C191.142599,1.12962299 190.918741,0.905765369 190.918741,0.629622994 C190.918741,0.353480619 191.142599,0.129622994 191.418741,0.129622994 L196.418741,0.129622994 C196.694883,0.129622994 196.918741,0.353480619 196.918741,0.629622994 C196.918741,0.905765369 196.694883,1.12962299 196.418741,1.12962299 L191.418741,1.12962299 Z M201.418741,1.12962299 C201.142599,1.12962299 200.918741,0.905765369 200.918741,0.629622994 C200.918741,0.353480619 201.142599,0.129622994 201.418741,0.129622994 L206.418741,0.129622994 C206.694883,0.129622994 206.918741,0.353480619 206.918741,0.629622994 C206.918741,0.905765369 206.694883,1.12962299 206.418741,1.12962299 L201.418741,1.12962299 Z M211.418741,1.12962299 C211.142599,1.12962299 210.918741,0.905765369 210.918741,0.629622994 C210.918741,0.353480619 211.142599,0.129622994 211.418741,0.129622994 L216.418741,0.129622994 C216.694883,0.129622994 216.918741,0.353480619 216.918741,0.629622994 C216.918741,0.905765369 216.694883,1.12962299 216.418741,1.12962299 L211.418741,1.12962299 Z M221.418741,1.12962299 C221.142599,1.12962299 220.918741,0.905765369 220.918741,0.629622994 C220.918741,0.353480619 221.142599,0.129622994 221.418741,0.129622994 L226.418741,0.129622994 C226.694883,0.129622994 226.918741,0.353480619 226.918741,0.629622994 C226.918741,0.905765369 226.694883,1.12962299 226.418741,1.12962299 L221.418741,1.12962299 Z M231.418741,1.12962299 C231.142599,1.12962299 230.918741,0.905765369 230.918741,0.629622994 C230.918741,0.353480619 231.142599,0.129622994 231.418741,0.129622994 L236.418741,0.129622994 C236.694883,0.129622994 236.918741,0.353480619 236.918741,0.629622994 C236.918741,0.905765369 236.694883,1.12962299 236.418741,1.12962299 L231.418741,1.12962299 Z M241.418741,1.12962299 C241.142599,1.12962299 240.918741,0.905765369 240.918741,0.629622994 C240.918741,0.353480619 241.142599,0.129622994 241.418741,0.129622994 L246.418741,0.129622994 C246.694883,0.129622994 246.918741,0.353480619 246.918741,0.629622994 C246.918741,0.905765369 246.694883,1.12962299 246.418741,1.12962299 L241.418741,1.12962299 Z M251.418741,1.12962299 C251.142599,1.12962299 250.918741,0.905765369 250.918741,0.629622994 C250.918741,0.353480619 251.142599,0.129622994 251.418741,0.129622994 L256.418741,0.129622994 C256.694883,0.129622994 256.918741,0.353480619 256.918741,0.629622994 C256.918741,0.905765369 256.694883,1.12962299 256.418741,1.12962299 L251.418741,1.12962299 Z M261.418741,1.12962299 C261.142599,1.12962299 260.918741,0.905765369 260.918741,0.629622994 C260.918741,0.353480619 261.142599,0.129622994 261.418741,0.129622994 L266.418741,0.129622994 C266.694883,0.129622994 266.918741,0.353480619 266.918741,0.629622994 C266.918741,0.905765369 266.694883,1.12962299 266.418741,1.12962299 L261.418741,1.12962299 Z M271.418741,1.12962299 C271.142599,1.12962299 270.918741,0.905765369 270.918741,0.629622994 C270.918741,0.353480619 271.142599,0.129622994 271.418741,0.129622994 L276.418741,0.129622994 C276.694883,0.129622994 276.918741,0.353480619 276.918741,0.629622994 C276.918741,0.905765369 276.694883,1.12962299 276.418741,1.12962299 L271.418741,1.12962299 Z M281.418741,1.12962299 C281.142599,1.12962299 280.918741,0.905765369 280.918741,0.629622994 C280.918741,0.353480619 281.142599,0.129622994 281.418741,0.129622994 L286.418741,0.129622994 C286.694883,0.129622994 286.918741,0.353480619 286.918741,0.629622994 C286.918741,0.905765369 286.694883,1.12962299 286.418741,1.12962299 L281.418741,1.12962299 Z M291.418741,1.12962299 C291.142599,1.12962299 290.918741,0.905765369 290.918741,0.629622994 C290.918741,0.353480619 291.142599,0.129622994 291.418741,0.129622994 L296.418741,0.129622994 C296.694883,0.129622994 296.918741,0.353480619 296.918741,0.629622994 C296.918741,0.905765369 296.694883,1.12962299 296.418741,1.12962299 L291.418741,1.12962299 Z M301.418741,1.12962299 C301.142599,1.12962299 300.918741,0.905765369 300.918741,0.629622994 C300.918741,0.353480619 301.142599,0.129622994 301.418741,0.129622994 L306.418741,0.129622994 C306.694883,0.129622994 306.918741,0.353480619 306.918741,0.629622994 C306.918741,0.905765369 306.694883,1.12962299 306.418741,1.12962299 L301.418741,1.12962299 Z M311.418741,1.12962299 C311.142599,1.12962299 310.918741,0.905765369 310.918741,0.629622994 C310.918741,0.353480619 311.142599,0.129622994 311.418741,0.129622994 L316.418741,0.129622994 C316.694883,0.129622994 316.918741,0.353480619 316.918741,0.629622994 C316.918741,0.905765369 316.694883,1.12962299 316.418741,1.12962299 L311.418741,1.12962299 Z M321.418741,1.12962299 C321.142599,1.12962299 320.918741,0.905765369 320.918741,0.629622994 C320.918741,0.353480619 321.142599,0.129622994 321.418741,0.129622994 L326.418741,0.129622994 C326.694883,0.129622994 326.918741,0.353480619 326.918741,0.629622994 C326.918741,0.905765369 326.694883,1.12962299 326.418741,1.12962299 L321.418741,1.12962299 Z M331.418741,1.12962299 C331.142599,1.12962299 330.918741,0.905765369 330.918741,0.629622994 C330.918741,0.353480619 331.142599,0.129622994 331.418741,0.129622994 L336.418741,0.129622994 C336.694883,0.129622994 336.918741,0.353480619 336.918741,0.629622994 C336.918741,0.905765369 336.694883,1.12962299 336.418741,1.12962299 L331.418741,1.12962299 Z M341.418741,1.12962299 C341.142599,1.12962299 340.918741,0.905765369 340.918741,0.629622994 C340.918741,0.353480619 341.142599,0.129622994 341.418741,0.129622994 L346.418741,0.129622994 C346.694883,0.129622994 346.918741,0.353480619 346.918741,0.629622994 C346.918741,0.905765369 346.694883,1.12962299 346.418741,1.12962299 L341.418741,1.12962299 Z M351.418741,1.12962299 C351.142599,1.12962299 350.918741,0.905765369 350.918741,0.629622994 C350.918741,0.353480619 351.142599,0.129622994 351.418741,0.129622994 L356.418741,0.129622994 C356.694883,0.129622994 356.918741,0.353480619 356.918741,0.629622994 C356.918741,0.905765369 356.694883,1.12962299 356.418741,1.12962299 L351.418741,1.12962299 Z M361.418741,1.12962299 C361.142599,1.12962299 360.918741,0.905765369 360.918741,0.629622994 C360.918741,0.353480619 361.142599,0.129622994 361.418741,0.129622994 L366.418741,0.129622994 C366.694883,0.129622994 366.918741,0.353480619 366.918741,0.629622994 C366.918741,0.905765369 366.694883,1.12962299 366.418741,1.12962299 L361.418741,1.12962299 Z M371.418741,1.12962299 C371.142599,1.12962299 370.918741,0.905765369 370.918741,0.629622994 C370.918741,0.353480619 371.142599,0.129622994 371.418741,0.129622994 L376.418741,0.129622994 C376.694883,0.129622994 376.918741,0.353480619 376.918741,0.629622994 C376.918741,0.905765369 376.694883,1.12962299 376.418741,1.12962299 L371.418741,1.12962299 Z M381.418741,1.12962299 C381.142599,1.12962299 380.918741,0.905765369 380.918741,0.629622994 C380.918741,0.353480619 381.142599,0.129622994 381.418741,0.129622994 L386.418741,0.129622994 C386.694883,0.129622994 386.918741,0.353480619 386.918741,0.629622994 C386.918741,0.905765369 386.694883,1.12962299 386.418741,1.12962299 L381.418741,1.12962299 Z M391.418741,1.12962299 C391.142599,1.12962299 390.918741,0.905765369 390.918741,0.629622994 C390.918741,0.353480619 391.142599,0.129622994 391.418741,0.129622994 L396.418741,0.129622994 C396.694883,0.129622994 396.918741,0.353480619 396.918741,0.629622994 C396.918741,0.905765369 396.694883,1.12962299 396.418741,1.12962299 L391.418741,1.12962299 Z M401.418741,1.12962299 C401.142599,1.12962299 400.918741,0.905765369 400.918741,0.629622994 C400.918741,0.353480619 401.142599,0.129622994 401.418741,0.129622994 L406.418741,0.129622994 C406.694883,0.129622994 406.918741,0.353480619 406.918741,0.629622994 C406.918741,0.905765369 406.694883,1.12962299 406.418741,1.12962299 L401.418741,1.12962299 Z M411.418741,1.12962299 C411.142599,1.12962299 410.918741,0.905765369 410.918741,0.629622994 C410.918741,0.353480619 411.142599,0.129622994 411.418741,0.129622994 L416.418741,0.129622994 C416.694883,0.129622994 416.918741,0.353480619 416.918741,0.629622994 C416.918741,0.905765369 416.694883,1.12962299 416.418741,1.12962299 L411.418741,1.12962299 Z M421.418741,1.12962299 C421.142599,1.12962299 420.918741,0.905765369 420.918741,0.629622994 C420.918741,0.353480619 421.142599,0.129622994 421.418741,0.129622994 L426.418741,0.129622994 C426.694883,0.129622994 426.918741,0.353480619 426.918741,0.629622994 C426.918741,0.905765369 426.694883,1.12962299 426.418741,1.12962299 L421.418741,1.12962299 Z M431.418741,1.12962299 C431.142599,1.12962299 430.918741,0.905765369 430.918741,0.629622994 C430.918741,0.353480619 431.142599,0.129622994 431.418741,0.129622994 L436.418741,0.129622994 C436.694883,0.129622994 436.918741,0.353480619 436.918741,0.629622994 C436.918741,0.905765369 436.694883,1.12962299 436.418741,1.12962299 L431.418741,1.12962299 Z M441.418741,1.12962299 C441.142599,1.12962299 440.918741,0.905765369 440.918741,0.629622994 C440.918741,0.353480619 441.142599,0.129622994 441.418741,0.129622994 L446.418741,0.129622994 C446.694883,0.129622994 446.918741,0.353480619 446.918741,0.629622994 C446.918741,0.905765369 446.694883,1.12962299 446.418741,1.12962299 L441.418741,1.12962299 Z M451.418741,1.12962299 C451.142599,1.12962299 450.918741,0.905765369 450.918741,0.629622994 C450.918741,0.353480619 451.142599,0.129622994 451.418741,0.129622994 L456.418741,0.129622994 C456.694883,0.129622994 456.918741,0.353480619 456.918741,0.629622994 C456.918741,0.905765369 456.694883,1.12962299 456.418741,1.12962299 L451.418741,1.12962299 Z M461.418741,1.12962299 C461.142599,1.12962299 460.918741,0.905765369 460.918741,0.629622994 C460.918741,0.353480619 461.142599,0.129622994 461.418741,0.129622994 L466.418741,0.129622994 C466.694883,0.129622994 466.918741,0.353480619 466.918741,0.629622994 C466.918741,0.905765369 466.694883,1.12962299 466.418741,1.12962299 L461.418741,1.12962299 Z M471.418741,1.12962299 C471.142599,1.12962299 470.918741,0.905765369 470.918741,0.629622994 C470.918741,0.353480619 471.142599,0.129622994 471.418741,0.129622994 L476.418741,0.129622994 C476.694883,0.129622994 476.918741,0.353480619 476.918741,0.629622994 C476.918741,0.905765369 476.694883,1.12962299 476.418741,1.12962299 L471.418741,1.12962299 Z M481.418741,1.12962299 C481.142599,1.12962299 480.918741,0.905765369 480.918741,0.629622994 C480.918741,0.353480619 481.142599,0.129622994 481.418741,0.129622994 L486.418741,0.129622994 C486.694883,0.129622994 486.918741,0.353480619 486.918741,0.629622994 C486.918741,0.905765369 486.694883,1.12962299 486.418741,1.12962299 L481.418741,1.12962299 Z M491.418741,1.12962299 C491.142599,1.12962299 490.918741,0.905765369 490.918741,0.629622994 C490.918741,0.353480619 491.142599,0.129622994 491.418741,0.129622994 L496.418741,0.129622994 C496.694883,0.129622994 496.918741,0.353480619 496.918741,0.629622994 C496.918741,0.905765369 496.694883,1.12962299 496.418741,1.12962299 L491.418741,1.12962299 Z M501.418741,1.12962299 C501.142599,1.12962299 500.918741,0.905765369 500.918741,0.629622994 C500.918741,0.353480619 501.142599,0.129622994 501.418741,0.129622994 L506.418741,0.129622994 C506.694883,0.129622994 506.918741,0.353480619 506.918741,0.629622994 C506.918741,0.905765369 506.694883,1.12962299 506.418741,1.12962299 L501.418741,1.12962299 Z M511.418741,1.12962299 C511.142599,1.12962299 510.918741,0.905765369 510.918741,0.629622994 C510.918741,0.353480619 511.142599,0.129622994 511.418741,0.129622994 L516.418741,0.129622994 C516.694883,0.129622994 516.918741,0.353480619 516.918741,0.629622994 C516.918741,0.905765369 516.694883,1.12962299 516.418741,1.12962299 L511.418741,1.12962299 Z M521.418741,1.12962299 C521.142599,1.12962299 520.918741,0.905765369 520.918741,0.629622994 C520.918741,0.353480619 521.142599,0.129622994 521.418741,0.129622994 L526.418741,0.129622994 C526.694883,0.129622994 526.918741,0.353480619 526.918741,0.629622994 C526.918741,0.905765369 526.694883,1.12962299 526.418741,1.12962299 L521.418741,1.12962299 Z M531.418741,1.12962299 C531.142599,1.12962299 530.918741,0.905765369 530.918741,0.629622994 C530.918741,0.353480619 531.142599,0.129622994 531.418741,0.129622994 L536.418741,0.129622994 C536.694883,0.129622994 536.918741,0.353480619 536.918741,0.629622994 C536.918741,0.905765369 536.694883,1.12962299 536.418741,1.12962299 L531.418741,1.12962299 Z M541.418741,1.12962299 C541.142599,1.12962299 540.918741,0.905765369 540.918741,0.629622994 C540.918741,0.353480619 541.142599,0.129622994 541.418741,0.129622994 L546.418741,0.129622994 C546.694883,0.129622994 546.918741,0.353480619 546.918741,0.629622994 C546.918741,0.905765369 546.694883,1.12962299 546.418741,1.12962299 L541.418741,1.12962299 Z M550.703888,2.601065 C550.517976,2.39688011 550.53279,2.08064438 550.736975,1.89473273 C550.94116,1.70882108 551.257395,1.72363447 551.443307,1.92781936 C552.358844,2.93334442 552.875503,4.24184123 552.875503,5.62962305 L552.875503,7.01919222 C552.875503,7.29533459 552.651645,7.51919219 552.375503,7.51919216 C552.099361,7.51919213 551.875503,7.29533449 551.875503,7.01919211 L551.875503,5.62962299 C551.875503,4.49332792 551.453359,3.42420173 550.703888,2.601065 Z M551.875503,12.0191921 C551.875503,11.7430497 552.09936,11.5191921 552.375503,11.5191922 C552.651645,11.5191922 552.875503,11.7430498 552.875503,12.0191922 L552.875502,17.0191922 C552.875502,17.2953346 552.651644,17.5191922 552.375502,17.5191922 C552.09936,17.5191921 551.875502,17.2953345 551.875502,17.0191921 L551.875503,12.0191921 Z M551.875501,22.0191921 C551.875501,21.7430497 552.099359,21.5191921 552.375501,21.5191922 C552.651644,21.5191922 552.875501,21.7430498 552.875501,22.0191922 L552.875501,27.0191922 C552.875501,27.2953346 552.651643,27.5191922 552.375501,27.5191922 C552.099358,27.5191921 551.875501,27.2953345 551.875501,27.0191921 L551.875501,22.0191921 Z M551.8755,32.0191921 C551.8755,31.7430497 552.099358,31.5191921 552.3755,31.5191922 C552.651643,31.5191922 552.8755,31.7430498 552.8755,32.0191922 L552.8755,37.0191922 C552.8755,37.2953346 552.651642,37.5191922 552.3755,37.5191922 C552.099357,37.5191921 551.8755,37.2953345 551.8755,37.0191921 L551.8755,32.0191921 Z M551.875499,42.0191921 C551.875499,41.7430497 552.099357,41.5191921 552.375499,41.5191922 C552.651642,41.5191922 552.875499,41.7430498 552.875499,42.0191922 L552.875499,47.0191922 C552.875499,47.2953346 552.651641,47.5191922 552.375499,47.5191922 C552.099356,47.5191921 551.875499,47.2953345 551.875499,47.0191921 L551.875499,42.0191921 Z M551.875498,52.0191921 C551.875498,51.7430497 552.099356,51.5191921 552.375498,51.5191922 C552.651641,51.5191922 552.875498,51.7430498 552.875498,52.0191922 L552.875498,57.0191922 C552.875498,57.2953346 552.65164,57.5191922 552.375498,57.5191922 C552.099355,57.5191921 551.875498,57.2953345 551.875498,57.0191921 L551.875498,52.0191921 Z M551.875497,62.0191921 C551.875497,61.7430497 552.099355,61.5191921 552.375497,61.5191922 C552.65164,61.5191922 552.875497,61.7430498 552.875497,62.0191922 L552.875497,67.0191922 C552.875497,67.2953346 552.651639,67.5191922 552.375497,67.5191922 C552.099354,67.5191921 551.875497,67.2953345 551.875497,67.0191921 L551.875497,62.0191921 Z M551.875496,72.0191921 C551.875496,71.7430497 552.099354,71.5191921 552.375496,71.5191922 C552.651639,71.5191922 552.875496,71.7430498 552.875496,72.0191922 L552.875496,77.0191922 C552.875496,77.2953346 552.651638,77.5191922 552.375496,77.5191922 C552.099353,77.5191921 551.875496,77.2953345 551.875496,77.0191921 L551.875496,72.0191921 Z M551.875495,82.0191921 C551.875495,81.7430497 552.099353,81.5191921 552.375495,81.5191922 C552.651638,81.5191922 552.875495,81.7430498 552.875495,82.0191922 L552.875495,87.0191922 C552.875495,87.2953346 552.651637,87.5191922 552.375494,87.5191922 C552.099352,87.5191921 551.875495,87.2953345 551.875495,87.0191921 L551.875495,82.0191921 Z M551.875494,92.0191921 C551.875494,91.7430497 552.099352,91.5191921 552.375494,91.5191922 C552.651636,91.5191922 552.875494,91.7430498 552.875494,92.0191922 L552.875493,97.0191922 C552.875493,97.2953346 552.651636,97.5191922 552.375493,97.5191922 C552.099351,97.5191921 551.875493,97.2953345 551.875493,97.0191921 L551.875494,92.0191921 Z M551.875493,102.019192 C551.875493,101.74305 552.099351,101.519192 552.375493,101.519192 C552.651635,101.519192 552.875493,101.74305 552.875493,102.019192 L552.875492,107.019192 C552.875492,107.295335 552.651635,107.519192 552.375492,107.519192 C552.09935,107.519192 551.875492,107.295334 551.875492,107.019192 L551.875493,102.019192 Z M551.875492,112.019192 C551.875492,111.74305 552.09935,111.519192 552.375492,111.519192 C552.651634,111.519192 552.875492,111.74305 552.875492,112.019192 L552.875491,117.019192 C552.875491,117.295335 552.651634,117.519192 552.375491,117.519192 C552.099349,117.519192 551.875491,117.295334 551.875491,117.019192 L551.875492,112.019192 Z M551.875491,122.019192 C551.875491,121.74305 552.099349,121.519192 552.375491,121.519192 C552.651633,121.519192 552.875491,121.74305 552.875491,122.019192 L552.87549,127.019192 C552.87549,127.295335 552.651633,127.519192 552.37549,127.519192 C552.099348,127.519192 551.87549,127.295334 551.87549,127.019192 L551.875491,122.019192 Z M551.87549,132.019192 C551.87549,131.74305 552.099347,131.519192 552.37549,131.519192 C552.651632,131.519192 552.87549,131.74305 552.87549,132.019192 L552.87549,132.63 C552.87549,133.996984 553.488123,135.262624 554.525513,136.112668 C554.739107,136.287689 554.770377,136.602723 554.595357,136.816317 C554.420336,137.029911 554.105302,137.061181 553.891708,136.886161 C552.624927,135.848152 551.87549,134.299889 551.87549,132.63 L551.87549,132.019192 Z M559.111014,138.129997 C558.834872,138.129998 558.611014,137.906141 558.611013,137.629998 C558.611013,137.353856 558.83487,137.129998 559.111013,137.129997 L564.111013,137.12999 C564.387155,137.12999 564.611013,137.353847 564.611013,137.629989 C564.611014,137.906132 564.387156,138.12999 564.111014,138.12999 L559.111014,138.129997 Z M569.111014,138.129983 C568.834872,138.129983 568.611014,137.906126 568.611013,137.629984 C568.611013,137.353841 568.83487,137.129983 569.111013,137.129983 L574.111013,137.129976 C574.387155,137.129975 574.611013,137.353833 574.611013,137.629975 C574.611014,137.906117 574.387156,138.129975 574.111014,138.129976 L569.111014,138.129983 Z M579.111014,138.129968 C578.834872,138.129969 578.611014,137.906111 578.611013,137.629969 C578.611013,137.353827 578.83487,137.129969 579.111013,137.129968 L584.111013,137.129961 C584.387155,137.129961 584.611013,137.353818 584.611013,137.62996 C584.611014,137.906103 584.387156,138.129961 584.111014,138.129961 L579.111014,138.129968 Z M589.111014,138.129954 C588.834872,138.129954 588.611014,137.906097 588.611013,137.629955 C588.611013,137.353812 588.83487,137.129954 589.111013,137.129954 L594.111013,137.129947 C594.387155,137.129946 594.611013,137.353803 594.611013,137.629946 C594.611014,137.906088 594.387156,138.129946 594.111014,138.129947 L589.111014,138.129954 Z M599.111014,138.129939 C598.834872,138.12994 598.611014,137.906082 598.611013,137.62994 C598.611013,137.353798 598.83487,137.12994 599.111013,137.129939 L604.111013,137.129932 C604.387155,137.129932 604.611013,137.353789 604.611013,137.629931 C604.611014,137.906074 604.387156,138.129932 604.111014,138.129932 L599.111014,138.129939 Z M609.111014,138.129925 C608.834872,138.129925 608.611014,137.906068 608.611013,137.629925 C608.611013,137.353783 608.83487,137.129925 609.111013,137.129925 L614.111013,137.129917 C614.387155,137.129917 614.611013,137.353774 614.611013,137.629917 C614.611014,137.906059 614.387156,138.129917 614.111014,138.129917 L609.111014,138.129925 Z M619.111014,138.12991 C618.834872,138.129911 618.611014,137.906053 618.611013,137.629911 C618.611013,137.353768 618.83487,137.129911 619.111013,137.12991 L624.111013,137.129903 C624.387155,137.129902 624.611013,137.35376 624.611013,137.629902 C624.611014,137.906045 624.387156,138.129902 624.111014,138.129903 L619.111014,138.12991 Z M629.111014,138.129896 C628.834872,138.129896 628.611014,137.906039 628.611013,137.629896 C628.611013,137.353754 628.83487,137.129896 629.111013,137.129896 L634.111013,137.129888 C634.387155,137.129888 634.611013,137.353745 634.611013,137.629888 C634.611014,137.90603 634.387156,138.129888 634.111014,138.129888 L629.111014,138.129896 Z M639.111014,138.129881 C638.834872,138.129881 638.611014,137.906024 638.611013,137.629882 C638.611013,137.353739 638.83487,137.129881 639.111013,137.129881 L644.111013,137.129874 C644.387155,137.129873 644.611013,137.353731 644.611013,137.629873 C644.611014,137.906015 644.387156,138.129873 644.111014,138.129874 L639.111014,138.129881 Z M649.111014,138.129866 C648.834872,138.129867 648.611014,137.90601 648.611013,137.629867 C648.611013,137.353725 648.83487,137.129867 649.111013,137.129866 L654.111013,137.129859 C654.387155,137.129859 654.611013,137.353716 654.611013,137.629858 C654.611014,137.906001 654.387156,138.129859 654.111014,138.129859 L649.111014,138.129866 Z M659.111014,138.129852 C658.834872,138.129852 658.611014,137.905995 658.611013,137.629853 C658.611013,137.35371 658.83487,137.129852 659.111013,137.129852 L664.111013,137.129845 C664.387155,137.129844 664.611013,137.353702 664.611013,137.629844 C664.611014,137.905986 664.387156,138.129844 664.111014,138.129845 L659.111014,138.129852 Z M669.111014,138.129837 C668.834872,138.129838 668.611014,137.90598 668.611013,137.629838 C668.611013,137.353696 668.83487,137.129838 669.111013,137.129837 L674.111013,137.12983 C674.387155,137.12983 674.611013,137.353687 674.611013,137.629829 C674.611014,137.905972 674.387156,138.12983 674.111014,138.12983 L669.111014,138.129837 Z M679.111014,138.129823 C678.834872,138.129823 678.611014,137.905966 678.611013,137.629824 C678.611013,137.353681 678.83487,137.129823 679.111013,137.129823 L684.111013,137.129816 C684.387155,137.129815 684.611013,137.353672 684.611013,137.629815 C684.611014,137.905957 684.387156,138.129815 684.111014,138.129816 L679.111014,138.129823 Z M689.111014,138.129808 C688.834872,138.129809 688.611014,137.905951 688.611013,137.629809 C688.611013,137.353667 688.83487,137.129809 689.111013,137.129808 L694.111013,137.129801 C694.387155,137.129801 694.611013,137.353658 694.611013,137.6298 C694.611014,137.905943 694.387156,138.129801 694.111014,138.129801 L689.111014,138.129808 Z M699.111014,138.129794 C698.834872,138.129794 698.611014,137.905937 698.611013,137.629794 C698.611013,137.353652 698.83487,137.129794 699.111013,137.129794 L704.111013,137.129786 C704.387155,137.129786 704.611013,137.353643 704.611013,137.629786 C704.611014,137.905928 704.387156,138.129786 704.111014,138.129786 L699.111014,138.129794 Z M709.111014,138.129779 C708.834872,138.12978 708.611014,137.905922 708.611013,137.62978 C708.611013,137.353637 708.83487,137.12978 709.111013,137.129779 L714.111013,137.129772 C714.387155,137.129771 714.611013,137.353629 714.611013,137.629771 C714.611014,137.905913 714.387156,138.129771 714.111014,138.129772 L709.111014,138.129779 Z M719.111014,138.129765 C718.834872,138.129765 718.611014,137.905908 718.611013,137.629765 C718.611013,137.353623 718.83487,137.129765 719.111013,137.129765 L724.111013,137.129757 C724.387155,137.129757 724.611013,137.353614 724.611013,137.629757 C724.611014,137.905899 724.387156,138.129757 724.111014,138.129757 L719.111014,138.129765 Z M729.111014,138.12975 C728.834872,138.12975 728.611014,137.905893 728.611013,137.629751 C728.611013,137.353608 728.83487,137.12975 729.111013,137.12975 L734.111013,137.129743 C734.387155,137.129742 734.611013,137.3536 734.611013,137.629742 C734.611014,137.905884 734.387156,138.129742 734.111014,138.129743 L729.111014,138.12975 Z M739.111014,138.129735 C738.834872,138.129736 738.611014,137.905879 738.611013,137.629736 C738.611013,137.353594 738.83487,137.129736 739.111013,137.129735 L744.111013,137.129728 C744.387155,137.129728 744.611013,137.353585 744.611013,137.629727 C744.611014,137.90587 744.387156,138.129728 744.111014,138.129728 L739.111014,138.129735 Z M749.111014,138.129721 C748.834872,138.129721 748.611014,137.905864 748.611013,137.629722 C748.611013,137.353579 748.83487,137.129721 749.111013,137.129721 L754.111013,137.129714 C754.387155,137.129713 754.611013,137.353571 754.611013,137.629713 C754.611014,137.905855 754.387156,138.129713 754.111014,138.129714 L749.111014,138.129721 Z M759.111014,138.129706 C758.834872,138.129707 758.611014,137.905849 758.611013,137.629707 C758.611013,137.353565 758.83487,137.129707 759.111013,137.129706 L764.111013,137.129699 C764.387155,137.129699 764.611013,137.353556 764.611013,137.629698 C764.611014,137.905841 764.387156,138.129699 764.111014,138.129699 L759.111014,138.129706 Z M769.111014,138.129692 C768.834872,138.129692 768.611014,137.905835 768.611013,137.629693 C768.611013,137.35355 768.83487,137.129692 769.111013,137.129692 L774.111013,137.129685 C774.387155,137.129684 774.611013,137.353541 774.611013,137.629684 C774.611014,137.905826 774.387156,138.129684 774.111014,138.129685 L769.111014,138.129692 Z M779.111014,138.129677 C778.834872,138.129678 778.611014,137.90582 778.611013,137.629678 C778.611013,137.353536 778.83487,137.129678 779.111013,137.129677 L784.111013,137.12967 C784.387155,137.12967 784.611013,137.353527 784.611013,137.629669 C784.611014,137.905812 784.387156,138.12967 784.111014,138.12967 L779.111014,138.129677 Z M789.111014,138.129663 C788.834872,138.129663 788.611014,137.905806 788.611013,137.629663 C788.611013,137.353521 788.83487,137.129663 789.111013,137.129663 L794.111013,137.129655 C794.387155,137.129655 794.611013,137.353512 794.611013,137.629655 C794.611014,137.905797 794.387156,138.129655 794.111014,138.129655 L789.111014,138.129663 Z M799.111014,138.129648 C798.834872,138.129649 798.611014,137.905791 798.611013,137.629649 C798.611013,137.353506 798.83487,137.129649 799.111013,137.129648 L804.111013,137.129641 C804.387155,137.12964 804.611013,137.353498 804.611013,137.62964 C804.611014,137.905782 804.387156,138.12964 804.111014,138.129641 L799.111014,138.129648 Z M809.111014,138.129634 C808.834872,138.129634 808.611014,137.905777 808.611013,137.629634 C808.611013,137.353492 808.83487,137.129634 809.111013,137.129634 L814.111013,137.129626 C814.387155,137.129626 814.611013,137.353483 814.611013,137.629626 C814.611014,137.905768 814.387156,138.129626 814.111014,138.129626 L809.111014,138.129634 Z M818.743418,138.802199 C818.508738,138.656666 818.43647,138.348443 818.582002,138.113762 C818.727535,137.879082 819.035759,137.806814 819.270439,137.952346 C820.840187,138.925797 821.83185,140.625999 821.874204,142.511721 L821.875492,142.708187 C821.877303,142.984323 821.654917,143.209643 821.378781,143.211454 C821.102645,143.213264 820.877324,142.990879 820.875514,142.714742 L820.874342,142.526243 C820.839782,140.989861 820.02868,139.59923 818.743418,138.802199 Z M820.875503,147.711464 C820.875503,147.435322 821.099361,147.211464 821.375503,147.211464 C821.651646,147.211464 821.875503,147.435322 821.875503,147.711464 L821.875503,152.711464 C821.875503,152.987607 821.651646,153.211464 821.375503,153.211464 C821.099361,153.211464 820.875503,152.987607 820.875503,152.711464 L820.875503,147.711464 Z M820.875503,157.711464 C820.875503,157.435322 821.099361,157.211464 821.375503,157.211464 C821.651646,157.211464 821.875503,157.435322 821.875503,157.711464 L821.875503,162.711464 C821.875503,162.987607 821.651646,163.211464 821.375503,163.211464 C821.099361,163.211464 820.875503,162.987607 820.875503,162.711464 L820.875503,157.711464 Z M820.875503,167.711464 C820.875503,167.435322 821.099361,167.211464 821.375503,167.211464 C821.651646,167.211464 821.875503,167.435322 821.875503,167.711464 L821.875503,172.711464 C821.875503,172.987607 821.651646,173.211464 821.375503,173.211464 C821.099361,173.211464 820.875503,172.987607 820.875503,172.711464 L820.875503,167.711464 Z M820.875503,177.711464 C820.875503,177.435322 821.099361,177.211464 821.375503,177.211464 C821.651646,177.211464 821.875503,177.435322 821.875503,177.711464 L821.875503,182.711464 C821.875503,182.987607 821.651646,183.211464 821.375503,183.211464 C821.099361,183.211464 820.875503,182.987607 820.875503,182.711464 L820.875503,177.711464 Z M820.875503,187.711464 C820.875503,187.435322 821.099361,187.211464 821.375503,187.211464 C821.651646,187.211464 821.875503,187.435322 821.875503,187.711464 L821.875503,192.711464 C821.875503,192.987607 821.651646,193.211464 821.375503,193.211464 C821.099361,193.211464 820.875503,192.987607 820.875503,192.711464 L820.875503,187.711464 Z M820.875503,197.711464 C820.875503,197.435322 821.099361,197.211464 821.375503,197.211464 C821.651646,197.211464 821.875503,197.435322 821.875503,197.711464 L821.875503,202.711464 C821.875503,202.987607 821.651646,203.211464 821.375503,203.211464 C821.099361,203.211464 820.875503,202.987607 820.875503,202.711464 L820.875503,197.711464 Z M820.875503,207.711464 C820.875503,207.435322 821.099361,207.211464 821.375503,207.211464 C821.651646,207.211464 821.875503,207.435322 821.875503,207.711464 L821.875503,212.711464 C821.875503,212.987607 821.651646,213.211464 821.375503,213.211464 C821.099361,213.211464 820.875503,212.987607 820.875503,212.711464 L820.875503,207.711464 Z M820.875503,217.711464 C820.875503,217.435322 821.099361,217.211464 821.375503,217.211464 C821.651646,217.211464 821.875503,217.435322 821.875503,217.711464 L821.875503,222.711464 C821.875503,222.987607 821.651646,223.211464 821.375503,223.211464 C821.099361,223.211464 820.875503,222.987607 820.875503,222.711464 L820.875503,217.711464 Z M820.875503,227.711464 C820.875503,227.435322 821.099361,227.211464 821.375503,227.211464 C821.651646,227.211464 821.875503,227.435322 821.875503,227.711464 L821.875503,232.711464 C821.875503,232.987607 821.651646,233.211464 821.375503,233.211464 C821.099361,233.211464 820.875503,232.987607 820.875503,232.711464 L820.875503,227.711464 Z M820.875503,237.711464 C820.875503,237.435322 821.099361,237.211464 821.375503,237.211464 C821.651646,237.211464 821.875503,237.435322 821.875503,237.711464 L821.875503,242.711464 C821.875503,242.987607 821.651646,243.211464 821.375503,243.211464 C821.099361,243.211464 820.875503,242.987607 820.875503,242.711464 L820.875503,237.711464 Z M820.875503,247.711464 C820.875503,247.435322 821.099361,247.211464 821.375503,247.211464 C821.651646,247.211464 821.875503,247.435322 821.875503,247.711464 L821.875503,252.711464 C821.875503,252.987607 821.651646,253.211464 821.375503,253.211464 C821.099361,253.211464 820.875503,252.987607 820.875503,252.711464 L820.875503,247.711464 Z M820.875503,257.711464 C820.875503,257.435322 821.099361,257.211464 821.375503,257.211464 C821.651646,257.211464 821.875503,257.435322 821.875503,257.711464 L821.875503,262.711464 C821.875503,262.987607 821.651646,263.211464 821.375503,263.211464 C821.099361,263.211464 820.875503,262.987607 820.875503,262.711464 L820.875503,257.711464 Z M820.875503,267.711464 C820.875503,267.435322 821.099361,267.211464 821.375503,267.211464 C821.651646,267.211464 821.875503,267.435322 821.875503,267.711464 L821.875503,272.711464 C821.875503,272.987607 821.651646,273.211464 821.375503,273.211464 C821.099361,273.211464 820.875503,272.987607 820.875503,272.711464 L820.875503,267.711464 Z M821.3512,277.870173 C821.238604,277.618029 821.351729,277.322348 821.603873,277.209752 C821.856018,277.097155 822.151698,277.210281 822.264295,277.462425 C822.892647,278.86953 824.206771,279.869817 825.743306,280.085626 C826.016764,280.124034 826.20731,280.376851 826.168903,280.65031 C826.130495,280.923768 825.877678,281.114314 825.604219,281.075906 C823.724515,280.811899 822.119176,279.589944 821.3512,277.870173 Z M830.803676,281.129623 C830.527534,281.129623 830.303676,280.905765 830.303676,280.629623 C830.303676,280.353481 830.527534,280.129623 830.803676,280.129623 L835.803676,280.129623 C836.079818,280.129623 836.303676,280.353481 836.303676,280.629623 C836.303676,280.905765 836.079818,281.129623 835.803676,281.129623 L830.803676,281.129623 Z M840.803676,281.129623 C840.527534,281.129623 840.303676,280.905765 840.303676,280.629623 C840.303676,280.353481 840.527534,280.129623 840.803676,280.129623 L845.803676,280.129623 C846.079818,280.129623 846.303676,280.353481 846.303676,280.629623 C846.303676,280.905765 846.079818,281.129623 845.803676,281.129623 L840.803676,281.129623 Z M850.803676,281.129623 C850.527534,281.129623 850.303676,280.905765 850.303676,280.629623 C850.303676,280.353481 850.527534,280.129623 850.803676,280.129623 L855.803676,280.129623 C856.079818,280.129623 856.303676,280.353481 856.303676,280.629623 C856.303676,280.905765 856.079818,281.129623 855.803676,281.129623 L850.803676,281.129623 Z M860.803676,281.129623 C860.527534,281.129623 860.303676,280.905765 860.303676,280.629623 C860.303676,280.353481 860.527534,280.129623 860.803676,280.129623 L865.803676,280.129623 C866.079818,280.129623 866.303676,280.353481 866.303676,280.629623 C866.303676,280.905765 866.079818,281.129623 865.803676,281.129623 L860.803676,281.129623 Z M870.803676,281.129623 C870.527534,281.129623 870.303676,280.905765 870.303676,280.629623 C870.303676,280.353481 870.527534,280.129623 870.803676,280.129623 L875.803676,280.129623 C876.079818,280.129623 876.303676,280.353481 876.303676,280.629623 C876.303676,280.905765 876.079818,281.129623 875.803676,281.129623 L870.803676,281.129623 Z M880.803676,281.129623 C880.527534,281.129623 880.303676,280.905765 880.303676,280.629623 C880.303676,280.353481 880.527534,280.129623 880.803676,280.129623 L885.803676,280.129623 C886.079818,280.129623 886.303676,280.353481 886.303676,280.629623 C886.303676,280.905765 886.079818,281.129623 885.803676,281.129623 L880.803676,281.129623 Z M890.803676,281.129623 C890.527534,281.129623 890.303676,280.905765 890.303676,280.629623 C890.303676,280.353481 890.527534,280.129623 890.803676,280.129623 L895.803676,280.129623 C896.079818,280.129623 896.303676,280.353481 896.303676,280.629623 C896.303676,280.905765 896.079818,281.129623 895.803676,281.129623 L890.803676,281.129623 Z M900.803676,281.129623 C900.527534,281.129623 900.303676,280.905765 900.303676,280.629623 C900.303676,280.353481 900.527534,280.129623 900.803676,280.129623 L905.803676,280.129623 C906.079818,280.129623 906.303676,280.353481 906.303676,280.629623 C906.303676,280.905765 906.079818,281.129623 905.803676,281.129623 L900.803676,281.129623 Z M910.803676,281.129623 C910.527534,281.129623 910.303676,280.905765 910.303676,280.629623 C910.303676,280.353481 910.527534,280.129623 910.803676,280.129623 L915.803676,280.129623 C916.079818,280.129623 916.303676,280.353481 916.303676,280.629623 C916.303676,280.905765 916.079818,281.129623 915.803676,281.129623 L910.803676,281.129623 Z M920.803676,281.129623 C920.527534,281.129623 920.303676,280.905765 920.303676,280.629623 C920.303676,280.353481 920.527534,280.129623 920.803676,280.129623 L925.803676,280.129623 C926.079818,280.129623 926.303676,280.353481 926.303676,280.629623 C926.303676,280.905765 926.079818,281.129623 925.803676,281.129623 L920.803676,281.129623 Z M930.803676,281.129623 C930.527534,281.129623 930.303676,280.905765 930.303676,280.629623 C930.303676,280.353481 930.527534,280.129623 930.803676,280.129623 L935.803676,280.129623 C936.079818,280.129623 936.303676,280.353481 936.303676,280.629623 C936.303676,280.905765 936.079818,281.129623 935.803676,281.129623 L930.803676,281.129623 Z M940.803676,281.129623 C940.527534,281.129623 940.303676,280.905765 940.303676,280.629623 C940.303676,280.353481 940.527534,280.129623 940.803676,280.129623 L945.803676,280.129623 C946.079818,280.129623 946.303676,280.353481 946.303676,280.629623 C946.303676,280.905765 946.079818,281.129623 945.803676,281.129623 L940.803676,281.129623 Z M950.803676,281.129623 C950.527534,281.129623 950.303676,280.905765 950.303676,280.629623 C950.303676,280.353481 950.527534,280.129623 950.803676,280.129623 L955.803676,280.129623 C956.079818,280.129623 956.303676,280.353481 956.303676,280.629623 C956.303676,280.905765 956.079818,281.129623 955.803676,281.129623 L950.803676,281.129623 Z M960.803676,281.129623 C960.527534,281.129623 960.303676,280.905765 960.303676,280.629623 C960.303676,280.353481 960.527534,280.129623 960.803676,280.129623 L965.803676,280.129623 C966.079818,280.129623 966.303676,280.353481 966.303676,280.629623 C966.303676,280.905765 966.079818,281.129623 965.803676,281.129623 L960.803676,281.129623 Z M970.803676,281.129623 C970.527534,281.129623 970.303676,280.905765 970.303676,280.629623 C970.303676,280.353481 970.527534,280.129623 970.803676,280.129623 L975.803676,280.129623 C976.079818,280.129623 976.303676,280.353481 976.303676,280.629623 C976.303676,280.905765 976.079818,281.129623 975.803676,281.129623 L970.803676,281.129623 Z M980.803676,281.129623 C980.527534,281.129623 980.303676,280.905765 980.303676,280.629623 C980.303676,280.353481 980.527534,280.129623 980.803676,280.129623 L985.803676,280.129623 C986.079818,280.129623 986.303676,280.353481 986.303676,280.629623 C986.303676,280.905765 986.079818,281.129623 985.803676,281.129623 L980.803676,281.129623 Z M990.803676,281.129623 C990.527534,281.129623 990.303676,280.905765 990.303676,280.629623 C990.303676,280.353481 990.527534,280.129623 990.803676,280.129623 L995.803676,280.129623 C996.079818,280.129623 996.303676,280.353481 996.303676,280.629623 C996.303676,280.905765 996.079818,281.129623 995.803676,281.129623 L990.803676,281.129623 Z" id="Path-12" fill-rule="nonzero"></path>
                <path d="M962.215628,302.997276 C961.706959,302.782608 961.314963,302.476945 961.039628,302.080276 C960.764293,301.683608 960.626628,301.223945 960.626628,300.701276 L960.626628,300.309276 C960.626628,300.187942 960.687294,300.127276 960.808628,300.127276 L961.410628,300.127276 C961.531962,300.127276 961.592628,300.187942 961.592628,300.309276 L961.592628,300.645276 C961.592628,301.177279 961.816626,301.611274 962.264628,301.947276 C962.71263,302.283278 963.314624,302.451276 964.070628,302.451276 C964.789298,302.451276 965.335293,302.299611 965.708628,301.996276 C966.081963,301.692941 966.268628,301.289279 966.268628,300.785276 C966.268628,300.458608 966.182296,300.178611 966.009628,299.945276 C965.836961,299.711942 965.573297,299.492611 965.218628,299.287276 C964.86396,299.081942 964.355298,298.843944 963.692628,298.573276 C962.992625,298.293275 962.448963,298.048277 962.061628,297.838276 C961.674293,297.628275 961.361629,297.357611 961.123628,297.026276 C960.885627,296.694941 960.766628,296.277279 960.766628,295.773276 C960.766628,294.989272 961.039625,294.380278 961.585628,293.946276 C962.131631,293.512274 962.88529,293.295276 963.846628,293.295276 C964.8733,293.295276 965.685292,293.53794 966.282628,294.023276 C966.879964,294.508612 967.178628,295.152605 967.178628,295.955276 L967.178628,296.221276 C967.178628,296.34261 967.117962,296.403276 966.996628,296.403276 L966.380628,296.403276 C966.259294,296.403276 966.198628,296.34261 966.198628,296.221276 L966.198628,296.011276 C966.198628,295.46994 965.98863,295.026611 965.568628,294.681276 C965.148626,294.335941 964.555965,294.163276 963.790628,294.163276 C963.127958,294.163276 962.62163,294.298608 962.271628,294.569276 C961.921626,294.839944 961.746628,295.23194 961.746628,295.745276 C961.746628,296.081278 961.832961,296.358942 962.005628,296.578276 C962.178296,296.797611 962.425627,296.988942 962.747628,297.152276 C963.06963,297.31561 963.561958,297.527942 964.224628,297.789276 C964.905965,298.069278 965.456626,298.330608 965.876628,298.573276 C966.29663,298.815944 966.632627,299.112274 966.884628,299.462276 C967.136629,299.812278 967.262628,300.239274 967.262628,300.743276 C967.262628,301.517947 966.975631,302.14094 966.401628,302.612276 C965.827625,303.083612 965.0273,303.319276 964.000628,303.319276 C963.319291,303.319276 962.724297,303.211944 962.215628,302.997276 Z M974.850628,299.665276 C974.850628,300.439947 974.794629,301.018608 974.682628,301.401276 C974.514627,301.998612 974.20663,302.467608 973.758628,302.808276 C973.310626,303.148945 972.755298,303.319276 972.092628,303.319276 C971.728626,303.319276 971.39263,303.246944 971.084628,303.102276 C970.776627,302.957609 970.519963,302.749944 970.314628,302.479276 C970.295961,302.451276 970.277295,302.441943 970.258628,302.451276 C970.239961,302.46061 970.230628,302.479276 970.230628,302.507276 L970.230628,305.741276 C970.230628,305.86261 970.169962,305.923276 970.048628,305.923276 L969.418628,305.923276 C969.297294,305.923276 969.236628,305.86261 969.236628,305.741276 L969.236628,296.305276 C969.236628,296.183942 969.297294,296.123276 969.418628,296.123276 L970.048628,296.123276 C970.169962,296.123276 970.230628,296.183942 970.230628,296.305276 L970.230628,296.837276 C970.230628,296.865276 970.239961,296.881609 970.258628,296.886276 C970.277295,296.890943 970.295961,296.883943 970.314628,296.865276 C970.519963,296.594608 970.774293,296.38461 971.077628,296.235276 C971.380963,296.085942 971.719293,296.011276 972.092628,296.011276 C972.745965,296.011276 973.294293,296.179274 973.737628,296.515276 C974.180964,296.851278 974.486627,297.308607 974.654628,297.887276 C974.785295,298.307278 974.850628,298.899939 974.850628,299.665276 Z M973.779628,300.736276 C973.830962,300.479608 973.856628,300.122612 973.856628,299.665276 C973.856628,299.226607 973.837962,298.883611 973.800628,298.636276 C973.763295,298.388942 973.697962,298.167277 973.604628,297.971276 C973.492628,297.635274 973.294296,297.369277 973.009628,297.173276 C972.72496,296.977275 972.38663,296.879276 971.994628,296.879276 C971.621293,296.879276 971.308629,296.977275 971.056628,297.173276 C970.804627,297.369277 970.617962,297.630608 970.496628,297.957276 C970.412628,298.143944 970.351962,298.363275 970.314628,298.615276 C970.277295,298.867277 970.258628,299.217274 970.258628,299.665276 C970.258628,300.113278 970.277295,300.465608 970.314628,300.722276 C970.351962,300.978944 970.417294,301.205275 970.510628,301.401276 C970.622629,301.718611 970.80696,301.972942 971.063628,302.164276 C971.320296,302.35561 971.62596,302.451276 971.980628,302.451276 C972.353963,302.451276 972.67596,302.357944 972.946628,302.171276 C973.217296,301.984609 973.413294,301.737278 973.534628,301.429276 C973.646629,301.223942 973.728295,300.992944 973.779628,300.736276 Z M980.450628,296.221276 C980.543962,296.25861 980.576628,296.333276 980.548628,296.445276 L980.408628,297.061276 C980.380628,297.173277 980.305962,297.21061 980.184628,297.173276 C980.007294,297.117276 979.77863,297.093943 979.498628,297.103276 C979.013292,297.121943 978.611963,297.301608 978.294628,297.642276 C977.977293,297.982945 977.818628,298.414607 977.818628,298.937276 L977.818628,303.025276 C977.818628,303.14661 977.757962,303.207276 977.636628,303.207276 L977.006628,303.207276 C976.885294,303.207276 976.824628,303.14661 976.824628,303.025276 L976.824628,296.305276 C976.824628,296.183942 976.885294,296.123276 977.006628,296.123276 L977.636628,296.123276 C977.757962,296.123276 977.818628,296.183942 977.818628,296.305276 L977.818628,297.089276 C977.818628,297.12661 977.825628,297.147609 977.839628,297.152276 C977.853628,297.156943 977.869961,297.145276 977.888628,297.117276 C978.084629,296.781274 978.334293,296.519944 978.637628,296.333276 C978.940963,296.146609 979.288626,296.053276 979.680628,296.053276 C979.98863,296.053276 980.245294,296.109276 980.450628,296.221276 Z M985.763628,302.178276 C986.066963,301.996275 986.302627,301.741944 986.470628,301.415276 C986.489295,301.368609 986.521961,301.335943 986.568628,301.317276 C986.615295,301.298609 986.661961,301.303276 986.708628,301.331276 L987.114628,301.555276 C987.226629,301.62061 987.254628,301.699942 987.198628,301.793276 C986.974627,302.259945 986.63863,302.630941 986.190628,302.906276 C985.742626,303.181611 985.210631,303.319276 984.594628,303.319276 C983.941292,303.319276 983.39063,303.165278 982.942628,302.857276 C982.494626,302.549275 982.172629,302.119946 981.976628,301.569276 C981.799294,301.102607 981.710628,300.458614 981.710628,299.637276 C981.710628,299.235941 981.717628,298.916277 981.731628,298.678276 C981.745628,298.440275 981.780628,298.218611 981.836628,298.013276 C981.995296,297.406606 982.314959,296.921278 982.795628,296.557276 C983.276297,296.193274 983.857291,296.011276 984.538628,296.011276 C985.350632,296.011276 985.987626,296.221274 986.449628,296.641276 C986.91163,297.061278 987.207961,297.653939 987.338628,298.419276 C987.394628,298.717944 987.422628,299.184606 987.422628,299.819276 C987.422628,299.94061 987.361962,300.001276 987.240628,300.001276 L982.760628,300.001276 C982.713961,300.001276 982.690628,300.024609 982.690628,300.071276 C982.690628,300.537945 982.718628,300.878608 982.774628,301.093276 C982.877295,301.513278 983.094293,301.846942 983.425628,302.094276 C983.756963,302.341611 984.174626,302.465276 984.678628,302.465276 C985.09863,302.455943 985.460293,302.360277 985.763628,302.178276 Z M983.390628,297.236276 C983.09196,297.474277 982.895962,297.793941 982.802628,298.195276 C982.746628,298.381944 982.709295,298.699274 982.690628,299.147276 C982.690628,299.193943 982.713961,299.217276 982.760628,299.217276 L986.358628,299.217276 C986.405295,299.217276 986.428628,299.193943 986.428628,299.147276 C986.409961,298.736607 986.381962,298.437944 986.344628,298.251276 C986.241961,297.831274 986.034296,297.497611 985.721628,297.250276 C985.40896,297.002942 985.014631,296.879276 984.538628,296.879276 C984.071959,296.879276 983.689296,296.998275 983.390628,297.236276 Z M993.239628,302.178276 C993.542963,301.996275 993.778627,301.741944 993.946628,301.415276 C993.965295,301.368609 993.997961,301.335943 994.044628,301.317276 C994.091295,301.298609 994.137961,301.303276 994.184628,301.331276 L994.590628,301.555276 C994.702629,301.62061 994.730628,301.699942 994.674628,301.793276 C994.450627,302.259945 994.11463,302.630941 993.666628,302.906276 C993.218626,303.181611 992.686631,303.319276 992.070628,303.319276 C991.417292,303.319276 990.86663,303.165278 990.418628,302.857276 C989.970626,302.549275 989.648629,302.119946 989.452628,301.569276 C989.275294,301.102607 989.186628,300.458614 989.186628,299.637276 C989.186628,299.235941 989.193628,298.916277 989.207628,298.678276 C989.221628,298.440275 989.256628,298.218611 989.312628,298.013276 C989.471296,297.406606 989.790959,296.921278 990.271628,296.557276 C990.752297,296.193274 991.333291,296.011276 992.014628,296.011276 C992.826632,296.011276 993.463626,296.221274 993.925628,296.641276 C994.38763,297.061278 994.683961,297.653939 994.814628,298.419276 C994.870628,298.717944 994.898628,299.184606 994.898628,299.819276 C994.898628,299.94061 994.837962,300.001276 994.716628,300.001276 L990.236628,300.001276 C990.189961,300.001276 990.166628,300.024609 990.166628,300.071276 C990.166628,300.537945 990.194628,300.878608 990.250628,301.093276 C990.353295,301.513278 990.570293,301.846942 990.901628,302.094276 C991.232963,302.341611 991.650626,302.465276 992.154628,302.465276 C992.57463,302.455943 992.936293,302.360277 993.239628,302.178276 Z M990.866628,297.236276 C990.56796,297.474277 990.371962,297.793941 990.278628,298.195276 C990.222628,298.381944 990.185295,298.699274 990.166628,299.147276 C990.166628,299.193943 990.189961,299.217276 990.236628,299.217276 L993.834628,299.217276 C993.881295,299.217276 993.904628,299.193943 993.904628,299.147276 C993.885961,298.736607 993.857962,298.437944 993.820628,298.251276 C993.717961,297.831274 993.510296,297.497611 993.197628,297.250276 C992.88496,297.002942 992.490631,296.879276 992.014628,296.879276 C991.547959,296.879276 991.165296,296.998275 990.866628,297.236276 Z" id="Spree"></path>
            </g>
        </g>
    </g>
</svg>