<?xml version="1.0" encoding="UTF-8"?>
<svg width="617px" height="54px" viewBox="0 0 617 54" version="1.1" xmlns="http://www.w3.org/2000/svg" xmlns:xlink="http://www.w3.org/1999/xlink">
    <!-- Generator: Sketch 51.2 (57519) - http://www.bohemiancoding.com/sketch -->
    <title>partner</title>
    <desc>Created with Sketch.</desc>
    <defs>
        <polygon id="path-1" points="0.149580469 0.040078125 12.1770258 0.040078125 12.1770258 12.0673008 0.149580469 12.0673008"></polygon>
    </defs>
    <g id="Page-1" stroke="none" stroke-width="1" fill="none" fill-rule="evenodd">
        <g id="Group-89" transform="translate(0.000000, 0.375000)">
            <g id="Group-28" transform="translate(194.601563, 0.405234)">
                <g id="Group-3">
                    <mask id="mask-2" fill="white">
                        <use xlink:href="#path-1"></use>
                    </mask>
                    <g id="Clip-2"></g>
                    <path d="M0.149580469,6.05380078 C0.149580469,2.73221484 2.84193984,0.0398554688 6.16308047,0.0398554688 C9.48422109,0.0398554688 12.1770258,2.73221484 12.1770258,6.05380078 C12.1770258,9.37494141 9.48422109,12.0673008 6.16308047,12.0673008 C2.84193984,12.0673008 0.149580469,9.37494141 0.149580469,6.05380078" id="Fill-1" fill="#231F20" mask="url(#mask-2)"></path>
                </g>
                <path d="M0.149580469,22.4915766 C0.149580469,19.1704359 2.84193984,16.4780766 6.16308047,16.4780766 C9.48422109,16.4780766 12.1770258,19.1704359 12.1770258,22.4915766 C12.1770258,25.8127172 9.48422109,28.5050766 6.16308047,28.5050766 C2.84193984,28.5050766 0.149580469,25.8127172 0.149580469,22.4915766" id="Fill-4" fill="#231F20"></path>
                <path d="M0.149580469,38.9293523 C0.149580469,35.6082117 2.84193984,32.9158523 6.16308047,32.9158523 C9.48422109,32.9158523 12.1770258,35.6082117 12.1770258,38.9293523 C12.1770258,42.2509383 9.48422109,44.9432977 6.16308047,44.9432977 C2.84193984,44.9432977 0.149580469,42.2509383 0.149580469,38.9293523" id="Fill-6" fill="#231F20"></path>
                <path d="M39.038632,32.9159414 C35.7174914,32.9159414 33.025132,35.6083008 33.025132,38.9294414 C33.025132,42.2510273 35.7174914,44.9429414 39.038632,44.9429414 C42.360218,44.9429414 45.052132,42.2510273 45.052132,38.9294414 C45.052132,35.6083008 42.360218,32.9159414 39.038632,32.9159414" id="Fill-8" fill="#231F20"></path>
                <path d="M22.6012125,32.9159414 C19.2796266,32.9159414 16.5872672,35.6083008 16.5872672,38.9294414 C16.5872672,42.2510273 19.2796266,44.9429414 22.6012125,44.9429414 C25.9223531,44.9429414 28.6147125,42.2510273 28.6147125,38.9294414 C28.6147125,35.6083008 25.9223531,32.9159414 22.6012125,32.9159414" id="Fill-10" fill="#231F20"></path>
                <path d="M39.038632,16.478032 C35.7174914,16.478032 33.025132,19.1703914 33.025132,22.491532 C33.025132,25.8126727 35.7174914,28.505032 39.038632,28.505032 C42.360218,28.505032 45.052132,25.8126727 45.052132,22.491532 C45.052132,19.1703914 42.360218,16.478032 39.038632,16.478032" id="Fill-12" fill="#231F20"></path>
                <path d="M22.6012125,16.478032 C19.2796266,16.478032 16.5872672,19.1703914 16.5872672,22.491532 C16.5872672,25.8126727 19.2796266,28.505032 22.6012125,28.505032 C25.9223531,28.505032 28.6147125,25.8126727 28.6147125,22.491532 C28.6147125,19.1703914 25.9223531,16.478032 22.6012125,16.478032" id="Fill-14" fill="#231F20"></path>
                <path d="M59.096175,40.2458297 C59.096175,39.1321031 58.4437922,38.066025 57.044175,37.795275 L57.044175,37.7636578 C58.141425,37.3815797 58.8730734,36.4112438 58.8730734,35.3135484 C58.8730734,33.6587672 57.6644953,32.7044625 55.3257141,32.7044625 C54.0209484,32.7044625 52.7958938,32.7369703 51.9533625,32.7530016 L51.9533625,43.4917125 C53.1463547,43.5068531 54.2280188,43.5389156 54.8799563,43.5389156 C58.1734875,43.5384703 59.096175,41.6454469 59.096175,40.2458297 M57.0597609,35.5834078 C57.0597609,36.6659625 56.2163391,37.3174547 54.6100969,37.3174547 C54.24405,37.3174547 53.9737453,37.3174547 53.6874094,37.3014234 L53.6874094,34.1201109 C54.1011047,34.1036344 54.5628938,34.0884938 55.0398234,34.0884938 C56.5663547,34.0889391 57.0597609,34.7092594 57.0597609,35.5834078 M57.2668313,40.2770016 C57.2668313,41.3582203 56.5191516,42.1219312 54.9440813,42.1219312 C54.3869953,42.1219312 53.9577141,42.0903141 53.6874094,42.041775 L53.6874094,38.621775 C53.9256516,38.6061891 54.4827375,38.6061891 54.6577453,38.6061891 C56.1691359,38.6061891 57.2668313,39.0519469 57.2668313,40.2770016" id="Fill-16" fill="#231F20"></path>
                <path d="M67.0464281,38.8445648 C67.0464281,36.968018 66.0756469,35.4245648 63.8161313,35.4245648 C61.5098578,35.4245648 60.2055375,37.2067055 60.2055375,39.5931352 C60.2055375,42.3763383 61.5579516,43.6494867 64.0232016,43.6494867 C64.9939828,43.6494867 65.9643188,43.4744789 66.7592016,43.1404945 L66.6006703,41.7885258 C65.9482875,42.1069242 65.1053109,42.297518 64.2939516,42.297518 C62.7193266,42.297518 61.9079672,41.4701273 61.9551703,39.6403383 L66.9987797,39.6403383 C67.0299516,39.3384164 67.0464281,39.0676664 67.0464281,38.8445648 M65.3439984,38.4473461 L61.9872328,38.4473461 C62.1310688,37.381268 62.7990375,36.6812367 63.7528969,36.6812367 C64.7557406,36.6812367 65.3760609,37.365682 65.3439984,38.4473461" id="Fill-18" fill="#231F20"></path>
                <path d="M70.8140836,35.5833633 C69.8433023,35.5361602 68.6975133,35.5993945 67.8073336,35.6951367 L67.8073336,36.7451836 C68.2691227,36.7772461 68.8092867,36.8400352 69.1913648,36.9037148 L69.1913648,43.4912227 L70.8777633,43.4912227 L70.8777633,40.2778477 C70.8777633,37.9070039 71.6575055,36.8088633 73.2316852,37.0956445 L73.3113961,35.424832 C71.832068,35.2818867 71.0371852,36.2686992 70.6867242,37.3338867 L70.6542164,37.3338867 C70.7504039,36.7291523 70.8140836,36.0291211 70.8140836,35.5833633" id="Fill-20" fill="#231F20"></path>
                <path d="M76.3895297,31.8769383 C75.3559594,31.8288445 74.1941391,31.8929695 73.3035141,31.9887117 L73.3035141,33.037868 C73.7648578,33.0703758 74.3054672,33.1336102 74.6875453,33.1972898 L74.6875453,43.4906883 L76.389975,43.4906883 L76.389975,31.8769383 L76.3895297,31.8769383 Z" id="Fill-22" fill="#231F20"></path>
                <path d="M80.7742547,35.5995281 C79.7406844,35.5514344 78.5953406,35.6160047 77.703825,35.7108562 L77.703825,36.7595672 C78.1656141,36.7911844 78.7062234,36.8544188 79.0878563,36.9180984 L79.0878563,43.4909109 L80.7742547,43.4909109 L80.7742547,35.5995281 Z" id="Fill-24" fill="#231F20"></path>
                <path d="M85.0940977,35.5833633 C84.1233164,35.5361602 82.978418,35.5993945 82.0873477,35.6951367 L82.0873477,36.7451836 C82.5486914,36.7772461 83.0893008,36.8400352 83.4709336,36.9037148 L83.4709336,43.4912227 L85.1577773,43.4912227 L85.1577773,39.672668 C85.1577773,38.0975977 86.0484023,36.8409258 87.2258086,36.8409258 C88.1493867,36.8409258 88.4188008,37.4135977 88.4188008,38.4004102 L88.4188008,43.4912227 L90.1051992,43.4912227 L90.1051992,37.9537617 C90.1051992,36.5541445 89.5329727,35.4243867 87.7348008,35.4243867 C86.4144492,35.4243867 85.4596992,36.1248633 84.9988008,37.1428477 L84.9667383,37.1272617 C85.0464492,36.6815039 85.0940977,35.9975039 85.0940977,35.5833633" id="Fill-26" fill="#231F20"></path>
            </g>
            <polygon id="Fill-29" fill="#231F20" points="246.555281 28.6077656 248.289328 28.6077656 248.289328 17.8690547 246.555281 17.8690547"></polygon>
            <g id="Group-88" transform="translate(0.000000, 0.405234)">
                <path d="M252.624445,20.2956516 C251.653664,20.2480031 250.50832,20.3116828 249.61725,20.4069797 L249.61725,21.4570266 C250.079039,21.4890891 250.619648,21.5527687 251.001727,21.6160031 L251.001727,28.2026203 L252.688125,28.2026203 L252.688125,24.3840656 C252.688125,22.8089953 253.57875,21.5523234 254.756156,21.5523234 C255.678844,21.5523234 255.949148,22.1249953 255.949148,23.1113625 L255.949148,28.202175 L257.635547,28.202175 L257.635547,22.66605 C257.635547,21.2659875 257.062875,20.1362297 255.265594,20.1362297 C253.945242,20.1362297 252.990492,20.8367062 252.529148,21.8546906 L252.497086,21.8386594 C252.575906,21.3933469 252.624445,20.7097922 252.624445,20.2956516" id="Fill-30" fill="#231F20"></path>
                <path d="M266.408738,20.2956516 L264.578948,20.2956516 L263.068003,24.5434875 C262.892995,25.0524797 262.734019,25.6095656 262.605769,26.1025266 L262.590628,26.1025266 C262.447238,25.5775031 262.272675,25.0208625 262.081636,24.4802531 L260.601417,20.2956516 L258.72487,20.2956516 L261.684417,28.2026203 L263.418019,28.2026203 L266.408738,20.2956516 Z" id="Fill-32" fill="#231F20"></path>
                <path d="M273.701887,23.5566305 C273.701887,21.6796383 272.731106,20.1366305 270.472036,20.1366305 C268.165317,20.1366305 266.860997,21.9183258 266.860997,24.3047555 C266.860997,27.0884039 268.212966,28.361107 270.679106,28.361107 C271.649887,28.361107 272.619778,28.1865445 273.415552,27.8521148 L273.256575,26.5001461 C272.604637,26.8180992 271.76077,27.0095836 270.949856,27.0095836 C269.374341,27.0095836 268.563427,26.1817477 268.611075,24.3524039 L273.654239,24.3524039 C273.685856,24.050482 273.701887,23.779732 273.701887,23.5566305 M271.999458,23.1589664 L268.642692,23.1589664 C268.785638,22.0933336 269.454052,21.3933023 270.407911,21.3933023 C271.4112,21.3933023 272.03152,22.0777477 271.999458,23.1589664" id="Fill-34" fill="#231F20"></path>
                <path d="M280.126099,25.8002484 C280.126099,23.1751312 276.626388,23.9548734 276.626388,22.4274516 C276.626388,21.8227172 277.087287,21.4406391 278.026005,21.4406391 C278.534998,21.4406391 279.092529,21.5207953 279.569459,21.6637406 L279.617107,20.2792641 C279.140623,20.1999984 278.599123,20.1363187 278.137779,20.1363187 C275.990482,20.1363187 274.876755,21.2184281 274.876755,22.5864281 C274.876755,25.3224281 278.344849,24.3681234 278.344849,25.9583344 C278.344849,26.6107172 277.707607,27.0088266 276.786255,27.0088266 C276.181076,27.0088266 275.560755,26.8966078 275.067795,26.7536625 L275.019701,28.2018187 C275.513107,28.2971156 276.101365,28.36035 276.690068,28.36035 C278.805748,28.3607953 280.126099,27.2795766 280.126099,25.8002484" id="Fill-36" fill="#231F20"></path>
                <path d="M285.942459,28.1704687 L285.942459,26.7704062 C285.640092,26.8496719 285.258459,26.8973203 284.907998,26.8973203 C284.112225,26.8973203 283.874428,26.5793672 283.874428,25.4024062 L283.874428,21.6163594 L285.942459,21.6163594 L285.942459,20.2955625 L283.857952,20.2955625 L283.857952,17.320875 L282.171553,17.7822187 L282.171553,20.2960078 L280.660608,20.2960078 L280.660608,21.6163594 L282.171553,21.6163594 L282.171553,25.9274297 C282.171553,27.6935391 282.680991,28.3463672 284.366944,28.3463672 C284.892413,28.3454766 285.48067,28.2662109 285.942459,28.1704687" id="Fill-38" fill="#231F20"></path>
                <path d="M289.673377,20.3115937 C288.639806,20.2639453 287.494463,20.3280703 286.602947,20.4229219 L286.602947,21.4711875 C287.064736,21.5028047 287.6049,21.5664844 287.986978,21.6297187 L287.986978,28.2025312 L289.673377,28.2025312 L289.673377,20.3115937 Z" id="Fill-40" fill="#231F20"></path>
                <path d="M296.012979,28.1704687 L296.012979,26.7704062 C295.711502,26.8496719 295.329424,26.8973203 294.979854,26.8973203 C294.184526,26.8973203 293.945393,26.5793672 293.945393,25.4024062 L293.945393,21.6163594 L296.012979,21.6163594 L296.012979,20.2955625 L293.930252,20.2955625 L293.930252,17.320875 L292.243854,17.7822187 L292.243854,20.2960078 L290.732018,20.2960078 L290.732018,21.6163594 L292.243854,21.6163594 L292.243854,25.9274297 C292.243854,27.6935391 292.751955,28.3463672 294.438354,28.3463672 C294.963823,28.3454766 295.552526,28.2662109 296.012979,28.1704687" id="Fill-42" fill="#231F20"></path>
                <path d="M299.744965,20.3115937 C298.710504,20.2639453 297.564715,20.3280703 296.674535,20.4229219 L296.674535,21.4711875 C297.134988,21.5028047 297.676488,21.5664844 298.058566,21.6297187 L298.058566,28.2025312 L299.74541,28.2025312 L299.74541,20.3115937 L299.744965,20.3115937 Z" id="Fill-44" fill="#231F20"></path>
                <path d="M308.868884,24.0976406 C308.868884,21.3139922 307.372634,20.1365859 305.256954,20.1365859 C302.854938,20.1365859 301.312376,21.9659297 301.312376,24.3523594 C301.312376,27.1364531 302.74361,28.3610625 304.938555,28.3610625 C307.277337,28.3610625 308.868884,26.5321641 308.868884,24.0976406 M307.118805,24.2089687 C307.118805,26.0387578 306.196118,26.8973203 305.097977,26.8973203 C303.777626,26.8973203 303.077149,25.9586016 303.077149,24.1773516 C303.077149,22.3635937 304.079548,21.5682656 305.114009,21.5682656 C306.465977,21.5682656 307.118805,22.5230156 307.118805,24.2089687" id="Fill-46" fill="#231F20"></path>
                <path d="M312.55478,20.2956516 C311.583998,20.2480031 310.439545,20.3116828 309.548475,20.4069797 L309.548475,21.4570266 C310.009819,21.4890891 310.550428,21.5527687 310.932506,21.6160031 L310.932506,28.2026203 L312.618905,28.2026203 L312.618905,24.3840656 C312.618905,22.8089953 313.50953,21.5523234 314.687381,21.5523234 C315.609178,21.5523234 315.879928,22.1249953 315.879928,23.1113625 L315.879928,28.202175 L317.566772,28.202175 L317.566772,22.66605 C317.566772,21.2659875 316.9941,20.1362297 315.196373,20.1362297 C313.876022,20.1362297 312.921272,20.8367062 312.459928,21.8546906 L312.427866,21.8386594 C312.507577,21.3933469 312.55478,20.7097922 312.55478,20.2956516" id="Fill-48" fill="#231F20"></path>
                <path d="M324.54228,25.8002484 C324.54228,23.1751312 321.04257,23.9548734 321.04257,22.4274516 C321.04257,21.8227172 321.504359,21.4406391 322.443077,21.4406391 C322.95207,21.4406391 323.50782,21.5207953 323.98564,21.6637406 L324.032843,20.2792641 C323.555913,20.1999984 323.015749,20.1363187 322.55396,20.1363187 C320.406218,20.1363187 319.292491,21.2184281 319.292491,22.5864281 C319.292491,25.3224281 322.76103,24.3681234 322.76103,25.9583344 C322.76103,26.6107172 322.124679,27.0088266 321.201101,27.0088266 C320.597257,27.0088266 319.976491,26.8966078 319.483085,26.7536625 L319.434991,28.2018187 C319.928843,28.2971156 320.517546,28.36035 321.106249,28.36035 C323.221038,28.3607953 324.54228,27.2795766 324.54228,25.8002484" id="Fill-50" fill="#231F20"></path>
                <path d="M328.051388,16.5889594 C327.016927,16.5408656 325.855997,16.6049906 324.964927,16.7002875 L324.964927,17.7498891 C325.426716,17.7819516 325.96688,17.8456312 326.348958,17.9093109 L326.348958,27.9956391 C327.224442,28.2187406 328.051833,28.3296234 329.164669,28.3296234 C331.805372,28.3296234 333.364856,26.5960219 333.364856,23.8600219 C333.364856,21.4731469 332.330841,20.1367641 330.453848,20.1367641 C329.292473,20.1367641 328.353755,20.7570844 327.940059,21.7438969 L327.924028,21.7438969 C328.003739,21.3302016 328.051833,20.69385 328.051833,20.2320609 L328.051833,16.5889594 L328.051388,16.5889594 Z M331.583606,24.0181078 C331.583606,26.1507094 330.643997,26.9776547 329.308505,26.9776547 C328.799067,26.9776547 328.401403,26.9300062 328.051388,26.8186781 L328.051388,24.3690141 C328.051388,23.0326312 328.734942,21.5533031 330.0072,21.5533031 C331.073723,21.5528578 331.583606,22.4274516 331.583606,24.0181078 Z" id="Fill-52" fill="#231F20"></path>
                <path d="M342.189748,28.0908914 L342.189748,27.0408445 C341.729295,27.0092273 341.18824,26.9455477 340.805716,26.8823133 L340.805716,22.8099305 C340.805716,21.1867664 340.137748,20.1367195 337.720146,20.1367195 C336.701716,20.1367195 335.714904,20.3598211 334.935607,20.6621883 L335.094584,22.1098992 C335.762998,21.6962039 336.717302,21.4731023 337.449396,21.4731023 C338.690037,21.4731023 339.103732,21.9816492 339.103732,22.968907 L339.103732,23.4774539 C336.255959,23.4774539 334.442646,24.5279461 334.442646,26.3412586 C334.442646,27.5983758 335.301654,28.3611961 336.654513,28.3611961 C337.91074,28.3611961 338.897107,27.6620555 339.27874,26.7228914 L339.295216,26.739368 C339.231982,27.1686492 339.215505,27.6932273 339.215505,28.2026648 C340.137748,28.2503133 341.299123,28.1866336 342.189748,28.0908914 Z M339.103732,24.7817742 C339.103732,25.911532 338.32399,27.0252586 337.163505,27.0252586 C336.495091,27.0252586 336.081396,26.6436258 336.081396,26.0544773 C336.081396,25.3704773 336.622005,24.6227977 339.103732,24.6227977 L339.103732,24.7817742 Z" id="Fill-54" fill="#231F20"></path>
                <path d="M345.512714,20.2956516 C344.541933,20.2480031 343.396589,20.3116828 342.505519,20.4069797 L342.505519,21.4570266 C342.967753,21.4890891 343.507917,21.5527687 343.88955,21.6160031 L343.88955,28.2026203 L345.576394,28.2026203 L345.576394,24.3840656 C345.576394,22.8089953 346.467019,21.5523234 347.644425,21.5523234 C348.567113,21.5523234 348.837417,22.1249953 348.837417,23.1113625 L348.837417,28.202175 L350.523816,28.202175 L350.523816,22.66605 C350.523816,21.2659875 349.951589,20.1362297 348.153863,20.1362297 C346.833511,20.1362297 345.878761,20.8367062 345.416972,21.8546906 L345.385355,21.8386594 C345.46462,21.3933469 345.512714,20.7097922 345.512714,20.2956516" id="Fill-56" fill="#231F20"></path>
                <path d="M359.423876,28.2026203 L356.27329,23.9071359 L359.201665,20.2956516 L357.117602,20.2956516 L354.556165,23.6840344 L354.556165,16.5888703 C353.522149,16.5407766 352.360774,16.6049016 351.469259,16.7001984 L351.469259,17.7502453 C351.931493,17.7818625 352.472102,17.8455422 352.853735,17.9092219 L352.853735,28.202175 L354.55661,28.202175 L354.55661,24.1939172 L357.260548,28.2026203 L359.423876,28.2026203 Z" id="Fill-58" fill="#231F20"></path>
                <path d="M105.961441,20.0329617 C105.27566,20.0253914 104.745738,20.5241414 104.726145,21.1965633 C104.70566,21.8778914 105.249832,22.4291883 105.941402,22.4291883 C106.611598,22.4291883 107.147754,21.9046102 107.157551,21.2406492 C107.166902,20.5829227 106.629855,20.0400867 105.961441,20.0329617 Z M108.421793,31.5563133 C108.017895,31.4890711 107.652738,31.399118 107.284465,31.376407 C106.955824,31.3554773 106.880566,31.2062977 106.888137,30.9119461 C106.903723,30.3285867 106.89259,29.744782 106.89259,29.1609773 C106.892145,27.4906102 106.89259,25.820243 106.891254,24.1498758 C106.891254,23.9263289 106.935785,23.6604773 106.578199,23.675618 C105.68802,23.7143602 104.797395,23.7571102 103.907215,23.7998602 C103.52959,23.818118 103.595051,24.1035633 103.599504,24.3364617 C103.603957,24.5631258 103.519348,24.8361023 103.910332,24.8690555 C104.306215,24.9028992 104.697645,24.9906258 105.114902,25.0587586 L105.114902,30.1121648 C105.114902,31.2788836 105.118465,31.3007039 103.979355,31.4819461 C103.416926,31.5714539 103.639137,31.9642195 103.60173,32.2607977 C103.557645,32.6081414 103.803012,32.6001258 104.042145,32.5996805 C105.387879,32.5974539 106.733613,32.5996805 108.079793,32.596118 C108.188004,32.5956727 108.296215,32.5653914 108.421793,32.546243 L108.421793,31.5563133 Z M94.613543,24.8859773 C94.613543,24.6312586 94.5948398,24.3743133 94.6179961,24.1218211 C94.6500586,23.7709148 94.4968711,23.6680477 94.1668945,23.6849695 C93.3907148,23.725493 92.6136445,23.7606727 91.8365742,23.7651258 C91.4602852,23.7673523 91.3841367,23.9298914 91.3783477,24.2692195 C91.371668,24.6561961 91.4402461,24.899782 91.8940195,24.8766258 C92.0521055,24.8686102 92.2137539,24.9469852 92.3731758,24.9452039 C92.7730664,24.9416414 92.8826133,25.1273367 92.8790508,25.5152039 C92.8612383,27.4429617 92.8710352,29.3716102 92.8710352,31.2998133 C92.8710352,32.6321883 92.8710352,32.6206102 94.2087539,32.6068055 C94.5632227,32.603243 94.6910273,32.5030477 94.6852383,32.1356648 C94.6665352,30.8887898 94.6380352,29.6387977 94.6945898,28.3937039 C94.7244258,27.7252898 94.8584648,27.0452977 95.0566289,26.4049383 C95.2770586,25.6911023 95.8270195,25.3050164 96.6023086,25.3018992 C96.8556914,25.3010086 97.1086289,25.3018992 97.413668,25.3018992 C97.413668,24.7902352 97.4345977,24.322657 97.3971914,23.859532 C97.3891758,23.759782 97.1749805,23.6021414 97.0507383,23.597243 C96.0136055,23.5571648 95.176418,23.9067352 94.613543,24.8859773 Z M97.684418,19.6410867 C97.5103008,20.569118 97.5178711,20.5806961 98.3163164,20.7120633 C98.3799961,20.7227508 98.4445664,20.7499148 98.5069102,20.745907 C98.9963086,20.7129539 99.072457,20.973907 99.0697852,21.4058602 C99.052418,24.323993 99.0604336,27.2421258 99.0608789,30.1602586 C99.0608789,31.2784383 99.0639961,31.2989227 97.9769883,31.4801648 C97.4105508,31.5745711 97.6581445,31.9784695 97.6162852,32.2688133 C97.5655195,32.6228367 97.8309258,32.5987898 98.0615977,32.5987898 C99.3583477,32.5992352 100.655098,32.6001258 101.952293,32.5965633 C102.089449,32.596118 102.226605,32.5649461 102.364652,32.5480242 L102.364652,31.562993 C102.041355,31.5055477 101.741215,31.4124773 101.439293,31.4071336 C100.977504,31.3995633 100.899129,31.171118 100.901801,30.7641023 C100.917387,28.3968211 100.909371,26.0304305 100.909371,23.6631492 C100.909371,22.4474461 100.910262,21.2312977 100.908035,20.0155945 C100.90759,19.8098602 100.950785,19.571618 100.61502,19.5791883 C99.6317695,19.6027898 98.6485195,19.6210477 97.684418,19.6410867 Z M90.0927305,30.8798836 C89.2880508,31.0170398 88.5154336,31.199618 87.7325742,31.2717586 C85.9971914,31.4325164 84.973418,30.507157 84.8353711,28.7633133 C84.7993008,28.3001883 84.9115195,28.1398758 85.4013633,28.1492273 C86.9412539,28.1790633 88.4824805,28.1474461 90.0223711,28.1683758 C90.4333945,28.1741648 90.5558555,28.0321102 90.5473945,27.6375633 C90.5269102,26.7358055 90.4538789,25.8367195 89.9653711,25.0623211 C89.6977383,24.6379383 89.3370352,24.2104383 88.9144336,23.9548289 C86.939918,22.7605008 84.175418,23.7918445 83.405918,25.9636336 C82.9899961,27.138368 82.9174102,28.3416023 83.1418477,29.5590867 C83.4566836,31.262407 84.4172227,32.3013211 85.9361836,32.6125945 C86.9523867,32.8205555 87.9654727,32.8018523 88.9718789,32.5435711 C90.223207,32.2229461 90.2428008,32.1922195 90.0927305,30.8798836 Z M110.936918,32.5987898 C111.428988,32.5987898 111.864059,32.5796414 112.296012,32.6045789 C112.668293,32.6259539 112.765371,32.4714305 112.760027,32.1200789 C112.739098,30.8072977 112.731082,29.4940711 112.743105,28.1812898 C112.753348,27.0216961 113.000051,25.9404773 114.046535,25.250243 C114.608965,24.879743 115.250215,24.7123055 115.888793,25.0520789 C116.471262,25.3620164 116.519355,25.9480477 116.51891,26.532743 C116.518465,28.1051414 116.519355,29.6779852 116.519801,31.2503836 C116.519801,32.7065555 116.519355,32.6994305 118.002691,32.6036883 C118.277004,32.5863211 118.363395,32.487907 118.362504,32.2220555 C118.354934,30.1468992 118.387441,28.0712977 118.347809,25.997032 C118.317973,24.4259695 117.354316,23.5567195 115.789934,23.5870008 C114.624996,23.6097117 113.588754,23.9330086 112.800551,24.9055711 C112.751566,24.600532 112.781848,24.3106336 112.738207,24.0327586 C112.717723,23.9040633 112.55073,23.695657 112.454543,23.6978836 C111.47352,23.7192586 110.493832,23.7767039 109.513699,23.8243523 L109.513699,24.8347664 C109.830316,24.8801883 110.117098,24.9469852 110.405215,24.9558914 C110.80377,24.9683602 110.952504,25.1068523 110.94716,25.5396961 C110.922668,27.6794227 110.936473,29.8195945 110.936918,31.9593211 L110.936918,32.5987898 Z M73.7635664,21.4646414 L73.7635664,22.0787273 L73.7635664,30.101032 C73.7635664,31.2472664 73.7675742,31.2717586 72.6498398,31.4699227 C72.1016602,31.5674461 72.2944805,31.9446258 72.2615273,32.2478836 C72.2201133,32.6321883 72.4939805,32.5992352 72.7402383,32.5987898 C74.1986367,32.5983445 75.6574805,32.6094773 77.1158789,32.5943367 C78.0817617,32.5845398 79.0178086,32.402407 79.8812695,31.9468523 C81.1691133,31.2681961 81.7083867,30.1553602 81.6562852,28.7423836 C81.6081914,27.4336102 80.9112773,26.574157 79.7062617,26.1043523 C79.6269961,26.0736258 79.5548555,26.0246414 79.4475352,25.9671961 C79.6434727,25.8567586 79.8011133,25.7752664 79.9516289,25.6813055 C81.0764883,24.979493 81.530707,23.9561648 81.3503555,22.6589695 C81.1798008,21.4334695 80.4583945,20.6586258 79.2671836,20.3785242 C78.6419648,20.2315711 77.9891367,20.1478523 77.3478867,20.1371648 C75.7603477,20.1108914 74.171918,20.1425086 72.5843789,20.1536414 C72.4926445,20.1540867 72.4013555,20.1816961 72.2931445,20.1990633 C72.2802305,20.3473523 72.2784492,20.4760477 72.2566289,20.6011805 C72.1689023,21.095032 72.3915586,21.3114539 72.8729414,21.3399539 C73.1583867,21.3568758 73.4411602,21.4178836 73.7635664,21.4646414 Z M52.8450117,43.9257586 C52.8583711,43.7654461 52.8828633,43.6051336 52.8828633,43.4448211 C52.8850898,38.5962586 52.8855352,33.7481414 52.8819727,28.9000242 C52.8815273,28.7267977 52.8410039,28.5531258 52.8191836,28.3798992 L52.8089414,28.3919227 C53.0351602,28.378118 53.2609336,28.3531805 53.486707,28.3531805 C58.0453711,28.3509539 62.6035898,28.3513992 67.1622539,28.3513992 L67.8600586,28.3513992 C67.8600586,27.3775008 67.8680742,26.4450164 67.843582,25.5129773 C67.8422461,25.4475164 67.6035586,25.3370789 67.4735273,25.334407 C66.6301055,25.3179305 65.7866836,25.3255008 64.9428164,25.3255008 L59.5892695,25.3255008 L59.0201602,25.3255008 L59.0201602,13.6676648 C59.1751289,13.6560867 59.344793,13.6320398 59.514457,13.6320398 C81.4959727,13.6302586 103.477488,13.6302586 125.459449,13.6315945 C125.58859,13.6315945 125.71773,13.6467352 125.846871,13.6547508 L125.846871,38.280532 C125.70259,38.2667273 125.558754,38.2413445 125.414473,38.2413445 C106.406754,38.2395633 87.3990352,38.2413445 68.3917617,38.2293211 C67.9192852,38.2288758 67.8320039,38.3940867 67.836457,38.8175789 C67.8533789,40.5204539 67.8382383,42.2233289 67.8351211,43.9257586 L65.0122852,43.9257586 C65.0131758,39.8253211 65.0105039,35.7244383 65.0229727,31.6235555 C65.0243086,31.2508289 64.9325742,31.1038758 64.5371367,31.1207977 C63.8575898,31.1501883 63.1762617,31.128368 62.4953789,31.1288133 C61.8131602,31.1292586 61.8131602,31.1297039 61.8122695,31.8186023 C61.8082617,35.8544695 61.8042539,39.8903367 61.8002461,43.9257586 L58.9774102,43.9257586 C58.9774102,39.8934539 58.9774102,35.8607039 58.9774102,31.8283992 C58.9774102,31.6823367 59.0019023,31.5287039 58.9631602,31.3937742 C58.9346602,31.2949148 58.8219961,31.148407 58.7445117,31.1470711 C57.7643789,31.1305945 56.7838008,31.1359383 55.788082,31.1359383 C55.7711602,31.2842273 55.7542383,31.362157 55.7542383,31.4400867 C55.7569102,35.6019773 55.7613633,39.763868 55.7653711,43.9257586 L52.8450117,43.9257586 Z" id="Fill-60" fill="#231F20"></path>
                <path d="M40.7756625,43.9260258 C40.7912484,43.7176195 40.8197484,43.5092133 40.8201938,43.300807 C40.8224203,39.4586508 40.821975,35.6169398 40.821975,31.7752289 L40.821975,31.1161664 L43.6225453,31.1161664 C43.6314516,31.3170023 43.6488188,31.5214008 43.6488188,31.7262445 C43.6506,35.5839867 43.6492641,39.4421742 43.6519359,43.3003617 C43.6519359,43.508768 43.6804359,43.7176195 43.6955766,43.9260258 L40.7756625,43.9260258 Z" id="Fill-62" fill="#231F20"></path>
                <path d="M34.7408766,43.9260258 C34.7493375,43.5381586 34.7649234,43.1502914 34.7653687,42.7619789 C34.76715,39.0854789 34.7662594,35.4089789 34.7662594,31.7329242 L34.7662594,31.1197289 L37.6224938,31.1197289 L37.6224938,31.7355961 C37.6224938,35.5902211 37.6216031,39.4444008 37.624275,43.2990258 C37.624275,43.5078773 37.6478766,43.7171742 37.6607906,43.9260258 L34.7408766,43.9260258 Z" id="Fill-64" fill="#231F20"></path>
                <path d="M46.9078383,43.9260258 C46.9007133,42.5010258 46.8891352,41.0755805 46.8873539,39.6505805 C46.8842367,37.0098773 46.8864633,34.3696195 46.8864633,31.7289164 L46.8864633,31.1175023 L49.707518,31.1175023 L49.707518,31.7293617 C49.707518,35.5848773 49.7070727,39.440393 49.7084086,43.2959086 C49.7084086,43.5060961 49.7226586,43.7158383 49.7306742,43.9260258 L46.9078383,43.9260258 Z" id="Fill-66" fill="#231F20"></path>
                <path d="M5.33885156,34.6625461 C5.79128906,34.7119758 6.1595625,34.7458195 6.52560938,34.7939133 C7.59747656,34.934632 8.49389063,34.5605695 9.16364063,33.7567805 C9.65571094,33.1662961 10.0970156,32.5103508 10.4376797,31.822343 C11.0526563,30.5808117 11.4391875,29.2595695 11.392875,27.8501555 C11.3492344,26.5191164 10.4773125,25.8400148 9.25092188,26.3084836 C8.45247656,26.613968 7.73507813,27.1434445 7.00699219,27.6128039 C6.84667969,27.7165617 6.74871094,27.9792961 6.70195313,28.187257 C6.40092188,29.5285383 6.11903906,30.8742727 5.83626563,32.2195617 C5.67060938,33.0082102 5.51430469,33.7990852 5.33885156,34.6625461 M7.39975781,23.9412023 C8.18796094,23.4210773 8.84925,22.8858117 9.5938125,22.5219914 C10.3557422,22.1497102 11.1800156,21.8281945 12.0114141,21.6923742 C13.6987031,21.4171711 15.0404297,22.3647961 15.6380391,24.097507 C16.2360938,25.8324445 16.2187266,27.6119133 15.9145781,29.3833664 C15.5592188,31.4562961 14.7674531,33.3662414 13.4742656,35.0423977 C11.4725859,37.636343 8.85815625,38.7919289 5.56774219,38.4704133 C3.82924219,38.3003039 2.07738281,38.2695773 0.3313125,38.1747258 C0.23690625,38.169382 0.143390625,38.1515695 0,38.1333117 C1.2860625,31.3382883 2.56811719,24.5659758 3.86620313,17.7103898 C3.04816406,17.7103898 2.30716406,17.6961398 1.56705469,17.7166242 C1.2255,17.7259758 1.07053125,17.6511633 1.0794375,17.2655227 C1.10303906,16.2119133 1.09057031,15.1574133 1.08522656,14.1033586 C1.08433594,13.853093 1.09769531,13.6669523 1.43702344,13.6682883 C3.75576563,13.6798664 6.07450781,13.6767492 8.39325,13.6803117 C8.4538125,13.6803117 8.51482031,13.7065852 8.54109375,13.7123742 C9.03717188,17.2116398 8.03165625,20.527882 7.39975781,23.9412023" id="Fill-68" fill="#231F20"></path>
                <path d="M22.6326516,29.1585727 C23.3807766,29.1184945 24.0523078,29.1550102 24.6935578,29.0325492 C25.7333625,28.8339398 26.4859406,28.2176273 26.8043391,27.1751508 C26.9561906,26.678182 26.9566359,26.1585023 26.5389328,25.7728617 C26.1452766,25.4094867 25.65855,25.4059242 25.1695969,25.5715805 C25.0173,25.6232367 24.8623313,25.6829086 24.7287375,25.7697445 C23.5450969,26.5410258 22.9323469,27.6712289 22.6326516,29.1585727 M29.0059641,34.3286508 C29.0059641,35.3537602 29.0104172,36.3530414 28.9979484,37.352768 C28.9970578,37.4355961 28.8973078,37.5700805 28.8189328,37.5919008 C26.7215109,38.1712523 24.6031594,38.7590648 22.4099953,38.400143 C19.8726047,37.9846664 18.3500813,36.3797602 17.7021516,33.9318773 C16.7781281,30.4410727 18.1421203,25.062143 22.0853625,22.823557 C24.4294875,21.4934086 26.9143312,21.156307 29.4494953,22.2882914 C30.6700969,22.8333539 31.3701281,23.8584633 31.6301906,25.1583305 C32.2607531,28.3115883 30.5743547,30.7995492 27.3903703,31.480432 C25.8674016,31.8059555 24.3279562,31.7431664 22.7894016,31.7494008 C22.0996125,31.7520727 22.0715578,31.7823539 22.1775422,32.4619008 C22.4197922,34.0106977 23.3749875,34.8786117 24.9464953,34.8011273 C26.1871359,34.7401195 27.4193156,34.515682 28.6555031,34.3638305 C28.7490187,34.3522523 28.8429797,34.344682 29.0059641,34.3286508" id="Fill-70" fill="#231F20"></path>
                <path d="M52.8192727,28.3800773 C52.6282336,28.3631555 52.4371945,28.331093 52.2461555,28.331093 C46.6369992,28.3284211 41.0273977,28.3288664 35.4177961,28.3288664 L34.7734289,28.3288664 C34.7734289,27.3879211 34.7676398,26.4861633 34.785007,25.5848508 C34.786343,25.509593 34.935968,25.4089523 35.0361633,25.3711008 C35.1359133,25.3336945 35.2601555,25.359968 35.3737102,25.359968 C41.0158195,25.3595227 46.6579289,25.3595227 52.3000383,25.3590773 L52.8099211,25.3590773 C52.8099211,26.3997727 52.8099211,27.3950461 52.8094758,28.3907648 C52.8090305,28.3916555 52.8192727,28.3800773 52.8192727,28.3800773" id="Fill-72" fill="#231F20"></path>
                <path d="M51.3414586,23.6161242 C50.163607,23.6156789 49.244482,22.693882 49.2511617,21.5209289 C49.2582867,20.3577727 50.2054664,19.4292961 51.3717398,19.4422102 C52.5153023,19.4546789 53.426857,20.3769211 53.4322008,21.526718 C53.4370992,22.7045695 52.5246539,23.6165695 51.3414586,23.6161242" id="Fill-74" fill="#231F20"></path>
                <path d="M75.6444773,28.9366289 C75.6444773,28.3537148 75.6293367,27.7703555 75.6565008,27.1892227 C75.6622898,27.0649805 75.830618,26.8383164 75.9094383,26.8445508 C76.7582039,26.9122383 77.6238914,26.9340586 78.4446023,27.1340039 C79.2826805,27.3384023 79.6959305,28.0384336 79.7257664,28.9330664 C79.7538211,29.7871758 79.3588289,30.4266445 78.5741883,30.7860117 C77.7352195,31.1694258 76.8414773,31.1489414 75.9530789,31.1026289 C75.8439773,31.0972852 75.6658523,30.8666133 75.658282,30.7325742 C75.6262195,30.1354102 75.6444773,29.5355742 75.6444773,28.9366289" id="Fill-76" fill="#231F20"></path>
                <path d="M75.6461695,25.3923867 C75.6461695,24.202957 75.636818,23.0398008 75.6630914,21.8770898 C75.6657633,21.7764492 75.9066773,21.6009961 76.0398258,21.5978789 C76.654357,21.5836289 77.2711148,21.595207 77.8838648,21.6397383 C78.7014586,21.6998555 79.2928336,22.1959336 79.470068,22.9177852 C79.6588805,23.684168 79.3004039,24.5859258 78.643568,24.9965039 C77.988068,25.4066367 76.7728102,25.5758555 75.6461695,25.3923867" id="Fill-78" fill="#231F20"></path>
                <path d="M84.9959063,26.7762398 C85.1148047,25.4639039 85.9470938,24.6957398 87.1013438,24.7598648 C88.0307109,24.8110758 88.7485547,25.5774586 88.7075859,26.5023727 C88.7035781,26.5967789 88.5548438,26.7633258 88.471125,26.7642164 C87.3226641,26.7820289 86.1746484,26.7762398 84.9959063,26.7762398" id="Fill-80" fill="#231F20"></path>
                <path d="M473.839798,43.097032 C473.839798,41.8394695 473.228384,41.1942117 472.231329,40.9902586 L472.231329,40.9675477 C472.94472,40.7635945 473.477313,40.1748914 473.477313,39.0647273 C473.477313,37.6486336 472.684657,36.9802195 471.110032,36.9802195 L468.16518,36.9802195 L468.16518,45.4758914 L471.279696,45.4758914 C473.13754,45.4758914 473.839798,44.6035242 473.839798,43.097032 Z M473.103696,43.0404773 C473.103696,44.3541492 472.424149,44.8186102 471.291274,44.8186102 L468.878571,44.8186102 L468.878571,41.352743 L471.246298,41.352743 C472.492282,41.352743 473.103696,41.8848914 473.103696,43.0404773 Z M472.763477,39.1894148 C472.763477,40.219868 472.242907,40.7408836 471.178165,40.7408836 L468.889704,40.7408836 L468.889704,37.6486336 L471.087321,37.6486336 C472.231329,37.6486336 472.763477,38.0903836 472.763477,39.1894148 Z M478.007923,44.7731883 L478.007923,41.3411648 L481.734743,41.3411648 L481.734743,40.7070398 L478.007923,40.7070398 L478.007923,37.6829227 L482.312313,37.6829227 L482.27847,36.9802195 L477.271821,36.9802195 L477.271821,45.4758914 L482.481977,45.4758914 L482.516266,44.7731883 L478.007923,44.7731883 Z M490.966071,39.2798133 C490.966071,37.7278992 490.184102,36.9802195 488.474102,36.9802195 L485.721626,36.9802195 L485.721626,45.4758914 L486.469305,45.4758914 L486.469305,41.6582273 L488.439813,41.6582273 L490.61472,45.4758914 L491.52093,45.4758914 L489.153649,41.522407 C490.331501,41.3865867 490.966071,40.661618 490.966071,39.2798133 Z M490.19568,39.3141023 C490.19568,40.5485086 489.640821,41.0468133 488.40597,41.0468133 L486.469305,41.0468133 L486.469305,37.6486336 L488.474102,37.6486336 C489.663087,37.6486336 490.19568,38.1246727 490.19568,39.3141023 Z M495.213462,44.7509227 L495.213462,36.9802195 L494.465782,36.9802195 L494.465782,45.4758914 L499.393165,45.4758914 L499.427009,44.7509227 L495.213462,44.7509227 Z M502.50768,45.4758914 L503.25536,45.4758914 L503.25536,36.9806648 L502.50768,36.9806648 L502.50768,45.4758914 Z M513.426743,45.4758914 L513.426743,36.9802195 L512.758329,36.9802195 L512.769907,43.2444305 L512.792618,44.1501961 L512.769907,44.1617742 L512.271602,43.3913836 L508.023766,36.9802195 L507.287665,36.9802195 L507.287665,45.4758914 L507.967212,45.4758914 L507.967212,39.0647273 L507.955634,38.1469383 L507.97879,38.1358055 L508.477095,38.9057508 L512.871884,45.4758914 L513.426743,45.4758914 Z" id="Fill-82" fill="#231F20"></path>
                <path d="M467.836406,29.9753203 L469.784648,29.9753203 L469.784648,21.4800937 L467.836406,21.4800937 L467.836406,29.9753203 Z M479.729813,29.9753203 L479.729813,21.4805391 L478.042078,21.4805391 L478.042078,25.7052187 L478.064789,26.6114297 L478.042078,26.6230078 L477.532195,25.8641953 L474.508078,21.4805391 L472.876898,21.4805391 L472.876898,29.9753203 L474.575766,29.9753203 L474.575766,25.5128437 L474.564633,24.5955 L474.587344,24.5839219 L475.096781,25.3427344 L478.392984,29.9753203 L479.729813,29.9753203 Z M488.338148,23.2021172 L488.303859,21.4805391 L482.708508,21.4805391 L482.708508,29.9753203 L484.611773,29.9753203 L484.611773,26.6679844 L487.692445,26.6679844 L487.715156,25.03725 L484.611773,25.03725 L484.611773,23.2021172 L488.338148,23.2021172 Z M497.83043,25.7279297 C497.83043,22.7038125 496.754109,21.3447187 494.092477,21.3447187 C491.441977,21.3447187 490.343391,22.7038125 490.343391,25.7279297 C490.343391,28.7524922 491.47582,30.1342969 494.092477,30.1342969 C496.754109,30.1342969 497.83043,28.8090469 497.83043,25.7279297 Z M495.836766,25.7279297 C495.836766,27.8689922 495.383438,28.4238516 494.103609,28.4238516 C492.812203,28.4238516 492.348188,27.880125 492.348188,25.7279297 C492.348188,23.5757344 492.80107,23.0547187 494.092477,23.0547187 C495.395016,23.0547187 495.836766,23.5757344 495.836766,25.7279297 Z M506.766961,24.1194609 C506.766961,22.3074844 505.713352,21.4805391 503.606578,21.4805391 L500.491617,21.4805391 L500.491617,29.9753203 L502.406016,29.9753203 L502.406016,26.80425 L503.606578,26.80425 L505.090359,29.9753203 L507.322266,29.9753203 L505.339734,26.4301875 C506.257523,26.1474141 506.766961,25.3088906 506.766961,24.1194609 Z M504.773297,24.1987266 C504.773297,25.1165156 504.433523,25.3770234 503.583867,25.3770234 L502.406016,25.3770234 L502.406016,23.0662969 L503.618156,23.0662969 C504.456234,23.0662969 504.773297,23.3379375 504.773297,24.1987266 Z M509.553281,21.4805391 L509.553281,29.9753203 L511.241016,29.9753203 L511.241016,25.6602422 L511.229883,24.7424531 L511.252594,24.7313203 L511.569211,25.5921094 L513.302813,29.9753203 L514.571063,29.9753203 L516.315352,25.5809766 L516.632414,24.7201875 L516.666703,24.7313203 L516.643992,25.6486641 L516.643992,29.9753203 L518.388281,29.9753203 L518.388281,21.4805391 L516.281508,21.4805391 L514.299422,26.4417656 L513.982359,27.2909766 L513.94807,27.2909766 L513.631008,26.4417656 L511.660055,21.4805391 L509.553281,21.4805391 Z M526.667977,29.9753203 L528.797461,29.9753203 L525.829898,21.4805391 L523.553016,21.4805391 L520.619297,29.9753203 L522.635672,29.9753203 L523.111711,28.321875 L526.192383,28.321875 L526.667977,29.9753203 Z M524.663625,22.9188984 L524.697469,22.9188984 L524.923688,23.8139766 L525.739055,26.7249844 L523.575727,26.7249844 L524.425383,23.8139766 L524.663625,22.9188984 Z M536.092125,23.2021172 L536.047148,21.4805391 L529.647563,21.4805391 L529.601695,23.2021172 L531.878578,23.2021172 L531.878578,29.9753203 L533.804109,29.9753203 L533.804109,23.2021172 L536.092125,23.2021172 Z M538.515961,29.9753203 L540.464203,29.9753203 L540.464203,21.4800937 L538.515961,21.4800937 L538.515961,29.9753203 Z M550.72643,25.7279297 C550.72643,22.7038125 549.650555,21.3447187 546.988477,21.3447187 C544.337977,21.3447187 543.239391,22.7038125 543.239391,25.7279297 C543.239391,28.7524922 544.372266,30.1342969 546.988477,30.1342969 C549.650555,30.1342969 550.72643,28.8090469 550.72643,25.7279297 Z M548.733211,25.7279297 C548.733211,27.8689922 548.279883,28.4238516 546.999609,28.4238516 C545.708648,28.4238516 545.244188,27.880125 545.244188,25.7279297 C545.244188,23.5757344 545.69707,23.0547187 546.988477,23.0547187 C548.291016,23.0547187 548.733211,23.5757344 548.733211,25.7279297 Z M560.240531,29.9753203 L560.240531,21.4805391 L558.552797,21.4805391 L558.552797,25.7052187 L558.575953,26.6114297 L558.552797,26.6230078 L558.043359,25.8641953 L555.019242,21.4805391 L553.388063,21.4805391 L553.388063,29.9753203 L555.08693,29.9753203 L555.08693,25.5128437 L555.075797,24.5955 L555.098508,24.5839219 L555.608391,25.3427344 L558.904594,29.9753203 L560.240531,29.9753203 Z M568.622648,27.4267969 C568.622648,24.5500781 564.715031,25.1619375 564.715031,23.8362422 C564.715031,23.3833594 564.99825,23.020875 566.051414,23.020875 C566.697117,23.020875 567.399375,23.1566953 568.101633,23.3833594 L568.33943,21.7748906 C567.682594,21.50325 566.787516,21.3331406 565.961016,21.3331406 C563.80882,21.3331406 562.879898,22.4998594 562.879898,23.9382187 C562.879898,26.7815391 566.787516,26.2151016 566.787516,27.5514844 C566.787516,28.1406328 566.380055,28.4804062 565.451133,28.4804062 C564.613055,28.4804062 563.842664,28.2541875 563.09543,27.8574141 L562.846055,29.4997266 C563.582156,29.8965 564.488367,30.1342969 565.473844,30.1342969 C567.45593,30.1342969 568.622648,29.1033984 568.622648,27.4267969 Z M576.528727,27.4267969 C576.528727,24.5500781 572.621109,25.1619375 572.621109,23.8362422 C572.621109,23.3833594 572.903883,23.020875 573.957492,23.020875 C574.603195,23.020875 575.305453,23.1566953 576.007711,23.3833594 L576.245508,21.7748906 C575.588672,21.50325 574.694039,21.3331406 573.867094,21.3331406 C571.714898,21.3331406 570.785977,22.4998594 570.785977,23.9382187 C570.785977,26.7815391 574.694039,26.2151016 574.694039,27.5514844 C574.694039,28.1406328 574.285688,28.4804062 573.357211,28.4804062 C572.519133,28.4804062 571.748742,28.2541875 571.001063,27.8574141 L570.752133,29.4997266 C571.488234,29.8965 572.394445,30.1342969 573.379922,30.1342969 C575.362008,30.1342969 576.528727,29.1033984 576.528727,27.4267969 Z M584.933109,23.2021172 L584.887688,21.4805391 L578.488102,21.4805391 L578.44268,23.2021172 L580.719563,23.2021172 L580.719563,29.9753203 L582.645094,29.9753203 L582.645094,23.2021172 L584.933109,23.2021172 Z M589.146211,28.3107422 L589.146211,26.3736328 L592.283883,26.3736328 L592.283883,24.8560078 L589.146211,24.8560078 L589.146211,23.1682734 L592.873031,23.1682734 L592.839188,21.4805391 L587.232258,21.4805391 L587.232258,29.9753203 L593.008852,29.9753203 L593.054273,28.3107422 L589.146211,28.3107422 Z M597.528328,28.2541875 L597.528328,21.4805391 L595.602797,21.4805391 L595.602797,29.9753203 L600.983063,29.9753203 L601.028484,28.2541875 L597.528328,28.2541875 Z M605.320852,28.2541875 L605.320852,21.4805391 L603.39532,21.4805391 L603.39532,29.9753203 L608.776031,29.9753203 L608.821008,28.2541875 L605.320852,28.2541875 Z M613.102688,28.3107422 L613.102688,26.3736328 L616.239914,26.3736328 L616.239914,24.8560078 L613.102688,24.8560078 L613.102688,23.1682734 L616.829063,23.1682734 L616.795219,21.4805391 L611.188289,21.4805391 L611.188289,29.9753203 L616.964883,29.9753203 L617.010305,28.3107422 L613.102688,28.3107422 Z" id="Fill-84" fill="#231F20"></path>
                <path d="M474.881918,10.2280711 C474.881918,7.20395391 473.805598,5.84441484 471.143965,5.84441484 C468.493465,5.84441484 467.394879,7.20395391 467.394879,10.2280711 C467.394879,13.2521883 468.527309,14.6344383 471.143965,14.6344383 C473.805598,14.6344383 474.881918,13.3091883 474.881918,10.2280711 Z M472.888254,10.2280711 C472.888254,12.3686883 472.434926,12.923993 471.155543,12.923993 C469.864137,12.923993 469.399676,12.3802664 469.399676,10.2280711 C469.399676,8.07587578 469.853004,7.55486016 471.143965,7.55486016 C472.446504,7.55486016 472.888254,8.07587578 472.888254,10.2280711 Z M483.909293,8.89168828 C483.909293,6.90915703 482.946527,5.98068047 480.590824,5.98068047 L477.543551,5.98068047 L477.543551,14.4754617 L479.457949,14.4754617 L479.457949,11.7118523 L480.590824,11.7118523 C482.958105,11.7118523 483.909293,10.6809539 483.909293,8.89168828 Z M481.93834,8.88011016 C481.93834,9.94485234 481.530879,10.1826492 480.590824,10.1826492 L479.457949,10.1826492 L479.457949,7.57757109 L480.590824,7.57757109 C481.575855,7.57757109 481.93834,7.86078984 481.93834,8.88011016 Z M488.337926,12.8104383 L488.337926,10.8737742 L491.475152,10.8737742 L491.475152,9.35570391 L488.337926,9.35570391 L488.337926,7.66841484 L492.064301,7.66841484 L492.030457,5.98068047 L486.423527,5.98068047 L486.423527,14.4754617 L492.200566,14.4754617 L492.245543,12.8104383 L488.337926,12.8104383 Z M501.64698,14.4754617 L501.64698,5.98068047 L499.959246,5.98068047 L499.959246,10.2053602 L499.981957,11.1115711 L499.959246,11.1227039 L499.449363,10.3638914 L496.425246,5.98068047 L494.794066,5.98068047 L494.794066,14.4754617 L496.492934,14.4754617 L496.492934,10.0129852 L496.481801,9.09519609 L496.504512,9.08406328 L497.014395,9.84287578 L500.310598,14.4754617 L501.64698,14.4754617 Z M518.636988,10.1942273 C518.636988,7.26050859 517.515691,5.98068047 514.81977,5.98068047 L511.637121,5.98068047 L511.637121,14.4754617 L514.842926,14.4754617 C517.35716,14.4754617 518.636988,13.2637664 518.636988,10.1942273 Z M516.632191,10.1826492 C516.632191,12.3575555 516.111176,12.7765945 514.808637,12.7765945 L513.55152,12.7765945 L513.55152,7.69068047 L514.797504,7.69068047 C516.145465,7.69068047 516.632191,8.16671953 516.632191,10.1826492 Z M526.316848,14.4754617 L528.446332,14.4754617 L525.478324,5.98068047 L523.201887,5.98068047 L520.268168,14.4754617 L522.284543,14.4754617 L522.760137,12.8220164 L525.840809,12.8220164 L526.316848,14.4754617 Z M524.312051,7.41903984 L524.345895,7.41903984 L524.572559,8.31367266 L525.387926,11.2246805 L523.224598,11.2246805 L524.074254,8.31367266 L524.312051,7.41903984 Z M535.740996,7.70225859 L535.695574,5.98068047 L529.295988,5.98068047 L529.250566,7.70225859 L531.527004,7.70225859 L531.527004,14.4754617 L533.452535,14.4754617 L533.452535,7.70225859 L535.740996,7.70225859 Z M542.59391,14.4754617 L544.723395,14.4754617 L541.755387,5.98068047 L539.478949,5.98068047 L536.54523,14.4754617 L538.56116,14.4754617 L539.037199,12.8220164 L542.117871,12.8220164 L542.59391,14.4754617 Z M540.588668,7.41903984 L540.622512,7.41903984 L540.849621,8.31367266 L541.664988,11.2246805 L539.501215,11.2246805 L540.350871,8.31367266 L540.588668,7.41903984 Z" id="Fill-86" fill="#231F20"></path>
                <path d="M454.24961,13.8925922 C457.368579,13.8925922 459.896618,11.3641078 459.896618,8.24558437 C459.896618,5.12661562 457.368579,2.59857656 454.24961,2.59857656 C451.131087,2.59857656 448.602602,5.12661562 448.602602,8.24558437 C448.602602,11.3641078 451.131087,13.8925922 454.24961,13.8925922 Z M432.26186,9.41764687 C420.965173,9.41764687 411.807321,18.5759437 411.807321,29.8726312 C411.807321,41.1697641 420.965173,50.3271703 432.26186,50.3271703 C443.558993,50.3271703 452.716845,41.1697641 452.716845,29.8726312 C452.716845,18.5759437 443.558993,9.41764687 432.26186,9.41764687 Z M432.26186,35.2137094 C429.31211,35.2137094 426.921227,32.8223812 426.921227,29.8726312 C426.921227,26.9228812 429.31211,24.5315531 432.26186,24.5315531 C435.212055,24.5315531 437.602938,26.9228812 437.602938,29.8726312 C437.602938,32.8223812 435.212055,35.2137094 432.26186,35.2137094 Z" id="Stroke-87" stroke="#231F20" stroke-width="3.969"></path>
            </g>
        </g>
    </g>
</svg>