<svg xmlns="http://www.w3.org/2000/svg" width="89" height="30" viewBox="0 0 89 30">
  <g fill="none">
    <path fill="#000" d="M0,0 L0,30 L89,30 L89,0 L0,0 Z M59.3336822,29.4009737 L0.593410082,29.4009737 L0.593410082,0.600084668 L59.3336822,0.600084668 L59.3336822,29.4009737 Z M88.4065899,29.4009737 L59.9270922,29.4009737 L59.9270922,0.600084668 L88.4065899,0.600084668 L88.4065899,29.4009737 Z"/>
    <path fill="#E40422" d="M50.6722979,11.1073062 L50.6722979,17.2915814 C50.6722979,17.3718065 50.6152118,17.3975579 50.5718686,17.3183231 L46.8084142,11.0548131 C46.761838,10.9878942 46.6822545,10.9476312 46.5969842,10.9478461 L44.9795444,10.9478461 C44.9337849,10.9461729 44.8893432,10.9624013 44.8568615,10.9926452 C44.8243799,11.0228891 44.8067835,11.0644249 44.8082862,11.1073062 L44.8082862,20.1361102 C44.806482,20.1791603 44.8239453,20.2209609 44.8564617,20.2514253 C44.8889783,20.2818897 44.9335945,20.298251 44.9795444,20.2965607 L46.377097,20.2965607 C46.4230467,20.298251 46.4676631,20.2818897 46.5001795,20.2514253 C46.5326961,20.2209609 46.5501594,20.1791603 46.5483552,20.1361102 L46.5483552,13.9657011 C46.5483552,13.8854759 46.6054413,13.8587341 46.6487844,13.9389595 L50.4154104,20.1895938 C50.4619865,20.2565127 50.5415701,20.2967758 50.6268404,20.2965607 L52.2421658,20.2965607 C52.2880256,20.2979523 52.3324542,20.2814951 52.3648988,20.2510978 C52.3973437,20.2207006 52.4149094,20.1790759 52.4134242,20.1361102 L52.4134242,11.1073062 C52.4149094,11.0643406 52.3973437,11.0227158 52.3648988,10.9923186 C52.3324542,10.9619214 52.2880256,10.9454641 52.2421658,10.9468557 L50.8435562,10.9468557 C50.7976063,10.9451655 50.75299,10.9615266 50.7204735,10.9919911 C50.6879571,11.0224555 50.6704938,11.0642561 50.6722979,11.1073062 M40.5913143,20.2965607 L42.0036668,20.2965607 C42.0496167,20.298251 42.094233,20.2818897 42.1267495,20.2514253 C42.159266,20.2209609 42.1767292,20.1791603 42.1749252,20.1361102 L42.1749252,11.1073062 C42.1767292,11.0642561 42.159266,11.0224555 42.1267495,10.9919911 C42.094233,10.9615266 42.0496167,10.9451655 42.0036668,10.9468557 L40.5913143,10.9468557 C40.5454545,10.9454641 40.501026,10.9619214 40.4685812,10.9923186 C40.4361365,11.0227158 40.4185706,11.0643406 40.4200559,11.1073062 L40.4200559,20.1361102 C40.4185706,20.1790759 40.4361365,20.2207006 40.4685812,20.2510978 C40.501026,20.2814951 40.5454545,20.2979523 40.5913143,20.2965607 M34.9588184,18.6672954 L34.9588184,11.1073062 C34.9603037,11.0643406 34.9427378,11.0227158 34.9102932,10.9923186 C34.8778483,10.9619214 34.8334198,10.9454641 34.78756,10.9468557 L33.3752075,10.9468557 C33.3292576,10.9451655 33.2846413,10.9615266 33.2521248,10.9919911 C33.2196083,11.0224555 33.2021451,11.0642561 33.2039491,11.1073062 L33.2039491,20.1361102 C33.2021451,20.1791603 33.2196083,20.2209609 33.2521248,20.2514253 C33.2846413,20.2818897 33.3292576,20.298251 33.3752075,20.2965607 L38.2380981,20.2965607 C38.284048,20.298251 38.3286642,20.2818897 38.3611808,20.2514253 C38.3936972,20.2209609 38.4111605,20.1791603 38.4093563,20.1361102 L38.4093563,18.9079711 C38.4111605,18.864921 38.3936972,18.8231204 38.3611808,18.792656 C38.3286642,18.7621916 38.284048,18.7458303 38.2380981,18.7475206 L35.0444476,18.7475206 C35.0215738,18.7486528 34.9992493,18.7407037 34.9829523,18.7256237 C34.9666554,18.7105437 34.957894,18.6897285 34.9588184,18.6682858 M25.7298977,12.493915 L27.0291352,12.493915 C28.1846004,12.493915 29.1117211,13.0683672 29.1117211,14.256889 C29.1117211,15.4454108 28.1846004,16.0199145 27.0143352,16.0199145 L25.7298977,16.0199145 C25.7071032,16.0204269 25.6850772,16.0121222 25.6690539,15.9969224 C25.6530306,15.9817227 25.6444407,15.9609851 25.6453257,15.9396378 L25.6453257,12.5721593 C25.6421308,12.5503638 25.6500073,12.5284235 25.6666116,12.5128671 C25.6832159,12.4973107 25.7066341,12.4899312 25.7298977,12.4929245 M29.0408919,20.292599 L30.8380472,20.292599 C30.9807625,20.292599 31.0241056,20.1985077 30.9384764,20.094512 L28.7977474,17.3836919 C28.7812105,17.3652601 28.7747923,17.3406584 28.7803893,17.317158 C28.7859864,17.2936577 28.8029589,17.2739461 28.8262905,17.2638492 C30.0948706,16.7824979 30.9405907,15.7276848 30.9405907,14.2588699 C30.9405907,12.1789567 29.2565506,10.9457089 27.1168787,10.9457089 L24.0606577,10.9457089 C24.0146077,10.9444581 23.9700056,10.9610486 23.9375264,10.9916659 C23.9050472,11.0222832 23.887614,11.0641718 23.8893993,11.1073062 L23.8893993,20.1361102 C23.8879141,20.1790759 23.9054798,20.2207006 23.9379246,20.2510978 C23.9703693,20.2814951 24.0147979,20.2979523 24.0606577,20.2965607 L25.4740673,20.2965607 C25.5199272,20.2979523 25.5643557,20.2814951 25.5968005,20.2510978 C25.6292452,20.2207006 25.6468111,20.1790759 25.6453257,20.1361102 L25.6453257,17.6530901 C25.6441172,17.6316599 25.6526017,17.6107444 25.6686977,17.5954758 C25.6847935,17.5802073 25.7070107,17.5719989 25.7298977,17.5728648 L26.8145337,17.5728648 C26.8584079,17.576633 26.8991639,17.595725 26.928706,17.6263484 L28.836862,20.1905842 C28.8780157,20.2573733 28.9543526,20.2982414 29.0366633,20.2975681 M21.2919815,12.3374263 L21.2919815,11.1073062 C21.2934668,11.0643406 21.2759009,11.0227158 21.2434563,10.9923186 C21.2110114,10.9619214 21.1665829,10.9454641 21.1207231,10.9467015 L15.9311731,10.9467015 C15.8853135,10.9454641 15.8408848,10.9619214 15.8084401,10.9923186 C15.7759953,11.0227158 15.7584295,11.0643406 15.7599149,11.1073062 L15.7599149,20.1361102 C15.7584295,20.1790759 15.7759953,20.2207006 15.8084401,20.2510978 C15.8408848,20.2814951 15.8853135,20.2979523 15.9311731,20.2967149 L21.1249518,20.2967149 C21.1708115,20.2979523 21.21524,20.2814951 21.2476848,20.2510978 C21.2801295,20.2207006 21.2976954,20.1790759 21.2962101,20.1361102 L21.2962101,18.9079711 C21.2976954,18.8650054 21.2801295,18.8233807 21.2476848,18.7929835 C21.21524,18.7625864 21.1708115,18.746129 21.1249518,18.7475206 L17.5866702,18.7475206 C17.5637966,18.7486528 17.5414721,18.7407037 17.5251751,18.7256237 C17.508878,18.7105437 17.5001168,18.6897285 17.5010412,18.6682858 L17.5010412,16.4239604 C17.500139,16.4024354 17.5088708,16.3815351 17.5251289,16.3663029 C17.5413872,16.3510707 17.5636953,16.3428902 17.5866702,16.3437352 L21.1249518,16.3437352 C21.1709016,16.3454255 21.2155179,16.3290642 21.2480345,16.2985998 C21.2805509,16.2681354 21.2980142,16.2263349 21.2962101,16.1832848 L21.2962101,14.970002 C21.2976954,14.9270365 21.2801295,14.8854117 21.2476848,14.8550145 C21.21524,14.8246173 21.1708115,14.8081601 21.1249518,14.8095517 L17.5866702,14.8095517 C17.5632386,14.8128921 17.5394993,14.8056672 17.5226361,14.7900632 C17.5057727,14.7744592 17.4977669,14.7523097 17.5010412,14.7303168 L17.5010412,12.5771115 C17.5001168,12.5556689 17.508878,12.5348537 17.5251751,12.5197736 C17.5414721,12.5046936 17.5637966,12.4967444 17.5866702,12.4978767 L21.1249518,12.4978767 C21.1708115,12.4992683 21.21524,12.482811 21.2476848,12.4524138 C21.2801295,12.4220166 21.2976954,12.3803919 21.2962101,12.3374263 M10.1728764,18.7475206 L8.66009458,18.7475206 C8.63722083,18.7486528 8.61489643,18.7407037 8.5985994,18.7256237 C8.58230236,18.7105437 8.57354108,18.6897285 8.57446541,18.6682858 L8.57446541,16.4239604 C8.57128137,16.4019029 8.57927305,16.3797175 8.59607225,16.3639785 C8.61287146,16.3482395 8.63655125,16.3407521 8.66009458,16.3437352 L10.1728764,16.3437352 C11.0999971,16.3437352 11.613772,16.8389527 11.613772,17.5461232 C11.613772,18.2532936 11.0999971,18.7475206 10.1728764,18.7475206 M10.0301611,12.493915 C10.9287388,12.493915 11.4277136,12.9475341 11.4277136,13.641829 C11.4277136,14.3361238 10.9287388,14.803609 10.0301611,14.803609 L8.65586597,14.803609 C8.6324342,14.8069494 8.60869502,14.7997247 8.59183177,14.7841207 C8.57496851,14.7685167 8.56696269,14.7463671 8.57023682,14.7243743 L8.57023682,12.5771115 C8.56696269,12.5551186 8.57496851,12.5329691 8.59183177,12.5173651 C8.60869502,12.5017611 8.6324342,12.4945362 8.65586597,12.4978767 L10.0301611,12.493915 Z M12.1127469,15.4315448 C12.8403056,15.0152773 13.275536,14.2669556 13.254469,13.4685029 C13.254469,12.0393054 12.1973189,10.943718 10.2585056,10.943718 L7.00459748,10.943718 C6.95824923,10.942418 6.91338387,10.9593023 6.88099682,10.9903993 C6.84860978,11.0214964 6.83169442,11.063932 6.8343963,11.1073062 L6.8343963,20.1361102 C6.83261033,20.178982 6.84993186,20.220619 6.88221298,20.2510509 C6.91449409,20.2814825 6.95882776,20.2979685 7.00459748,20.2967181 L10.3874779,20.2967181 C12.3854916,20.2967181 13.4405275,19.1605319 13.4405275,17.6649753 C13.4405275,16.6903874 12.9415526,15.9554847 12.1138041,15.541483 C12.0567179,15.5018656 12.0567179,15.4612578 12.1138041,15.434516"/>
    <path fill="#000" d="M78.1533448,23.8534445 C78.1533448,23.8534445 77.6441985,20.4835213 77.4024825,19.0625558 L77.5053404,19.041026 C77.6038487,19.0198549 77.6862306,18.952949 77.7269314,18.861062 C77.7676322,18.769175 77.7617301,18.6634186 77.7110561,18.5765978 C77.1391663,17.5831522 76.9324222,16.3528791 76.9324222,15.1226059 C76.9336266,14.3896531 77.0573801,13.6620255 77.2985961,12.9696279 C77.3119675,12.9306692 77.3253391,12.8927358 77.3397392,12.8537771 L77.3685394,12.7707337 C77.6368365,12.1711538 77.8103236,11.5337637 77.8828286,10.8812392 C77.9595338,9.99584327 77.8146321,9.10531132 77.4611114,8.28946367 C77.4456827,8.26178252 77.4302541,8.23410137 77.4137969,8.20744546 C77.6277809,7.98628693 77.66419,7.64870156 77.5022546,7.38726333 C77.3140248,7.0632914 76.9272792,6.93411272 76.6382487,7.1001996 C76.6084198,7.11762847 76.5353909,7.16786463 76.5045335,7.19144485 C76.452076,7.1524862 76.4212186,7.13300688 76.4212186,7.13300688 C76.4212186,7.13300688 76.3399609,7.07969505 76.2700176,7.04381208 C76.2700176,7.04381208 76.2432745,7.03048412 76.2432745,7.02945889 C75.9397472,6.8958425 75.6113032,6.82771236 75.2794965,6.82946927 C75.1136372,6.82946927 74.948206,6.84631864 74.7857788,6.87977566 C74.4471152,6.95014582 74.1277805,7.09285363 73.8497723,7.29806853 C73.7533619,7.32747334 73.6540387,7.3463795 73.5535418,7.35445605 L73.1626819,7.37291015 C72.9785663,7.38008674 72.7687364,7.37291015 72.7687364,7.37291015 C72.6775011,7.37233323 72.6027658,7.44499709 72.601078,7.53592135 C72.601078,7.54412316 72.6617642,8.079292 72.6617642,8.08134245 C72.6689875,8.21457129 72.7367728,8.33724412 72.8458797,8.41454144 L72.8592513,8.42376848 C72.8859391,8.43806368 72.9075065,8.46027739 72.9209659,8.4873326 C72.9578633,8.59261869 73.0233868,8.68561444 73.1102244,8.75594225 C73.1369674,8.77234588 73.1791391,8.76414406 73.1863392,8.73441247 C73.2614254,8.44222259 73.4362839,8.75696747 73.7685146,8.57755264 C73.8538867,8.53141739 73.8991441,8.73851338 73.8631439,8.82873341 L73.8322865,8.90665071 C73.7635954,9.08090903 73.606669,9.20525905 73.4208552,9.2326731 C73.2737684,9.25420288 73.189425,9.26855607 73.1914821,9.28906061 C73.2089679,9.45412227 73.1914821,9.59662891 73.3581118,9.69915168 C73.3813482,9.71211127 73.4058094,9.72275673 73.4311409,9.73093374 C73.6893141,9.79859875 74.4432621,10.0866877 73.484627,11.2134129 C73.4276162,11.2789471 73.374058,11.3473877 73.3241687,11.4184584 C73.3037367,11.4470939 73.286167,11.4776548 73.2717113,11.5097037 L73.2511397,11.5496876 L70.3711198,10.4762742 C70.2715594,10.4299458 70.1852633,10.3594417 70.1201467,10.2712287 L69.8362591,9.7852708 C69.7016458,9.56322455 69.4608777,9.42692313 69.2005975,9.4254159 C69.0670876,9.4149707 68.9329618,9.4149707 68.7994519,9.4254159 C68.7140799,9.4254159 68.6647081,9.45002136 68.6461937,9.50025752 C68.6227454,9.62382496 68.6450372,9.75167565 68.7089369,9.86011242 L68.9557958,10.3122378 C68.977396,10.3440199 69.2890552,11.0391242 69.2890552,11.0391242 C69.3205684,11.1245989 69.3741421,11.2002771 69.4443706,11.2585229 L72.3984481,13.4822417 L69.2828838,15.0313607 C69.1930687,15.0798793 69.0875178,15.0905846 68.9897389,15.0610922 L68.7109942,14.9770236 C68.1967048,14.7504483 67.8171594,14.9083333 67.5919008,15.0959501 L67.5044716,15.1789935 C67.4666983,15.2128688 67.4489831,15.2636793 67.4575395,15.3136026 C67.4660959,15.3635259 67.4997297,15.4055928 67.5466433,15.4250481 C67.5466433,15.4250481 68.0383039,15.7131371 68.1473332,15.7869534 L68.9125955,16.2390789 C69.0316422,16.3077163 69.171849,16.330339 69.306541,16.3026429 L72.3315905,15.6946829 C72.3797853,16.4099521 72.5018021,17.118367 72.6957073,17.8087024 C71.8955606,18.5910696 71.3568122,19.6002589 71.1528394,20.6988191 C71.0067814,21.5128499 71.0499816,22.2499885 71.2772974,23.1173311 C70.8545518,23.1409113 70.4472346,23.202425 70.1088324,23.4372021 C69.7704299,23.6719792 69.7200297,24.0584901 69.7179725,24.2573843 L72.0837031,24.2625104 L72.2832473,24.2625104 C72.4296035,24.2545345 72.5541705,24.1535501 72.5918208,24.0123548 C72.6129254,23.9322942 72.6277136,23.8507106 72.6360497,23.7683506 C72.7108368,23.1386208 72.8986264,22.5274277 73.1904536,21.96395 C73.4442986,21.49147 73.7608635,21.0552405 74.1316028,20.667037 C74.8523508,21.657031 75.7609412,22.4964807 76.8059069,23.1378356 C76.4640474,23.1610052 76.1300199,23.2505088 75.822586,23.4013192 C75.5175611,23.5843485 75.3315948,23.9137917 75.3329825,24.2686633 L77.7799708,24.2686633 C77.9421381,24.2690006 78.086505,24.1663351 78.1389447,24.0133801 C78.1440173,23.9979247 78.1481392,23.9821752 78.1512877,23.9662195 C78.1512877,23.9549421 78.1512877,23.9426394 78.1512877,23.9313619 C78.1551371,23.9055684 78.1558278,23.8794041 78.1533448,23.8534445 Z"/>
  </g>
</svg>
