<svg xmlns="http://www.w3.org/2000/svg" width="143" height="36" viewBox="0 0 143 36">
  <g fill="none" fill-rule="evenodd" transform="translate(1.133 .634)">
    <path fill="#404040" fill-rule="nonzero" d="M50.7282768,6.40203337 C50.7282768,8.45399006 50.0145379,9.3366332 48.2489734,9.3366332 C46.513461,9.3366332 45.7621569,8.41627025 45.7621569,6.40203337 C45.7621569,4.38779645 46.4909219,3.48252145 48.2489734,3.48252145 C50.0145379,3.48252145 50.7282768,4.38779645 50.7282768,6.40203337 Z M49.4059816,6.40203337 C49.4059816,4.96868127 49.112973,4.62165918 48.2489734,4.62165918 C47.3924867,4.62165918 47.0919651,4.96868127 47.0919651,6.40203337 C47.0919651,7.83538547 47.3999998,8.19749547 48.2564864,8.19749547 C49.10546,8.19749547 49.4059816,7.82784151 49.4059816,6.40203337 Z M56.4824311,5.51184627 C56.4824311,6.70379169 55.8513357,7.39029191 54.2811102,7.39029191 L53.5298061,7.39029191 L53.5298061,9.23101777 L52.2601023,9.23101777 L52.2601023,3.57304894 L54.2811102,3.57304894 C55.8438226,3.57304894 56.4824311,4.19165353 56.4824311,5.51184627 Z M55.175162,5.50430232 C55.175162,4.82534606 54.9347447,4.63674709 54.2811102,4.63674709 L53.5298061,4.63674709 L53.5298061,6.37185752 L54.2811102,6.37185752 C54.9046925,6.37185752 55.175162,6.2134344 55.175162,5.50430232 Z M59.1862909,8.12205588 L61.7782899,8.12205588 L61.7482377,9.23101777 L57.916587,9.23101777 L57.916587,3.57304894 L61.6355421,3.57304894 L61.6580812,4.69709876 L59.1862909,4.69709876 L59.1862909,5.82114856 L61.2674031,5.82114856 L61.2674031,6.83203899 L59.1862909,6.83203899 L59.1862909,8.12205588 Z M67.7803745,9.23101777 L66.8938357,9.23101777 L64.7075409,6.14553878 L64.3694541,5.64009357 L64.354428,5.64763753 L64.3619411,6.25869816 L64.3619411,9.23101777 L63.234985,9.23101777 L63.234985,3.57304894 L64.3168628,3.57304894 L66.3228447,6.49256086 L66.6609315,6.99800609 L66.6759576,6.99046211 L66.6609315,6.38694546 L66.6609315,3.57304894 L67.7803745,3.57304894 L67.7803745,9.23101777 Z M78.5824573,6.37940147 C78.5824573,8.42381424 77.7334837,9.23101777 76.0655887,9.23101777 L73.9393983,9.23101777 L73.9393983,3.57304894 L76.0505627,3.57304894 C77.8386663,3.57304894 78.5824573,4.42551626 78.5824573,6.37940147 Z M77.2526491,6.37185752 C77.2526491,5.02903294 76.9295884,4.71218667 76.0355366,4.71218667 L75.2091021,4.71218667 L75.2091021,8.09942402 L76.0430496,8.09942402 C76.9070493,8.09942402 77.2526491,7.82029756 77.2526491,6.37185752 Z M83.4425598,9.23101777 L83.1270121,8.12959984 L81.0834651,8.12959984 L80.7679174,9.23101777 L79.4305961,9.23101777 L81.3764736,3.57304894 L82.8865948,3.57304894 L84.8550114,9.23101777 L83.4425598,9.23101777 Z M82.1127516,4.53113166 L81.9549778,5.12710438 L81.3914997,7.06590172 L82.8264905,7.06590172 L82.2855516,5.12710438 L82.1352907,4.53113166 L82.1127516,4.53113166 Z M89.4596705,4.71973063 L87.9420363,4.71973063 L87.9420363,9.23101777 L86.6648194,9.23101777 L86.6648194,4.71973063 L85.1546983,4.71973063 L85.1847504,3.57304894 L89.4296184,3.57304894 L89.4596705,4.71973063 Z M93.771321,9.23101777 L93.4557733,8.12959984 L91.4122263,8.12959984 L91.0966786,9.23101777 L89.7593574,9.23101777 L91.7052349,3.57304894 L93.215356,3.57304894 L95.1837727,9.23101777 L93.771321,9.23101777 Z M92.4415129,4.53113166 L92.283739,5.12710438 L91.720261,7.06590172 L93.1552517,7.06590172 L92.6143128,5.12710438 L92.464052,4.53113166 L92.4415129,4.53113166 Z M46.0551655,19.7087378 L46.0551655,14.050769 L47.3474085,14.050769 L47.3474085,19.7087378 L46.0551655,19.7087378 Z M53.7101191,19.7087378 L52.8235803,19.7087378 L50.6372855,16.6232588 L50.2991987,16.1178136 L50.2841726,16.1253576 L50.2916856,16.7364182 L50.2916856,19.7087378 L49.1647295,19.7087378 L49.1647295,14.050769 L50.2466074,14.050769 L52.2525892,16.9702809 L52.590676,17.4757261 L52.6057021,17.4681822 L52.590676,16.8646655 L52.590676,14.050769 L53.7101191,14.050769 L53.7101191,19.7087378 Z M59.1862909,15.1974507 L56.7145005,15.1974507 L56.7145005,16.419572 L58.7730737,16.419572 L58.7580476,17.505902 L56.7145005,17.505902 L56.7145005,19.7087378 L55.4523097,19.7087378 L55.4523097,14.050769 L59.1637518,14.050769 L59.1862909,15.1974507 Z M65.2484799,16.8797534 C65.2484799,18.9317101 64.534741,19.8143533 62.7691765,19.8143533 C61.0336641,19.8143533 60.28236,18.8939903 60.28236,16.8797534 C60.28236,14.8655165 61.011125,13.9602415 62.7691765,13.9602415 C64.534741,13.9602415 65.2484799,14.8655165 65.2484799,16.8797534 Z M63.9261847,16.8797534 C63.9261847,15.4464013 63.6331761,15.0993792 62.7691765,15.0993792 C61.9126898,15.0993792 61.6121682,15.4464013 61.6121682,16.8797534 C61.6121682,18.3131055 61.9202029,18.6752155 62.7766895,18.6752155 C63.6256631,18.6752155 63.9261847,18.3055616 63.9261847,16.8797534 Z M70.9425298,15.8085113 C70.9425298,16.600627 70.604443,17.1588799 69.9958867,17.3474789 L71.3106688,19.7087378 L69.8305998,19.7087378 L68.8463915,17.5964295 L68.0500092,17.5964295 L68.0500092,19.7087378 L66.7803054,19.7087378 L66.7803054,14.050769 L68.8463915,14.050769 C70.2438171,14.050769 70.9425298,14.601478 70.9425298,15.8085113 Z M69.6202347,15.861319 C69.6202347,15.2879782 69.4098696,15.1069232 68.8539046,15.1069232 L68.0500092,15.1069232 L68.0500092,16.6458907 L68.8313654,16.6458907 C69.3948435,16.6458907 69.6202347,16.4723797 69.6202347,15.861319 Z M72.5569988,14.050769 L73.9544243,14.050769 L75.2616934,17.3550228 L75.4720585,17.9208197 L75.4945977,17.9208197 L75.7049628,17.3550228 L77.0197449,14.050769 L78.4171704,14.050769 L78.4171704,19.7087378 L77.2601622,19.7087378 L77.2601622,16.8269457 L77.2751883,16.2158851 L77.2526491,16.2083411 L77.042284,16.781682 L75.8852758,19.7087378 L75.0438152,19.7087378 L73.89432,16.7892259 L73.6839549,16.2158851 L73.6689288,16.223429 L73.6764418,16.8344897 L73.6764418,19.7087378 L72.5569988,19.7087378 L72.5569988,14.050769 Z M83.6754641,19.7087378 L83.3599164,18.6073199 L81.3163693,18.6073199 L81.0008216,19.7087378 L79.6635004,19.7087378 L81.6093779,14.050769 L83.1194991,14.050769 L85.0879157,19.7087378 L83.6754641,19.7087378 Z M82.3456559,15.0088517 L82.187882,15.6048245 L81.624404,17.5436218 L83.0593947,17.5436218 L82.5184558,15.6048245 L82.368195,15.0088517 L82.3456559,15.0088517 Z M89.6925748,15.1974507 L88.1749406,15.1974507 L88.1749406,19.7087378 L86.8977237,19.7087378 L86.8977237,15.1974507 L85.3876025,15.1974507 L85.4176547,14.050769 L89.6625226,14.050769 L89.6925748,15.1974507 Z M91.0666264,19.7087378 L91.0666264,14.050769 L92.3588694,14.050769 L92.3588694,19.7087378 L91.0666264,19.7087378 Z M98.9319451,16.8797534 C98.9319451,18.9317101 98.2182063,19.8143533 96.4526417,19.8143533 C94.7171294,19.8143533 93.9658253,18.8939903 93.9658253,16.8797534 C93.9658253,14.8655165 94.6945903,13.9602415 96.4526417,13.9602415 C98.2182063,13.9602415 98.9319451,14.8655165 98.9319451,16.8797534 Z M97.60965,16.8797534 C97.60965,15.4464013 97.3166414,15.0993792 96.4526417,15.0993792 C95.5961551,15.0993792 95.2956335,15.4464013 95.2956335,16.8797534 C95.2956335,18.3131055 95.6036682,18.6752155 96.4601548,18.6752155 C97.3091284,18.6752155 97.60965,18.3055616 97.60965,16.8797534 Z M105.00916,19.7087378 L104.122621,19.7087378 L101.936327,16.6232588 L101.59824,16.1178136 L101.583214,16.1253576 L101.590727,16.7364182 L101.590727,19.7087378 L100.463771,19.7087378 L100.463771,14.050769 L101.545648,14.050769 L103.55163,16.9702809 L103.889717,17.4757261 L103.904743,17.4681822 L103.889717,16.8646655 L103.889717,14.050769 L105.00916,14.050769 L105.00916,19.7087378 Z M110.335071,18.0113472 C110.335071,19.127853 109.561228,19.8143533 108.246446,19.8143533 C107.592811,19.8143533 106.991768,19.6559301 106.50342,19.3918916 L106.668707,18.2980176 C107.164568,18.5620561 107.675455,18.7129353 108.23142,18.7129353 C108.847489,18.7129353 109.117959,18.4866166 109.117959,18.0943307 C109.117959,17.2041436 106.52596,17.5813416 106.52596,15.687808 C106.52596,14.7297253 107.142029,13.9526976 108.569507,13.9526976 C109.117959,13.9526976 109.711489,14.0658569 110.147245,14.2469119 L109.989471,15.318154 C109.523663,15.1672748 109.057854,15.0767474 108.629611,15.0767474 C107.930898,15.0767474 107.743072,15.318154 107.743072,15.6199124 C107.743072,16.5025555 110.335071,16.0951817 110.335071,18.0113472 Z M115.345434,18.0113472 C115.345434,19.127853 114.571591,19.8143533 113.256809,19.8143533 C112.603175,19.8143533 112.002131,19.6559301 111.513784,19.3918916 L111.679071,18.2980176 C112.174931,18.5620561 112.685818,18.7129353 113.241783,18.7129353 C113.857852,18.7129353 114.128322,18.4866166 114.128322,18.0943307 C114.128322,17.2041436 111.536323,17.5813416 111.536323,15.687808 C111.536323,14.7297253 112.152392,13.9526976 113.57987,13.9526976 C114.128322,13.9526976 114.721852,14.0658569 115.157608,14.2469119 L114.999835,15.318154 C114.534026,15.1672748 114.068218,15.0767474 113.639974,15.0767474 C112.941261,15.0767474 112.753435,15.318154 112.753435,15.6199124 C112.753435,16.5025555 115.345434,16.0951817 115.345434,18.0113472 Z M120.686372,15.1974507 L119.168737,15.1974507 L119.168737,19.7087378 L117.89152,19.7087378 L117.89152,15.1974507 L116.381399,15.1974507 L116.411451,14.050769 L120.656319,14.050769 L120.686372,15.1974507 Z M123.247484,18.599776 L125.839483,18.599776 L125.809431,19.7087378 L121.97778,19.7087378 L121.97778,14.050769 L125.696735,14.050769 L125.719274,15.1748188 L123.247484,15.1748188 L123.247484,16.2988686 L125.328596,16.2988686 L125.328596,17.3097591 L123.247484,17.3097591 L123.247484,18.599776 Z M128.573395,18.5620561 L130.894924,18.5620561 L130.864872,19.7087378 L127.296178,19.7087378 L127.296178,14.050769 L128.573395,14.050769 L128.573395,18.5620561 Z M133.508628,18.5620561 L135.830157,18.5620561 L135.800105,19.7087378 L132.231411,19.7087378 L132.231411,14.050769 L133.508628,14.050769 L133.508628,18.5620561 Z M138.436348,18.599776 L141.028347,18.599776 L140.998294,19.7087378 L137.166644,19.7087378 L137.166644,14.050769 L140.885599,14.050769 L140.908138,15.1748188 L138.436348,15.1748188 L138.436348,16.2988686 L140.51746,16.2988686 L140.51746,17.3097591 L138.436348,17.3097591 L138.436348,18.599776 Z M50.037077,28.6022266 C50.037077,29.6055731 49.5712685,30.186458 48.3391299,30.186458 L46.2730437,30.186458 L46.2730437,24.5284891 L48.2264342,24.5284891 C49.2707469,24.5284891 49.7966597,24.9735826 49.7966597,25.9165774 C49.7966597,26.6558853 49.4435468,27.0481712 48.9702253,27.1839624 L48.9702253,27.1990504 C49.6313728,27.3348416 50.037077,27.7648473 50.037077,28.6022266 Z M49.5487294,28.5645069 C49.5487294,27.7950231 49.1430252,27.440457 48.3165907,27.440457 L46.7463653,27.440457 L46.7463653,29.7489083 L48.3466429,29.7489083 C49.097947,29.7489083 49.5487294,29.4396062 49.5487294,28.5645069 Z M49.3233382,25.999561 C49.3233382,25.267797 48.9702253,24.9735826 48.2114082,24.9735826 L46.7538783,24.9735826 L46.7538783,27.0330833 L48.2715125,27.0330833 C48.9777383,27.0330833 49.3233382,26.6860612 49.3233382,25.999561 Z M52.5681369,29.7187326 L55.5583271,29.7187326 L55.535788,30.186458 L52.0797893,30.186458 L52.0797893,24.5284891 L55.4005532,24.5284891 L55.4230923,24.9962145 L52.5681369,24.9962145 L52.5681369,27.0104514 L55.0399273,27.0104514 L55.0399273,27.4329131 L52.5681369,27.4329131 L52.5681369,29.7187326 Z M60.9293163,26.0599126 C60.9293163,26.9802756 60.508586,27.4630889 59.7272298,27.5536164 L61.2974553,30.186458 L60.696412,30.186458 L59.2539083,27.6441439 L57.9466392,27.6441439 L57.9466392,30.186458 L57.4507785,30.186458 L57.4507785,24.5284891 L59.2764474,24.5284891 C60.4109165,24.5284891 60.9293163,25.0263903 60.9293163,26.0599126 Z M60.4184295,26.0825445 C60.4184295,25.2904289 60.0653166,24.9735826 59.2764474,24.9735826 L57.9466392,24.9735826 L57.9466392,27.2367702 L59.2313691,27.2367702 C60.0502906,27.2367702 60.4184295,26.904836 60.4184295,26.0825445 Z M63.5129675,29.7036445 L66.3078186,29.7036445 L66.2852795,30.186458 L63.0171068,30.186458 L63.0171068,24.5284891 L63.5129675,24.5284891 L63.5129675,29.7036445 Z M68.1176266,30.186458 L68.1176266,24.5284891 L68.6134873,24.5284891 L68.6134873,30.186458 L68.1176266,30.186458 Z M75.1264587,30.186458 L74.7583197,30.186458 L71.8432599,25.810962 L71.5126861,25.2979728 L71.4976601,25.3055168 L71.5051731,25.9165774 L71.5051731,30.186458 L71.0543907,30.186458 L71.0543907,24.5284891 L71.5427383,24.5284891 L74.3601285,28.7983695 L74.6907023,29.3113588 L74.7057284,29.3038149 L74.6907023,28.7002982 L74.6831893,24.5284891 L75.1264587,24.5284891 L75.1264587,30.186458 Z"/>
    <ellipse cx="14.992" cy="19.945" stroke="#404040" stroke-width="1.95" transform="rotate(-90 14.992 19.945)" rx="14.311" ry="14.37"/>
    <ellipse cx="31.023" cy="4.158" stroke="#404040" stroke-width="1.95" transform="rotate(-90 31.023 4.158)" rx="3.595" ry="3.61"/>
  </g>
</svg>
