    <svg style="transform: translateY(2px)" xmlns="http://www.w3.org/2000/svg" width="21" height="17" viewBox="0 0 21 17">
    <path  class="icon-svg-path icon-twitter" fill="#000000" d="M18.1273824,4.08954253 C18.1402074,4.26901297 18.1402074,4.44852287 18.1402074,4.62799331 C18.1402074,10.1020785 13.9737546,16.4095094 6.3586913,16.4095094 C4.01263227,16.4095094 1.83325817,15.7300236 0,14.5506408 C0.33333043,14.5890762 0.653796444,14.6019011 0.999951828,14.6019011 C2.93573071,14.6019011 4.71772853,13.9481047 6.140746,12.8327677 C4.32031279,12.7942929 2.79473514,11.6020457 2.26910931,9.96108287 C2.52552948,9.99951828 2.78191018,10.0251682 3.0511553,10.0251682 C3.42292113,10.0251682 3.79472642,9.97386837 4.14084235,9.88417261 C2.24349887,9.49954236 0.820441928,7.83296914 0.820441928,5.82024053 L0.820441928,5.76898017 C1.3716782,6.07666069 2.01272861,6.26895609 2.6921355,6.29456653 C1.57679854,5.55099541 0.846091837,4.28183792 0.846091837,2.84599549 C0.846091837,2.07681392 1.05117272,1.37171766 1.41015306,0.756356617 C3.44853158,3.26906114 6.51251183,4.90998446 9.94821846,5.08949436 C9.88413315,4.78181384 9.84565829,4.46134782 9.84565829,4.14084235 C9.84565829,1.85886862 11.6917414,0 13.9865006,0 C15.1787479,0 16.2556099,0.499975914 17.012006,1.30763235 C17.9478331,1.12816191 18.8452247,0.782006526 19.6400957,0.307680521 C19.3323757,1.26919695 18.6785793,2.07685338 17.8196625,2.58961479 C18.6529688,2.49991903 19.4606252,2.26910931 20.2041569,1.9486433 C19.6401746,2.76908523 18.9350389,3.49979194 18.1273824,4.08954253 Z"/>
</svg>