<svg viewBox="0 0 254 190" version="1.1" xmlns="http://www.w3.org/2000/svg" xmlns:xlink="http://www.w3.org/1999/xlink"><g stroke="none" stroke-width="1" fill="none" fill-rule="evenodd" transform="translate(-1875.000000, -2479.000000)" stroke-linecap="round" stroke-linejoin="round"><g transform="translate(1875.000000, 2478.000000)" fill="#000000" fill-rule="nonzero" stroke-width="7"><g id="logo" transform="translate(128.500000, 100.500000) rotate(4.000000) translate(-128.500000, -100.500000) translate(7.000000, 9.000000)"><path d="M0.316967317,116.55394 L61.6724044,179.221053" stroke="#6ECDF5"></path><path d="M61.6724044,179.221053 L232.546021,4.8771611" stroke="#6ECDF5"></path><path d="M0.316967317,116.55394 L233.101334,4.23466223" stroke="#6ECDF5"></path><path d="M1.51109571,116.469957 L203.326978,154.172387" stroke="#6ECDF5"></path><path d="M233.101334,4.23466223 L203.285227,153.57188" stroke="#6ECDF5"></path><path d="M203.924042,154.130395 L239.525752,116.998677" stroke="#6ECDF5"></path><path d="M239.525752,116.998677 L78.6538161,0.61431818" stroke="#6ECDF5"></path><path d="M16.3120027,125.946118 L78.6538161,0.61431818" stroke="#6ECDF5"></path><path d="M15.6568751,125.27333 L43.1256029,182.634752" stroke="#E60433"></path><path d="M43.1256029,182.634752 L200.909747,6.01962679" stroke="#E60433"></path><path d="M15.6568751,125.27333 L200.909747,6.01962679" stroke="#E60433"></path><path d="M15.6568751,125.27333 L221.975051,144.339786" stroke="#E60433"></path><path d="M200.909747,6.01962679 L221.975051,144.339786" stroke="#E60433"></path><path d="M221.975051,144.339786 L242.948866,114.17657" stroke="#E60433"></path><path d="M242.948866,114.17657 L73.0003868,18.307288" stroke="#E60433"></path><path d="M15.6568751,125.27333 L73.0003868,18.307288" stroke="#E60433"></path></g></g></g></svg>