
<svg width="73px" height="54px" viewBox="0 0 73 54" version="1.1" xmlns="http://www.w3.org/2000/svg" xmlns:xlink="http://www.w3.org/1999/xlink">
    <g id="Page-1" stroke="none" stroke-width="2" fill="none" fill-rule="evenodd">
        <path d="M0.0200602486,33.8456613 L18.199449,51.9951531" id="Path" stroke="#6ECDF5" fill="#000000" transform="translate(9.109755, 42.920407) rotate(4.000000) translate(-9.109755, -42.920407) "></path>
        <path d="M19.2437278,54.4344697 L69.8729475,3.94142993" id="Path" stroke="#6ECDF5" fill="#000000" transform="translate(44.558338, 29.187950) rotate(4.000000) translate(-44.558338, -29.187950) "></path>
        <path d="M1.72579303,35.6789839 L70.6989387,3.14935703" id="Path" stroke="#6ECDF5" fill="#000000" transform="translate(36.212366, 19.414170) rotate(4.000000) translate(-36.212366, -19.414170) "></path>
        <path d="M0.576198238,35.3064441 L60.3734967,46.2257271" id="Path" stroke="#6ECDF5" fill="#000000" transform="translate(30.474847, 40.766086) rotate(4.000000) translate(-30.474847, -40.766086) "></path>
        <path d="M70.2517601,5.23383241 L61.4173581,48.4845021" id="Path" stroke="#6ECDF5" fill="#000000" transform="translate(65.834559, 26.859167) rotate(4.000000) translate(-65.834559, -26.859167) "></path>
        <path d="M60.4593774,48.6792771 L71.0080322,37.9252822" id="Path" stroke="#6ECDF5" fill="#000000" transform="translate(65.733705, 43.302280) rotate(4.000000) translate(-65.733705, -43.302280) "></path>
        <path d="M72.6039591,36.6848554 L24.9382003,2.97790999" id="Path" stroke="#6ECDF5" fill="#000000" transform="translate(48.771080, 19.831383) rotate(4.000000) translate(-48.771080, -19.831383) "></path>
        <path d="M6.45672441,36.9662785 L24.9283728,0.667997649" id="Path" stroke="#6ECDF5" fill="#000000" transform="translate(15.692549, 18.817138) rotate(4.000000) translate(-15.692549, -18.817138) "></path>
        <path d="M4.44381487,36.3335282 L12.5826972,52.9463991" id="Path" stroke="#E60433" fill="#000000" transform="translate(8.513256, 44.639964) rotate(4.000000) translate(-8.513256, -44.639964) "></path>
        <path d="M13.7204659,54.9029228 L60.4713234,3.75209422" id="Path" stroke="#E60433" fill="#000000" transform="translate(37.095895, 29.327509) rotate(4.000000) translate(-37.095895, -29.327509) "></path>
        <path d="M6.17092422,38.0264161 L61.060664,3.48845842" id="Path" stroke="#E60433" fill="#000000" transform="translate(33.615794, 20.757437) rotate(4.000000) translate(-33.615794, -20.757437) "></path>
        <path d="M4.76610217,38.1953192 L65.8974136,43.7172983" id="Path" stroke="#E60433" fill="#000000" transform="translate(35.331758, 40.956309) rotate(4.000000) translate(-35.331758, -40.956309) "></path>
        <path d="M60.7936107,5.61388515 L67.0351823,45.673822" id="Path" stroke="#E60433" fill="#000000" transform="translate(63.914397, 25.643854) rotate(4.000000) translate(-63.914397, -25.643854) "></path>
        <path d="M65.9274803,46.0701145 L72.141944,37.3343197" id="Path" stroke="#E60433" fill="#000000" transform="translate(69.034712, 41.702217) rotate(4.000000) translate(-69.034712, -41.702217) "></path>
        <path d="M73.4688043,35.8392295 L23.1136993,8.07380905" id="Path" stroke="#E60433" fill="#000000" transform="translate(48.291252, 21.956519) rotate(4.000000) translate(-48.291252, -21.956519) "></path>
        <path d="M6.0929624,36.700229 L23.0836325,5.7209928" id="Path" stroke="#E60433" fill="#000000" transform="translate(14.588297, 21.210611) rotate(4.000000) translate(-14.588297, -21.210611) "></path>
    </g>
</svg>