<?xml version="1.0" encoding="UTF-8"?>
<svg width="870px" height="298px" viewBox="0 0 870 298" version="1.1" xmlns="http://www.w3.org/2000/svg" xmlns:xlink="http://www.w3.org/1999/xlink">
    <!-- Generator: Sketch 53 (72520) - https://sketchapp.com -->
    <title>A4</title>
    <desc>Created with Sketch.</desc>
    <g id="A4" stroke="none" stroke-width="1" fill="none" fill-rule="evenodd">
        <path d="M120.193994,137.522 C122.694994,137.522 123.842994,138.998 123.842994,141.376 C123.842994,143.549 121.874994,147.649 120.111994,149.945 L117.815994,149.371 L118.881994,144.41 C117.774994,143.918 116.667994,142.688 116.667994,141.171 C116.667994,139.08 117.651994,137.522 120.193994,137.522 Z M111.255994,137.522 C113.756994,137.522 114.904994,138.998 114.904994,141.376 C114.904994,143.549 112.936994,147.649 111.173994,149.945 L108.877994,149.371 L109.943994,144.41 C108.836994,143.918 107.729994,142.688 107.729994,141.171 C107.729994,139.08 108.713994,137.522 111.255994,137.522 Z M154.170694,128.502 C154.170694,139.613 149.537694,144 140.435694,144 L128.832694,144 L128.832694,113.25 L140.353694,113.25 C150.111694,113.25 154.170694,117.883 154.170694,128.502 Z M146.913694,128.461 C146.913694,121.163 145.150694,119.441 140.271694,119.441 L135.761694,119.441 L135.761694,137.85 L140.312694,137.85 C145.027694,137.85 146.913694,136.333 146.913694,128.461 Z M170.230395,144.451 C161.661395,144.451 157.848395,139.941 157.848395,131.249 C157.848395,123.336 161.333395,118.703 168.795395,118.703 C175.150395,118.703 179.045395,122.393 179.045395,130.265 C179.045395,131.208 179.004395,132.397 178.881395,133.258 L164.408395,133.258 C164.736395,137.399 166.745395,138.957 171.009395,138.957 C173.346395,138.957 175.519395,138.547 177.651395,137.727 L178.348395,142.852 C176.257395,143.795 173.387395,144.451 170.230395,144.451 Z M164.285395,129.035 L173.223395,129.035 C173.141395,125.386 171.501395,123.992 168.836395,123.992 C165.761395,123.992 164.572395,125.427 164.285395,129.035 Z M217.286095,144 L210.931095,144 L210.931095,128.133 C210.931095,125.55 209.537095,124.32 207.200095,124.32 C205.068095,124.32 203.551095,125.509 203.551095,127.928 L203.551095,144 L197.196095,144 L197.196095,127.928 C197.196095,125.386 195.802095,124.32 193.588095,124.32 C192.071095,124.32 190.595095,125.058 189.857095,126.206 L189.857095,144 L183.461095,144 L183.461095,119.318 L188.053095,118.99 L189.078095,121.327 C190.800095,119.687 193.096095,118.703 195.392095,118.703 C198.508095,118.703 200.640095,119.769 201.952095,122.024 C203.633095,119.728 206.093095,118.703 208.922095,118.703 C213.842095,118.703 217.286095,121.819 217.286095,128.01 L217.286095,144 Z M244.251796,131.659 C244.251796,140.802 240.807796,144.574 232.894796,144.574 C225.022796,144.574 221.496796,140.802 221.496796,131.659 C221.496796,122.557 225.022796,118.703 232.894796,118.703 C240.807796,118.703 244.251796,122.557 244.251796,131.659 Z M228.097796,131.659 C228.097796,137.768 229.409796,139.367 232.894796,139.367 C236.379796,139.367 237.650796,137.727 237.650796,131.659 C237.650796,125.591 236.379796,123.951 232.894796,123.951 C229.368796,123.951 228.097796,125.591 228.097796,131.659 Z M255.227496,111.774 L255.227496,128.133 L258.466496,128.133 L263.632496,119.154 L270.684496,119.154 L263.919496,130.429 L270.930496,144 L263.755496,144 L258.466496,133.299 L255.227496,133.299 L255.227496,144 L248.872496,144 L248.872496,112.061 L255.227496,111.774 Z M280.840196,144 L274.444196,144 L274.444196,119.318 L279.528196,119.072 L280.102196,123.213 L280.225196,123.213 C281.783196,120.22 284.202196,118.744 287.031196,118.744 C288.138196,118.744 289.081196,118.908 289.737196,119.113 L289.327196,125.386 C288.548196,125.14 287.605196,124.976 286.621196,124.976 C283.300196,124.976 280.840196,127.395 280.840196,131.536 L280.840196,144 Z M306.944897,144 L306.452897,141.622 L306.329897,141.581 C304.812897,143.385 302.434897,144.41 299.605897,144.41 C294.890897,144.41 291.897897,141.745 291.897897,136.169 C291.897897,131.577 295.095897,128.42 300.753897,128.42 C302.598897,128.42 304.197897,128.707 305.509897,129.117 L305.509897,127.682 C305.509897,125.181 304.197897,124.033 300.794897,124.033 C298.047897,124.033 296.243897,124.443 293.947897,125.386 L293.414897,120.302 C295.915897,119.236 298.744897,118.662 301.942897,118.662 C309.281897,118.662 311.823897,121.819 311.823897,128.625 L311.823897,144 L306.944897,144 Z M305.509897,136.456 L305.509897,133.34 C304.894897,133.094 303.664897,132.807 301.983897,132.807 C299.154897,132.807 297.842897,133.914 297.842897,136.087 C297.842897,138.506 299.277897,139.367 301.368897,139.367 C303.541897,139.367 305.509897,138.055 305.509897,136.456 Z M330.179597,123.91 L324.644597,123.91 L324.644597,136.62 C324.644597,138.547 325.628597,139.367 327.596597,139.367 C328.252597,139.367 329.113597,139.244 329.564597,139.08 L329.933597,143.713 C329.072597,144.082 327.432597,144.41 325.669597,144.41 C320.708597,144.41 318.289597,141.54 318.289597,136.825 L318.289597,123.91 L315.501597,123.91 L315.501597,119.154 L318.576597,119.154 L319.642597,113.537 L324.644597,113.086 L324.644597,119.154 L330.179597,119.154 L330.179597,123.91 Z M341.401298,144 L334.882298,144 L334.882298,119.318 L341.401298,119.031 L341.401298,144 Z M341.770298,113.783 C341.770298,115.587 340.663298,116.489 338.162298,116.489 C335.702298,116.489 334.513298,115.792 334.513298,113.783 C334.513298,112.02 335.702298,111.036 338.162298,111.036 C340.663298,111.036 341.770298,111.979 341.770298,113.783 Z M358.977998,144.451 C350.408998,144.451 346.595998,139.941 346.595998,131.249 C346.595998,123.336 350.080998,118.703 357.542998,118.703 C363.897998,118.703 367.792998,122.393 367.792998,130.265 C367.792998,131.208 367.751998,132.397 367.628998,133.258 L353.155998,133.258 C353.483998,137.399 355.492998,138.957 359.756998,138.957 C362.093998,138.957 364.266998,138.547 366.398998,137.727 L367.095998,142.852 C365.004998,143.795 362.134998,144.451 358.977998,144.451 Z M353.032998,129.035 L361.970998,129.035 C361.888998,125.386 360.248998,123.992 357.583998,123.992 C354.508998,123.992 353.319998,125.427 353.032998,129.035 Z M405.652399,131.495 C405.652399,140.597 401.880399,144.492 395.525399,144.492 C392.737399,144.492 390.441399,143.467 388.924399,141.95 L388.104399,144 L383.799399,144 L383.799399,112.061 L390.154399,111.774 L390.154399,117.555 L390.072399,120.835 L390.195399,120.917 C391.876399,119.4 394.049399,118.703 396.304399,118.703 C402.044399,118.703 405.652399,122.393 405.652399,131.495 Z M399.092399,131.618 C399.092399,125.427 397.493399,124.279 394.459399,124.279 C392.614399,124.279 391.056399,125.058 390.154399,126.37 L390.154399,137.235 C390.933399,138.424 392.368399,139.367 394.500399,139.367 C397.370399,139.367 399.092399,138.055 399.092399,131.618 Z M416.505099,144 L410.109099,144 L410.109099,119.318 L415.193099,119.072 L415.767099,123.213 L415.890099,123.213 C417.448099,120.22 419.867099,118.744 422.696099,118.744 C423.803099,118.744 424.746099,118.908 425.402099,119.113 L424.992099,125.386 C424.213099,125.14 423.270099,124.976 422.286099,124.976 C418.965099,124.976 416.505099,127.395 416.505099,131.536 L416.505099,144 Z M442.6098,144 L442.1178,141.622 L441.9948,141.581 C440.4778,143.385 438.0998,144.41 435.2708,144.41 C430.5558,144.41 427.5628,141.745 427.5628,136.169 C427.5628,131.577 430.7608,128.42 436.4188,128.42 C438.2638,128.42 439.8628,128.707 441.1748,129.117 L441.1748,127.682 C441.1748,125.181 439.8628,124.033 436.4598,124.033 C433.7128,124.033 431.9088,124.443 429.6128,125.386 L429.0798,120.302 C431.5808,119.236 434.4098,118.662 437.6078,118.662 C444.9468,118.662 447.4888,121.819 447.4888,128.625 L447.4888,144 L442.6098,144 Z M441.1748,136.456 L441.1748,133.34 C440.5598,133.094 439.3298,132.807 437.6488,132.807 C434.8198,132.807 433.5078,133.914 433.5078,136.087 C433.5078,138.506 434.9428,139.367 437.0338,139.367 C439.2068,139.367 441.1748,138.055 441.1748,136.456 Z M473.4705,119.154 L473.4705,135.226 C473.4705,141.253 470.0675,144.451 463.0155,144.451 C455.9635,144.451 452.5605,141.13 452.5605,135.226 L452.5605,119.154 L458.9155,119.154 L458.9155,135.103 C458.9155,137.563 460.2275,138.834 463.0155,138.834 C465.8035,138.834 467.1155,137.645 467.1155,135.103 L467.1155,119.154 L473.4705,119.154 Z M495.0242,119.81 L494.6552,125.222 C493.3842,124.771 491.8672,124.443 490.4322,124.443 C485.7992,124.443 484.2822,126.37 484.2822,131.618 C484.2822,136.948 486.4552,139.039 490.3092,139.039 C491.9492,139.039 493.5072,138.711 494.8192,138.096 L495.2702,143.057 C493.7942,143.959 491.5802,144.492 488.9152,144.492 C481.5762,144.492 477.6812,140.31 477.6812,131.618 C477.6812,123.377 481.0842,118.744 489.0382,118.744 C491.1292,118.744 493.4662,119.195 495.0242,119.81 Z M520.595901,144 L514.240901,144 L514.240901,128.174 C514.240901,125.632 512.969901,124.32 510.263901,124.32 C508.418901,124.32 506.819901,125.14 506.040901,126.206 L506.040901,144 L499.685901,144 L499.685901,112.102 L506.040901,111.774 L506.040901,117.432 L505.958901,120.712 L506.081901,120.794 C507.926901,119.236 510.181901,118.662 512.272901,118.662 C517.520901,118.662 520.595901,122.188 520.595901,128.174 L520.595901,144 Z M538.254601,123.91 L532.719601,123.91 L532.719601,136.62 C532.719601,138.547 533.703601,139.367 535.671601,139.367 C536.327601,139.367 537.188601,139.244 537.639601,139.08 L538.008601,143.713 C537.147601,144.082 535.507601,144.41 533.744601,144.41 C528.783601,144.41 526.364601,141.54 526.364601,136.825 L526.364601,123.91 L523.576601,123.91 L523.576601,119.154 L526.651601,119.154 L527.717601,113.537 L532.719601,113.086 L532.719601,119.154 L538.254601,119.154 L538.254601,123.91 Z M554.425002,144 L554.425002,113.25 L561.477002,113.25 L561.477002,144 L554.425002,144 Z M588.811702,144 L582.456702,144 L582.456702,128.174 C582.456702,125.427 581.062702,124.32 578.438702,124.32 C576.839702,124.32 575.117702,125.017 574.256702,126.206 L574.256702,144 L567.860702,144 L567.860702,119.277 L572.452702,118.99 L573.395702,121.122 C575.240702,119.523 577.659702,118.662 580.242702,118.662 C585.490702,118.662 588.811702,121.983 588.811702,128.174 L588.811702,144 Z M600.689403,111.774 L600.689403,128.133 L603.928403,128.133 L609.094403,119.154 L616.146403,119.154 L609.381403,130.429 L616.392403,144 L609.217403,144 L603.928403,133.299 L600.689403,133.299 L600.689403,144 L594.334403,144 L594.334403,112.061 L600.689403,111.774 Z M626.835103,144 L620.398103,144 L620.398103,112.061 L626.835103,111.774 L626.835103,144 Z M653.554804,119.154 L653.554804,135.226 C653.554804,141.253 650.151804,144.451 643.099804,144.451 C636.047804,144.451 632.644804,141.13 632.644804,135.226 L632.644804,119.154 L638.999804,119.154 L638.999804,135.103 C638.999804,137.563 640.311804,138.834 643.099804,138.834 C645.887804,138.834 647.199804,137.645 647.199804,135.103 L647.199804,119.154 L653.554804,119.154 Z M675.395504,136.21 C675.395504,141.171 672.648504,144.492 665.924504,144.492 C662.931504,144.492 660.225504,143.918 658.134504,142.77 L658.790504,137.522 C660.840504,138.711 663.751504,139.285 665.883504,139.285 C668.425504,139.285 669.491504,138.26 669.491504,136.784 C669.491504,132.807 657.970504,135.103 657.970504,126.411 C657.970504,121.942 661.004504,118.744 667.400504,118.744 C669.901504,118.744 672.361504,119.236 674.452504,120.097 L673.919504,125.304 C671.869504,124.443 669.122504,124.033 667.277504,124.033 C665.186504,124.033 664.038504,124.853 664.038504,126.124 C664.038504,129.896 675.395504,127.641 675.395504,136.21 Z M686.986204,144 L680.467204,144 L680.467204,119.318 L686.986204,119.031 L686.986204,144 Z M687.355204,113.783 C687.355204,115.587 686.248204,116.489 683.747204,116.489 C681.287204,116.489 680.098204,115.792 680.098204,113.783 C680.098204,112.02 681.287204,111.036 683.747204,111.036 C686.248204,111.036 687.355204,111.979 687.355204,113.783 Z M714.935905,131.659 C714.935905,140.802 711.491905,144.574 703.578905,144.574 C695.706905,144.574 692.180905,140.802 692.180905,131.659 C692.180905,122.557 695.706905,118.703 703.578905,118.703 C711.491905,118.703 714.935905,122.557 714.935905,131.659 Z M698.781905,131.659 C698.781905,137.768 700.093905,139.367 703.578905,139.367 C707.063905,139.367 708.334905,137.727 708.334905,131.659 C708.334905,125.591 707.063905,123.951 703.578905,123.951 C700.052905,123.951 698.781905,125.591 698.781905,131.659 Z M740.302605,144 L733.947605,144 L733.947605,128.174 C733.947605,125.427 732.553605,124.32 729.929605,124.32 C728.330605,124.32 726.608605,125.017 725.747605,126.206 L725.747605,144 L719.351605,144 L719.351605,119.277 L723.943605,118.99 L724.886605,121.122 C726.731605,119.523 729.150605,118.662 731.733605,118.662 C736.981605,118.662 740.302605,121.983 740.302605,128.174 L740.302605,144 Z M748.367306,122.762 C745.825306,122.762 744.718306,121.245 744.718306,118.908 C744.718306,116.694 746.645306,112.594 748.408306,110.339 L750.704306,110.913 L749.679306,115.833 C750.745306,116.366 751.852306,117.596 751.852306,119.072 C751.852306,121.204 750.868306,122.762 748.367306,122.762 Z M757.264306,122.721 C754.722306,122.721 753.615306,121.245 753.615306,118.867 C753.615306,116.694 755.583306,112.594 757.346306,110.339 L759.642306,110.872 L758.576306,115.833 C759.683306,116.325 760.790306,117.596 760.790306,119.072 C760.790306,121.163 759.806306,122.721 757.264306,122.721 Z" id="„DemokratiebrauchtInklusion“" fill="#1E3791" fill-rule="nonzero"></path>
        <g id="Group" transform="translate(623.000000, 181.000000)" fill="#1E3791" fill-rule="nonzero">
            <path d="M12.1979268,1.05 L10.7489268,11.298 C10.1399268,15.54 7.9139268,17.052 4.1759268,17.052 C2.9579268,17.052 1.7819268,16.758 0.9839268,16.296 L1.4669268,14.112 C2.1179268,14.574 3.1469268,14.805 4.0919268,14.805 C6.3179268,14.805 7.5149268,13.881 7.8719268,11.34 L9.3209268,1.05 L12.1979268,1.05 Z M25.4036272,4.221 L24.2276272,12.537 C23.8076272,15.435 21.9386272,17.031 18.5156272,17.031 C15.4916272,17.031 14.0216272,15.708 14.0216272,13.419 C14.0216272,13.146 14.0426272,12.852 14.0846272,12.537 L15.2396272,4.284 L17.9066272,4.137 L16.7306272,12.516 C16.7096272,12.705 16.6886272,12.873 16.6886272,13.041 C16.6886272,14.238 17.3606272,14.868 18.8306272,14.868 C20.4476272,14.868 21.3506272,14.07 21.5816272,12.516 L22.7576272,4.221 L25.4036272,4.221 Z M19.0616272,-1.13686838e-13 C19.7546272,-1.13686838e-13 20.0906272,0.315 20.0906272,0.882 C20.0906272,1.806 19.6076272,2.268 18.7466272,2.268 C18.0536272,2.268 17.6966272,2.016 17.6966272,1.407 C17.6966272,0.504 18.2006272,-1.13686838e-13 19.0616272,-1.13686838e-13 Z M22.6736272,-1.13686838e-13 C23.3876272,-1.13686838e-13 23.7026272,0.315 23.7026272,0.861 C23.7026272,1.806 23.2406272,2.268 22.3586272,2.268 C21.6656272,2.268 21.3086272,2.016 21.3086272,1.407 C21.3086272,0.504 21.8126272,-1.13686838e-13 22.6736272,-1.13686838e-13 Z M34.5773276,3.99 C35.1653276,3.99 35.7323276,4.137 36.1103276,4.326 L35.3753276,6.783 C34.9973276,6.573 34.5983276,6.51 34.0523276,6.51 C32.2253276,6.51 30.6293276,8.043 30.2093276,11.025 L29.4113276,16.8 L26.7863276,16.8 L28.5293276,4.284 L30.6083276,4.158 L30.6293276,5.523 C30.6293276,5.796 30.6293276,6.09 30.6083276,6.363 L30.6503276,6.384 C31.7003276,4.767 33.0443276,3.99 34.5773276,3.99 Z M47.951028,4.2 L46.460028,14.784 C45.914028,18.669 43.415028,20.097 40.139028,20.097 C38.858028,20.097 37.535028,19.824 36.527028,19.362 L37.073028,17.451 C38.018028,17.85 39.005028,18.102 39.950028,18.102 C42.071028,18.102 43.457028,17.346 43.814028,14.805 L43.835028,14.595 L43.793028,14.574 C42.974028,15.582 41.819028,16.044 40.433028,16.044 C38.228028,16.044 36.800028,14.952 36.800028,11.949 C36.800028,7.203 39.404028,4.011 43.898028,4.011 C45.053028,4.011 45.998028,4.2 47.006028,4.2 L47.951028,4.2 Z M41.378028,14.007 C42.974028,14.007 44.087028,12.789 44.402028,10.563 L45.032028,6.111 C44.654028,6.069 44.255028,6.048 43.688028,6.048 C41.189028,6.048 39.467028,8.148 39.467028,11.718 C39.467028,13.44 40.139028,14.007 41.378028,14.007 Z M56.1167284,3.99 C58.5527284,3.99 59.8127284,5.166 59.8127284,6.762 C59.8127284,9.366 57.6707284,10.941 52.3157284,11.592 C52.2947284,11.802 52.2947284,11.991 52.2947284,12.18 C52.2947284,14.28 53.1767284,14.931 54.8567284,14.931 C56.1167284,14.931 57.2297284,14.553 58.0697284,13.839 L58.7837284,15.414 C57.6917284,16.359 56.1167284,17.01 54.1217284,17.01 C51.4337284,17.01 49.6907284,15.645 49.6907284,12.243 C49.6907284,11.697 49.7537284,11.088 49.8377284,10.437 C50.4467284,6.174 52.6097284,3.99 56.1167284,3.99 Z M55.8647284,5.943 C54.0167284,5.943 53.0297284,7.182 52.5257284,9.828 C56.2427284,9.366 57.4607284,8.358 57.4607284,7.077 C57.4607284,6.426 56.9777284,5.943 55.8647284,5.943 Z M68.5664288,16.8 L69.6584288,9.009 C69.7004288,8.673 69.7424288,8.316 69.7424288,8.043 C69.7424288,6.678 69.1544288,6.195 67.9784288,6.195 C66.1934288,6.195 64.9544288,7.539 64.6394288,9.765 L63.6524288,16.8 L61.0274288,16.8 L62.7704288,4.284 L64.8284288,4.137 L64.8704288,4.872 C64.8914288,5.145 64.9124288,5.439 64.9124288,5.712 L64.9544288,5.733 C65.9204288,4.599 67.3064288,3.99 68.9444288,3.99 C71.2334288,3.99 72.3884288,5.208 72.3884288,7.602 C72.3884288,8.001 72.3464288,8.442 72.2834288,8.925 L71.1914288,16.8 L68.5664288,16.8 Z M83.6378296,1.05 L89.2868296,1.05 C93.4448296,1.05 95.3138296,2.73 95.3138296,6.615 C95.3138296,7.308 95.2508296,8.043 95.1458296,8.862 C94.3268296,14.574 91.7228296,16.8 87.1448296,16.8 L81.4328296,16.8 L83.6378296,1.05 Z M86.1578296,3.402 L84.6038296,14.469 L87.3968296,14.469 C90.1478296,14.469 91.5128296,13.419 92.1638296,8.841 C92.2688296,8.022 92.3318296,7.329 92.3318296,6.72 C92.3318296,4.137 91.2608296,3.402 88.9298296,3.402 L86.1578296,3.402 Z M108.75053,4.221 L107.57453,12.537 C107.15453,15.435 105.28553,17.031 101.86253,17.031 C98.83853,17.031 97.36853,15.708 97.36853,13.419 C97.36853,13.146 97.38953,12.852 97.43153,12.537 L98.58653,4.284 L101.25353,4.137 L100.07753,12.516 C100.05653,12.705 100.03553,12.873 100.03553,13.041 C100.03553,14.238 100.70753,14.868 102.17753,14.868 C103.79453,14.868 104.69753,14.07 104.92853,12.516 L106.10453,4.221 L108.75053,4.221 Z M116.11823,3.99 C117.29423,3.99 118.55423,4.263 119.43623,4.788 L118.44923,6.636 C117.67223,6.258 116.68523,6.069 115.71923,6.069 C114.41723,6.069 113.53523,6.741 113.53523,7.665 C113.53523,9.66 118.68023,9.114 118.68023,12.537 C118.68023,12.705 118.65923,12.873 118.63823,13.062 C118.30223,15.393 116.83223,16.989 113.66123,16.989 C112.10723,16.989 110.65823,16.485 109.71323,15.75 L110.55323,13.902 C111.41423,14.616 112.63223,14.973 113.74523,14.973 C115.29923,14.973 116.11823,14.154 116.11823,13.083 C116.11823,10.899 110.97323,11.403 110.97323,8.064 C110.97323,5.607 112.86323,3.99 116.11823,3.99 Z M127.349931,3.99 C129.785931,3.99 131.045931,5.166 131.045931,6.762 C131.045931,9.366 128.903931,10.941 123.548931,11.592 C123.527931,11.802 123.527931,11.991 123.527931,12.18 C123.527931,14.28 124.409931,14.931 126.089931,14.931 C127.349931,14.931 128.462931,14.553 129.302931,13.839 L130.016931,15.414 C128.924931,16.359 127.349931,17.01 125.354931,17.01 C122.666931,17.01 120.923931,15.645 120.923931,12.243 C120.923931,11.697 120.986931,11.088 121.070931,10.437 C121.679931,6.174 123.842931,3.99 127.349931,3.99 Z M127.097931,5.943 C125.249931,5.943 124.262931,7.182 123.758931,9.828 C127.475931,9.366 128.693931,8.358 128.693931,7.077 C128.693931,6.426 128.210931,5.943 127.097931,5.943 Z M134.990631,16.8 L132.344631,16.8 L134.654631,0.315 L137.321631,0.147 L134.990631,16.8 Z" id="JürgenDusel"></path>
        </g>
        <path d="M548.158381,204 C549.278381,204 549.838381,204.432 549.838381,205.232 C549.838381,206.12 549.366381,206.624 548.782381,206.816 L548.782381,206.832 C549.358381,206.984 549.678381,207.36 549.678381,207.984 C549.678381,208.08 549.670381,208.176 549.654381,208.28 C549.502381,209.352 548.830381,210 547.374381,210 L544.990381,210 L545.830381,204 L548.158381,204 Z M546.422381,207.264 L546.150381,209.184 L547.502381,209.184 C548.158381,209.184 548.598381,208.888 548.598381,207.96 C548.598381,207.48 548.334381,207.264 547.750381,207.264 L546.422381,207.264 Z M546.758381,204.832 L546.518381,206.544 L547.798381,206.544 C548.422381,206.544 548.766381,206.2 548.766381,205.456 C548.766381,205 548.518381,204.832 547.998381,204.832 L546.758381,204.832 Z M553.366081,205.12 C554.294081,205.12 554.774081,205.568 554.774081,206.176 C554.774081,207.168 553.958081,207.768 551.918081,208.016 C551.910081,208.096 551.910081,208.168 551.910081,208.24 C551.910081,209.04 552.246081,209.288 552.886081,209.288 C553.366081,209.288 553.790081,209.144 554.110081,208.872 L554.382081,209.472 C553.966081,209.832 553.366081,210.08 552.606081,210.08 C551.582081,210.08 550.918081,209.56 550.918081,208.264 C550.918081,208.056 550.942081,207.824 550.974081,207.576 C551.206081,205.952 552.030081,205.12 553.366081,205.12 Z M553.270081,205.864 C552.566081,205.864 552.190081,206.336 551.998081,207.344 C553.414081,207.168 553.878081,206.784 553.878081,206.296 C553.878081,206.048 553.694081,205.864 553.270081,205.864 Z M558.509782,205.128 C559.037782,205.128 559.301782,205.208 559.733782,205.208 L559.981782,205.208 L559.309782,210 L558.533782,210 L558.517782,209.744 C558.509782,209.64 558.509782,209.52 558.509782,209.416 L558.493782,209.408 C558.093782,209.872 557.549782,210.08 556.981782,210.08 C556.061782,210.08 555.565782,209.592 555.565782,208.504 C555.565782,206.48 556.733782,205.128 558.509782,205.128 Z M557.325782,209.296 C557.957782,209.296 558.469782,208.8 558.581782,208.008 L558.869782,205.96 C558.725782,205.944 558.581782,205.928 558.389782,205.928 C557.445782,205.928 556.821782,206.536 556.645782,207.832 C556.613782,208.056 556.597782,208.256 556.597782,208.424 C556.597782,209.064 556.837782,209.296 557.325782,209.296 Z M565.349482,205.208 L564.901482,208.376 C564.741482,209.48 564.029482,210.088 562.725482,210.088 C561.573482,210.088 561.013482,209.584 561.013482,208.712 C561.013482,208.608 561.021482,208.496 561.037482,208.376 L561.477482,205.232 L562.493482,205.176 L562.045482,208.368 C562.037482,208.44 562.029482,208.504 562.029482,208.568 C562.029482,209.024 562.285482,209.264 562.845482,209.264 C563.461482,209.264 563.805482,208.96 563.893482,208.368 L564.341482,205.208 L565.349482,205.208 Z M566.341182,205.936 L566.469182,205.248 L567.085182,205.248 C567.261182,204.056 567.845182,203.56 569.421182,203.56 L569.373182,204.264 C568.581182,204.264 568.197182,204.424 568.085182,205.248 L569.261182,205.248 L569.125182,205.936 L567.989182,205.936 L567.421182,210 L566.421182,210 L566.989182,205.936 L566.341182,205.936 Z M569.884883,205.992 L570.028883,205.248 L570.700883,205.248 L571.020883,204.024 L571.820883,203.928 L571.636883,205.248 L572.884883,205.248 L572.740883,205.992 L571.532883,205.992 L571.196883,208.392 C571.180883,208.504 571.172883,208.592 571.172883,208.68 C571.172883,209.088 571.348883,209.256 571.668883,209.256 C571.868883,209.256 572.092883,209.192 572.284883,209.072 L572.284883,209.784 C572.028883,209.944 571.660883,210.056 571.284883,210.056 C570.540883,210.056 570.156883,209.672 570.156883,208.872 C570.156883,208.736 570.164883,208.592 570.188883,208.432 L570.532883,205.992 L569.884883,205.992 Z M576.492583,205.12 C576.716583,205.12 576.932583,205.176 577.076583,205.248 L576.796583,206.184 C576.652583,206.104 576.500583,206.08 576.292583,206.08 C575.596583,206.08 574.988583,206.664 574.828583,207.8 L574.524583,210 L573.524583,210 L574.188583,205.232 L574.980583,205.184 L574.988583,205.704 C574.988583,205.808 574.988583,205.92 574.980583,206.024 L574.996583,206.032 C575.396583,205.416 575.908583,205.12 576.492583,205.12 Z M580.428284,205.128 C580.956284,205.128 581.220284,205.208 581.652284,205.208 L581.900284,205.208 L581.228284,210 L580.452284,210 L580.436284,209.744 C580.428284,209.64 580.428284,209.52 580.428284,209.416 L580.412284,209.408 C580.012284,209.872 579.468284,210.08 578.900284,210.08 C577.980284,210.08 577.484284,209.592 577.484284,208.504 C577.484284,206.48 578.652284,205.128 580.428284,205.128 Z M579.244284,209.296 C579.876284,209.296 580.388284,208.8 580.500284,208.008 L580.788284,205.96 C580.644284,205.944 580.500284,205.928 580.308284,205.928 C579.364284,205.928 578.740284,206.536 578.564284,207.832 C578.532284,208.056 578.516284,208.256 578.516284,208.424 C578.516284,209.064 578.756284,209.296 579.244284,209.296 Z M587.235984,205.2 L586.667984,209.232 C586.459984,210.712 585.507984,211.256 584.259984,211.256 C583.771984,211.256 583.267984,211.152 582.883984,210.976 L583.091984,210.248 C583.451984,210.4 583.827984,210.496 584.187984,210.496 C584.995984,210.496 585.523984,210.208 585.659984,209.24 L585.667984,209.16 L585.651984,209.152 C585.339984,209.536 584.899984,209.712 584.371984,209.712 C583.531984,209.712 582.987984,209.296 582.987984,208.152 C582.987984,206.344 583.979984,205.128 585.691984,205.128 C586.131984,205.128 586.491984,205.2 586.875984,205.2 L587.235984,205.2 Z M584.731984,208.936 C585.339984,208.936 585.763984,208.472 585.883984,207.624 L586.123984,205.928 C585.979984,205.912 585.827984,205.904 585.611984,205.904 C584.659984,205.904 584.003984,206.704 584.003984,208.064 C584.003984,208.72 584.259984,208.936 584.731984,208.936 Z M588.283684,205.992 L588.427684,205.248 L589.099684,205.248 L589.419684,204.024 L590.219684,203.928 L590.035684,205.248 L591.283684,205.248 L591.139684,205.992 L589.931684,205.992 L589.595684,208.392 C589.579684,208.504 589.571684,208.592 589.571684,208.68 C589.571684,209.088 589.747684,209.256 590.067684,209.256 C590.267684,209.256 590.491684,209.192 590.683684,209.072 L590.683684,209.784 C590.427684,209.944 590.059684,210.056 589.683684,210.056 C588.939684,210.056 588.555684,209.672 588.555684,208.872 C588.555684,208.736 588.563684,208.592 588.587684,208.432 L588.931684,205.992 L588.283684,205.992 Z M594.435385,205.12 C595.363385,205.12 595.843385,205.568 595.843385,206.176 C595.843385,207.168 595.027385,207.768 592.987385,208.016 C592.979385,208.096 592.979385,208.168 592.979385,208.24 C592.979385,209.04 593.315385,209.288 593.955385,209.288 C594.435385,209.288 594.859385,209.144 595.179385,208.872 L595.451385,209.472 C595.035385,209.832 594.435385,210.08 593.675385,210.08 C592.651385,210.08 591.987385,209.56 591.987385,208.264 C591.987385,208.056 592.011385,207.824 592.043385,207.576 C592.275385,205.952 593.099385,205.12 594.435385,205.12 Z M594.339385,205.864 C593.635385,205.864 593.259385,206.336 593.067385,207.344 C594.483385,207.168 594.947385,206.784 594.947385,206.296 C594.947385,206.048 594.763385,205.864 594.339385,205.864 Z M599.571085,205.12 C599.795085,205.12 600.011085,205.176 600.155085,205.248 L599.875085,206.184 C599.731085,206.104 599.579085,206.08 599.371085,206.08 C598.675085,206.08 598.067085,206.664 597.907085,207.8 L597.603085,210 L596.603085,210 L597.267085,205.232 L598.059085,205.184 L598.067085,205.704 C598.067085,205.808 598.067085,205.92 598.059085,206.024 L598.075085,206.032 C598.475085,205.416 598.987085,205.12 599.571085,205.12 Z M606.066486,205.128 C606.394486,205.128 606.690486,205.168 606.962486,205.232 L607.178486,203.712 L608.186486,203.656 L607.298486,210 L606.530486,210 L606.498486,209.768 C606.482486,209.664 606.474486,209.544 606.474486,209.44 L606.458486,209.432 C606.058486,209.88 605.514486,210.08 604.946486,210.08 C604.058486,210.08 603.578486,209.624 603.578486,208.456 C603.578486,206.184 604.594486,205.128 606.066486,205.128 Z M605.314486,209.296 C605.954486,209.296 606.474486,208.776 606.586486,207.944 L606.850486,206.032 C606.642486,205.968 606.410486,205.936 606.122486,205.936 C605.298486,205.936 604.818486,206.48 604.650486,207.704 C604.610486,207.96 604.594486,208.184 604.594486,208.368 C604.594486,209.08 604.858486,209.296 605.314486,209.296 Z M611.402186,205.12 C612.330186,205.12 612.810186,205.568 612.810186,206.176 C612.810186,207.168 611.994186,207.768 609.954186,208.016 C609.946186,208.096 609.946186,208.168 609.946186,208.24 C609.946186,209.04 610.282186,209.288 610.922186,209.288 C611.402186,209.288 611.826186,209.144 612.146186,208.872 L612.418186,209.472 C612.002186,209.832 611.402186,210.08 610.642186,210.08 C609.618186,210.08 608.954186,209.56 608.954186,208.264 C608.954186,208.056 608.978186,207.824 609.010186,207.576 C609.242186,205.952 610.066186,205.12 611.402186,205.12 Z M611.306186,205.864 C610.602186,205.864 610.226186,206.336 610.034186,207.344 C611.450186,207.168 611.914186,206.784 611.914186,206.296 C611.914186,206.048 611.730186,205.864 611.306186,205.864 Z M616.537887,205.12 C616.761887,205.12 616.977887,205.176 617.121887,205.248 L616.841887,206.184 C616.697887,206.104 616.545887,206.08 616.337887,206.08 C615.641887,206.08 615.033887,206.664 614.873887,207.8 L614.569887,210 L613.569887,210 L614.233887,205.232 L615.025887,205.184 L615.033887,205.704 C615.033887,205.808 615.033887,205.92 615.025887,206.024 L615.041887,206.032 C615.441887,205.416 615.953887,205.12 616.537887,205.12 Z M623.785288,204 C624.905288,204 625.465288,204.432 625.465288,205.232 C625.465288,206.12 624.993288,206.624 624.409288,206.816 L624.409288,206.832 C624.985288,206.984 625.305288,207.36 625.305288,207.984 C625.305288,208.08 625.297288,208.176 625.281288,208.28 C625.129288,209.352 624.457288,210 623.001288,210 L620.617288,210 L621.457288,204 L623.785288,204 Z M622.049288,207.264 L621.777288,209.184 L623.129288,209.184 C623.785288,209.184 624.225288,208.888 624.225288,207.96 C624.225288,207.48 623.961288,207.264 623.377288,207.264 L622.049288,207.264 Z M622.385288,204.832 L622.145288,206.544 L623.425288,206.544 C624.049288,206.544 624.393288,206.2 624.393288,205.456 C624.393288,205 624.145288,204.832 623.625288,204.832 L622.385288,204.832 Z M630.944988,205.208 L630.496988,208.376 C630.336988,209.48 629.624988,210.088 628.320988,210.088 C627.168988,210.088 626.608988,209.584 626.608988,208.712 C626.608988,208.608 626.616988,208.496 626.632988,208.376 L627.072988,205.232 L628.088988,205.176 L627.640988,208.368 C627.632988,208.44 627.624988,208.504 627.624988,208.568 C627.624988,209.024 627.880988,209.264 628.440988,209.264 C629.056988,209.264 629.400988,208.96 629.488988,208.368 L629.936988,205.208 L630.944988,205.208 Z M634.640688,210 L635.056688,207.032 C635.072688,206.904 635.088688,206.768 635.088688,206.664 C635.088688,206.144 634.864688,205.96 634.416688,205.96 C633.736688,205.96 633.264688,206.472 633.144688,207.32 L632.768688,210 L631.768688,210 L632.432688,205.232 L633.216688,205.176 L633.232688,205.456 C633.240688,205.56 633.248688,205.672 633.248688,205.776 L633.264688,205.784 C633.632688,205.352 634.160688,205.12 634.784688,205.12 C635.656688,205.12 636.096688,205.584 636.096688,206.496 C636.096688,206.648 636.080688,206.816 636.056688,207 L635.640688,210 L634.640688,210 Z M639.688389,205.128 C640.016389,205.128 640.312389,205.168 640.584389,205.232 L640.800389,203.712 L641.808389,203.656 L640.920389,210 L640.152389,210 L640.120389,209.768 C640.104389,209.664 640.096389,209.544 640.096389,209.44 L640.080389,209.432 C639.680389,209.88 639.136389,210.08 638.568389,210.08 C637.680389,210.08 637.200389,209.624 637.200389,208.456 C637.200389,206.184 638.216389,205.128 639.688389,205.128 Z M638.936389,209.296 C639.576389,209.296 640.096389,208.776 640.208389,207.944 L640.472389,206.032 C640.264389,205.968 640.032389,205.936 639.744389,205.936 C638.920389,205.936 638.440389,206.48 638.272389,207.704 C638.232389,207.96 638.216389,208.184 638.216389,208.368 C638.216389,209.08 638.480389,209.296 638.936389,209.296 Z M645.024089,205.12 C645.952089,205.12 646.432089,205.568 646.432089,206.176 C646.432089,207.168 645.616089,207.768 643.576089,208.016 C643.568089,208.096 643.568089,208.168 643.568089,208.24 C643.568089,209.04 643.904089,209.288 644.544089,209.288 C645.024089,209.288 645.448089,209.144 645.768089,208.872 L646.040089,209.472 C645.624089,209.832 645.024089,210.08 644.264089,210.08 C643.240089,210.08 642.576089,209.56 642.576089,208.264 C642.576089,208.056 642.600089,207.824 642.632089,207.576 C642.864089,205.952 643.688089,205.12 645.024089,205.12 Z M644.928089,205.864 C644.224089,205.864 643.848089,206.336 643.656089,207.344 C645.072089,207.168 645.536089,206.784 645.536089,206.296 C645.536089,206.048 645.352089,205.864 644.928089,205.864 Z M649.43979,205.12 C649.88779,205.12 650.36779,205.224 650.70379,205.424 L650.32779,206.128 C650.03179,205.984 649.65579,205.912 649.28779,205.912 C648.79179,205.912 648.45579,206.168 648.45579,206.52 C648.45579,207.28 650.41579,207.072 650.41579,208.376 C650.41579,208.44 650.40779,208.504 650.39979,208.576 C650.27179,209.464 649.71179,210.072 648.50379,210.072 C647.91179,210.072 647.35979,209.88 646.99979,209.6 L647.31979,208.896 C647.64779,209.168 648.11179,209.304 648.53579,209.304 C649.12779,209.304 649.43979,208.992 649.43979,208.584 C649.43979,207.752 647.47979,207.944 647.47979,206.672 C647.47979,205.736 648.19979,205.12 649.43979,205.12 Z M654.47149,205.12 C654.69549,205.12 654.91149,205.176 655.05549,205.248 L654.77549,206.184 C654.63149,206.104 654.47949,206.08 654.27149,206.08 C653.57549,206.08 652.96749,206.664 652.80749,207.8 L652.50349,210 L651.50349,210 L652.16749,205.232 L652.95949,205.184 L652.96749,205.704 C652.96749,205.808 652.96749,205.92 652.95949,206.024 L652.97549,206.032 C653.37549,205.416 653.88749,205.12 654.47149,205.12 Z M657.94319,205.12 C658.87119,205.12 659.35119,205.568 659.35119,206.176 C659.35119,207.168 658.53519,207.768 656.49519,208.016 C656.48719,208.096 656.48719,208.168 656.48719,208.24 C656.48719,209.04 656.82319,209.288 657.46319,209.288 C657.94319,209.288 658.36719,209.144 658.68719,208.872 L658.95919,209.472 C658.54319,209.832 657.94319,210.08 657.18319,210.08 C656.15919,210.08 655.49519,209.56 655.49519,208.264 C655.49519,208.056 655.51919,207.824 655.55119,207.576 C655.78319,205.952 656.60719,205.12 657.94319,205.12 Z M657.84719,205.864 C657.14319,205.864 656.76719,206.336 656.57519,207.344 C657.99119,207.168 658.45519,206.784 658.45519,206.296 C658.45519,206.048 658.27119,205.864 657.84719,205.864 Z M664.542891,205.2 L663.974891,209.232 C663.766891,210.712 662.814891,211.256 661.566891,211.256 C661.078891,211.256 660.574891,211.152 660.190891,210.976 L660.398891,210.248 C660.758891,210.4 661.134891,210.496 661.494891,210.496 C662.302891,210.496 662.830891,210.208 662.966891,209.24 L662.974891,209.16 L662.958891,209.152 C662.646891,209.536 662.206891,209.712 661.678891,209.712 C660.838891,209.712 660.294891,209.296 660.294891,208.152 C660.294891,206.344 661.286891,205.128 662.998891,205.128 C663.438891,205.128 663.798891,205.2 664.182891,205.2 L664.542891,205.2 Z M662.038891,208.936 C662.646891,208.936 663.070891,208.472 663.190891,207.624 L663.430891,205.928 C663.286891,205.912 663.134891,205.904 662.918891,205.904 C661.966891,205.904 661.310891,206.704 661.310891,208.064 C661.310891,208.72 661.566891,208.936 662.038891,208.936 Z M666.518591,210 L665.518591,210 L666.182591,205.232 L667.190591,205.176 L666.518591,210 Z M666.886591,203.592 C667.262591,203.592 667.430591,203.712 667.430591,203.96 C667.430591,204.32 667.198591,204.488 666.758591,204.488 C666.398591,204.488 666.214591,204.4 666.214591,204.136 C666.214591,203.776 666.446591,203.592 666.886591,203.592 Z M670.678292,205.12 C671.606292,205.12 672.086292,205.568 672.086292,206.176 C672.086292,207.168 671.270292,207.768 669.230292,208.016 C669.222292,208.096 669.222292,208.168 669.222292,208.24 C669.222292,209.04 669.558292,209.288 670.198292,209.288 C670.678292,209.288 671.102292,209.144 671.422292,208.872 L671.694292,209.472 C671.278292,209.832 670.678292,210.08 669.918292,210.08 C668.894292,210.08 668.230292,209.56 668.230292,208.264 C668.230292,208.056 668.254292,207.824 668.286292,207.576 C668.518292,205.952 669.342292,205.12 670.678292,205.12 Z M670.582292,205.864 C669.878292,205.864 669.502292,206.336 669.310292,207.344 C670.726292,207.168 671.190292,206.784 671.190292,206.296 C671.190292,206.048 671.006292,205.864 670.582292,205.864 Z M675.813992,205.12 C676.037992,205.12 676.253992,205.176 676.397992,205.248 L676.117992,206.184 C675.973992,206.104 675.821992,206.08 675.613992,206.08 C674.917992,206.08 674.309992,206.664 674.149992,207.8 L673.845992,210 L672.845992,210 L673.509992,205.232 L674.301992,205.184 L674.309992,205.704 C674.309992,205.808 674.309992,205.92 674.301992,206.024 L674.317992,206.032 C674.717992,205.416 675.229992,205.12 675.813992,205.12 Z M681.365692,205.208 L680.917692,208.376 C680.757692,209.48 680.045692,210.088 678.741692,210.088 C677.589692,210.088 677.029692,209.584 677.029692,208.712 C677.029692,208.608 677.037692,208.496 677.053692,208.376 L677.493692,205.232 L678.509692,205.176 L678.061692,208.368 C678.053692,208.44 678.045692,208.504 678.045692,208.568 C678.045692,209.024 678.301692,209.264 678.861692,209.264 C679.477692,209.264 679.821692,208.96 679.909692,208.368 L680.357692,205.208 L681.365692,205.208 Z M685.061393,210 L685.477393,207.032 C685.493393,206.904 685.509393,206.768 685.509393,206.664 C685.509393,206.144 685.285393,205.96 684.837393,205.96 C684.157393,205.96 683.685393,206.472 683.565393,207.32 L683.189393,210 L682.189393,210 L682.853393,205.232 L683.637393,205.176 L683.653393,205.456 C683.661393,205.56 683.669393,205.672 683.669393,205.776 L683.685393,205.784 C684.053393,205.352 684.581393,205.12 685.205393,205.12 C686.077393,205.12 686.517393,205.584 686.517393,206.496 C686.517393,206.648 686.501393,206.816 686.477393,207 L686.061393,210 L685.061393,210 Z M691.997093,205.2 L691.429093,209.232 C691.221093,210.712 690.269093,211.256 689.021093,211.256 C688.533093,211.256 688.029093,211.152 687.645093,210.976 L687.853093,210.248 C688.213093,210.4 688.589093,210.496 688.949093,210.496 C689.757093,210.496 690.285093,210.208 690.421093,209.24 L690.429093,209.16 L690.413093,209.152 C690.101093,209.536 689.661093,209.712 689.133093,209.712 C688.293093,209.712 687.749093,209.296 687.749093,208.152 C687.749093,206.344 688.741093,205.128 690.453093,205.128 C690.893093,205.128 691.253093,205.2 691.637093,205.2 L691.997093,205.2 Z M689.493093,208.936 C690.101093,208.936 690.525093,208.472 690.645093,207.624 L690.885093,205.928 C690.741093,205.912 690.589093,205.904 690.373093,205.904 C689.421093,205.904 688.765093,206.704 688.765093,208.064 C688.765093,208.72 689.021093,208.936 689.493093,208.936 Z M695.924494,205.936 L696.052494,205.248 L696.668494,205.248 C696.844494,204.056 697.428494,203.56 699.004494,203.56 L698.956494,204.264 C698.164494,204.264 697.780494,204.424 697.668494,205.248 L698.844494,205.248 L698.708494,205.936 L697.572494,205.936 L697.004494,210 L696.004494,210 L696.572494,205.936 L695.924494,205.936 Z M703.716194,205.208 L703.268194,208.376 C703.108194,209.48 702.396194,210.088 701.092194,210.088 C699.940194,210.088 699.380194,209.584 699.380194,208.712 C699.380194,208.608 699.388194,208.496 699.404194,208.376 L699.844194,205.232 L700.860194,205.176 L700.412194,208.368 C700.404194,208.44 700.396194,208.504 700.396194,208.568 C700.396194,209.024 700.652194,209.264 701.212194,209.264 C701.828194,209.264 702.172194,208.96 702.260194,208.368 L702.708194,205.208 L703.716194,205.208 Z M701.300194,203.6 C701.564194,203.6 701.692194,203.72 701.692194,203.936 C701.692194,204.288 701.508194,204.464 701.180194,204.464 C700.916194,204.464 700.780194,204.368 700.780194,204.136 C700.780194,203.792 700.972194,203.6 701.300194,203.6 Z M702.676194,203.6 C702.948194,203.6 703.068194,203.72 703.068194,203.928 C703.068194,204.288 702.892194,204.464 702.556194,204.464 C702.292194,204.464 702.156194,204.368 702.156194,204.136 C702.156194,203.792 702.348194,203.6 702.676194,203.6 Z M707.507895,205.12 C707.731895,205.12 707.947895,205.176 708.091895,205.248 L707.811895,206.184 C707.667895,206.104 707.515895,206.08 707.307895,206.08 C706.611895,206.08 706.003895,206.664 705.843895,207.8 L705.539895,210 L704.539895,210 L705.203895,205.232 L705.995895,205.184 L706.003895,205.704 C706.003895,205.808 706.003895,205.92 705.995895,206.024 L706.011895,206.032 C706.411895,205.416 706.923895,205.12 707.507895,205.12 Z M714.003296,205.128 C714.331296,205.128 714.627296,205.168 714.899296,205.232 L715.115296,203.712 L716.123296,203.656 L715.235296,210 L714.467296,210 L714.435296,209.768 C714.419296,209.664 714.411296,209.544 714.411296,209.44 L714.395296,209.432 C713.995296,209.88 713.451296,210.08 712.883296,210.08 C711.995296,210.08 711.515296,209.624 711.515296,208.456 C711.515296,206.184 712.531296,205.128 714.003296,205.128 Z M713.251296,209.296 C713.891296,209.296 714.411296,208.776 714.523296,207.944 L714.787296,206.032 C714.579296,205.968 714.347296,205.936 714.059296,205.936 C713.235296,205.936 712.755296,206.48 712.587296,207.704 C712.547296,207.96 712.531296,208.184 712.531296,208.368 C712.531296,209.08 712.795296,209.296 713.251296,209.296 Z M717.906996,210 L716.906996,210 L717.570996,205.232 L718.578996,205.176 L717.906996,210 Z M718.274996,203.592 C718.650996,203.592 718.818996,203.712 718.818996,203.96 C718.818996,204.32 718.586996,204.488 718.146996,204.488 C717.786996,204.488 717.602996,204.4 717.602996,204.136 C717.602996,203.776 717.834996,203.592 718.274996,203.592 Z M722.066696,205.12 C722.994696,205.12 723.474696,205.568 723.474696,206.176 C723.474696,207.168 722.658696,207.768 720.618696,208.016 C720.610696,208.096 720.610696,208.168 720.610696,208.24 C720.610696,209.04 720.946696,209.288 721.586696,209.288 C722.066696,209.288 722.490696,209.144 722.810696,208.872 L723.082696,209.472 C722.666696,209.832 722.066696,210.08 721.306696,210.08 C720.282696,210.08 719.618696,209.56 719.618696,208.264 C719.618696,208.056 719.642696,207.824 719.674696,207.576 C719.906696,205.952 720.730696,205.12 722.066696,205.12 Z M721.970696,205.864 C721.266696,205.864 720.890696,206.336 720.698696,207.344 C722.114696,207.168 722.578696,206.784 722.578696,206.296 C722.578696,206.048 722.394696,205.864 721.970696,205.864 Z M730.394097,204 C731.514097,204 732.074097,204.432 732.074097,205.232 C732.074097,206.12 731.602097,206.624 731.018097,206.816 L731.018097,206.832 C731.594097,206.984 731.914097,207.36 731.914097,207.984 C731.914097,208.08 731.906097,208.176 731.890097,208.28 C731.738097,209.352 731.066097,210 729.610097,210 L727.226097,210 L728.066097,204 L730.394097,204 Z M728.658097,207.264 L728.386097,209.184 L729.738097,209.184 C730.394097,209.184 730.834097,208.888 730.834097,207.96 C730.834097,207.48 730.570097,207.264 729.986097,207.264 L728.658097,207.264 Z M728.994097,204.832 L728.754097,206.544 L730.034097,206.544 C730.658097,206.544 731.002097,206.2 731.002097,205.456 C731.002097,205 730.754097,204.832 730.234097,204.832 L728.994097,204.832 Z M735.601798,205.12 C736.529798,205.12 737.009798,205.568 737.009798,206.176 C737.009798,207.168 736.193798,207.768 734.153798,208.016 C734.145798,208.096 734.145798,208.168 734.145798,208.24 C734.145798,209.04 734.481798,209.288 735.121798,209.288 C735.601798,209.288 736.025798,209.144 736.345798,208.872 L736.617798,209.472 C736.201798,209.832 735.601798,210.08 734.841798,210.08 C733.817798,210.08 733.153798,209.56 733.153798,208.264 C733.153798,208.056 733.177798,207.824 733.209798,207.576 C733.441798,205.952 734.265798,205.12 735.601798,205.12 Z M735.505798,205.864 C734.801798,205.864 734.425798,206.336 734.233798,207.344 C735.649798,207.168 736.113798,206.784 736.113798,206.296 C736.113798,206.048 735.929798,205.864 735.505798,205.864 Z M738.809498,210 L737.801498,210 L738.681498,203.72 L739.697498,203.656 L738.809498,210 Z M743.385198,205.128 C743.913198,205.128 744.177198,205.208 744.609198,205.208 L744.857198,205.208 L744.185198,210 L743.409198,210 L743.393198,209.744 C743.385198,209.64 743.385198,209.52 743.385198,209.416 L743.369198,209.408 C742.969198,209.872 742.425198,210.08 741.857198,210.08 C740.937198,210.08 740.441198,209.592 740.441198,208.504 C740.441198,206.48 741.609198,205.128 743.385198,205.128 Z M742.201198,209.296 C742.833198,209.296 743.345198,208.8 743.457198,208.008 L743.745198,205.96 C743.601198,205.944 743.457198,205.928 743.265198,205.928 C742.321198,205.928 741.697198,206.536 741.521198,207.832 C741.489198,208.056 741.473198,208.256 741.473198,208.424 C741.473198,209.064 741.713198,209.296 742.201198,209.296 Z M748.632899,210 L749.048899,207.032 C749.064899,206.904 749.080899,206.768 749.080899,206.664 C749.080899,206.144 748.856899,205.96 748.408899,205.96 C747.728899,205.96 747.256899,206.472 747.136899,207.32 L746.760899,210 L745.760899,210 L746.424899,205.232 L747.208899,205.176 L747.224899,205.456 C747.232899,205.56 747.240899,205.672 747.240899,205.776 L747.256899,205.784 C747.624899,205.352 748.152899,205.12 748.776899,205.12 C749.648899,205.12 750.088899,205.584 750.088899,206.496 C750.088899,206.648 750.072899,206.816 750.048899,207 L749.632899,210 L748.632899,210 Z M755.568599,205.2 L755.000599,209.232 C754.792599,210.712 753.840599,211.256 752.592599,211.256 C752.104599,211.256 751.600599,211.152 751.216599,210.976 L751.424599,210.248 C751.784599,210.4 752.160599,210.496 752.520599,210.496 C753.328599,210.496 753.856599,210.208 753.992599,209.24 L754.000599,209.16 L753.984599,209.152 C753.672599,209.536 753.232599,209.712 752.704599,209.712 C751.864599,209.712 751.320599,209.296 751.320599,208.152 C751.320599,206.344 752.312599,205.128 754.024599,205.128 C754.464599,205.128 754.824599,205.2 755.208599,205.2 L755.568599,205.2 Z M753.064599,208.936 C753.672599,208.936 754.096599,208.472 754.216599,207.624 L754.456599,205.928 C754.312599,205.912 754.160599,205.904 753.944599,205.904 C752.992599,205.904 752.336599,206.704 752.336599,208.064 C752.336599,208.72 752.592599,208.936 753.064599,208.936 Z M758.9763,205.12 C759.9043,205.12 760.3843,205.568 760.3843,206.176 C760.3843,207.168 759.5683,207.768 757.5283,208.016 C757.5203,208.096 757.5203,208.168 757.5203,208.24 C757.5203,209.04 757.8563,209.288 758.4963,209.288 C758.9763,209.288 759.4003,209.144 759.7203,208.872 L759.9923,209.472 C759.5763,209.832 758.9763,210.08 758.2163,210.08 C757.1923,210.08 756.5283,209.56 756.5283,208.264 C756.5283,208.056 756.5523,207.824 756.5843,207.576 C756.8163,205.952 757.6403,205.12 758.9763,205.12 Z M758.8803,205.864 C758.1763,205.864 757.8003,206.336 757.6083,207.344 C759.0243,207.168 759.4883,206.784 759.4883,206.296 C759.4883,206.048 759.3043,205.864 758.8803,205.864 Z M620.216988,216.072 C620.296988,216.384 620.344988,216.752 620.344988,217.136 C620.344988,219.808 618.240988,221.08 617.600988,221.08 C617.144988,221.08 616.272988,220.464 616.272988,218.808 C616.272988,218.568 616.288988,218.304 616.328988,218.024 L616.576988,216.232 L617.592988,216.184 L617.336988,218.032 C617.288988,218.344 617.272988,218.624 617.272988,218.856 C617.272988,219.816 617.592988,220.168 617.808988,220.168 C618.192988,220.168 619.344988,219.064 619.344988,217.08 C619.344988,216.784 619.320988,216.528 619.272988,216.304 L620.216988,216.072 Z M623.640688,216.912 C622.904688,216.912 622.552688,217.304 622.368688,218.624 C622.328688,218.912 622.312688,219.16 622.312688,219.36 C622.312688,220.104 622.576688,220.32 623.144688,220.32 C623.888688,220.32 624.240688,219.928 624.432688,218.592 C624.472688,218.312 624.488688,218.08 624.488688,217.88 C624.488688,217.136 624.216688,216.912 623.640688,216.912 Z M623.768688,216.12 C624.992688,216.12 625.504688,216.656 625.504688,217.824 C625.504688,218.064 625.480688,218.328 625.440688,218.624 C625.208688,220.312 624.504688,221.088 623.024688,221.088 C621.800688,221.088 621.288688,220.544 621.288688,219.376 C621.288688,219.136 621.312688,218.872 621.352688,218.584 C621.592688,216.888 622.296688,216.12 623.768688,216.12 Z M629.336389,221 L629.752389,218.032 C629.768389,217.904 629.784389,217.768 629.784389,217.664 C629.784389,217.144 629.560389,216.96 629.112389,216.96 C628.432389,216.96 627.960389,217.472 627.840389,218.32 L627.464389,221 L626.464389,221 L627.128389,216.232 L627.912389,216.176 L627.928389,216.456 C627.936389,216.56 627.944389,216.672 627.944389,216.776 L627.960389,216.784 C628.328389,216.352 628.856389,216.12 629.480389,216.12 C630.352389,216.12 630.792389,216.584 630.792389,217.496 C630.792389,217.648 630.776389,217.816 630.752389,218 L630.336389,221 L629.336389,221 Z M635.67179,215 L636.88779,215 L637.95979,219.224 L638.03179,219.544 L638.04779,219.544 C638.08779,219.448 638.14379,219.352 638.19179,219.256 L640.47979,215 L641.68779,215 L640.84779,221 L639.86379,221 L640.40779,217.056 C640.42379,216.952 640.44779,216.824 640.47179,216.728 L640.45579,216.72 L638.19179,221 L637.45579,221 L636.38379,216.76 L636.36779,216.76 C636.35979,216.864 636.35179,216.984 636.33579,217.088 L635.79179,221 L634.83179,221 L635.67179,215 Z M645.05549,216.12 C645.98349,216.12 646.46349,216.568 646.46349,217.176 C646.46349,218.168 645.64749,218.768 643.60749,219.016 C643.59949,219.096 643.59949,219.168 643.59949,219.24 C643.59949,220.04 643.93549,220.288 644.57549,220.288 C645.05549,220.288 645.47949,220.144 645.79949,219.872 L646.07149,220.472 C645.65549,220.832 645.05549,221.08 644.29549,221.08 C643.27149,221.08 642.60749,220.56 642.60749,219.264 C642.60749,219.056 642.63149,218.824 642.66349,218.576 C642.89549,216.952 643.71949,216.12 645.05549,216.12 Z M644.95949,216.864 C644.25549,216.864 643.87949,217.336 643.68749,218.344 C645.10349,218.168 645.56749,217.784 645.56749,217.296 C645.56749,217.048 645.38349,216.864 644.95949,216.864 Z M650.09519,221 L650.51119,218.032 C650.52719,217.904 650.54319,217.768 650.54319,217.664 C650.54319,217.144 650.31919,216.96 649.87119,216.96 C649.19119,216.96 648.71919,217.472 648.59919,218.32 L648.22319,221 L647.22319,221 L647.88719,216.232 L648.67119,216.176 L648.68719,216.456 C648.69519,216.56 648.70319,216.672 648.70319,216.776 L648.71919,216.784 C649.08719,216.352 649.61519,216.12 650.23919,216.12 C651.11119,216.12 651.55119,216.584 651.55119,217.496 C651.55119,217.648 651.53519,217.816 651.51119,218 L651.09519,221 L650.09519,221 Z M654.878891,216.12 C655.326891,216.12 655.806891,216.224 656.142891,216.424 L655.766891,217.128 C655.470891,216.984 655.094891,216.912 654.726891,216.912 C654.230891,216.912 653.894891,217.168 653.894891,217.52 C653.894891,218.28 655.854891,218.072 655.854891,219.376 C655.854891,219.44 655.846891,219.504 655.838891,219.576 C655.710891,220.464 655.150891,221.072 653.942891,221.072 C653.350891,221.072 652.798891,220.88 652.438891,220.6 L652.758891,219.896 C653.086891,220.168 653.550891,220.304 653.974891,220.304 C654.566891,220.304 654.878891,219.992 654.878891,219.584 C654.878891,218.752 652.918891,218.944 652.918891,217.672 C652.918891,216.736 653.638891,216.12 654.878891,216.12 Z M659.470591,216.12 C659.958591,216.12 660.350591,216.216 660.694591,216.416 L660.326591,217.12 C660.078591,217.008 659.862591,216.952 659.526591,216.952 C658.734591,216.952 658.246591,217.416 658.078591,218.624 C658.046591,218.848 658.030591,219.048 658.030591,219.224 C658.030591,220.04 658.374591,220.296 658.934591,220.296 C659.350591,220.296 659.678591,220.144 659.958591,219.904 L660.222591,220.496 C659.782591,220.896 659.294591,221.088 658.622591,221.088 C657.630591,221.088 657.006591,220.552 657.006591,219.272 C657.006591,219.064 657.022591,218.832 657.062591,218.576 C657.286591,216.936 658.134591,216.12 659.470591,216.12 Z M665.262292,221 L664.254292,221 L664.670292,218.024 C664.686292,217.888 664.702292,217.768 664.702292,217.656 C664.702292,217.144 664.478292,216.96 664.030292,216.96 C663.374292,216.96 662.886292,217.448 662.774292,218.256 L662.390292,221 L661.382292,221 L662.262292,214.72 L663.278292,214.656 L663.046292,216.32 C663.030292,216.424 663.014292,216.544 662.990292,216.64 L662.998292,216.648 C663.366292,216.304 663.846292,216.12 664.406292,216.12 C665.278292,216.12 665.710292,216.584 665.710292,217.504 C665.710292,217.656 665.702292,217.824 665.678292,218 L665.262292,221 Z M669.269992,216.12 C670.197992,216.12 670.677992,216.568 670.677992,217.176 C670.677992,218.168 669.861992,218.768 667.821992,219.016 C667.813992,219.096 667.813992,219.168 667.813992,219.24 C667.813992,220.04 668.149992,220.288 668.789992,220.288 C669.269992,220.288 669.693992,220.144 670.013992,219.872 L670.285992,220.472 C669.869992,220.832 669.269992,221.08 668.509992,221.08 C667.485992,221.08 666.821992,220.56 666.821992,219.264 C666.821992,219.056 666.845992,218.824 666.877992,218.576 C667.109992,216.952 667.933992,216.12 669.269992,216.12 Z M669.173992,216.864 C668.469992,216.864 668.093992,217.336 667.901992,218.344 C669.317992,218.168 669.781992,217.784 669.781992,217.296 C669.781992,217.048 669.597992,216.864 669.173992,216.864 Z M674.309692,221 L674.725692,218.032 C674.741692,217.904 674.757692,217.768 674.757692,217.664 C674.757692,217.144 674.533692,216.96 674.085692,216.96 C673.405692,216.96 672.933692,217.472 672.813692,218.32 L672.437692,221 L671.437692,221 L672.101692,216.232 L672.885692,216.176 L672.901692,216.456 C672.909692,216.56 672.917692,216.672 672.917692,216.776 L672.933692,216.784 C673.301692,216.352 673.829692,216.12 674.453692,216.12 C675.325692,216.12 675.765692,216.584 675.765692,217.496 C675.765692,217.648 675.749692,217.816 675.725692,218 L675.309692,221 L674.309692,221 Z M682.301093,221 L682.709093,218.08 C682.733093,217.92 682.741093,217.776 682.741093,217.656 C682.741093,217.16 682.557093,216.976 682.181093,216.976 C681.589093,216.976 681.165093,217.464 681.053093,218.272 L680.677093,221 L679.677093,221 L680.341093,216.232 L681.133093,216.176 L681.149093,216.416 C681.149093,216.52 681.157093,216.632 681.157093,216.736 L681.173093,216.744 C681.525093,216.344 682.005093,216.12 682.581093,216.12 C683.157093,216.12 683.525093,216.376 683.669093,216.88 L683.685093,216.888 C684.037093,216.392 684.565093,216.12 685.205093,216.12 C685.989093,216.12 686.381093,216.592 686.381093,217.512 C686.381093,217.688 686.373093,217.872 686.341093,218.08 L685.933093,221 L684.933093,221 L685.341093,218.08 C685.365093,217.92 685.373093,217.784 685.373093,217.664 C685.373093,217.168 685.189093,216.976 684.805093,216.976 C684.197093,216.976 683.797093,217.488 683.677093,218.36 L683.309093,221 L682.301093,221 Z M688.508794,221 L687.508794,221 L688.172794,216.232 L689.180794,216.176 L688.508794,221 Z M688.876794,214.592 C689.252794,214.592 689.420794,214.712 689.420794,214.96 C689.420794,215.32 689.188794,215.488 688.748794,215.488 C688.388794,215.488 688.204794,215.4 688.204794,215.136 C688.204794,214.776 688.436794,214.592 688.876794,214.592 Z M690.308494,216.992 L690.452494,216.248 L691.124494,216.248 L691.444494,215.024 L692.244494,214.928 L692.060494,216.248 L693.308494,216.248 L693.164494,216.992 L691.956494,216.992 L691.620494,219.392 C691.604494,219.504 691.596494,219.592 691.596494,219.68 C691.596494,220.088 691.772494,220.256 692.092494,220.256 C692.292494,220.256 692.516494,220.192 692.708494,220.072 L692.708494,220.784 C692.452494,220.944 692.084494,221.056 691.708494,221.056 C690.964494,221.056 690.580494,220.672 690.580494,219.872 C690.580494,219.736 690.588494,219.592 690.612494,219.432 L690.956494,216.992 L690.308494,216.992 Z M700.107895,215 C701.227895,215 701.787895,215.432 701.787895,216.232 C701.787895,217.12 701.315895,217.624 700.731895,217.816 L700.731895,217.832 C701.307895,217.984 701.627895,218.36 701.627895,218.984 C701.627895,219.08 701.619895,219.176 701.603895,219.28 C701.451895,220.352 700.779895,221 699.323895,221 L696.939895,221 L697.779895,215 L700.107895,215 Z M698.371895,218.264 L698.099895,220.184 L699.451895,220.184 C700.107895,220.184 700.547895,219.888 700.547895,218.96 C700.547895,218.48 700.283895,218.264 699.699895,218.264 L698.371895,218.264 Z M698.707895,215.832 L698.467895,217.544 L699.747895,217.544 C700.371895,217.544 700.715895,217.2 700.715895,216.456 C700.715895,216 700.467895,215.832 699.947895,215.832 L698.707895,215.832 Z M705.315595,216.12 C706.243595,216.12 706.723595,216.568 706.723595,217.176 C706.723595,218.168 705.907595,218.768 703.867595,219.016 C703.859595,219.096 703.859595,219.168 703.859595,219.24 C703.859595,220.04 704.195595,220.288 704.835595,220.288 C705.315595,220.288 705.739595,220.144 706.059595,219.872 L706.331595,220.472 C705.915595,220.832 705.315595,221.08 704.555595,221.08 C703.531595,221.08 702.867595,220.56 702.867595,219.264 C702.867595,219.056 702.891595,218.824 702.923595,218.576 C703.155595,216.952 703.979595,216.12 705.315595,216.12 Z M705.219595,216.864 C704.515595,216.864 704.139595,217.336 703.947595,218.344 C705.363595,218.168 705.827595,217.784 705.827595,217.296 C705.827595,217.048 705.643595,216.864 705.219595,216.864 Z M711.395296,221 L710.387296,221 L710.803296,218.024 C710.819296,217.888 710.835296,217.768 710.835296,217.656 C710.835296,217.144 710.611296,216.96 710.163296,216.96 C709.507296,216.96 709.019296,217.448 708.907296,218.256 L708.523296,221 L707.515296,221 L708.395296,214.72 L709.411296,214.656 L709.179296,216.32 C709.163296,216.424 709.147296,216.544 709.123296,216.64 L709.131296,216.648 C709.499296,216.304 709.979296,216.12 710.539296,216.12 C711.411296,216.12 711.843296,216.584 711.843296,217.504 C711.843296,217.656 711.835296,217.824 711.811296,218 L711.395296,221 Z M713.970996,221 L712.970996,221 L713.634996,216.232 L714.642996,216.176 L713.970996,221 Z M714.338996,214.592 C714.714996,214.592 714.882996,214.712 714.882996,214.96 C714.882996,215.32 714.650996,215.488 714.210996,215.488 C713.850996,215.488 713.666996,215.4 713.666996,215.136 C713.666996,214.776 713.898996,214.592 714.338996,214.592 Z M718.490696,221 L718.906696,218.032 C718.922696,217.904 718.938696,217.768 718.938696,217.664 C718.938696,217.144 718.714696,216.96 718.266696,216.96 C717.586696,216.96 717.114696,217.472 716.994696,218.32 L716.618696,221 L715.618696,221 L716.282696,216.232 L717.066696,216.176 L717.082696,216.456 C717.090696,216.56 717.098696,216.672 717.098696,216.776 L717.114696,216.784 C717.482696,216.352 718.010696,216.12 718.634696,216.12 C719.506696,216.12 719.946696,216.584 719.946696,217.496 C719.946696,217.648 719.930696,217.816 719.906696,218 L719.490696,221 L718.490696,221 Z M723.538397,216.128 C723.866397,216.128 724.162397,216.168 724.434397,216.232 L724.650397,214.712 L725.658397,214.656 L724.770397,221 L724.002397,221 L723.970397,220.768 C723.954397,220.664 723.946397,220.544 723.946397,220.44 L723.930397,220.432 C723.530397,220.88 722.986397,221.08 722.418397,221.08 C721.530397,221.08 721.050397,220.624 721.050397,219.456 C721.050397,217.184 722.066397,216.128 723.538397,216.128 Z M722.786397,220.296 C723.426397,220.296 723.946397,219.776 724.058397,218.944 L724.322397,217.032 C724.114397,216.968 723.882397,216.936 723.594397,216.936 C722.770397,216.936 722.290397,217.48 722.122397,218.704 C722.082397,218.96 722.066397,219.184 722.066397,219.368 C722.066397,220.08 722.330397,220.296 722.786397,220.296 Z M728.874097,216.12 C729.802097,216.12 730.282097,216.568 730.282097,217.176 C730.282097,218.168 729.466097,218.768 727.426097,219.016 C727.418097,219.096 727.418097,219.168 727.418097,219.24 C727.418097,220.04 727.754097,220.288 728.394097,220.288 C728.874097,220.288 729.298097,220.144 729.618097,219.872 L729.890097,220.472 C729.474097,220.832 728.874097,221.08 728.114097,221.08 C727.090097,221.08 726.426097,220.56 726.426097,219.264 C726.426097,219.056 726.450097,218.824 726.482097,218.576 C726.714097,216.952 727.538097,216.12 728.874097,216.12 Z M728.778097,216.864 C728.074097,216.864 727.698097,217.336 727.506097,218.344 C728.922097,218.168 729.386097,217.784 729.386097,217.296 C729.386097,217.048 729.202097,216.864 728.778097,216.864 Z M734.009798,216.12 C734.233798,216.12 734.449798,216.176 734.593798,216.248 L734.313798,217.184 C734.169798,217.104 734.017798,217.08 733.809798,217.08 C733.113798,217.08 732.505798,217.664 732.345798,218.8 L732.041798,221 L731.041798,221 L731.705798,216.232 L732.497798,216.184 L732.505798,216.704 C732.505798,216.808 732.505798,216.92 732.497798,217.024 L732.513798,217.032 C732.913798,216.416 733.425798,216.12 734.009798,216.12 Z M739.561498,216.208 L739.113498,219.376 C738.953498,220.48 738.241498,221.088 736.937498,221.088 C735.785498,221.088 735.225498,220.584 735.225498,219.712 C735.225498,219.608 735.233498,219.496 735.249498,219.376 L735.689498,216.232 L736.705498,216.176 L736.257498,219.368 C736.249498,219.44 736.241498,219.504 736.241498,219.568 C736.241498,220.024 736.497498,220.264 737.057498,220.264 C737.673498,220.264 738.017498,219.96 738.105498,219.368 L738.553498,216.208 L739.561498,216.208 Z M743.257198,221 L743.673198,218.032 C743.689198,217.904 743.705198,217.768 743.705198,217.664 C743.705198,217.144 743.481198,216.96 743.033198,216.96 C742.353198,216.96 741.881198,217.472 741.761198,218.32 L741.385198,221 L740.385198,221 L741.049198,216.232 L741.833198,216.176 L741.849198,216.456 C741.857198,216.56 741.865198,216.672 741.865198,216.776 L741.881198,216.784 C742.249198,216.352 742.777198,216.12 743.401198,216.12 C744.273198,216.12 744.713198,216.584 744.713198,217.496 C744.713198,217.648 744.697198,217.816 744.673198,218 L744.257198,221 L743.257198,221 Z M750.192899,216.2 L749.624899,220.232 C749.416899,221.712 748.464899,222.256 747.216899,222.256 C746.728899,222.256 746.224899,222.152 745.840899,221.976 L746.048899,221.248 C746.408899,221.4 746.784899,221.496 747.144899,221.496 C747.952899,221.496 748.480899,221.208 748.616899,220.24 L748.624899,220.16 L748.608899,220.152 C748.296899,220.536 747.856899,220.712 747.328899,220.712 C746.488899,220.712 745.944899,220.296 745.944899,219.152 C745.944899,217.344 746.936899,216.128 748.648899,216.128 C749.088899,216.128 749.448899,216.2 749.832899,216.2 L750.192899,216.2 Z M747.688899,219.936 C748.296899,219.936 748.720899,219.472 748.840899,218.624 L749.080899,216.928 C748.936899,216.912 748.784899,216.904 748.568899,216.904 C747.616899,216.904 746.960899,217.704 746.960899,219.064 C746.960899,219.72 747.216899,219.936 747.688899,219.936 Z M753.600599,216.12 C754.528599,216.12 755.008599,216.568 755.008599,217.176 C755.008599,218.168 754.192599,218.768 752.152599,219.016 C752.144599,219.096 752.144599,219.168 752.144599,219.24 C752.144599,220.04 752.480599,220.288 753.120599,220.288 C753.600599,220.288 754.024599,220.144 754.344599,219.872 L754.616599,220.472 C754.200599,220.832 753.600599,221.08 752.840599,221.08 C751.816599,221.08 751.152599,220.56 751.152599,219.264 C751.152599,219.056 751.176599,218.824 751.208599,218.576 C751.440599,216.952 752.264599,216.12 753.600599,216.12 Z M753.504599,216.864 C752.800599,216.864 752.424599,217.336 752.232599,218.344 C753.648599,218.168 754.112599,217.784 754.112599,217.296 C754.112599,217.048 753.928599,216.864 753.504599,216.864 Z M758.6403,221 L759.0563,218.032 C759.0723,217.904 759.0883,217.768 759.0883,217.664 C759.0883,217.144 758.8643,216.96 758.4163,216.96 C757.7363,216.96 757.2643,217.472 757.1443,218.32 L756.7683,221 L755.7683,221 L756.4323,216.232 L757.2163,216.176 L757.2323,216.456 C757.2403,216.56 757.2483,216.672 757.2483,216.776 L757.2643,216.784 C757.6323,216.352 758.1603,216.12 758.7843,216.12 C759.6563,216.12 760.0963,216.584 760.0963,217.496 C760.0963,217.648 760.0803,217.816 760.0563,218 L759.6403,221 L758.6403,221 Z" id="BeauftragterderBundesregierungfürdieBelangevonMenschenmitBehinderungen" fill="#1E3791" fill-rule="nonzero"></path>
    </g>
</svg>