<?xml version="1.0" encoding="UTF-8"?>
<svg width="870px" height="298px" viewBox="0 0 870 298" version="1.1" xmlns="http://www.w3.org/2000/svg" xmlns:xlink="http://www.w3.org/1999/xlink">
    <!-- Generator: Sketch 53 (72520) - https://sketchapp.com -->
    <title>A4</title>
    <desc>Created with Sketch.</desc>
    <g id="A4" stroke="none" stroke-width="1" fill="none" fill-rule="evenodd">
        <g id="Group" transform="translate(231.000000, 115.000000)" fill="#1E3791" fill-rule="nonzero">
            <g id="Group-10" transform="translate(0.000000, 26.000000)">
                <rect id="Rectangle" x="0" y="0" width="66" height="15" rx="3"></rect>
            </g>
            <g id="Group-10" transform="translate(33.000000, 33.500000) rotate(-270.000000) translate(-33.000000, -33.500000) translate(0.000000, 26.000000)">
                <rect id="Rectangle" x="0" y="0" width="66" height="15" rx="3"></rect>
            </g>
        </g>
        <g id="Group-2" transform="translate(344.000000, 87.000000)">
            <g id="pad" transform="translate(10.000000, 23.576547)" fill="#1E3791" fill-rule="nonzero" stroke="#1E3791" stroke-width="3.5">
                <rect id="Rectangle" x="12.25" y="5.75" width="86.5" height="51.5" rx="2"></rect>
            </g>
            <g id="iphone" fill="#FFFFFF" fill-rule="nonzero" stroke="#1E3791" stroke-width="3.5">
                <rect id="Rectangle" x="8.25" y="8.75" width="30" height="51.5" rx="2"></rect>
            </g>
            <g id="hand" transform="translate(43.000000, 32.000000)">
                <g id="Hand" transform="translate(40.480227, 45.176446) rotate(36.000000) translate(-40.480227, -45.176446) translate(12.559773, 9.810536)"></g>
                <g id="Hand" transform="translate(42.331185, 46.725454) rotate(-30.000000) translate(-42.331185, -46.725454) translate(10.274367, 4.120909)" fill="#FFFFFF" stroke="#1E3791" stroke-linecap="round" stroke-linejoin="round">
                    <path d="M55.19306,39.5150217 C52.1998767,32.3281398 38.6617583,32.2982149 30.7005559,37.2410987 C29.4662573,30.3771156 28.0069385,23.5367691 26.9145571,16.6460195 C26.2882745,12.6955893 24.6197934,6.03073594 19.409905,9.22425757 C17.2014559,10.5777996 17.2469216,13.7494116 17.511787,16.1101503 C17.9327211,19.8613429 18.6633842,23.5854452 19.1328954,27.3364219 C20.0947009,35.0176461 21.1201383,42.6903438 21.9915142,50.3841956 C20.5436371,47.3499777 19.3732715,44.1620684 17.9929406,41.090507 C17.0139726,38.9120609 16.100142,35.6597178 13.6495102,34.9391814 C11.5270746,34.3153498 8.66109198,35.4533707 7.84635951,38.1182405 C7.03162703,40.7831104 19.7860854,73.9941556 24.748372,77.8068508 C29.7106586,81.6195459 47.6031606,80.9541131 51.8937986,77.282307 C56.1844366,73.6105009 58.1862433,46.7019037 55.19306,39.5150217 Z" id="Fill-5" stroke-width="3.5" transform="translate(32.215392, 44.376656) rotate(13.000000) translate(-32.215392, -44.376656) "></path>
                </g>
            </g>
            <g id="wifi" transform="translate(62.979005, 43.414979) rotate(-27.000000) translate(-62.979005, -43.414979) translate(53.979005, 38.414979)" stroke="#FFFFFF" stroke-linecap="round" stroke-width="3.5">
                <g id="iconfinder_wifi_2561503" transform="translate(0.016807, 0.066956)">
                    <path d="M0.0807748401,4.22459313 C4.8275124,-0.842363076 11.7205919,-0.842363076 16.4673295,4.22459313" id="Path"></path>
                    <path d="M4.11438829,8.02481029 C6.52971224,5.66023072 9.76629122,5.66023072 12.1816152,8.02481029" id="Path"></path>
                </g>
            </g>
            <g id="wifi" transform="translate(22.000000, 34.612378) rotate(-270.000000) translate(-22.000000, -34.612378) translate(7.000000, 22.071661)" stroke="#1E3791" stroke-linecap="round">
                <g id="iconfinder_wifi_2561503" transform="translate(2.000000, 5.000000)">
                    <path d="M4,10 C8.70718142,5 15.5428186,5 20.25,10" id="Path" stroke-width="3.5"></path>
                    <path d="M0,6 C6.92944557,-2 17.3205544,-2 24.25,6" id="Path" stroke-width="3.5"></path>
                    <path d="M8,13.75 C10.3951963,11.4166667 13.6048037,11.4166667 16,13.75" id="Path" stroke-width="3.5"></path>
                </g>
            </g>
        </g>
        <g id="duplicate_99_original_duplicate_51_original_original_original_Group_63178032_38240594_93844063_85621825" transform="translate(112.000000, 103.000000)" fill="#1E3791">
            <path d="M46.8405774,87.9548474 C47.7797102,89.9252402 49.6579757,91 51.7240678,91 C52.4753741,91 53.2266803,90.8208734 53.9779865,90.4626201 C56.7953848,89.2087337 57.9223442,86.1635811 56.6075583,83.4766817 C56.6075583,83.4766817 46.2770977,60.9067269 44.3988321,52.6669021 C43.6475259,49.8008761 43.2718728,42.0984312 43.0840463,38.5158987 C43.0840463,37.2620124 43.8353525,36.1872526 44.9623118,35.8289994 L68.0649782,29.2013142 C70.8823765,28.4848077 72.5728155,25.4396551 71.8215093,22.7527557 C71.0702031,20.0658563 67.8771516,18.4537167 65.0597533,19.1702232 C65.0597533,19.1702232 43.6475259,25.7979083 35.9466371,25.7979083 C28.4335749,25.7979083 7.20917408,19.3493498 7.20917408,19.3493498 C4.39177574,18.6328433 1.19872429,19.8867297 0.25959151,22.5736291 C-0.679541269,25.4396551 1.01089773,28.4848077 4.01612263,29.2013142 L27.118789,35.8289994 C28.2457483,36.1872526 29.1848811,37.2620124 28.9970546,38.5158987 C28.809228,42.0984312 28.4335749,49.8008761 27.6822687,52.6669021 C25.8040031,60.9067269 15.4735425,83.4766817 15.4735425,83.4766817 C14.1587566,86.1635811 15.4735425,89.2087337 18.1031143,90.4626201 C18.8544205,90.8208734 19.6057268,91 20.357033,91 C22.4231251,91 24.4892172,89.9252402 25.2405234,87.9548474 L36.3222902,66.4596523 L46.8405774,87.9548474 Z" id="Path"></path>
            <circle id="Oval" cx="38.5" cy="9.5" r="9.5"></circle>
        </g>
        <g id="Group-10" transform="translate(525.000000, 106.000000)" fill="#1E3791" fill-rule="nonzero">
            <rect id="Rectangle" x="0" y="31" width="76" height="15" rx="3"></rect>
            <g id="Group-9" transform="translate(19.000000, 0.000000)">
                <g id="Group-8">
                    <g id="Group-7">
                        <path d="M64.1639344,19.9049587 L64.1639344,62.4628099 C64.1639344,64.1196642 62.8207887,65.4628099 61.1639344,65.4628099 L52.2131148,65.4628099 C50.5562605,65.4628099 49.2131148,64.1196642 49.2131148,62.4628099 L49.2131148,26.4132231 L14.8360656,26.4132231 C13.1792113,26.4132231 11.8360656,25.0700774 11.8360656,23.4132231 L11.8360656,14.5371901 C11.8360656,12.8803358 13.1792113,11.5371901 14.8360656,11.5371901 L61.1639344,11.5371901 C62.8207887,11.5371901 64.1639344,12.8803358 64.1639344,14.5371901 L64.1639344,19.9049587 Z" id="Combined-Shape" transform="translate(38.000000, 38.500000) rotate(-315.000000) translate(-38.000000, -38.500000) "></path>
                    </g>
                </g>
            </g>
        </g>
        <g id="Group-3" transform="translate(667.000000, 99.000000)">
            <circle id="Oval" stroke="#1E3791" stroke-width="9" fill-rule="nonzero" cx="46" cy="46" r="46"></circle>
            <circle id="Oval" fill="#1E3791" fill-rule="nonzero" cx="25.5" cy="30.5" r="5.5"></circle>
            <circle id="Oval" fill="#1E3791" fill-rule="nonzero" cx="67.5" cy="30.5" r="5.5"></circle>
            <path d="M20,71 C35.1447676,53.6666667 57.8552324,53.6666667 73,71" id="Path" stroke="#1E3791" stroke-width="9" stroke-linecap="round" transform="translate(46.500000, 64.500000) scale(1, -1) translate(-46.500000, -64.500000) "></path>
        </g>
    </g>
</svg>