<?xml version="1.0" encoding="UTF-8"?>
<svg width="870px" height="298px" viewBox="0 0 870 298" version="1.1" xmlns="http://www.w3.org/2000/svg" xmlns:xlink="http://www.w3.org/1999/xlink">
    <!-- Generator: Sketch 53 (72520) - https://sketchapp.com -->
    <title>A4</title>
    <desc>Created with Sketch.</desc>
    <g id="A4" stroke="none" stroke-width="1" fill="none" fill-rule="evenodd">
        <path d="M376,211.09589 L348.933486,211.09589 C347.865596,211.09589 347,210.231015 347,209.164015 L347,168.859156 C347,167.792156 347.865596,166.927281 348.933486,166.927281 L353.184404,166.927281 L353.184404,159.588047 C353.184404,158.521047 354.05,157.656172 355.11789,157.656172 L366.581365,157.656172 C367.677294,152.531375 370.413589,147.866 374.399083,144.380375 C378.352236,140.923109 383.3,138.845312 388.505791,138.420781 L389,138.417541 L389,128 C389,126.895431 389.895431,126 391,126 C392.104569,126 393,126.895431 393,128 L393,138.467122 C398.019891,138.981467 402.775948,141.034988 406.600917,144.380203 C410.586411,147.865828 413.322534,152.531375 414.418635,157.656 L425.882282,157.656 C426.950172,157.656 427.815768,158.520875 427.815768,159.587875 L427.815768,166.927109 L432.066686,166.927109 C433.134576,166.927109 434,167.791984 434,168.858984 L434,209.164015 C434,210.231015 433.134404,211.09589 432.066514,211.09589 L406,211.09589 L406,213.5 C406,214.880712 404.880712,216 403.5,216 L378.5,216 C377.119288,216 376,214.880712 376,213.5 L376,211.09589 Z M394.870814,204 L394.870814,192.7515 L386.12953,192.7515 L386.12953,204 L394.870814,204 Z M406,207.232312 L430.133372,207.232312 L430.133372,170.790687 L425.882282,170.790687 L355.118062,170.790687 L350.866972,170.790687 L350.866972,207.232312 L374.065711,207.232312 L376,207.232312 L376,206.5 C376,205.119288 377.119288,204 378.5,204 L382.262385,204 L382.262385,190.819797 C382.262385,189.752797 383.127982,188.887922 384.195872,188.887922 L396.804128,188.887922 C397.872018,188.887922 398.737615,189.752797 398.737615,190.819797 L398.737615,204 L403.5,204 C404.880712,204 406,205.119288 406,206.5 L406,207 L406,207.232312 Z M390.500172,142.201687 C381.06617,142.201687 372.855734,148.705609 370.55258,157.656172 L410.447592,157.656172 C408.144782,148.705609 399.934346,142.201687 390.500172,142.201687 Z M357.051376,161.519578 L357.051376,166.927109 L423.94914,166.927109 L423.94914,161.519578 L412.800287,161.519578 L368.200229,161.519578 L357.051376,161.519578 Z M371.039238,174 C372.122193,174 372.999826,174.852761 373,175.904816 L373,184.095184 C373,185.147239 372.122193,186 371.039238,186 L359.960762,186 C358.877807,186 358,185.147239 358,184.095184 L358,175.904816 C358,174.852761 358.877807,174 359.960762,174 L371.039238,174 Z M369.078477,182.190369 L369.078477,177.809462 L361.921349,177.809462 L361.921349,182.190369 L369.078477,182.190369 Z M371.039238,191 C372.122193,191 372.999826,191.852761 373,192.904816 L373,201.095184 C373,202.147239 372.122193,203 371.039238,203 L359.960762,203 C358.877807,203 358,202.147239 358,201.095184 L358,192.904816 C358,191.852761 358.877807,191 359.960762,191 L371.039238,191 Z M369.078477,199.190369 L369.078477,194.809462 L361.921349,194.809462 L361.921349,199.190369 L369.078477,199.190369 Z M396.039261,174.09589 C397.122203,174.09589 398,174.948651 398,176.000706 L398,184.191075 C398,185.24313 397.122203,186.09589 396.039261,186.09589 L384.960739,186.09589 C383.877797,186.09589 383,185.24313 383,184.191075 L383,176.000706 C383,174.948651 383.877797,174.09589 384.960739,174.09589 L396.039261,174.09589 Z M394.078697,182.286259 L394.078697,177.905352 L386.921477,177.905352 L386.921477,182.286259 L394.078697,182.286259 Z M421.039238,174 C422.122193,174 423,174.852761 423,175.904816 L423,184.095184 C423,185.147239 422.122193,186 421.039238,186 L409.960762,186 C408.877807,186 408,185.147239 408,184.095184 L408,175.904816 C408,174.852761 408.877807,174 409.960762,174 L421.039238,174 Z M419.078651,182.190369 L419.078651,177.809462 L411.921523,177.809462 L411.921523,182.190369 L419.078651,182.190369 Z M421.039238,191 C422.122193,191 423,191.852761 423,192.904816 L423,201.095184 C423,202.147239 422.122193,203 421.039238,203 L409.960762,203 C408.877807,203 408,202.147239 408,201.095184 L408,192.904816 C408,191.852761 408.877807,191 409.960762,191 L421.039238,191 Z M419.078651,199.190369 L419.078651,194.809462 L411.921523,194.809462 L411.921523,199.190369 L419.078651,199.190369 Z" id="Combined-Shape" fill="#1E3791" fill-rule="nonzero"></path>
        <g id="government" transform="translate(431.000000, 152.000000)" fill="#1E3791" fill-rule="nonzero">
            <path d="M53,0.0961277817 L3.90968048,0.0961277817 L2,0.0961277817 C1,0.095890411 0,0.0961226517 0,2 C8.86144175e-18,2.16050517 8.86144175e-18,20.9697864 0,58.4278436 C0,59.901441 0.547216071,61.0958904 1.22231889,61.0958904 L23.5146314,61.0958904 L31.4853686,61.0958904 L53.7776811,61.0958904 C54.4527839,61.0958904 55,59.901441 55,58.4278436 C55,20.8092812 55,2 55,2 C55,2 55,0.0961226517 53,0.0961277817 Z M34.8185005,57.2323123 L17.6223685,57.2323123 L3.86697248,57.2323123 L3.86697248,4.23231229 L6.38760173,4.23231229 L48.3463432,4.23231229 L50.8669725,4.23231229 L50.8669725,57.2323123 L34.8185005,57.2323123 Z" id="Shape"></path>
            <path d="M22.0392385,24.0958904 L10.9607615,24.0958904 C9.87780711,24.0958904 9,24.9486513 9,26.0007061 L9,34.1910747 C9,35.2431295 9.87780711,36.0958904 10.9607615,36.0958904 L22.0392385,36.0958904 C23.1221929,36.0958904 24,35.2431295 24,34.1910747 L24,26.0007061 C23.9998256,24.9486513 23.1221929,24.0958904 22.0392385,24.0958904 Z M20.078477,32.286259 L12.9213486,32.286259 L12.9213486,27.9053524 L20.078477,27.9053524 L20.078477,32.286259 Z" id="Shape"></path>
            <path d="M22.0392385,8 L10.9607615,8 C9.87780711,8 9,8.85276091 9,9.9048157 L9,18.0951843 C9,19.1472391 9.87780711,20 10.9607615,20 L22.0392385,20 C23.1221929,20 24,19.1472391 24,18.0951843 L24,9.9048157 C23.9998256,8.85276091 23.1221929,8 22.0392385,8 Z M20.078477,16.1903686 L12.9213486,16.1903686 L12.9213486,11.8094619 L20.078477,11.8094619 L20.078477,16.1903686 Z" id="Shape"></path>
            <path d="M22.0392385,41.0958904 L10.9607615,41.0958904 C9.87780711,41.0958904 9,41.9486513 9,43.0007061 L9,51.1910747 C9,52.2431295 9.87780711,53.0958904 10.9607615,53.0958904 L22.0392385,53.0958904 C23.1221929,53.0958904 24,52.2431295 24,51.1910747 L24,43.0007061 C23.9998256,41.9486513 23.1221929,41.0958904 22.0392385,41.0958904 Z M20.078477,49.286259 L12.9213486,49.286259 L12.9213486,44.9053524 L20.078477,44.9053524 L20.078477,49.286259 Z" id="Shape"></path>
            <path d="M43.0392613,8 L31.9607387,8 C30.8777969,8 30,8.85276091 30,9.9048157 L30,18.0951843 C30,19.1472391 30.8777969,20 31.9607387,20 L43.0392613,20 C44.1222031,20 45,19.1472391 45,18.0951843 L45,9.9048157 C45,8.85276091 44.1222031,8 43.0392613,8 Z M41.078697,16.1903686 L33.9214774,16.1903686 L33.9214774,11.8094619 L41.078697,11.8094619 L41.078697,16.1903686 Z" id="Shape"></path>
            <path d="M43.0392385,24.0958904 L31.9607615,24.0958904 C30.8778071,24.0958904 30,24.9486513 30,26.0007061 L30,34.1910747 C30,35.2431295 30.8778071,36.0958904 31.9607615,36.0958904 L43.0392385,36.0958904 C44.1221929,36.0958904 45,35.2431295 45,34.1910747 L45,26.0007061 C45,24.9486513 44.1221929,24.0958904 43.0392385,24.0958904 Z M41.0786514,32.286259 L33.921523,32.286259 L33.921523,27.9053524 L41.0786514,27.9053524 L41.0786514,32.286259 Z" id="Shape"></path>
            <path d="M43.0392385,41 L31.9607615,41 C30.8778071,41 30,41.8527609 30,42.9048157 L30,51.0951843 C30,52.1472391 30.8778071,53 31.9607615,53 L43.0392385,53 C44.1221929,53 45,52.1472391 45,51.0951843 L45,42.9048157 C45,41.8527609 44.1221929,41 43.0392385,41 Z M41.0786514,49.1903686 L33.921523,49.1903686 L33.921523,44.8094619 L41.0786514,44.8094619 L41.0786514,49.1903686 Z" id="Shape"></path>
        </g>
        <g id="Group-7" transform="translate(286.767584, 152.017212) scale(-1, 1) rotate(7.000000) translate(-286.767584, -152.017212) translate(249.767584, 86.017212)">
            <rect id="Rectangle" stroke="#1E3791" stroke-width="5" fill="#1E3791" fill-rule="nonzero" x="3.36860312" y="0.364968477" width="70" height="45" rx="2"></rect>
            <rect id="Rectangle" fill="#1E3791" x="0.877376549" y="1.1603703" width="7" height="130" rx="3.5"></rect>
            <g id="duplicate_99_original_duplicate_51_original_original_original_Group_63178032_38240594_93844063_85621825" transform="translate(23.492899, 3.421082)" fill="#FFFFFF">
                <path d="M19.5169072,36.8561864 C19.9082126,37.6771834 20.6908232,38.125 21.5516949,38.125 C21.8647392,38.125 22.1777834,38.0503639 22.4908277,37.9010917 C23.6647437,37.3786391 24.1343101,36.1098255 23.5864826,34.9902841 C23.5864826,34.9902841 19.282124,25.5861362 18.4995134,22.1528759 C18.1864691,20.9586984 18.029947,17.7493464 17.9516859,16.2566245 C17.9516859,15.7341718 18.2647302,15.2863553 18.7342966,15.1370831 L28.3604076,12.3755476 C29.5343236,12.0770032 30.2386731,10.8081896 29.9256289,9.68864821 C29.6125846,8.5691068 28.2821465,7.89738195 27.1082305,8.19592633 C27.1082305,8.19592633 18.1864691,10.9574618 14.9777655,10.9574618 C11.8473229,10.9574618 3.00382253,8.27056242 3.00382253,8.27056242 C1.82990656,7.97201805 0.499468454,8.4944707 0.108163129,9.61401211 C-0.283142195,10.8081896 0.421207389,12.0770032 1.67338443,12.3755476 L11.2994954,15.1370831 C11.7690618,15.2863553 12.1603671,15.7341718 12.0821061,16.2566245 C12.003845,17.7493464 11.8473229,20.9586984 11.5342786,22.1528759 C10.751668,25.5861362 6.44730939,34.9902841 6.44730939,34.9902841 C5.89948194,36.1098255 6.44730939,37.3786391 7.5429643,37.9010917 C7.85600856,38.0503639 8.16905282,38.125 8.48209708,38.125 C9.34296879,38.125 10.2038405,37.6771834 10.5168848,36.8561864 L15.1342876,27.8998551 L19.5169072,36.8561864 Z" id="Path"></path>
                <circle id="Oval" cx="15" cy="4.125" r="4"></circle>
            </g>
        </g>
        <path d="M403.828,246.02 C403.828,251.596 398.949,256.229 391.979,262.051 L391.979,262.174 L403.787,262.174 L403.664,268.119 L383.246,268.119 L383.246,263.691 C390.626,256.393 396.858,251.227 396.858,246.676 C396.858,244.544 395.464,243.027 392.02,243.027 C389.314,243.027 386.854,244.134 384.599,245.733 L383,240.239 C385.542,238.312 389.068,237 393.25,237 C400.302,237 403.828,240.649 403.828,246.02 Z M431.4907,252.867 C431.4907,263.896 428.0057,268.529 420.0107,268.529 C411.9747,268.529 408.6537,263.896 408.6537,252.867 C408.6537,241.305 411.9747,237 420.0927,237 C428.0467,237 431.4907,241.305 431.4907,252.867 Z M424.8897,252.785 C424.8897,244.38 423.3727,242.904 420.0927,242.904 C416.7307,242.904 415.2137,244.503 415.2137,252.785 C415.2137,261.395 416.7307,262.789 420.0927,262.789 C423.3727,262.789 424.8897,261.231 424.8897,252.785 Z M457.349401,246.02 C457.349401,251.596 452.470401,256.229 445.500401,262.051 L445.500401,262.174 L457.308401,262.174 L457.185401,268.119 L436.767401,268.119 L436.767401,263.691 C444.147401,256.393 450.379401,251.227 450.379401,246.676 C450.379401,244.544 448.985401,243.027 445.541401,243.027 C442.835401,243.027 440.375401,244.134 438.120401,245.733 L436.521401,240.239 C439.063401,238.312 442.589401,237 446.771401,237 C453.823401,237 457.349401,240.649 457.349401,246.02 Z M485.012101,252.867 C485.012101,263.896 481.527101,268.529 473.532101,268.529 C465.496101,268.529 462.175101,263.896 462.175101,252.867 C462.175101,241.305 465.496101,237 473.614101,237 C481.568101,237 485.012101,241.305 485.012101,252.867 Z M478.411101,252.785 C478.411101,244.38 476.894101,242.904 473.614101,242.904 C470.252101,242.904 468.735101,244.503 468.735101,252.785 C468.735101,261.395 470.252101,262.789 473.614101,262.789 C476.894101,262.789 478.411101,261.231 478.411101,252.785 Z" id="2020" fill="#1E3791" fill-rule="nonzero"></path>
        <rect id="Rectangle" fill="#1E3791" fill-rule="nonzero" x="240" y="207" width="389" height="14" rx="5"></rect>
        <rect id="Rectangle" fill="#1E3791" x="378" y="123" width="15" height="12" rx="2"></rect>
        <g id="Group-9" transform="translate(482.000000, 141.000000)" fill="#1E3791">
            <g id="Group" transform="translate(32.000000, 0.000000)">
                <g id="Group-5" transform="translate(0.379310, 0.258065)">
                    <g id="Group-3" transform="translate(0.000000, 13.094293)" stroke="#1E3791" stroke-width="1.3101737">
                        <path d="M0.655086849,8.70223325 L20.5862925,8.70223325 L20.5862925,4.67186401 C20.5862925,4.31006953 20.2930001,4.01677716 19.9312056,4.01677716 L18.3895859,4.01677716 C18.0919348,4.01677716 17.8316975,4.21744622 17.7560238,4.5053172 L17.1442182,6.83269192 L14.1893534,6.83269192 L12.880354,1.3898886 C12.809552,1.09549478 12.5462164,0.887982985 12.2434283,0.887982985 L8.99795098,0.887982985 C8.69516286,0.887982985 8.43182733,1.09549478 8.36102533,1.3898886 L7.05202589,6.83269192 L3.98350712,6.83269192 L3.45620394,4.52588568 C3.38811501,4.22801535 3.12314228,4.01677716 2.81758895,4.01677716 L1.3101737,4.01677716 C0.948379221,4.01677716 0.655086849,4.31006953 0.655086849,4.67186401 L0.655086849,8.70223325 Z" id="Path-3"></path>
                    </g>
                    <ellipse id="Oval" cx="19.2310345" cy="14.8387097" rx="1.89655172" ry="1.93548387"></ellipse>
                    <ellipse id="Oval" cx="10.6206897" cy="11.7829912" rx="2" ry="2.04105572"></ellipse>
                    <ellipse id="Oval" cx="1.89655172" cy="14.8967742" rx="1.89655172" ry="1.93548387"></ellipse>
                </g>
            </g>
            <g id="Group-6" transform="translate(0.000000, 25.000000)">
                <path d="M82.1549296,51.7954545 L82.1549296,3.79545455 L4.15492958,3.79545455 L4.15492958,51.7954545 L2.42253521,51.7954545 C1.08460596,51.7954545 1.94020592e-15,50.7108486 1.77635684e-15,49.3729193 L0,2.42253521 C-1.63849078e-16,1.08460596 1.08460596,2.02213046e-15 2.42253521,1.77635684e-15 L83.5774648,-4.4408921e-16 C84.915394,-6.89862826e-16 86,1.08460596 86,2.42253521 L86,49.3729193 C86,50.7108486 84.915394,51.7954545 83.5774648,51.7954545 L82.1549296,51.7954545 Z M16.4225352,16.8636364 C17.7604645,16.8636364 18.8450704,17.9482423 18.8450704,19.2861716 L18.8450704,50.5774648 C18.8450704,51.915394 17.7604645,53 16.4225352,53 C15.084606,53 14,51.915394 14,50.5774648 L14,19.2861716 C14,17.9482423 15.084606,16.8636364 16.4225352,16.8636364 Z M29.7464789,16.8636364 C31.0844081,16.8636364 32.1690141,17.9482423 32.1690141,19.2861716 L32.1690141,50.5774648 C32.1690141,51.915394 31.0844081,53 29.7464789,53 C28.4085496,53 27.3239437,51.915394 27.3239437,50.5774648 L27.3239437,19.2861716 C27.3239437,17.9482423 28.4085496,16.8636364 29.7464789,16.8636364 Z M43.0704225,16.8636364 C44.4083518,16.8636364 45.4929577,17.9482423 45.4929577,19.2861716 L45.4929577,50.5774648 C45.4929577,51.915394 44.4083518,53 43.0704225,53 C41.7324933,53 40.6478873,51.915394 40.6478873,50.5774648 L40.6478873,19.2861716 C40.6478873,17.9482423 41.7324933,16.8636364 43.0704225,16.8636364 Z M56.3943662,16.8636364 C57.7322955,16.8636364 58.8169014,17.9482423 58.8169014,19.2861716 L58.8169014,50.5774648 C58.8169014,51.915394 57.7322955,53 56.3943662,53 C55.0564369,53 53.971831,51.915394 53.971831,50.5774648 L53.971831,19.2861716 C53.971831,17.9482423 55.0564369,16.8636364 56.3943662,16.8636364 Z M69.7183099,16.8636364 C71.0562391,16.8636364 72.1408451,17.9482423 72.1408451,19.2861716 L72.1408451,50.5774648 C72.1408451,51.915394 71.0562391,53 69.7183099,53 C68.3803806,53 67.2957746,51.915394 67.2957746,50.5774648 L67.2957746,19.2861716 C67.2957746,17.9482423 68.3803806,16.8636364 69.7183099,16.8636364 Z M18.7967858,10.3703249 C18.8282557,10.5244707 18.8452839,10.6835475 18.8450684,10.8402659 C18.8450684,11.4763585 18.5859808,12.0955144 18.1352717,12.5438021 C18.0238338,12.6546413 17.9003253,12.755833 17.7671172,12.8450189 C17.6362801,12.9318465 17.4957434,13.0064539 17.3504646,13.0666973 C17.2025993,13.1269406 17.0502074,13.1726055 16.8950135,13.2041207 C16.7398196,13.2356359 16.5800992,13.25 16.4225342,13.25 C16.2649692,13.25 16.1050333,13.2354215 15.9500549,13.2041207 C15.794861,13.1728199 15.6422536,13.1269406 15.4969748,13.0666973 C15.349325,13.0064539 15.2087883,12.9318465 15.0779512,12.8450189 C14.9447431,12.755833 14.8212346,12.6546413 14.7097967,12.5438021 C14.2593032,12.0957288 14,11.4763585 14,10.8402659 C14,10.6835475 14.0170282,10.5244707 14.0484981,10.3703249 C14.077597,10.2159647 14.1260951,10.0641772 14.1866638,9.9196789 C14.2472326,9.77282233 14.322243,9.6330406 14.4095395,9.50290639 C14.4968361,9.37041389 14.5985744,9.24756891 14.7100122,9.13672972 C14.8214501,9.02589052 14.9449586,8.92469884 15.0781667,8.83787124 C15.2090039,8.75104363 15.349325,8.67643621 15.4971904,8.61619285 C15.6426847,8.5559495 15.7952921,8.51007022 15.9502704,8.47876941 C16.2625982,8.41616777 16.5848412,8.41616777 16.8950135,8.47876941 C17.0499919,8.51007022 17.2025993,8.5559495 17.3504646,8.61619285 C17.4957434,8.67643621 17.6362801,8.75104363 17.7671172,8.83787124 C17.9003253,8.92469884 18.0238338,9.02589052 18.1352717,9.13672972 C18.2467096,9.24756891 18.3484478,9.37041389 18.4357444,9.50290639 C18.523041,9.63282622 18.5980514,9.77260794 18.6586201,9.9196789 C18.7191889,10.0639628 18.7674714,10.2161791 18.7967858,10.3703249 Z M32.1207295,10.3703249 C32.1521994,10.5244707 32.1692276,10.6835475 32.1690121,10.8402659 C32.1690121,11.4763585 31.9099244,12.0955144 31.4592154,12.5438021 C31.3477775,12.6546413 31.224269,12.755833 31.0910609,12.8450189 C30.9602238,12.9318465 30.819687,13.0064539 30.6744083,13.0666973 C30.5265429,13.1269406 30.3741511,13.1726055 30.2189572,13.2041207 C30.0637632,13.2356359 29.9040428,13.25 29.7464779,13.25 C29.5889129,13.25 29.4289769,13.2354215 29.2739986,13.2041207 C29.1188046,13.1728199 28.9661972,13.1269406 28.8209185,13.0666973 C28.6732687,13.0064539 28.532732,12.9318465 28.4018949,12.8450189 C28.2686867,12.755833 28.1451782,12.6546413 28.0337404,12.5438021 C27.5832469,12.0957288 27.3239437,11.4763585 27.3239437,10.8402659 C27.3239437,10.6835475 27.3409719,10.5244707 27.3724418,10.3703249 C27.4015406,10.2159647 27.4500387,10.0641772 27.5106075,9.9196789 C27.5711762,9.77282233 27.6461866,9.6330406 27.7334832,9.50290639 C27.8207798,9.37041389 27.922518,9.24756891 28.0339559,9.13672972 C28.1453938,9.02589052 28.2689023,8.92469884 28.4021104,8.83787124 C28.5329475,8.75104363 28.6732687,8.67643621 28.821134,8.61619285 C28.9666283,8.5559495 29.1192357,8.51007022 29.2742141,8.47876941 C29.5865419,8.41616777 29.9087849,8.41616777 30.2189572,8.47876941 C30.3739356,8.51007022 30.5265429,8.5559495 30.6744083,8.61619285 C30.819687,8.67643621 30.9602238,8.75104363 31.0910609,8.83787124 C31.224269,8.92469884 31.3477775,9.02589052 31.4592154,9.13672972 C31.5706532,9.24756891 31.6723915,9.37041389 31.7596881,9.50290639 C31.8469846,9.63282622 31.9219951,9.77260794 31.9825638,9.9196789 C32.0431325,10.0639628 32.0914151,10.2161791 32.1207295,10.3703249 Z M45.4446732,10.3703249 C45.476143,10.5244707 45.4931713,10.6835475 45.4929557,10.8402659 C45.4929557,11.4763585 45.2338681,12.0955144 44.783159,12.5438021 C44.6717212,12.6546413 44.5482127,12.755833 44.4150045,12.8450189 C44.2841674,12.9318465 44.1436307,13.0064539 43.9983519,13.0666973 C43.8504866,13.1269406 43.6980948,13.1726055 43.5429008,13.2041207 C43.3877069,13.2356359 43.2279865,13.25 43.0704215,13.25 C42.9128566,13.25 42.7529206,13.2354215 42.5979422,13.2041207 C42.4427483,13.1728199 42.2901409,13.1269406 42.1448621,13.0666973 C41.9972124,13.0064539 41.8566756,12.9318465 41.7258385,12.8450189 C41.5926304,12.755833 41.4691219,12.6546413 41.357684,12.5438021 C40.9071905,12.0957288 40.6478873,11.4763585 40.6478873,10.8402659 C40.6478873,10.6835475 40.6649155,10.5244707 40.6963854,10.3703249 C40.7254843,10.2159647 40.7739824,10.0641772 40.8345511,9.9196789 C40.8951199,9.77282233 40.9701303,9.6330406 41.0574269,9.50290639 C41.1447235,9.37041389 41.2464617,9.24756891 41.3578996,9.13672972 C41.4693374,9.02589052 41.5928459,8.92469884 41.7260541,8.83787124 C41.8568912,8.75104363 41.9972124,8.67643621 42.1450777,8.61619285 C42.290572,8.5559495 42.4431794,8.51007022 42.5981578,8.47876941 C42.9104856,8.41616777 43.2327285,8.41616777 43.5429008,8.47876941 C43.6978792,8.51007022 43.8504866,8.5559495 43.9983519,8.61619285 C44.1436307,8.67643621 44.2841674,8.75104363 44.4150045,8.83787124 C44.5482127,8.92469884 44.6717212,9.02589052 44.783159,9.13672972 C44.8945969,9.24756891 44.9963351,9.37041389 45.0836317,9.50290639 C45.1709283,9.63282622 45.2459387,9.77260794 45.3065075,9.9196789 C45.3670762,10.0639628 45.4153588,10.2161791 45.4446732,10.3703249 Z M58.7686168,10.3703249 C58.8000867,10.5244707 58.8171149,10.6835475 58.8168994,10.8402659 C58.8168994,11.4763585 58.5578117,12.0955144 58.1071027,12.5438021 C57.9956648,12.6546413 57.8721563,12.755833 57.7389482,12.8450189 C57.6081111,12.9318465 57.4675743,13.0064539 57.3222956,13.0666973 C57.1744303,13.1269406 57.0220384,13.1726055 56.8668445,13.2041207 C56.7116506,13.2356359 56.5519301,13.25 56.3943652,13.25 C56.2368002,13.25 56.0768643,13.2354215 55.9218859,13.2041207 C55.7666919,13.1728199 55.6140846,13.1269406 55.4688058,13.0666973 C55.321156,13.0064539 55.1806193,12.9318465 55.0497822,12.8450189 C54.9165741,12.755833 54.7930656,12.6546413 54.6816277,12.5438021 C54.2311342,12.0957288 53.971831,11.4763585 53.971831,10.8402659 C53.971831,10.6835475 53.9888592,10.5244707 54.0203291,10.3703249 C54.049428,10.2159647 54.0979261,10.0641772 54.1584948,9.9196789 C54.2190635,9.77282233 54.2940739,9.6330406 54.3813705,9.50290639 C54.4686671,9.37041389 54.5704054,9.24756891 54.6818432,9.13672972 C54.7932811,9.02589052 54.9167896,8.92469884 55.0499977,8.83787124 C55.1808348,8.75104363 55.321156,8.67643621 55.4690214,8.61619285 C55.6145157,8.5559495 55.767123,8.51007022 55.9221014,8.47876941 C56.2344292,8.41616777 56.5566722,8.41616777 56.8668445,8.47876941 C57.0218229,8.51007022 57.1744303,8.5559495 57.3222956,8.61619285 C57.4675743,8.67643621 57.6081111,8.75104363 57.7389482,8.83787124 C57.8721563,8.92469884 57.9956648,9.02589052 58.1071027,9.13672972 C58.2185406,9.24756891 58.3202788,9.37041389 58.4075754,9.50290639 C58.494872,9.63282622 58.5698824,9.77260794 58.6304511,9.9196789 C58.6910199,10.0639628 58.7393024,10.2161791 58.7686168,10.3703249 Z M72.0925605,10.3703249 C72.1240304,10.5244707 72.1410586,10.6835475 72.140843,10.8402659 C72.140843,11.4763585 71.8817554,12.0955144 71.4310463,12.5438021 C71.3196085,12.6546413 71.1961,12.755833 71.0628918,12.8450189 C70.9320547,12.9318465 70.791518,13.0064539 70.6462392,13.0666973 C70.4983739,13.1269406 70.3459821,13.1726055 70.1907882,13.2041207 C70.0355942,13.2356359 69.8758738,13.25 69.7183088,13.25 C69.5607439,13.25 69.4008079,13.2354215 69.2458295,13.2041207 C69.0906356,13.1728199 68.9380282,13.1269406 68.7927495,13.0666973 C68.6450997,13.0064539 68.504563,12.9318465 68.3737258,12.8450189 C68.2405177,12.755833 68.1170092,12.6546413 68.0055713,12.5438021 C67.5550778,12.0957288 67.2957746,11.4763585 67.2957746,10.8402659 C67.2957746,10.6835475 67.3128029,10.5244707 67.3442728,10.3703249 C67.3733716,10.2159647 67.4218697,10.0641772 67.4824385,9.9196789 C67.5430072,9.77282233 67.6180176,9.6330406 67.7053142,9.50290639 C67.7926108,9.37041389 67.894349,9.24756891 68.0057869,9.13672972 C68.1172248,9.02589052 68.2407333,8.92469884 68.3739414,8.83787124 C68.5047785,8.75104363 68.6450997,8.67643621 68.792965,8.61619285 C68.9384593,8.5559495 69.0910667,8.51007022 69.2460451,8.47876941 C69.5583729,8.41616777 69.8806158,8.41616777 70.1907882,8.47876941 C70.3457665,8.51007022 70.4983739,8.5559495 70.6462392,8.61619285 C70.791518,8.67643621 70.9320547,8.75104363 71.0628918,8.83787124 C71.1961,8.92469884 71.3196085,9.02589052 71.4310463,9.13672972 C71.5424842,9.24756891 71.6442225,9.37041389 71.731519,9.50290639 C71.8188156,9.63282622 71.893826,9.77260794 71.9543948,9.9196789 C72.0149635,10.0639628 72.0632461,10.2161791 72.0925605,10.3703249 Z" id="Combined-Shape"></path>
            </g>
            <rect id="Rectangle" x="27" y="21" width="32" height="6" rx="2"></rect>
        </g>
        <g id="Group-8" transform="translate(416.000000, 19.000000)" fill="#1E3791">
            <path d="M9.97781925,72.138612 L8.66654611,139.450633 C8.61058064,139.467517 8.55506571,139.483976 8.5,139.5 C5.5,140.372975 4,140.872975 4,141 L5.8886873,69.9166779 C2.30873067,67.1753547 0,62.8572938 0,58 C0,49.7157288 6.71572875,43 15,43 C23.2842712,43 30,49.7157288 30,58 C30,62.8559913 27.6925074,67.1730388 24.1141924,69.9144722 L26,133.232312 L21.6105378,133.005707 L20.0295067,72.1360074 C18.4572811,72.695432 16.7642084,73 15,73 C13.2385314,73 11.5479778,72.6963772 9.97781925,72.138612 Z M15,69 C21.0751322,69 26,64.0751322 26,58 C26,51.9248678 21.0751322,47 15,47 C8.92486775,47 4,51.9248678 4,58 C4,64.0751322 8.92486775,69 15,69 Z" id="Combined-Shape"></path>
            <path d="M1.72726917,59.462775 L0,58.4545383 L2.01647336,55 L3.74374254,56.0082367 C7.44590115,58.1692503 11.1016346,59.2355059 14.7355059,59.2355059 C18.3693771,59.2355059 22.0251106,58.1692503 25.7272692,56.0082367 L27.4545383,55 L29.4710117,58.4545383 L27.7437425,59.462775 C23.4511618,61.9684281 19.1068953,63.2355059 14.7355059,63.2355059 C10.3641164,63.2355059 6.0198499,61.9684281 1.72726917,59.462775 Z" id="Line-3" fill-rule="nonzero"></path>
            <path d="M13.5,2.85977368 C13.6192881,1.5 13.6192881,0 15,0 C16.3807119,0 16.3807119,1.5 16.5,2.85977368 L17.5,43.1402263 C17.5,44.7196357 16.3807119,46 15,46 C13.6192881,46 12.5,44.7196357 12.5,43.1402263 L13.5,2.85977368 Z" id="Line-2" fill-rule="nonzero"></path>
        </g>
    </g>
</svg>