<svg xmlns="http://www.w3.org/2000/svg" width="60" height="36" viewBox="0 0 60 36">
  <g fill="#404040" fill-rule="evenodd" transform="translate(.515 .066)">
    <polygon points=".059 .02 14.545 .02 14.545 9.661 4.904 14.506 .059 14.506 .059 9.661 9.701 4.865 .059 4.865"/>
    <polygon points="22.103 .02 22.103 4.816 26.948 9.661 22.103 9.661 22.103 14.506 26.948 14.506 36.638 9.661 36.638 4.816 31.793 4.816 26.948 .02"/>
    <polygon points="44.188 .02 44.188 4.865 49.033 4.865 49.033 9.661 44.188 9.661 44.188 14.554 58.722 14.554 58.722 4.865 53.926 .02"/>
    <polygon points=".019 20.853 .019 35.339 4.864 35.339 4.864 30.494 14.505 30.494 14.505 20.853 9.757 20.853 9.757 25.698 4.864 25.698 4.864 20.853"/>
    <polygon points="26.948 20.853 31.841 20.853 31.841 30.494 26.948 35.339 22.103 35.339 22.103 30.494 26.972 25.698"/>
  </g>
</svg>
