<svg xmlns="http://www.w3.org/2000/svg" width="150" height="150" viewBox="0 0 150 150">
  <path fill="#000000" fill-rule="evenodd" d="M14.5080054,125.802711 L112.390975,25.0820196 L3.34138651,92.3519921 L14.5080054,125.802711 Z M150,82.6595144 L135.34458,114.924778 L46.7364154,99.827116 L49.1073257,97.3763564 L132.494574,111.583391 L116.825683,24.5599279 L13.3041235,131.072765 L0,91.2402441 L29.5258179,29.57815 L68.0377544,46.5430572 L65.132468,48.3365956 L30.8832562,33.245076 L4.5206994,88.3165309 L118.508661,18 L134.902338,109.089636 L146.259367,84.0906597 L131.47496,77.5675853 L130.873019,74.232341 L150,82.6595144 Z M75.6418656,50.3512551 L74.1922935,51.241882 L80.9794849,54.2393022 L82.0236682,53.1644077 L75.6418656,50.3512551 Z M89.0811187,56.2723885 L88.0369354,57.3411408 L123.281192,72.881045 L122.980222,71.2042095 L89.0811187,56.2723885 Z M6.49850538,92.9969289 L8.34118177,91.866754 L39.6728226,96.7252774 L38.4812252,97.9660129 L6.49850538,92.9969289 Z"/>
</svg>
