<?xml version="1.0" encoding="UTF-8"?>
<svg width="84px" height="39px" viewBox="0 0 84 39" version="1.1" xmlns="http://www.w3.org/2000/svg" xmlns:xlink="http://www.w3.org/1999/xlink">
    <!-- Generator: Sketch 51.2 (57519) - http://www.bohemiancoding.com/sketch -->
    <title>logo-tsb</title>
    <desc>Created with Sketch.</desc>
    <defs>
        <polygon id="path-1" points="1.28022267e-05 -5.68434189e-14 83.608782 -5.68434189e-14 83.608782 38.4745318 1.28022267e-05 38.4745318"></polygon>
    </defs>
    <g id="Page-1" stroke="none" stroke-width="1" fill="none" fill-rule="evenodd">
        <g id="Group-3">
            <mask id="mask-2" fill="white">
                <use xlink:href="#path-1"></use>
            </mask>
            <g id="Clip-2"></g>
            <path d="M69.3809122,6.73400964 C69.1531606,6.79942902 68.8939155,6.81965654 68.6121385,6.81965654 C67.3699384,6.81965654 66.9370951,6.2922048 66.9370951,4.18419015 C66.9370951,2.10562063 67.3812044,1.54424299 68.8286241,1.54424299 C69.4350656,1.54424299 70.0933561,1.67508175 70.6005803,1.88017342 L70.7718741,0.369766713 C70.2128009,0.142015101 69.4350656,-8.96155868e-05 68.7315832,-8.96155868e-05 C66.2359172,-8.96155868e-05 65.1560493,1.30752982 65.1560493,4.20454569 C65.1560493,7.03614219 66.1164724,8.39791504 68.6572023,8.39791504 C69.477825,8.39791504 70.3526012,8.21522727 70.9027129,7.95367778 L70.9027129,3.85734931 L69.3809122,3.85734931 L69.3809122,6.73400964 Z M62.842943,4.19327973 C62.842943,7.25262784 61.893914,8.38652106 59.5920736,8.38652106 C57.3331207,8.38652106 56.3365954,7.18720847 56.3365954,4.19327973 C56.3365954,1.199351 57.2902332,0.0113043662 59.5920736,0.0113043662 C61.893914,0.0113043662 62.842943,1.199351 62.842943,4.19327973 Z M61.0620253,4.19327973 C61.0620253,2.04250565 60.6944733,1.58713045 59.5920736,1.58713045 C58.4986354,1.58713045 58.1199456,2.05377161 58.1199456,4.19327973 C58.1199456,6.34392579 58.4986354,6.82196094 59.6010352,6.82196094 C60.6944733,6.82196094 61.0620253,6.33278786 61.0620253,4.19327973 Z M18.7413205,8.38652106 C19.3792554,8.38652106 20.0804334,8.22418883 20.5561641,7.98747566 L20.3847423,6.54914549 C19.9835205,6.73400964 19.5190557,6.85345442 18.991604,6.85345442 C17.6591482,6.85345442 17.1948115,6.25840692 17.1948115,4.13912632 C17.1948115,2.15068447 17.6366163,1.57586449 18.9578061,1.57586449 C19.4875623,1.57586449 19.9924821,1.68634771 20.360034,1.82614802 L20.5358086,0.324702875 C20.1233208,0.142015101 19.4108769,-8.96155868e-05 18.8405377,-8.96155868e-05 C16.4711016,-8.96155868e-05 15.4137657,1.35937884 15.4137657,4.13912632 C15.4137657,7.09247199 16.4823676,8.38652106 18.7413205,8.38652106 Z M73.7861584,8.24454437 L75.5243167,8.24454437 L75.5243167,0.142015101 L74.6563257,0.142015101 L73.7861584,0.142015101 L73.7861584,8.24454437 Z M43.8942393,8.38652106 C41.6375908,8.38652106 40.6433699,7.18720847 40.6433699,4.19545611 C40.6433699,1.199351 41.5947033,0.0113043662 43.8942393,0.0113043662 C46.198256,0.0113043662 47.1474131,1.199351 47.1474131,4.19545611 C47.1474131,7.25262784 46.198256,8.38652106 43.8942393,8.38652106 Z M45.3663673,4.19545611 C45.3663673,2.04250565 44.9989434,1.58713045 43.8942393,1.58713045 C42.8031055,1.58713045 42.4244156,2.05377161 42.4244156,4.19545611 C42.4244156,6.34392579 42.8031055,6.81965654 43.9055053,6.81965654 C44.9989434,6.81965654 45.3663673,6.33278786 45.3663673,4.19545611 Z M13.1051402,6.71147772 L9.76401505,6.71147772 L9.76401505,4.78845525 L12.4355837,4.78845525 L12.4355837,3.36369545 L9.76401505,3.36369545 L9.76401505,1.69530926 L12.9451123,1.69530926 L12.9113145,0.142015101 L8.07092057,0.142015101 L8.07092057,8.24454437 L13.0623807,8.24454437 L13.1051402,6.71147772 Z M24.7967737,4.88536811 L27.3060101,4.88536811 L27.3060101,8.24454437 L29.001409,8.24454437 L29.001409,0.142015101 L27.3060101,0.142015101 L27.3060101,3.30954203 L24.7967737,3.30954203 L24.7967737,0.142015101 L23.1015028,0.142015101 L23.1015028,8.24454437 L24.7967737,8.24454437 L24.7967737,4.88536811 Z M54.5668156,6.66871829 L51.5842808,6.66871829 L51.5842808,0.1397107 L49.8799204,0.1397107 L49.8799204,8.24454437 L54.5263605,8.24454437 L54.5668156,6.66871829 Z M80.2699741,6.71147772 L80.2699741,4.78845525 L82.9415428,4.78845525 L82.9415428,3.36369545 L80.2699741,3.36369545 L80.2699741,1.69530926 L83.4464626,1.69530926 L83.4148411,0.142015101 L78.5745752,0.142015101 L78.5745752,8.24454437 L83.5659074,8.24454437 L83.6087948,6.71147772 L80.2699741,6.71147772 Z M1.97040351,8.24454437 L3.68602991,8.24454437 L3.68602991,1.72910714 L5.65411622,1.72910714 L5.62262274,0.142015101 L0.0450766401,0.142015101 L1.28022267e-05,1.72910714 L1.97040351,1.72910714 L1.97040351,8.24454437 Z M37.9875479,8.24454437 L37.9875479,0.142015101 L36.4973688,0.142015101 L36.4973688,4.18201377 L36.5177243,5.04552396 L36.4973688,5.0566619 L33.4921741,0.142015101 L32.0336164,0.142015101 L32.0336164,8.24454437 L33.5327571,8.24454437 L33.5327571,3.98806004 L33.5237956,3.11341191 L33.5440231,3.10214595 L33.9972219,3.85734931 L36.7769694,8.24454437 L37.9875479,8.24454437 Z M32.7324899,15.4813871 L27.1572482,15.4813871 L27.1143608,17.0684791 L29.0802707,17.0684791 L29.0802707,23.5860927 L30.7982015,23.5860927 L30.7982015,17.0684791 L32.7662878,17.0684791 L32.7324899,15.4813871 Z M40.891349,20.833486 L40.891349,15.4813871 L39.1959501,15.4813871 L39.1959501,20.810826 C39.1959501,21.7510215 38.8262218,22.138673 37.9177758,22.138673 C37.0092018,22.138673 36.6303839,21.7396276 36.6303839,20.810826 L36.6303839,15.4813871 L34.9260235,15.4813871 L34.9260235,20.833486 C34.9260235,22.7767359 35.9495615,23.725893 37.9177758,23.725893 C39.8858621,23.725893 40.891349,22.7767359 40.891349,20.833486 Z M24.8035589,18.8765376 L22.1545221,18.8765376 L22.1545221,17.0684791 L25.322049,17.0684791 L25.2995171,15.4813871 L20.4592513,15.4813871 L20.4592513,23.5860927 L22.1545221,23.5860927 L22.1545221,20.3779827 L24.7810269,20.3779827 L24.8035589,18.8765376 Z M48.2612068,19.5235621 L48.2837388,20.3870723 L48.2612068,20.3983383 L45.2560121,15.4813871 L43.7973264,15.4813871 L43.7973264,23.5860927 L45.2987716,23.5860927 L45.2987716,19.3297364 L45.2875056,18.4526559 L45.3100375,18.4436943 L45.7654127,19.1988977 L48.5429838,23.5860927 L49.751386,23.5860927 L49.751386,15.4813871 L48.2612068,15.4813871 L48.2612068,19.5235621 Z M2.96462443,22.2040923 C2.23873818,22.2040923 1.58031966,21.9990007 0.953650668,21.6652466 L0.728203456,23.1555538 C1.35487245,23.5229777 2.15526766,23.725893 2.99624593,23.725893 C4.74784659,23.725893 5.76459943,22.7767359 5.76459943,21.1873395 C5.76459943,18.5293412 2.39198084,19.0050719 2.39198084,17.7087185 C2.39198084,17.2533433 2.65122593,16.9084513 3.56876151,16.9084513 C4.12117759,16.9084513 4.70508715,17.0143257 5.30922423,17.2195454 L5.50535434,15.7542025 C4.94410472,15.492653 4.19773491,15.3528527 3.4628871,15.3528527 C1.58940924,15.3528527 0.757520555,16.412365 0.757520555,17.7830994 C0.757520555,20.4321361 4.13244355,19.9676714 4.13244355,21.2978227 C4.13244355,21.8906938 3.77628561,22.2040923 2.96462443,22.2040923 Z M9.57697452,23.5860927 L11.2926009,23.5860927 L11.2926009,17.0684791 L13.2606872,17.0684791 L13.2291937,15.4813871 L7.65164765,15.4813871 L7.60876019,17.0684791 L9.57697452,17.0684791 L9.57697452,23.5860927 Z M17.3638009,15.4813871 L16.4959379,15.4813871 L15.6256426,15.4813871 L15.6256426,23.5860927 L17.3638009,23.5860927 L17.3638009,15.4813871 Z M56.6927533,22.075558 C56.4651297,22.1409774 56.208061,22.1613329 55.926284,22.1613329 C54.6819076,22.1613329 54.2489363,21.6314487 54.2489363,19.5235621 C54.2489363,17.447169 54.6931735,16.8857913 56.1427697,16.8857913 C56.7492111,16.8857913 57.4051972,17.0143257 57.9124215,17.2195454 L58.0860197,15.7090107 C57.52477,15.4813871 56.7492111,15.3437631 56.0435524,15.3437631 C53.5478863,15.3437631 52.4680185,16.6490782 52.4680185,19.546094 C52.4680185,22.3776905 53.4261372,23.737159 55.9691715,23.737159 C56.7920986,23.737159 57.6644423,23.5522948 58.214554,23.2952261 L58.214554,19.1988977 L56.6927533,19.1988977 L56.6927533,22.075558 Z M41.4369799,30.372041 L41.4369799,35.6542397 L41.4572074,36.5199263 L41.4369799,36.5311922 L40.9928707,35.7759889 L37.7801519,30.372041 L36.8445651,30.372041 L36.8445651,38.4745703 L37.7599244,38.4745703 L37.7599244,33.0300393 L37.7486584,32.1552631 L37.7733667,32.1439972 L38.2040336,32.9015049 L41.5879182,38.4745703 L42.3319836,38.4745703 L42.3319836,30.372041 L41.4369799,30.372041 Z M32.2026058,38.4745703 L33.2488037,38.4745703 L33.2488037,30.372041 L32.7257048,30.372041 L32.2026058,30.372041 L32.2026058,38.4745703 Z M4.87420457,34.1865924 C5.72849715,34.4029501 6.2358494,35.0184811 6.2358494,36.1749063 C6.2358494,37.633592 5.5459374,38.4745703 3.81456426,38.4745703 L1.06861466,38.4745703 L1.06861466,30.372041 L3.71765141,30.372041 C5.19886904,30.372041 5.94498281,31.0303315 5.94498281,32.3830148 C5.94498281,33.3749313 5.51213952,33.9363089 4.87420457,34.1640605 L4.87420457,34.1865924 Z M2.06283559,33.8618 L3.72891737,33.8618 C4.57207202,33.8618 4.9508899,33.4516166 4.9508899,32.5632701 C4.9508899,31.625507 4.56298244,31.2985381 3.68602991,31.2985381 L2.06283559,31.2985381 L2.06283559,33.8618 Z M3.82813462,37.570477 C4.71404871,37.570477 5.21000697,37.2030531 5.21000697,36.098349 C5.21000697,35.104128 4.75693617,34.6938167 3.78294276,34.6938167 L2.06283559,34.6938167 L2.06283559,37.570477 L3.82813462,37.570477 Z M20.3847423,34.810957 L22.3191588,38.4745703 L21.1084522,38.4745703 L19.4424984,35.0070872 L18.0267002,35.0070872 L18.0267002,38.4745703 L17.0008577,38.4745703 L17.0008577,30.372041 L19.4334088,30.372041 C21.0656927,30.372041 21.8321621,31.0732189 21.8321621,32.6624874 C21.8321621,33.9363089 21.3226334,34.6396633 20.3847423,34.810957 Z M20.7748262,32.7030704 C20.7748262,31.6457345 20.3622104,31.2895766 19.4424984,31.2895766 L18.0267002,31.2895766 L18.0267002,34.1640605 L19.4017873,34.1640605 C20.3510724,34.1640605 20.7748262,33.7965086 20.7748262,32.7030704 Z M9.36727404,30.372041 L9.36727404,38.4745703 L14.0024482,38.4745703 L14.0339417,37.5164516 L10.3929884,37.5164516 L10.3929884,34.7027782 L13.3622089,34.7027782 L13.3622089,33.8077746 L10.3929884,33.8077746 L10.3929884,31.34373 L13.8604715,31.34373 L13.840116,30.372041 L9.36727404,30.372041 Z M26.0953035,30.372041 L26.0953035,37.4937917 L29.4476946,37.4937917 L29.4115923,38.4745703 L25.0606276,38.4745703 L25.0606276,30.372041 L26.0953035,30.372041 Z" id="Fill-1" fill="#FEFEFE" mask="url(#mask-2)"></path>
        </g>
    </g>
</svg>